<svg width="84" height="74" viewBox="0 0 84 74" fill="none" xmlns="http://www.w3.org/2000/svg">
<g id="Group">
<g id="Group_2">
<g id="Group_3">
<path id="Vector" d="M23.948 29.2857C23.9629 29.2842 23.9782 29.2835 23.9935 29.2835C24.1241 29.2835 24.249 29.3382 24.3373 29.4344L49.7001 56.9771C49.7793 57.063 49.8234 57.1753 49.8236 57.2919C49.8238 57.3378 49.8263 58.4287 49.6897 59.5529C49.475 61.3191 49.0362 62.1748 48.308 62.2462C48.2893 62.2481 48.2705 62.2492 48.2517 62.2499C48.1238 62.2543 47.9994 62.2059 47.908 62.1163C47.8167 62.0263 47.7661 61.903 47.7682 61.7749C47.7835 60.8774 47.4171 59.8081 47.0478 58.964C47.056 60.002 47.2029 61.4995 47.7613 63.3149C47.8246 63.5202 47.7396 63.7421 47.5556 63.8527C47.4946 63.8896 47.4279 63.9109 47.3603 63.9174C47.2242 63.9307 47.0856 63.8841 46.984 63.7828C45.9224 62.7208 45.4823 61.3922 45.0568 60.1072C44.8995 59.6326 44.74 59.1508 44.5476 58.6736C44.265 59.8608 43.5886 60.8335 43.5433 60.8975C43.463 61.0112 43.3389 61.0803 43.2067 61.0932C43.14 61.0996 43.0714 61.092 43.005 61.0686C42.8075 60.9985 42.6808 60.8054 42.6952 60.5966C42.6956 60.5898 42.7133 60.1448 42.4956 59.3288C42.4723 60.0366 42.4017 60.548 42.3945 60.5992C42.3639 60.8139 42.1902 60.9777 41.9775 60.9985C41.9654 60.9995 41.9535 61.0004 41.9413 61.0006C41.7122 61.0054 41.5138 60.8436 41.472 60.6182C41.192 59.1054 40.1671 57.8499 39.5085 57.1756C39.0823 58.6334 38.1428 60.0758 38.0954 60.148C38.0147 60.271 37.8857 60.3435 37.7497 60.3567C37.6481 60.3668 37.5425 60.3436 37.4502 60.2836C37.2345 60.1438 37.1722 59.8558 37.311 59.6393C37.3372 59.596 37.9242 58.5914 37.0388 57.0545C36.8078 58.1357 37.1772 60.1461 37.6041 61.5059C37.6766 61.7371 37.5604 61.9857 37.3363 62.0781C37.2929 62.0961 37.2483 62.1069 37.2036 62.1112C37.0178 62.1294 36.8331 62.0345 36.743 61.861C36.7082 61.7939 35.9078 60.2394 34.106 55.9815C33.6461 56.8272 34.0733 58.1671 34.0785 58.1833C34.1574 58.4248 34.029 58.6856 33.7891 58.7697C33.7529 58.7825 33.7158 58.7905 33.6792 58.794C33.4736 58.8141 33.2727 58.6955 33.1968 58.4936C33.1739 58.4328 32.7126 57.1751 32.6695 54.7696C31.7709 55.5482 30.4054 56.2771 29.2537 56.3898C28.6252 56.4512 28.1004 56.3295 27.6935 56.028C27.551 55.9224 27.4806 55.7455 27.5116 55.5711C27.5425 55.3965 27.6696 55.2546 27.8394 55.2044C28.7139 54.9458 29.3009 54.4806 29.6339 53.782C30.157 52.6851 29.9194 51.268 29.6852 50.4014C29.1444 51.1353 28.3592 52.3917 28.235 53.6366C28.215 53.8383 28.067 54.004 27.8688 54.0471C27.8511 54.051 27.8331 54.0537 27.8152 54.0556C27.6349 54.0734 27.4582 53.9847 27.3656 53.825C26.6111 52.5251 26.8565 50.4117 27.1543 48.9862C26.0515 50.0552 24.7375 51.6355 24.713 52.9389C24.7092 53.1389 24.5788 53.314 24.3886 53.375C24.3563 53.3853 24.3237 53.392 24.291 53.3952C24.1304 53.411 23.9699 53.3424 23.8709 53.2093C21.7594 50.3746 23.093 47.2773 24.1611 45.5871C23.6647 45.7287 23.0836 45.8584 22.4799 45.9173C21.2244 46.0401 20.2052 45.8254 19.451 45.279C19.2938 45.1651 19.2232 44.9657 19.2741 44.7782C19.325 44.5906 19.4863 44.4542 19.6797 44.4354C20.5596 44.3493 21.5841 43.4295 22.4599 42.4014C21.8218 42.7882 21.1121 43.1381 20.3909 43.3438C20.3637 43.3514 20.336 43.3567 20.3082 43.3594C20.2114 43.3688 20.1133 43.348 20.028 43.2985C19.9182 43.2348 19.839 43.1291 19.8087 43.0058C19.7636 42.8227 19.7721 42.6115 19.8232 42.3801C19.3993 43.0684 18.9893 43.8493 18.6177 44.7301C18.5508 44.8889 18.4023 44.9969 18.2327 45.0136C18.2201 45.0149 18.207 45.0156 18.194 45.0157C18.0088 45.0186 17.8393 44.9116 17.762 44.743C16.4589 41.8998 18.4442 37.961 19.5801 36.0837C18.9676 36.2374 18.1912 36.3992 17.405 36.4764C15.9184 36.6219 14.8391 36.4134 14.1968 35.8569C14.036 35.7175 13.9895 35.4872 14.0838 35.2964C14.1569 35.1488 14.2997 35.0539 14.4574 35.0384C14.5034 35.034 14.5508 35.0363 14.5981 35.0461C14.837 35.0957 15.1024 35.1068 15.3876 35.0789C18.7203 34.7529 23.6003 29.4876 23.6491 29.4345C23.7278 29.3494 23.8343 29.2968 23.948 29.2857Z" fill="url(#paint0_linear_2228_2248)"/>
<path id="Vector_2" d="M20.2549 35.46C20.2549 35.46 16.3065 40.9276 17.8808 44.3622C20.0061 39.3234 23.3745 37.6129 23.3745 37.6129C23.3745 37.6129 19.5574 41.4776 19.8757 42.7722C22.0092 42.164 24.0954 40.1121 24.0954 40.1121C24.0954 40.1121 21.5464 44.4866 19.359 44.7005C21.29 46.0989 24.8606 44.4383 24.8606 44.4383C24.8606 44.4383 20.9258 48.6878 23.7044 52.4186C23.7487 50.0679 27.2994 47.3299 27.2994 47.3299C27.2994 47.3299 26.0309 51.2248 27.0922 53.0533C27.2937 51.0323 29.1021 49.061 29.1021 49.061C29.1021 49.061 31.1234 53.901 27.2861 55.0357C28.6839 56.0723 31.9418 53.9081 32.2693 52.9085C32.1282 56.0113 32.7292 57.6087 32.7292 57.6087C32.7292 57.6087 32.0003 55.4036 33.3311 54.5483C35.2653 59.155 36.1161 60.7969 36.1161 60.7969C36.1161 60.7969 34.8128 56.6458 35.9429 55.5001C37.5991 57.6154 36.6411 59.1103 36.6411 59.1103C36.6411 59.1103 37.9146 57.1705 38.1023 55.6339C38.1023 55.6339 40.2648 57.3546 40.7042 59.7269C40.7042 59.7269 41.1137 56.8575 40.2695 55.2836C41.9993 58.1508 41.8862 59.8181 41.8862 59.8181C41.8862 59.8181 43.4441 57.6112 42.6744 55.9877C44.2816 58.2035 44.1191 60.7727 45.8785 62.5329C44.7655 58.9152 45.2967 56.5858 45.2967 56.5858C45.2967 56.5858 46.7955 59.0615 46.7637 60.928C47.8571 60.89 47.8411 56.6128 47.8411 56.6128L23.4613 30.1378C23.4613 30.1378 17.7254 36.3716 14.3392 35.6676C15.8425 36.9703 20.2549 35.46 20.2549 35.46Z" fill="#318063"/>
</g>
<path id="Vector_3" d="M45.1361 54.4636C45.1824 54.5681 45.2658 54.6526 45.371 54.6999C45.4369 54.7296 51.9707 57.7094 53.3267 60.768C53.4427 61.0299 53.5158 61.2854 53.5437 61.5276C53.5492 61.5753 53.5619 61.6211 53.5806 61.6635C53.6446 61.8081 53.7798 61.9139 53.9431 61.9369C54.1537 61.9666 54.3579 61.85 54.4397 61.6536C54.766 60.8691 54.6246 59.7788 54.019 58.4134C53.6989 57.6913 53.3009 57.0052 52.9626 56.472C55.1017 56.9603 59.465 57.6063 61.7542 55.4753C61.8898 55.349 61.9381 55.1545 61.8772 54.9794C61.8728 54.9672 61.8682 54.9551 61.863 54.9436C61.794 54.7879 61.6448 54.681 61.4728 54.6673C60.5198 54.5915 59.6499 54.4476 58.8631 54.2617C59.0989 54.2374 59.3019 54.1792 59.4618 54.0789C59.5693 54.0115 59.6447 53.9031 59.6706 53.7789C59.6909 53.6824 59.6799 53.5826 59.6403 53.4937C59.6289 53.4682 59.6153 53.4435 59.5995 53.4203C59.1777 52.8009 58.6234 52.2377 58.0562 51.7542C59.3069 52.2625 60.5014 52.9456 60.8591 53.7523C60.9377 53.9299 61.1183 54.0402 61.3121 54.0296C61.506 54.0188 61.6732 53.8892 61.7319 53.7042C62.0133 52.8163 61.8967 51.7813 61.3852 50.6282C61.1394 50.0737 60.8335 49.5627 60.5431 49.136C62.4833 49.6184 65.8429 49.9105 67.8702 47.0151C67.9655 46.879 67.98 46.7051 67.9146 46.5577C67.9013 46.5277 67.8848 46.4988 67.8649 46.4714C67.7471 46.31 67.5397 46.2413 67.3487 46.3006C66.1039 46.687 64.1904 45.9365 62.829 45.2255C64.2758 45.0601 66.3592 44.6286 67.356 43.5037C67.4785 43.3656 67.507 43.1699 67.4335 43.0045C67.4263 42.988 67.4181 42.9721 67.4087 42.9563C67.3056 42.7815 67.1018 42.6933 66.9039 42.7379C65.6832 43.0115 64.2438 42.6612 63.3769 42.3784C64.1258 41.8839 65.3964 41.2126 66.6021 41.3643C67.3699 41.461 67.996 41.8718 68.5164 42.6208C68.6176 42.7663 68.7924 42.842 68.9677 42.8165C69.143 42.7909 69.2888 42.6685 69.3443 42.5001C69.5028 42.0191 69.4535 41.4825 69.1973 40.9052C68.7281 39.8473 67.6067 38.7802 66.5852 38.1718C68.8552 37.3746 69.904 36.5411 69.9545 36.5002C70.1224 36.3646 70.1721 36.1364 70.0883 35.9473C70.0732 35.9134 70.0541 35.8808 70.0303 35.8502C69.8745 35.649 69.5864 35.6096 69.3821 35.7613C69.3688 35.7711 68.2315 36.5979 67.2842 36.4271C70.7597 33.3777 71.9837 32.1292 72.0364 32.0751C72.1728 31.9351 72.2048 31.73 72.1292 31.5593C72.1109 31.5184 72.0866 31.4795 72.0559 31.4438C71.8978 31.2602 71.6254 31.2277 71.4287 31.3695C70.2713 32.2018 68.479 33.1843 67.3805 33.3055C68.581 31.958 69.7356 32.2315 69.7485 32.2348C69.9977 32.2983 70.2516 32.1488 70.3165 31.9C70.3442 31.7935 70.3332 31.686 70.2917 31.5927C70.2363 31.4678 70.127 31.3684 69.9849 31.3303C69.9017 31.3081 68.2379 30.87 66.7203 30.9234C67.155 30.0852 68.0264 28.716 69.3697 27.9773C69.5702 27.8669 69.6614 27.6274 69.5851 27.4116C69.581 27.4001 69.5766 27.3889 69.5716 27.3779C69.4849 27.1826 69.275 27.0692 69.0617 27.1075C69.0109 27.1167 68.5033 27.2102 67.8244 27.4107C68.531 26.9476 68.9598 26.8243 68.9682 26.822C69.169 26.767 69.311 26.5853 69.3138 26.377C69.3147 26.3073 69.3005 26.2402 69.2735 26.1795C69.22 26.0589 69.1165 25.9632 68.984 25.923C68.9089 25.9001 67.7728 25.5638 66.5572 25.6687C66.9495 25.336 67.3567 25.0331 67.7579 24.7345C68.8438 23.9265 69.967 23.0911 70.6414 21.7495C70.7058 21.6213 70.7063 21.4749 70.651 21.35C70.6235 21.288 70.5823 21.2312 70.528 21.1848C70.3651 21.0449 70.1279 21.0341 69.9528 21.1585C68.405 22.2595 67.0299 22.8695 66.0469 23.2038C66.732 22.5879 67.6321 21.9039 68.4886 21.6362C68.611 21.5978 68.7122 21.5112 68.7688 21.3961C68.8252 21.2811 68.8321 21.1479 68.7876 21.0277C68.781 21.0098 68.7739 20.9924 68.7663 20.9756C68.4698 20.3068 67.5194 20.1592 65.7753 20.5109C64.665 20.7346 63.6303 21.0799 63.5868 21.0943C63.4761 21.1315 63.3833 21.2087 63.3267 21.3107L45.1548 54.0468C45.0912 54.1611 45.0786 54.2964 45.1198 54.4206C45.1246 54.4357 45.1299 54.4499 45.1361 54.4636Z" fill="url(#paint1_linear_2228_2248)"/>
<path id="Vector_4" d="M66.0977 21.9096C64.3159 22.4664 62.4371 24.6675 62.4371 24.6675C62.4371 24.6675 64.8152 24.4395 67.8996 22.2455C66.7817 24.4691 64.2916 25.1224 62.6936 27.345C63.9926 26.1038 66.5775 26.8888 66.5775 26.8888C66.5775 26.8888 64.9593 27.3057 62.7813 29.8493C64.0098 28.5533 66.8625 28.0396 66.8625 28.0396C64.7483 29.2023 63.7948 31.7964 63.7948 31.7964C65.3126 31.4916 67.5544 32.0904 67.5544 32.0904C67.5544 32.0904 65.834 31.6511 64.3466 33.8884C65.7895 34.6009 69.3204 32.0587 69.3204 32.0587C69.3204 32.0587 68.0293 33.3825 64.2643 36.667C65.4946 37.6617 67.3587 36.2763 67.3587 36.2763C67.3587 36.2763 66.031 37.3489 63.0414 38.1904C64.0936 38.1873 67.1719 40.5995 66.6277 42.2523C64.3441 38.9662 60.3851 42.4068 60.3851 42.4068C60.3851 42.4068 62.8249 43.5039 64.8067 43.0598C63.4046 44.6421 59.3086 44.6625 59.3086 44.6625C59.3086 44.6625 63.0238 47.1723 65.2693 46.4752C62.6012 50.2859 57.33 47.8867 57.33 47.8867C57.33 47.8867 60.0289 50.7542 59.3087 53.0269C58.4178 51.0179 53.4639 49.9735 53.4639 49.9735C53.4639 49.9735 56.0676 51.3089 57.3156 53.1428C56.1866 53.852 51.318 51.4437 51.318 51.4437C51.318 51.4437 54.0008 54.1034 59.4523 54.5367C56.6868 57.111 50.2552 55.0818 50.2552 55.0818C50.2552 55.0818 53.0764 58.7959 52.3127 60.632C51.9163 57.1961 44.1954 53.7109 44.1954 53.7109L61.6629 22.2439C61.6626 22.2436 65.7178 20.8839 66.0977 21.9096Z" fill="#318063"/>
</g>
<path id="Vector_5" d="M73.0291 23.6315C72.919 19.1306 72.111 15.8299 71.1195 15.6799C47.8728 15.2298 24.9199 15.2298 2.33421 15.6799C2.07714 15.6799 1.82006 15.9799 1.59971 16.43C1.41609 16.7301 1.23247 17.3302 1.08557 17.9303C0.938671 18.5305 0.828497 19.2806 0.718323 20.0308C0.571424 20.931 0.461251 21.8312 0.387801 22.7313C0.240903 24.0816 0.130728 25.732 0.0940038 27.2323C-0.0528948 32.9335 -0.01617 38.4847 0.130729 44.1859C0.240902 48.5368 1.04884 51.9875 2.04041 51.9875C24.5893 53.3378 47.5055 53.3378 70.7889 51.9875C71.2664 51.9875 71.7438 51.0873 72.111 49.587C72.1845 49.2869 72.2212 49.1369 72.2946 48.8369C72.3314 48.6868 72.3681 48.5368 72.3681 48.3868C72.4415 47.9367 72.4783 47.4866 72.5517 46.8864C72.6619 45.9862 72.7721 44.936 72.8822 43.8858C72.919 43.5857 72.9557 43.2857 72.9557 42.9856C72.9557 42.6856 72.9924 42.5355 72.9924 42.2355C73.0291 41.6353 73.0659 41.0352 73.0659 40.4351C73.1393 34.7339 73.176 29.1827 73.0291 23.6315Z" fill="url(#paint2_linear_2228_2248)"/>
<path id="Vector_6" d="M73.0657 33.2337C73.0657 35.6342 73.029 38.0347 72.9923 40.4353C72.9556 41.3354 72.9188 42.2356 72.8454 43.1358C72.7719 43.7359 72.6985 44.3361 72.625 44.9362C72.2578 47.0366 71.7069 48.3869 71.1193 48.3869C70.8623 48.3869 70.5685 48.3869 70.3114 48.3869C69.6136 48.3869 68.9526 48.537 68.2548 48.537C67.557 48.537 66.896 48.537 66.1982 48.687C65.5005 48.687 64.8394 48.687 64.1416 48.837C63.554 48.837 63.0032 48.837 62.4156 48.9871C62.3054 48.9871 62.1952 48.9871 62.0851 48.9871C61.3873 48.9871 60.7262 48.987 60.0285 49.1371C59.8081 49.1371 59.6245 49.1371 59.4042 49.1371C59.1838 49.1371 59.0002 48.9871 58.7798 48.9871C58.7431 48.9871 58.7064 48.987 58.6697 48.837C58.5962 48.687 58.5962 48.3869 58.5962 48.0869C58.5962 47.6368 58.5595 47.0366 58.5595 46.5865C58.5228 45.6863 58.5228 44.7862 58.5228 43.7359C58.5228 45.0862 58.4493 46.4365 58.3391 47.6368C58.3391 47.7868 58.3024 47.9368 58.3024 47.9368C58.2657 48.2369 58.229 48.687 58.1188 48.837C58.0454 48.837 57.9719 48.687 57.8985 48.687C57.8617 48.687 57.825 48.837 57.7883 48.9871C57.7516 48.9871 57.7516 48.987 57.7148 49.1371C57.5312 49.2871 57.3109 49.1371 57.1272 49.1371C56.7233 49.1371 56.3193 49.1371 55.9153 49.1371C55.2176 49.1371 54.5565 49.1371 53.8587 49.1371C53.2711 49.1371 52.7203 49.1371 52.1327 49.1371C52.0225 49.1371 51.9123 49.1371 51.8022 49.1371C51.4716 49.1371 51.1044 49.1371 50.7739 49.1371C50.4434 49.1371 50.1128 49.1371 49.7823 49.1371C49.0845 49.1371 48.4235 49.1371 47.7257 49.1371C47.0647 49.1371 46.3669 49.1371 45.6691 49.1371C45.3754 49.1371 45.0448 49.1371 44.751 49.1371C44.3838 49.1371 43.9798 49.1371 43.6126 49.1371C42.9883 49.1371 42.3639 49.1371 41.7396 49.1371H41.1153C40.8215 49.1371 40.5277 49.1371 40.2706 49.1371C40.1237 49.1371 39.9401 49.1371 39.7565 49.1371C39.3892 49.1371 39.022 49.1371 38.6915 49.1371C38.214 48.987 37.553 50.0373 37.149 48.3869C37.1123 48.2369 37.0756 48.0869 37.0389 47.7868C36.9287 47.1867 36.892 46.4365 36.8185 45.6864C36.8185 46.5866 36.8185 47.6368 36.8185 48.537C36.8185 48.837 36.8185 49.1371 36.8185 49.2871C36.5247 49.1371 36.2676 48.987 35.9738 48.837C35.7902 48.837 35.6066 48.687 35.4597 48.687C35.3863 48.687 35.3128 48.687 35.2761 48.687C35.2761 48.687 35.2761 48.687 35.2394 48.687C35.0557 48.687 34.9088 48.837 34.7619 49.1371C34.615 47.9368 34.4314 46.7366 34.2845 45.6864C34.1743 44.9362 34.0642 44.186 33.954 43.2858C34.0642 44.7862 34.1376 46.1364 34.2478 47.6368C34.2478 47.7868 34.2478 47.9368 34.2845 48.0869C34.2845 48.2369 34.2845 48.537 34.2478 48.687C34.1743 48.9871 34.0642 48.837 33.954 48.837C33.9173 48.837 33.8805 48.987 33.8438 49.1371C33.7336 49.4371 33.5867 49.2871 33.4766 49.2871C32.8155 49.2871 32.1178 49.2871 31.4567 49.2871C30.7957 49.2871 30.0979 49.2871 29.4369 49.2871C29.0329 49.2871 28.6289 49.2871 28.2249 49.2871H28.1515C27.8944 49.2871 27.6741 49.2871 27.417 49.2871C26.756 49.2871 26.0582 49.2871 25.3972 49.2871C25.2135 49.2871 25.0299 49.2871 24.8096 49.2871C24.3321 49.2871 23.8547 49.2871 23.3773 49.2871C22.8999 49.2871 22.4225 49.2871 21.945 49.2871C21.7614 49.2871 21.5778 49.2871 21.3574 49.2871C20.6964 49.2871 19.9986 49.2871 19.3376 49.2871C18.6765 49.2871 17.9788 49.2871 17.3177 49.2871C16.7301 49.2871 16.1425 49.2871 15.5549 49.2871C15.4815 49.2871 15.4081 49.2871 15.3346 49.2871C15.0775 49.2871 14.8205 49.2871 14.5634 49.2871C13.7922 49.2871 13.0209 49.1371 12.2497 49.1371C12.1763 49.1371 11.4051 49.2871 11.5152 48.537C11.552 48.3869 11.5887 48.2369 11.6254 48.0869C11.6989 47.6368 11.7723 47.1867 11.8458 46.5865C11.8825 46.4365 11.8825 46.1365 11.9192 45.9864C12.0294 45.0862 12.1396 44.3361 12.2865 43.5859C12.3232 43.4359 12.3599 43.1358 12.4334 42.9858C12.4701 42.8358 12.4701 42.8357 12.5068 42.8357C12.5435 42.8357 12.5803 42.8357 12.5803 42.8357C12.617 42.6857 12.3966 42.2356 12.3599 42.2356C12.2497 42.8358 12.1396 43.5859 12.0294 44.3361C11.9192 45.0862 11.809 45.6864 11.6989 46.4365C11.5887 47.1867 11.4785 47.9368 11.2949 48.537C11.2214 48.837 11.1113 48.987 11.0378 49.1371C10.5971 49.8872 9.97281 49.1371 9.53211 49.1371C8.90779 49.1371 8.24675 49.1371 7.62243 49.1371H7.4388C5.74947 48.987 4.06014 48.987 2.37081 48.837C1.37924 48.837 0.571298 45.3863 0.461124 41.0354C0.424399 39.9851 0.424399 38.9349 0.387675 37.8847C0.35095 36.6844 0.240776 34.8841 0.4244 33.8338C0.4244 33.6838 0.461124 33.5338 0.497848 33.5338C0.534573 33.3838 0.608022 33.3837 0.644747 33.3837C0.975269 33.2337 1.30579 33.2337 1.63631 33.0837C1.67304 33.0837 1.67304 33.0837 1.70976 33.0837C1.74649 33.2337 1.78321 33.3838 1.78321 33.6838C1.78321 33.9839 1.78321 34.1339 1.81994 34.434C1.81994 33.6838 1.81994 32.9337 1.81994 32.3335C1.81994 31.7334 1.81994 31.2833 1.81994 30.6832C1.78321 30.8332 1.78321 31.1333 1.78321 31.2833C1.74649 31.7334 1.70976 32.0335 1.59959 32.1835C1.56286 32.3335 1.52614 32.3335 1.48941 32.3335C1.41596 32.3335 1.34252 32.4836 1.26907 32.4836C1.12217 32.4836 0.938545 32.4836 0.791646 32.4836C0.754921 32.4836 0.681471 32.4836 0.644747 32.3335C0.571298 32.1835 0.534573 32.1835 0.497848 32.0335C0.461124 31.8834 0.461124 31.8834 0.461124 31.7334C0.461124 31.4333 0.4244 31.2833 0.4244 30.9832C0.35095 29.933 0.4244 28.7328 0.4244 27.6826C0.4244 26.4823 0.461124 25.282 0.497848 24.2318C0.608022 19.8809 1.41596 16.4302 2.40753 16.4302C2.84822 16.4302 3.28892 16.4302 3.72962 16.4302C4.06014 16.4302 4.39066 16.4302 4.72118 16.4302H4.83136C5.6393 16.4302 6.41052 16.4302 7.21846 16.4302C7.5857 16.4302 7.91622 16.4302 8.28347 16.4302C8.50382 16.4302 8.72417 16.4302 8.90779 16.4302C9.31176 16.4302 9.71573 16.4302 10.1197 16.4302C10.6338 16.4302 11.148 16.4302 11.6621 16.4302C12.1763 16.4302 12.6904 16.4302 13.2046 16.4302C13.7187 16.4302 14.2329 16.4302 14.747 16.4302C15.2612 16.4302 15.7753 16.4302 16.2894 16.4302C16.8036 16.4302 17.3177 16.4302 17.8319 16.4302H18.4562C18.6031 16.4302 18.7867 16.4302 18.9336 16.4302H19.0805C19.6314 16.4302 20.1823 16.4302 20.6964 16.4302C21.1371 16.4302 21.5778 16.4302 22.0552 16.4302H22.6061C23.01 16.4302 23.414 16.4302 23.818 16.4302C24.3321 16.4302 24.8463 16.4302 25.3604 16.4302C26.3153 16.4302 27.2701 16.4302 28.2249 16.4302H28.5555C29.547 16.4302 30.5386 16.4302 31.5669 16.4302H33.954C34.7619 16.4302 35.5699 16.4302 36.4145 16.4302C38.6547 16.4302 40.895 16.4302 43.1719 16.4302C43.7595 16.4302 44.3103 16.4302 44.8979 16.4302C45.5957 16.4302 46.2567 16.4302 46.9545 16.4302C47.6523 16.4302 48.3133 16.4302 49.0111 16.4302H49.5252C49.7456 16.4302 49.9292 16.4302 50.1496 16.4302H50.5535C51.2146 16.4302 51.8389 16.4302 52.4999 16.4302C53.0508 16.4302 53.5649 16.4302 54.1158 16.4302C57.4578 16.4302 60.7997 16.5802 64.1784 16.5802C64.9129 16.5802 65.6841 16.5802 66.4186 16.5802C66.7124 16.5802 67.0062 16.5802 67.3 16.5802C67.6305 16.5802 67.961 16.5802 68.2915 16.5802C69.2464 16.5802 70.2379 16.5802 71.1928 16.5802C72.0742 16.5802 72.8821 19.4308 73.0657 23.3316C73.0657 23.7817 73.0657 24.0818 73.0657 24.5319C73.0657 25.132 73.0657 25.7321 72.9923 26.3323C72.8821 27.0824 72.6985 27.6825 72.5516 28.2827C72.4047 28.7328 72.2578 29.1829 72.1109 29.6329C71.964 30.083 71.8171 30.6832 71.7436 31.4333C71.7069 31.7334 71.7069 32.0335 71.7069 32.3335C71.7069 32.7836 71.7069 33.2337 71.7436 33.6838C71.7436 33.0837 71.7804 32.4836 71.8538 31.8834C71.8905 31.5834 71.964 31.4333 72.0007 31.2833C72.2945 30.2331 72.5883 29.1829 72.8821 28.1326C72.9556 27.9826 72.9923 27.6825 73.0657 27.8326C73.1392 27.2324 73.0657 32.6336 73.0657 33.2337Z" fill="url(#paint3_linear_2228_2248)"/>
<path id="Vector_7" d="M1.81995 29.633V29.783C1.81995 29.9331 1.81995 30.0831 1.81995 30.3831V30.5332C1.81995 30.5332 1.81995 30.6832 1.78323 30.6832C1.7465 30.8333 1.70977 31.1333 1.67305 31.2833C1.63633 31.2833 1.63633 31.4334 1.5996 31.4334C1.52615 31.5834 1.41598 31.5834 1.34253 31.7334C1.41598 31.5834 1.48943 31.4334 1.56288 31.1333C1.5996 30.9833 1.63633 30.9833 1.63633 30.8332C1.63633 30.6832 1.63633 30.6832 1.67305 30.5332C1.67305 30.3831 1.67305 30.3832 1.67305 30.2331C1.67305 29.9331 1.70977 29.483 1.67305 29.1829C1.67305 29.1829 1.67305 29.0329 1.67305 28.8828V28.7328C1.70977 28.2827 1.70978 27.8326 1.70978 27.3825C1.70978 27.0824 1.70978 26.9324 1.70978 26.6323C1.70978 26.4823 1.70978 26.1823 1.70978 26.0322C1.81995 27.3825 1.81995 28.4327 1.81995 29.633Z" fill="#EB924D"/>
<path id="Vector_8" d="M73.066 33.2337C73.066 35.6342 73.0293 38.0347 72.9926 40.4352C72.9558 41.3354 72.9191 42.2356 72.8457 43.1358C72.7722 43.7359 72.6988 44.3361 72.6253 44.9362C72.6988 43.886 72.7355 42.9858 72.7722 41.9355C72.8824 39.0849 72.9191 36.0843 72.9191 33.0837C72.9191 31.5833 72.9191 30.083 72.9191 28.5827C72.9191 27.9826 72.8457 28.2827 72.7722 28.4327C72.5151 29.1829 72.2581 29.933 72.0377 30.9832C71.9276 31.4333 71.8541 32.0334 71.8174 32.6336C71.7072 33.5338 71.7072 34.584 71.7072 35.4842C71.7072 35.9343 71.7072 36.3844 71.7072 36.8345C71.7072 37.1345 71.6705 37.4346 71.6705 37.7347C71.6705 37.8847 71.6338 38.0347 71.6338 38.1848C71.6338 38.3348 71.597 38.4848 71.597 38.6348C71.5603 37.1345 71.5603 35.4842 71.5603 33.9839C71.5603 33.5338 71.5603 32.9336 71.597 32.4835C71.6338 32.1835 71.6705 31.8834 71.7439 31.5833C71.7439 32.0334 71.7439 32.4836 71.7807 32.9336C71.7807 32.3335 71.8174 31.7334 71.8908 31.1332C71.9276 30.8332 72.001 30.6832 72.0377 30.5331C72.3315 29.4829 72.6253 28.4327 72.9191 27.3825C72.9926 27.2324 73.0293 26.9324 73.1027 27.0824C73.1395 27.2324 73.066 32.6336 73.066 33.2337Z" fill="#EB924D"/>
<path id="Vector_9" d="M11.0012 48.6869C10.5605 49.4371 9.93616 48.6869 9.49547 48.6869C8.87115 48.6869 8.21011 48.6869 7.58579 48.6869C7.58579 48.5369 7.54906 48.3869 7.54906 48.3869C7.54906 48.3869 7.54906 48.3869 7.54906 48.2368C6.92474 44.7861 6.37387 41.3354 5.89645 37.2845C5.05179 30.233 4.61109 22.2814 3.65625 15.68C3.98677 15.68 4.31729 15.68 4.64782 15.68C4.72126 15.98 4.75799 16.2801 4.83144 16.5801C4.79471 16.2801 4.79471 15.98 4.79471 15.68C5.60266 15.68 6.37387 15.68 7.18182 15.68C7.73268 21.6812 8.32028 27.6825 8.98132 33.5337C9.53219 38.4848 10.3401 43.5859 11.0012 48.6869ZM12.1764 31.5833C11.1481 25.8821 10.0463 20.631 8.87115 15.5299C8.6508 15.5299 8.43045 15.5299 8.24683 15.5299C9.56892 21.2311 10.8176 27.3824 11.956 33.9838C12.8007 38.7848 13.6086 44.036 14.5267 48.987C14.7838 48.987 15.0409 48.987 15.298 48.987C15.3714 48.987 15.4449 48.987 15.5183 48.987C14.3798 43.2858 13.2414 37.5846 12.1764 31.5833ZM23.8548 32.7836C23.4876 26.9323 23.1203 21.0811 22.6062 15.3799H22.0553C22.4593 21.5312 22.7163 27.6825 22.9367 33.9838C22.9 33.8338 22.9 33.5337 22.8632 33.3837C22.2389 27.8325 21.5779 20.9311 20.7332 15.3799C20.1823 15.3799 19.6315 15.3799 19.1173 15.3799C19.3009 18.5305 19.5947 21.5312 19.8518 24.5318C20.2191 29.0328 20.623 33.5337 21.027 38.0347C21.3208 41.4854 21.5779 45.3862 21.9084 49.137C22.3858 49.137 22.8632 49.137 23.3407 49.137C23.8181 49.137 24.2955 49.137 24.7729 49.137C24.5893 43.7359 24.1853 38.0347 23.8548 32.7836ZM38.361 30.3831C37.8836 25.582 37.3695 20.481 36.5983 16.5801C36.5248 16.13 36.4514 15.83 36.3779 15.3799C35.5332 15.3799 34.6886 15.3799 33.8439 15.3799C33.9541 17.4803 34.1377 19.4307 34.2479 21.8313C34.5049 27.0824 34.9089 32.1835 35.2394 37.4346C35.3863 40.1351 35.6067 44.9361 36.0107 49.2871C36.3045 49.4371 36.5983 49.5871 36.8553 49.7372C36.8553 48.5369 36.8553 47.3366 36.8921 46.1364C36.9655 47.0366 37.0389 48.0868 37.2226 48.837C37.6265 50.4873 38.2876 49.4371 38.765 49.5871C39.1323 49.7372 39.4995 49.5871 39.83 49.5871C39.7566 42.8357 38.8017 34.5839 38.361 30.3831ZM44.7511 40.7353C44.7878 32.7836 45.1551 23.6316 44.8613 15.3799C44.2737 15.3799 43.7228 15.3799 43.1352 15.3799C42.4742 22.1313 42.2538 30.083 42.0335 36.9845C41.9601 39.685 41.703 44.6361 41.703 49.2871C42.3273 49.2871 42.9883 49.2871 43.6127 49.2871C43.9799 49.2871 44.3839 49.2871 44.7511 49.2871C44.7878 45.8363 44.7511 42.5356 44.7511 40.7353ZM52.4633 15.5299C52.1328 19.5808 51.9492 23.9317 51.6921 27.8325C51.2514 35.1841 50.8107 41.9355 50.774 49.2871C51.1045 49.2871 51.4717 49.2871 51.8023 49.2871C51.9124 49.2871 52.0226 49.2871 52.1328 49.2871C52.6102 43.2858 52.904 37.2845 53.2345 30.8332C53.4916 26.0321 53.8956 20.781 54.1159 15.5299C53.5283 15.5299 52.9774 15.5299 52.4633 15.5299ZM67.2266 15.68C66.7492 21.9813 66.235 28.1326 65.6842 34.2839C65.7943 32.0334 65.8678 29.6329 65.978 27.3824C66.1249 23.9317 66.3819 19.5808 66.3452 15.5299C65.6107 15.5299 64.8395 15.5299 64.105 15.5299C63.701 20.1809 63.4807 25.7321 63.2603 29.4829C62.8931 35.6342 62.379 42.2356 62.3422 48.837C62.9298 48.837 63.4807 48.837 64.0683 48.6869C64.7661 48.6869 65.4271 48.6869 66.1249 48.5369C66.4554 45.0862 66.7125 41.3354 66.9695 37.8846C67.5204 30.5331 67.9244 23.1816 68.1814 15.68C67.8876 15.68 67.5571 15.68 67.2266 15.68Z" fill="url(#paint4_linear_2228_2248)"/>
<path id="Vector_10" d="M48.8276 41.3353C48.9011 41.3353 48.9745 41.3353 49.048 41.4854C49.1214 41.4854 49.2316 41.6354 49.305 41.6354C49.3785 41.6354 49.4519 41.6354 49.4887 41.6354C50.1864 41.4853 50.8475 41.4854 51.5452 41.4854C52.243 41.4854 52.9041 41.3353 53.6018 41.3353C54.2996 41.3353 54.9606 41.1853 55.6584 41.1853C56.3562 41.1853 57.0172 41.0353 57.715 41.0353C58.4128 41.0353 59.0738 40.8852 59.7716 40.8852C60.4693 40.8852 61.1304 40.7352 61.8281 40.7352C62.5259 40.7352 63.187 40.5852 63.8847 40.5852C64.5825 40.5852 65.2435 40.4351 65.9413 40.4351C66.2351 40.4351 66.5289 40.4351 66.8594 40.4351C67.8143 40.4351 68.7691 40.2851 69.7239 39.985C70.1279 39.835 70.5319 39.685 70.8991 38.7848C71.2664 37.8846 71.6703 35.9342 71.5969 34.1338C71.5969 35.9342 71.5602 37.5845 71.5602 39.3849C71.5602 40.2851 71.5234 41.4853 71.3765 42.0855C71.2297 42.6856 71.0093 42.5356 70.8257 42.5356C69.0629 41.7854 67.3001 43.4358 65.5373 43.4358C64.509 43.4358 63.4808 42.9857 62.4525 42.8356C60.3592 42.6856 58.3393 42.5356 56.246 42.8356C54.4098 43.1357 52.6103 43.5858 50.774 43.1357C50.517 43.1357 50.2599 42.9857 50.0028 43.2857C49.8559 43.4358 49.709 43.7358 49.5254 43.8858C49.3418 44.0359 49.1949 43.8859 49.0112 43.7358C48.7175 43.5858 48.4604 43.4358 48.1666 43.1357C48.0197 42.9857 47.8728 42.8356 47.7626 42.8356C47.7259 42.8356 47.7259 42.8356 47.6892 42.8356C47.579 42.9857 47.5055 42.8356 47.3954 42.8356C47.0648 42.8356 46.7343 42.8356 46.4038 42.9857C44.9715 43.1357 43.5393 43.1357 42.107 43.2857C40.3075 43.4358 38.5447 41.9354 36.7452 43.1357C35.2395 44.1859 33.7338 42.6856 32.2281 43.4358C31.971 43.5858 31.7507 43.7358 31.4936 43.7358C31.1998 43.7358 30.9427 43.5858 30.6489 43.4358C29.5472 42.9857 28.4822 43.2857 27.3804 43.5858C27.3804 44.0359 27.3804 44.486 27.4172 44.786C27.0499 43.1357 26.499 43.1357 25.9849 43.1357C25.5442 43.1357 25.0668 43.1357 24.6261 43.1357C21.174 43.1357 17.7586 42.6856 14.3065 42.8356C13.5353 42.8356 12.8008 42.9857 12.0295 43.4358C12.2866 42.2355 12.7273 41.9354 13.0946 41.7854C14.7839 40.8852 16.4732 41.9355 18.1258 42.2355C19.705 42.5356 21.2841 41.4853 22.8266 40.8852C23.5978 40.5852 24.4057 40.4351 25.177 40.5852C25.5442 40.7352 25.8747 40.8852 26.242 41.0353C26.2787 41.0353 26.3521 41.0353 26.3889 41.0353C26.5358 40.8852 26.7194 41.0353 26.8663 41.1853C27.0499 41.1853 27.1968 41.3353 27.3804 41.3353C27.711 41.3353 28.0782 41.4854 28.4087 41.4854C29.1065 41.4854 29.7675 41.6354 30.4653 41.6354C31.1631 41.6354 31.8241 41.6354 32.5219 41.6354C33.2197 41.6354 33.8807 41.6354 34.5785 41.6354C34.7621 41.6354 34.9457 41.6354 35.0926 41.6354C37.2226 41.9354 39.3894 42.6856 41.5194 41.3353C41.6663 41.1853 41.8132 41.0353 41.9601 41.1853C42.0336 41.3353 42.107 41.1853 42.1805 41.1853C42.3641 41.1853 42.511 41.1853 42.6946 41.1853C43.0251 41.1853 43.3924 41.1853 43.7229 41.1853C44.2003 41.1853 44.7145 41.1853 45.1919 41.1853C45.9631 41.1853 46.771 41.3353 47.5423 41.3353C47.8728 41.3353 48.2033 41.3353 48.5338 41.4854C48.644 41.3353 48.7542 41.3353 48.8276 41.3353Z" fill="#EB924D"/>
<path id="Vector_11" d="M11.295 47.9365C11.1848 48.2365 11.1114 48.5366 11.0012 48.6866C10.5605 49.4368 9.93621 48.6866 9.49551 48.6866C8.87119 48.6866 8.21015 48.6866 7.58583 48.6866H7.4022C5.71287 48.5366 4.02354 48.5366 2.33421 48.3866C1.48954 48.3866 0.79177 45.836 0.534697 42.3853C0.351074 39.9848 0.351074 37.4342 0.351074 34.8837C0.351074 34.2836 0.351074 33.3834 0.497973 33.0833C0.534697 32.9333 0.608147 32.9333 0.681596 32.9333C0.938668 32.7833 1.19574 32.7833 1.45281 32.6332C1.56299 32.6332 1.63644 32.6332 1.70989 32.7833C1.78334 32.9333 1.85678 33.5334 1.78334 33.8335C1.78334 33.0833 1.78334 32.4832 1.82006 31.733C1.89351 31.733 2.00368 31.733 2.07713 31.583C2.04041 34.1335 2.04041 36.5341 2.04041 39.0846C2.04041 39.8348 2.07713 40.5849 2.18731 41.035C2.29748 41.3351 2.40765 41.3351 2.51783 41.3351C5.78632 41.6351 9.01809 41.7852 12.2866 41.9352C12.1764 42.5353 12.0662 43.2855 11.9561 43.8856C12.0295 43.5855 11.9928 42.8354 11.9193 42.5353C11.8459 42.2353 11.699 42.2353 11.5888 42.2353C8.61412 42.2353 5.6027 42.0852 2.628 41.9352C2.40765 41.9352 2.15058 41.9352 1.96696 41.1851C1.78334 40.4349 1.78333 39.3847 1.74661 38.3344C1.70989 36.9841 1.70989 35.4838 1.67316 34.1335C1.67316 33.8335 1.67316 33.5334 1.59971 33.2334C1.56299 33.0833 1.52626 32.9333 1.45281 32.9333C1.15902 32.6332 0.865219 32.9333 0.608147 33.5334C0.571422 33.6835 0.534697 33.8335 0.497973 33.9835C0.497973 34.1336 0.461248 34.2836 0.461248 34.4336C0.387799 36.6841 0.314349 40.7349 0.681596 42.5353C0.938668 43.7356 1.08557 45.3859 1.41609 46.2861C1.78334 47.4864 2.29748 47.6364 2.73818 47.6364C3.14215 47.7864 3.54612 47.7864 3.95009 47.9365C4.06026 47.9365 4.20716 48.0865 4.31733 48.0865C4.35406 48.0865 4.42751 48.0865 4.46423 48.0865C4.50096 48.0865 4.53768 48.0865 4.57441 47.9365C4.64786 47.7864 4.72131 47.3363 4.75803 47.0363C4.83148 46.5862 4.8682 45.9861 4.94165 45.536C4.90493 45.9861 4.8682 46.5862 4.8682 47.0363C4.8682 47.1863 4.8682 47.1863 4.8682 47.3363C4.8682 47.4864 4.90493 47.4864 4.94165 47.6364C5.05183 47.7864 5.19873 47.6364 5.3089 47.7864C5.56597 47.7864 5.82304 47.9365 6.08012 47.9365C6.59426 47.9365 7.10841 48.0865 7.62255 48.0865C7.87962 48.0865 8.1367 48.2365 8.39377 48.0865C8.4305 48.0865 8.46722 47.9365 8.50394 47.9365C8.57739 47.9365 8.61412 47.9365 8.68757 47.9365C8.83447 47.9365 8.94464 47.9365 9.09154 47.9365C9.42206 47.9365 9.78931 48.0865 10.1198 48.0865C10.3035 48.0865 10.5238 48.2365 10.7441 48.2365C11.0012 48.5366 11.1481 48.3866 11.295 47.9365Z" fill="#EB924D"/>
<path id="Vector_12" d="M36.1826 46C24.8366 46 13.5637 45.6067 2.62021 44.6236C2.36401 44.6236 2.18101 43.4438 2.14441 42.0674C1.99801 34.7921 1.99801 28.1067 2.10781 21.618C2.14441 20.2416 2.32741 19.2584 2.58361 19.0618C5.91423 19.0618 9.28146 18.8652 12.6121 18.8652C15.9793 18.8652 19.3099 18.8652 22.6771 18.6685C23.2261 18.6685 23.7752 19.2584 24.2876 18.0787C24.7268 16.8989 24.6582 17.2697 25.0242 15.5C24.8412 16.6798 25.0928 15.5225 24.9464 16.7023C24.9098 16.8989 24.8732 17.0955 24.8366 17.2921C24.7634 17.882 24.8732 18.0787 24.9464 18.0787C25.3124 18.2753 25.6784 18.2753 26.0444 18.4719C26.1908 18.4719 26.3738 18.4719 26.5202 18.4719C26.5934 18.4719 26.63 18.4719 26.7032 18.4719C26.7764 18.4719 26.8862 18.4719 26.9594 18.4719C27.2888 18.4719 27.6548 18.4719 27.9842 18.4719C28.1306 18.4719 28.2404 18.4719 28.3868 18.4719C29.0822 18.4719 29.741 18.4719 30.4364 18.4719C31.1318 18.4719 31.7906 18.4719 32.486 18.4719C33.1814 18.4719 33.8402 18.4719 34.5356 18.4719C35.1212 18.4719 35.6702 18.4719 36.2558 18.4719C37.9394 18.4719 39.6231 18.4719 41.3067 18.4719C42.1485 18.4719 43.0269 18.4719 43.8687 18.4719C44.0883 18.4719 44.2713 18.4719 44.4909 18.4719C44.5641 18.4719 44.6739 18.4719 44.7471 18.4719C44.8203 18.6685 44.8569 18.6685 44.8935 18.6685C45.0399 18.6685 45.1863 18.6685 45.3693 18.4719C45.4425 18.4719 45.5523 18.2753 45.6255 18.0787C45.7719 17.882 45.8817 17.2921 45.9915 16.8989C46.1013 16.5056 46.1745 15.9157 46.2843 15.5225C46.3941 15.1292 46.2259 15.7315 46.3357 15.3383C46.1893 15.9281 46.4821 14.7484 46.3357 15.3383C46.4455 14.7484 46.1745 16.1124 46.2843 15.5225C45.9183 18.2753 46.5039 15.5225 46.2477 18.6685C46.2477 18.4719 46.4673 18.4719 46.4673 18.4719C46.5405 18.4719 46.6503 18.4719 46.7235 18.2753C46.9065 18.2753 47.0529 18.2753 47.2359 18.4719C47.5653 18.6685 47.8947 18.6685 48.2241 18.6685C48.9195 18.6685 49.5783 18.6685 50.2737 18.6685C50.9691 18.6685 51.6279 18.6685 52.3233 18.6685C53.0187 18.6685 53.6776 18.6685 54.373 18.6685C55.0684 18.6685 55.7272 18.6685 56.4226 18.6685C57.118 18.6685 57.7768 18.6685 58.4722 18.6685C59.1676 18.6685 59.8264 18.6685 60.5218 18.6685C61.2172 18.6685 61.876 18.6685 62.5714 18.6685C63.2668 18.6685 63.9256 18.6685 64.621 18.6685C65.3164 18.6685 65.9752 18.6685 66.6706 18.6685C67.366 18.6685 68.0248 18.6685 68.7202 18.6685C69.4156 18.6685 70.0745 18.6685 70.7699 18.6685C70.8797 18.6685 71.0261 18.6685 71.1359 18.6685C71.3921 18.6685 71.5751 19.8483 71.6117 21.2247C71.7215 27.5169 71.7215 34.2022 71.5751 41.4775C71.5385 43.0505 71.3555 44.0337 71.0993 44.0337C59.314 45.4101 47.5653 46 36.1826 46Z" fill="url(#paint5_linear_2228_2248)"/>
<path id="Vector_13" d="M70.757 33.3117C70.8303 34.8701 70.8669 36.6883 70.8669 38.2467C70.8669 38.7662 70.7936 43.1818 70.7936 43.1818C70.427 43.1818 70.0604 43.1818 69.6938 43.1818C68.594 43.1818 67.4575 43.4415 66.3577 43.4415C66.1011 43.4415 65.8444 43.4415 65.5878 43.4415C64.598 43.4415 63.6448 43.7013 62.655 43.7013C62.2517 43.7013 61.8851 43.7013 61.4818 43.7013C61.4452 43.7013 61.3718 43.7013 61.3352 43.7013C61.1519 43.7013 60.9319 43.7013 60.7486 43.7013C59.6488 43.7013 58.5123 43.9611 57.4125 43.9611C56.0927 43.9611 54.7363 44.4805 53.3798 43.9611C53.2699 43.9611 53.1599 43.7013 53.1232 43.1818C53.0866 42.6623 53.1232 41.8831 53.1599 41.1039C53.2699 38.7662 53.3798 36.4286 53.5265 34.0909C53.2699 36.6883 53.0132 39.2857 52.72 41.8831C52.61 42.9221 52.5 43.7013 52.3534 44.2208C52.3167 44.2208 52.28 44.4805 52.28 44.4805C52.17 44.7403 52.0601 44.7403 51.9501 44.4805C51.8034 44.2208 51.6201 44.2208 51.4368 44.2208C51.2535 44.2208 51.0702 44.2208 50.9236 44.2208C50.7403 44.2208 50.5203 44.2208 50.337 44.2208C48.724 44.2208 47.1476 44.2208 45.5345 44.4805C45.1679 44.4805 44.7646 44.4805 44.398 44.4805C43.7015 44.4805 43.0416 44.4805 42.345 44.4805C41.1352 44.4805 39.9621 44.4805 38.7523 44.4805C37.8724 44.4805 37.0292 44.4805 36.1494 44.4805H33.7298C32.3734 44.4805 30.9803 44.4805 29.6238 44.4805H29.3305C28.0474 44.4805 26.801 44.4805 25.5178 44.4805C25.1879 44.4805 24.8213 44.4805 24.4913 44.4805H24.4547C24.308 44.4805 24.1247 44.4805 23.9781 44.4805C23.8681 44.4805 23.7581 44.4805 23.6481 44.4805C23.6115 44.4805 23.5382 44.4805 23.5015 44.4805C23.2082 45 22.9516 45 22.6583 45C22.585 45 22.5483 45 22.475 45C22.365 45 22.255 45 22.1451 45C22.0717 45 21.6685 44.7403 21.6685 45C21.8151 42.9221 21.9984 40.8442 22.1817 38.7663C22.2917 37.4676 22.4017 36.4286 22.5483 35.3896C22.4017 35.9091 22.255 36.6883 22.1084 37.4676C21.9251 38.5065 21.7785 39.8052 21.6318 40.8441C21.3752 42.6623 21.0452 44.4805 20.7153 44.4805C20.6053 44.4805 20.532 43.9611 20.422 43.9611C20.422 43.9611 20.422 43.9611 20.3854 43.9611C20.2754 43.9611 20.1654 43.9611 20.0921 43.9611C19.8721 43.9611 19.6155 43.9611 19.3955 43.9611C19.3222 43.9611 19.2855 43.961 19.2489 43.7013C19.2122 43.1818 19.2489 42.6623 19.2489 42.1428C19.3955 39.5454 19.5788 37.2078 19.7621 34.8701C19.4322 36.4286 19.2122 39.2857 18.9189 41.1039C18.7723 42.1429 18.6257 42.9221 18.4423 43.4415C18.259 43.961 18.1124 43.7013 17.9291 43.7013C17.8191 43.7013 17.7458 43.7013 17.6358 43.7013C17.0859 43.7013 16.536 43.7013 16.0228 43.7013C15.2529 43.7013 14.483 43.7013 13.7498 43.4415H12.7966C12.4667 43.4415 12.1734 43.4415 11.8801 43.4415C11.3669 43.4415 10.8536 43.4416 10.3404 43.1818C9.49718 43.1818 8.61732 42.9221 7.77413 42.9221C7.40753 42.9221 7.00426 42.9221 6.63765 42.9221C6.19773 42.9221 5.72114 42.9221 5.24455 42.6624C5.02459 42.6624 2.86162 42.6623 2.82496 42.4026C2.82496 41.3636 2.82496 40.065 2.7883 38.7663C2.75164 37.987 2.71498 37.4675 2.71498 36.948C2.67832 35.3896 2.75164 33.052 2.93494 32.2727C3.00826 32.013 3.08158 32.013 3.1549 32.013C3.77813 31.4935 4.40136 31.2338 4.98793 30.7143C5.02459 30.7143 5.06125 30.7143 5.09791 30.7143C4.47468 30.7143 3.85145 30.4545 3.22822 30.4545C3.08158 30.4545 2.93494 30.4545 2.82496 29.9351C2.75164 29.6753 2.71498 29.4156 2.71498 28.8961C2.71498 28.1169 2.75164 20.3247 2.75164 20.3247C3.55817 20.3247 4.32804 20.3247 5.13457 20.3247C6.23439 20.3247 7.29754 20.3247 8.39736 20.3247C8.91061 20.3247 9.38719 20.3247 9.90044 20.3247C10.3404 20.3247 10.817 20.3247 11.2569 20.3247C13.9698 20.3247 16.7193 20.0649 19.4688 20.0649C19.9821 20.0649 20.4953 20.0649 21.0086 20.0649C21.5218 20.0649 22.0351 20.0649 22.585 20.0649C22.8416 20.0649 23.0982 20.0649 23.3915 20.0649C25.0412 20.0649 26.691 20.0649 28.3407 20.0649H28.4873C30.5037 20.0649 32.52 20.0649 34.5363 20.0649H37.3959C38.2757 20.0649 39.1556 20.0649 40.0354 20.0649C40.2554 20.0649 40.4387 20.0649 40.6586 20.0649C40.8053 20.0649 40.9519 19.8052 41.0986 20.3247C41.2085 20.8442 41.3185 21.1039 41.4652 21.1039C41.5385 21.1039 41.9784 21.1039 41.9784 20.5844C41.9051 23.7013 41.7951 26.8182 41.6485 29.9351C41.9051 28.6364 42.0884 26.5585 42.2717 24.4805C42.3817 23.1818 42.4917 21.8831 42.6383 21.1039L42.675 20.8442C42.7483 20.3247 42.8216 20.0649 42.9316 20.0649C43.1516 20.0649 43.3349 20.3247 43.5548 20.3247C43.7015 20.3247 43.8481 20.5844 43.9948 20.5844C44.2147 20.8442 44.4347 20.5844 44.618 21.6234C44.1414 26.2987 43.6648 31.2338 43.1882 35.9091C43.1149 36.6883 43.0416 37.2078 43.0049 37.987C43.5548 34.3507 44.0681 30.1948 44.5447 26.039C44.6546 25 44.8013 23.961 44.9113 22.6623C44.9846 22.1428 45.0212 21.3637 45.1312 21.1039C45.2045 20.8442 45.2779 20.8442 45.3512 20.8442C46.5243 20.0649 47.6975 20.3247 48.9073 20.3247C49.8971 20.3247 50.8869 20.3247 51.8768 20.3247C52.2434 20.3247 52.61 20.3247 52.9766 20.3247H53.0499C54.3697 20.3247 55.7261 20.3247 57.0459 20.3247C58.4023 20.3247 59.7588 20.3247 61.1519 20.3247C61.4085 20.3247 61.6651 20.3247 61.8851 20.3247H62.325C62.7283 20.3247 63.1682 20.3247 63.5715 20.3247C64.1214 20.3247 64.708 20.3247 65.2579 20.3247C65.4412 20.3247 65.6245 20.3247 65.8078 20.3247C65.9544 20.3247 66.0644 20.3247 66.211 20.3247C66.651 20.3247 67.0909 20.3247 67.5308 20.3247C68.1541 20.3247 68.7773 20.3247 69.4005 20.3247C69.9138 20.3247 70.427 20.3247 70.9403 20.3247C70.9769 20.3247 70.9769 25.2598 70.9769 25.7792C70.9769 26.039 71.0136 26.2987 71.0136 26.5584C71.0136 27.3377 70.9769 28.1169 70.9036 28.6364C70.7936 29.1558 70.6836 29.4156 70.537 29.4156C69.3638 30.4546 68.2274 31.4935 67.0542 30.974C66.9076 30.974 66.7243 30.974 66.5776 30.7143C66.7243 30.974 66.8709 30.974 67.0542 30.974C68.2274 32.5325 69.5105 33.052 70.757 33.3117Z" fill="url(#paint6_linear_2228_2248)"/>
<path id="Vector_14" d="M73.0292 23.6313C73.0292 24.2314 73.0292 24.8316 72.9557 25.4317C73.1026 22.281 72.662 18.5302 71.9642 17.48C71.7071 17.1799 71.45 17.0299 71.193 17.0299C69.6505 16.7298 68.1081 16.2797 66.6024 16.1297C66.6024 16.1297 66.6024 16.1297 66.5657 16.1297C65.8679 15.9797 65.2068 15.9797 64.5091 15.8296C63.8113 15.8296 63.1503 15.6796 62.4525 15.6796C61.7547 15.6796 61.0937 15.6796 60.3959 15.6796C59.6982 15.6796 59.0371 15.6796 58.3393 15.6796C57.6416 15.6796 56.9805 15.8296 56.2828 15.8296C55.585 15.8296 54.924 15.9797 54.2262 15.9797C53.5284 15.9797 52.8674 16.1297 52.1696 16.1297C51.8391 16.1297 51.4718 16.1297 51.1413 16.2797C50.921 16.2797 50.7373 16.2797 50.517 16.1297C50.4803 16.1297 50.4436 15.9797 50.4068 15.9797C50.2966 15.8297 50.2232 15.6796 50.113 15.6796C49.9661 15.5296 49.8192 15.6796 49.6723 15.6796C49.2316 15.6796 48.8277 15.6796 48.387 15.6796C46.6976 15.6796 45.0083 15.5296 43.2822 15.5296C43.1353 15.5296 42.9884 15.5296 42.8415 15.5296C42.8048 15.5296 42.8048 15.5296 42.7681 15.6796C42.6946 15.8297 42.6212 15.9797 42.511 16.1297C42.3274 16.4298 42.1071 16.8799 41.9234 17.1799C41.9234 16.8799 41.9234 16.5798 41.9234 16.4298V16.2797H41.8867C41.7765 16.2797 41.6664 16.1297 41.5195 16.1297C41.4827 16.1297 41.4093 16.1297 41.3726 15.9797C41.3358 15.9797 41.2991 15.8296 41.2624 15.8296C41.1522 15.6796 41.042 15.8296 40.9319 15.8296C40.8217 15.8296 40.6748 15.8296 40.5646 15.8296C40.0505 15.8296 39.5363 15.8296 39.0222 15.8296C38.508 15.8296 37.9939 15.8296 37.4798 15.8296C36.9656 15.8296 36.4515 15.8296 35.9373 15.8296C35.4232 15.8296 34.909 15.8296 34.3949 15.8296C34.248 15.8296 34.1378 15.8296 33.9909 15.8296H33.8807C33.8073 15.8296 33.6971 15.8296 33.6237 15.8296C33.5502 15.8296 33.4768 15.6796 33.44 15.5296C33.3299 15.3796 33.2197 15.5296 33.1095 15.5296C32.8157 15.5296 32.4852 15.5296 32.1914 15.5296C31.6773 15.5296 31.1631 15.6796 30.649 15.6796C30.1348 15.6796 29.6207 15.6796 29.1065 15.8296C28.5924 15.8296 28.0782 15.8297 27.5641 15.9797C27.05 15.9797 26.5358 15.9797 26.0217 15.9797C25.5075 15.9797 24.9934 15.9797 24.4792 15.9797C23.9651 15.9797 23.4509 15.9797 22.9368 15.9797C22.4226 15.9797 21.9085 15.9797 21.3944 15.9797H19.0807C18.9705 15.9797 18.8971 15.9797 18.7869 15.8296C18.7502 15.8296 18.7135 15.6796 18.6767 15.6796C18.4564 15.5296 18.1993 15.6796 17.9422 15.6796C17.4281 15.6796 16.914 15.6796 16.3998 15.6796C15.8857 15.6796 15.3715 15.6796 14.8574 15.6796C14.3432 15.6796 13.8291 15.6796 13.3149 15.6796C12.8008 15.6796 12.2866 15.8296 11.7725 15.8296C11.5154 15.8296 11.2584 15.9797 11.0013 15.9797C10.8911 15.9797 10.7442 15.9797 10.634 15.9797C10.5606 15.9797 10.5239 15.9797 10.4504 15.9797C10.4137 15.9797 10.2668 15.9797 10.2668 15.9797C10.2668 16.2797 10.2301 16.5798 10.2301 16.7298C10.1199 15.8297 9.8261 15.6796 9.56903 15.6796C9.31195 15.6796 9.05488 15.6796 8.79781 15.6796C8.28367 15.6796 7.76952 15.6796 7.25537 15.6796C6.74123 15.6796 6.22709 15.6796 5.71294 15.6796C5.45587 15.6796 5.1988 15.6796 4.94172 15.6796C4.905 15.6796 4.83155 15.6796 4.79482 15.6796C4.64793 15.5296 4.50103 15.5296 4.35413 15.3795C3.72981 15.0795 3.10549 14.7794 2.48117 15.2295C1.70996 15.8297 0.902014 17.7801 0.608217 21.0808C0.387869 23.4813 0.424593 26.0318 0.498042 28.5823C0.498042 29.0324 0.534767 29.4825 0.534767 29.9326C0.534767 30.2327 0.571492 30.6828 0.608217 30.9829C0.534767 30.8328 0.498042 30.8328 0.461318 30.6828C0.424593 30.5328 0.424594 30.5327 0.424594 30.3827C0.424594 30.0827 0.387869 29.9326 0.387869 29.6326C0.314419 28.5823 0.387869 27.3821 0.387869 26.3319C0.387869 25.1316 0.424593 23.9314 0.461318 22.8811C0.571491 18.5302 1.37943 15.0795 2.371 15.0795C2.81169 15.0795 3.25239 15.0795 3.69309 15.0795C4.02361 15.0795 4.35413 15.0795 4.68465 15.0795H4.79482C5.60277 15.0795 6.37398 15.0795 7.18193 15.0795C7.54917 15.0795 7.87969 15.0795 8.24694 15.0795C8.46729 15.0795 8.68764 15.0795 8.87126 15.0795C9.27523 15.0795 9.6792 15.0795 10.0832 15.0795C10.5973 15.0795 11.1115 15.0795 11.6256 15.0795C12.1398 15.0795 12.6539 15.0795 13.168 15.0795C13.6822 15.0795 14.1963 15.0795 14.7105 15.0795C15.2246 15.0795 15.7388 15.0795 16.2529 15.0795C16.7671 15.0795 17.2812 15.0795 17.7953 15.0795H17.8321C17.9422 15.0795 18.0157 15.0795 18.1259 15.0795H18.1626C18.1993 15.0795 18.236 15.0795 18.2728 15.0795C18.3095 15.0795 18.3462 15.0795 18.3829 15.0795H18.4197C18.5666 15.0795 18.7502 15.0795 18.8971 15.0795H19.0807C19.6316 15.0795 20.1824 15.0795 20.6966 15.0795C21.1373 15.0795 21.578 15.0795 22.0554 15.0795H22.6063C23.0102 15.0795 23.4142 15.0795 23.8182 15.0795C24.3323 15.0795 24.8465 15.0795 25.3606 15.0795C25.8748 15.0795 26.3889 15.0795 26.9031 15.0795H28.5189C28.9964 15.0795 29.4738 15.0795 29.9879 15.0795H32.3016C32.4118 15.0795 32.5587 15.0795 32.7055 15.0795C32.7423 15.0795 32.779 15.2295 32.8157 15.0795C32.8524 15.0795 32.8892 15.0795 32.8892 15.0795H33.9175C34.7254 15.0795 35.5333 15.0795 36.378 15.0795C38.6182 15.0795 40.8584 15.0795 43.1353 15.0795C43.7229 15.0795 44.2738 15.0795 44.8614 15.0795C45.5592 15.0795 46.2202 15.0795 46.918 15.0795C47.6158 15.0795 48.2768 15.0795 48.9746 15.0795H49.4887C49.6356 15.0795 49.7458 15.3796 49.8927 15.2295C49.9661 15.2295 50.0396 15.0795 50.113 15.0795H50.517C51.178 15.0795 51.8024 15.0795 52.4634 15.0795C53.0143 15.0795 53.5284 15.0795 54.0793 15.0795C57.4212 15.0795 60.7632 15.2295 64.1418 15.2295C64.8763 15.2295 65.6476 15.2295 66.382 15.2295C66.6758 15.2295 66.9696 15.2295 67.2634 15.2295C67.594 15.2295 67.9245 15.2295 68.255 15.2295C69.2098 15.2295 70.2014 15.2295 71.1562 15.2295C72.0376 15.2295 72.8456 18.0801 73.0292 21.981C73.0292 22.8811 73.0292 23.3312 73.0292 23.6313Z" fill="#EB924D"/>
<path id="Vector_15" d="M24.6628 20.931C24.6261 21.081 24.6261 21.231 24.5894 21.3811C24.5894 21.5311 24.5894 21.8312 24.5894 21.9812C24.6261 22.1312 24.7363 21.9812 24.773 21.9812C24.9199 21.9812 25.0301 21.9812 25.1769 21.9812C25.3973 21.9812 25.6176 21.9812 25.8747 21.8312C25.7278 21.6811 25.5809 21.8312 25.434 21.8312C25.2137 21.8312 24.9566 21.5311 24.7363 21.231C24.8464 20.6309 24.9566 20.0308 25.0668 19.4307C25.0301 19.5807 24.9566 19.7307 24.9199 19.8807C24.8832 20.0308 24.8097 20.1808 24.773 20.4809C24.773 20.6309 24.6995 20.7809 24.6628 20.931Z" fill="#EB924D"/>
<path id="Vector_16" d="M46.4773 20.6307C46.4406 20.7807 46.4038 20.9308 46.4406 21.2308C46.4406 21.3808 46.4773 21.5309 46.514 21.6809C46.5507 21.6809 46.5875 21.6809 46.6242 21.6809C46.8445 21.6809 47.0649 21.5309 47.2852 21.5309C47.3954 21.5309 47.5056 21.5309 47.579 21.5309C47.7259 21.5309 47.9095 21.8309 48.0564 21.8309C48.3502 21.981 48.644 21.8309 48.9746 22.131H48.9378H48.9011C48.8644 22.131 48.8644 22.131 48.8277 22.131C48.7542 22.131 48.7175 22.131 48.644 22.131C48.5339 22.131 48.4237 21.981 48.3135 21.981C48.2768 21.981 48.2033 21.981 48.1666 21.981C48.1299 21.981 48.1299 21.981 48.0932 21.981H48.0564C47.9463 21.981 47.7994 21.981 47.6892 21.981C47.579 21.981 47.5056 21.981 47.3954 21.981C47.2118 21.981 47.0282 22.131 46.8445 22.131C46.7344 22.131 46.5875 22.131 46.4773 22.131C46.4406 22.131 46.4406 22.131 46.4038 22.131C46.3671 22.131 46.3671 22.131 46.3304 22.131C46.2937 22.131 46.2569 22.131 46.2202 21.981C46.2202 21.981 46.2202 21.981 46.2202 21.8309V21.6809C46.2569 21.3809 46.2937 21.0808 46.3304 20.9308C46.3671 20.7807 46.3671 20.6307 46.4038 20.6307C46.4038 20.6307 46.4038 20.6307 46.4406 20.4807C46.4773 20.3306 46.4773 20.3306 46.4773 20.1806C46.5875 19.4304 46.7711 18.6803 46.918 18.0801C46.9547 18.0801 46.9547 17.9301 46.9914 17.9301C47.0282 17.9301 47.0282 17.7801 47.0649 17.63C47.1016 17.33 47.1751 17.1799 47.2118 16.8799C47.0649 17.63 46.918 18.3802 46.8078 19.2804C46.7711 19.4304 46.7711 19.4304 46.7344 19.5805C46.6242 19.8805 46.5875 20.3306 46.4773 20.6307C46.514 20.6307 46.514 20.6307 46.4773 20.6307Z" fill="#EB924D"/>
<path id="Vector_17" d="M28.1885 49.2868C27.9314 49.2868 27.6743 49.2868 27.3805 49.2868C26.7195 49.2868 26.0217 49.2868 25.3607 49.2868C25.1771 49.2868 24.9934 49.2868 24.7731 49.2868C24.2957 49.2868 23.8182 49.2868 23.3408 49.2868C22.8634 49.2868 22.386 49.2868 21.9086 49.2868C21.7249 49.2868 21.5413 49.2868 21.321 49.2868C20.6599 49.2868 19.9622 49.2868 19.3011 49.2868C18.6401 49.2868 17.9423 49.2868 17.2813 49.2868C16.6937 49.2868 16.1061 49.2868 15.5185 49.2868C15.445 49.2868 15.3716 49.2868 15.2981 49.2868C15.0411 49.2868 14.784 49.2868 14.5269 49.2868C13.7557 49.2868 12.9845 49.1368 12.2133 49.1368C12.1398 49.1368 11.3686 49.2868 11.4788 48.5367C11.6624 47.3364 11.846 46.1362 12.0296 45.0859C11.9929 45.386 11.9562 45.6861 11.9195 45.9861C11.846 46.7363 11.7358 47.4865 11.6624 48.2366C12.0664 48.6867 12.5071 48.6867 12.9478 48.8367C17.979 49.7369 23.047 48.6867 28.0783 49.4369C28.0783 48.9868 28.1518 49.1368 28.1885 49.2868Z" fill="#EB924D"/>
<path id="Vector_18" d="M34.2846 48.3869C34.2846 48.537 34.2846 48.837 34.2479 48.9871C34.1745 49.2871 34.0643 49.1371 33.9541 49.1371C33.9174 49.1371 33.8807 49.2871 33.8439 49.4372C33.7338 49.7372 33.5869 49.5872 33.4767 49.5872C32.8156 49.5872 32.1179 49.5872 31.4568 49.5872C30.7958 49.5872 30.098 49.5872 29.437 49.5872C29.033 49.5872 28.629 49.5872 28.2251 49.5872H28.1516C28.1883 49.4372 28.2618 49.4372 28.3352 49.4372C28.7392 49.4372 29.1065 49.2871 29.5104 49.2871C29.9144 49.2871 30.2816 49.1371 30.6856 49.1371C31.0896 49.1371 31.4568 49.1371 31.8608 49.1371C32.2648 49.1371 32.632 49.1371 33.036 49.2871C33.0727 49.2871 33.1462 49.2871 33.1829 49.2871C33.5501 49.2871 33.9541 49.4372 34.2479 48.3869C34.2112 48.2369 34.2479 48.2369 34.2846 48.3869Z" fill="#EB924D"/>
<path id="Vector_19" d="M34.7254 48.2368C34.8723 48.6869 35.0559 48.987 35.2395 48.987C35.0559 48.987 34.909 49.137 34.7621 49.4371C34.6152 48.2368 34.4316 47.0366 34.2847 45.9863C34.4316 46.7365 34.5417 47.6367 34.7254 48.2368Z" fill="#EB924D"/>
<path id="Vector_20" d="M36.8554 48.8369C36.8554 49.137 36.8554 49.287 36.8554 49.5871C36.5616 49.437 36.3045 49.287 36.0107 49.137C35.8271 49.137 35.6435 48.987 35.4966 48.987C35.5333 48.987 35.57 48.987 35.6068 48.987C36.0107 48.987 36.4147 48.9869 36.8554 48.8369Z" fill="#EB924D"/>
<path id="Vector_21" d="M41.7398 49.2868H41.5562C41.1155 49.2868 40.7115 49.2868 40.2708 49.2868C40.1239 49.2868 39.9403 49.2868 39.7567 49.2868C39.3894 49.2868 39.0222 49.2868 38.6917 49.2868C38.2143 49.1368 37.5532 50.187 37.1492 48.5366C37.1125 48.3866 37.0758 48.2366 37.0391 47.9365C37.6634 49.4368 38.4346 49.1368 39.1691 48.8367C40.0505 48.8367 40.9319 48.8367 41.7398 49.2868Z" fill="#EB924D"/>
<path id="Vector_22" d="M57.9352 48.5365C58.0821 48.2365 58.1923 47.9364 58.3025 47.4863C58.3025 47.6364 58.2657 47.7864 58.2657 47.7864C58.229 48.0865 58.1923 48.5366 58.0821 48.6866C58.0087 48.6866 57.9352 48.5365 57.8618 48.5365C57.8251 48.5365 57.7883 48.6866 57.7516 48.8366C57.7149 48.8366 57.7149 48.8366 57.6782 48.9866C57.4945 49.1367 57.2742 48.9866 57.0906 48.9866C56.6866 48.9866 56.2826 48.9866 55.8786 48.9866C55.1809 48.9866 54.5198 48.9866 53.8221 48.9866C53.2345 48.9866 52.6836 48.9866 52.096 48.9866C51.9858 48.9866 51.8757 48.9866 51.7655 48.9866C51.435 48.9866 51.0677 48.9866 50.7372 48.9866C50.4067 48.9866 50.0762 48.9866 49.7456 48.9866C49.0479 48.9866 48.3868 48.9866 47.689 48.9866C47.028 48.9866 46.3302 48.9866 45.6325 48.9866C45.3387 48.9866 45.0082 48.9866 44.7144 48.9866C44.3471 48.9866 43.9431 48.9866 43.5759 48.9866C42.9516 48.9866 42.3273 48.9866 41.7029 48.9866H41.0786C41.1153 48.8366 41.1888 48.8366 41.2622 48.8366C41.7764 48.6866 42.2905 48.6866 42.8047 48.5365C43.025 48.5365 43.2454 48.3865 43.5024 48.3865C43.5392 48.3865 43.6126 48.3865 43.6493 48.3865C43.7228 48.3865 43.7962 48.5365 43.833 48.5365C44.0166 48.6866 44.2369 48.5365 44.4206 48.5365C44.5307 48.5365 44.6409 48.3865 44.7511 48.5365C44.7878 48.5365 44.8613 48.5366 44.898 48.6866C45.0082 48.6866 45.1183 48.6866 45.2285 48.6866C45.4488 48.6866 45.6692 48.5365 45.8895 48.3865C45.9263 48.3865 45.963 48.3865 45.9997 48.3865C46.0364 48.3865 46.0732 48.5365 46.1099 48.5365C46.3302 49.1367 46.5506 48.8366 46.8077 48.6866C46.9913 48.5366 47.1382 48.5365 47.3218 48.5365C47.3953 48.5365 47.5054 48.5365 47.5789 48.5365C47.9461 48.5365 48.3501 48.5366 48.7173 48.6866C49.2315 48.6866 49.7456 48.6866 50.2598 48.6866C50.7739 48.6866 51.2881 48.6866 51.8022 48.6866C52.3164 48.6866 52.8305 48.6866 53.3446 48.5365C53.6017 48.5365 53.8955 48.5365 54.1893 48.3865C54.4831 48.3865 54.7402 48.2365 55.034 48.3865C55.291 48.3865 55.5481 48.5365 55.8052 48.5365C55.9154 48.5365 56.0255 48.5365 56.1357 48.3865C56.2092 48.2365 56.2459 48.0864 56.3193 48.0864C56.3561 48.0864 56.3928 47.9364 56.4295 47.9364C56.6499 47.7864 56.8702 47.9364 57.0906 47.9364C57.3844 48.3865 57.6782 48.3865 57.9352 48.5365Z" fill="#EB924D"/>
<path id="Vector_23" d="M72.8456 43.1357C72.5518 46.1364 71.854 48.2368 71.0828 48.3869C70.8257 48.3869 70.5319 48.3869 70.2748 48.3869C69.5771 48.3869 68.916 48.5369 68.2183 48.5369C67.5205 48.5369 66.8594 48.5369 66.1617 48.6869C65.4639 48.6869 64.8029 48.6869 64.1051 48.837C63.5175 48.837 62.9666 48.837 62.379 48.987C62.2689 48.987 62.1587 48.987 62.0485 48.987C61.3507 48.987 60.6897 48.987 59.9919 49.137C59.7716 49.137 59.588 49.137 59.3676 49.137C59.1473 49.137 58.9636 48.987 58.7433 48.987C58.7066 48.987 58.6698 48.987 58.6331 48.837C58.5597 48.6869 58.5597 48.3869 58.5597 48.0868C58.5597 47.6367 58.5229 47.0366 58.5229 46.5865C58.5229 47.3366 58.6698 48.0868 58.8167 48.5369C59.0004 48.837 59.184 48.837 59.3676 48.837C60.0287 48.837 60.7264 48.837 61.3875 48.837C61.718 48.837 62.0118 48.837 62.3423 48.837C62.4892 48.837 62.6361 48.837 62.783 48.837C62.8565 48.837 62.9299 48.837 63.0034 48.837C63.0768 48.837 63.1503 48.837 63.2237 48.837C63.2604 48.837 63.2972 48.6869 63.3706 48.6869C63.4441 48.6869 63.4808 48.6869 63.5542 48.6869C63.8113 48.6869 64.0684 48.5369 64.3254 48.5369C64.7294 48.5369 65.1701 48.3869 65.5741 48.3869C65.9781 48.3869 66.382 48.2368 66.786 48.2368C67.2634 48.2368 67.7408 48.2368 68.1815 48.0868C68.6589 48.0868 69.0996 48.0868 69.5771 48.0868C70.0545 48.0868 70.5686 48.2368 71.0461 48.0868C71.3031 47.9368 71.5602 47.7867 71.7805 47.6367C71.8173 47.6367 71.8907 47.4867 71.9274 47.4867C71.9274 47.4867 71.9274 47.4867 71.9642 47.4867C72.0009 47.4867 72.0009 47.3366 72.0376 47.3366C72.1845 46.8865 72.3314 46.2864 72.4783 45.8363C72.5518 45.6863 72.5885 45.3862 72.6252 45.0862C72.6619 44.9361 72.6619 44.6361 72.6987 44.486C72.7354 43.7359 72.7721 43.4358 72.8456 43.1357Z" fill="#EB924D"/>
<path id="Vector_24" d="M9.94832 42.5306C9.09786 42.5306 8.21042 42.2857 7.35996 42.2857C6.99019 42.2857 6.58345 42.2857 6.21368 42.2857C6.13973 41.3061 6.06578 40.3265 5.99182 39.5918C5.54811 33.4694 5.14136 27.3469 4.73462 20.7347C5.84392 20.7347 6.91624 20.7347 8.02554 20.7347C8.21042 22.6939 8.3953 24.6531 8.54321 26.6123C9.02391 31.7551 9.5046 37.1429 9.94832 42.5306ZM12.4627 33.9592C11.982 29.3061 11.4644 24.6531 10.9467 20.4898C10.466 20.4898 10.0223 20.4898 9.57856 20.4898C10.0962 27.5919 10.7248 34.2041 11.3904 40.8163C11.4644 41.3061 11.5013 42.0408 11.5753 42.5306C11.9081 42.5306 12.2039 42.5306 12.4997 42.5306H13.4611C13.0913 39.8368 12.7216 36.898 12.4627 33.9592ZM20.7825 20.2449C20.2648 20.2449 19.7471 20.2449 19.2295 20.2449C19.4143 28.0816 19.7471 35.6735 20.1539 43.0204C20.1539 43.0204 20.1539 43.0204 20.1909 43.0204C20.3018 43.0204 20.3757 43.5102 20.4867 43.5102C20.8195 43.5102 21.1522 41.7959 21.4111 40.0817C21.559 39.1021 21.7439 37.8776 21.8918 36.898C21.559 31.2653 21.1892 25.6327 20.7825 20.2449ZM21.9657 38.1225C21.7808 40.0816 21.596 41.7959 21.4481 44C21.485 43.7551 21.8918 44 21.9288 44C22.0397 44 22.1506 44 22.2615 44C22.1876 41.7959 22.0767 39.8368 21.9657 38.1225ZM23.149 20.2449C22.8901 20.2449 22.6313 20.2449 22.3355 20.2449C22.6683 27.8367 23.038 35.6735 23.4448 43.0204C23.5557 43.0204 23.6667 43.0204 23.7776 43.0204C23.9255 43.0204 24.1104 43.0204 24.2583 43.0204C23.9255 35.4286 23.5557 27.8367 23.149 20.2449ZM37.8287 29.7959C37.6438 26.6122 37.4589 23.4286 37.2371 20.2449H34.3529C34.5008 27.1021 34.7227 33.9592 35.0185 40.5714C35.0555 41.551 35.0924 42.5306 35.1294 43.2653H36.0538C36.9413 43.2653 37.7917 43.2653 38.6792 43.2653C38.3834 38.8571 38.0875 34.2041 37.8287 29.7959ZM43.9668 20.4898C43.8189 20.4898 43.671 20.2449 43.5231 20.2449C43.3012 20.2449 43.0794 20 42.8945 20C42.7836 20 42.7096 20.4898 42.6357 20.7347L42.5987 20.9796C42.5617 25.1429 42.5247 29.3061 42.4878 32.7347C42.4508 36.1633 42.3768 39.8367 42.3398 43.5102C43.0424 43.5102 43.708 43.5102 44.4105 43.5102C44.4475 40.5714 44.4475 37.6326 44.4845 34.6939C44.5215 32 44.5584 29.0612 44.5954 25.8776C44.6324 24.4082 44.6324 23.1837 44.6324 21.7143C44.4105 20.4898 44.1887 20.7347 43.9668 20.4898ZM53.0631 20.2449C52.6933 20.2449 52.3235 20.2449 51.9538 20.2449C51.584 27.5918 51.2512 35.4286 50.9924 43.0204C51.1773 43.0204 51.3621 43.0204 51.5101 43.0204C51.6949 43.0204 51.8798 42.7755 52.0277 43.2653C52.1387 43.5102 52.2496 43.5102 52.3605 43.2653C52.6194 35.6735 52.8782 28.0816 53.137 20.2449H53.0631ZM66.3747 20.7347C66.0788 25.6327 65.7461 30.5306 65.4133 35.6735V35.4286C65.5612 30.7755 65.783 25.8776 65.9309 20.9796C65.7461 20.9796 65.5612 20.9796 65.3763 20.9796C64.8216 20.9796 64.23 20.9796 63.6754 20.9796C63.5644 24.4082 63.4535 28.0816 63.3056 31.2653C63.1577 34.9388 63.0098 38.8571 62.8619 42.7755C63.8602 42.7755 64.8216 42.5306 65.82 42.5306C66.0788 42.5306 66.3377 42.5306 66.5965 42.5306C66.5965 42.2857 66.6335 42.0408 66.6335 41.551C66.8184 38.1225 67.0033 34.6939 67.1512 31.0204C67.1512 31.0204 67.1512 31.0204 67.1512 30.7755C67.2991 27.347 67.484 24.1633 67.6319 20.7347C67.2621 20.7347 66.8184 20.7347 66.3747 20.7347ZM62.0484 20.4898C61.6786 27.8368 61.3089 35.1837 60.9761 42.5306C61.161 42.5306 61.3828 42.5306 61.5677 42.5306C61.9005 35.1837 62.1963 27.8368 62.4921 20.4898H62.0484ZM28.2887 20.2449H28.1408C28.4736 28.0816 28.8434 35.6735 29.1762 43.5102H29.398C29.0283 35.6735 28.6585 27.8367 28.2887 20.2449Z" fill="url(#paint7_linear_2228_2248)"/>
</g>
<defs>
<linearGradient id="paint0_linear_2228_2248" x1="58.2303" y1="75.4507" x2="7.01146" y2="24.2319" gradientUnits="userSpaceOnUse">
<stop offset="2.7e-07" stop-color="#95D543"/>
<stop offset="0.2613" stop-color="#72B74E"/>
<stop offset="0.5762" stop-color="#4F9959"/>
<stop offset="0.8338" stop-color="#398760"/>
<stop offset="1" stop-color="#318063"/>
</linearGradient>
<linearGradient id="paint1_linear_2228_2248" x1="76.8336" y1="56.8473" x2="25.6149" y2="5.62868" gradientUnits="userSpaceOnUse">
<stop offset="2.7e-07" stop-color="#95D543"/>
<stop offset="0.2613" stop-color="#72B74E"/>
<stop offset="0.5762" stop-color="#4F9959"/>
<stop offset="0.8338" stop-color="#398760"/>
<stop offset="1" stop-color="#318063"/>
</linearGradient>
<linearGradient id="paint2_linear_2228_2248" x1="42.6432" y1="-46.4159" x2="27.9501" y2="-34.8631" gradientUnits="userSpaceOnUse">
<stop stop-color="#CF5C2B"/>
<stop offset="1" stop-color="#59173E"/>
</linearGradient>
<linearGradient id="paint3_linear_2228_2248" x1="36.6097" y1="-1.16973" x2="41.1329" y2="86.8419" gradientUnits="userSpaceOnUse">
<stop stop-color="#CF5C2B"/>
<stop offset="1" stop-color="#59173E"/>
</linearGradient>
<linearGradient id="paint4_linear_2228_2248" x1="35.9377" y1="1.73255" x2="35.9377" y2="121.885" gradientUnits="userSpaceOnUse">
<stop stop-color="#CF5C2B"/>
<stop offset="1" stop-color="#59173E"/>
</linearGradient>
<linearGradient id="paint5_linear_2228_2248" x1="36.8645" y1="144.336" x2="36.8645" y2="20.543" gradientUnits="userSpaceOnUse">
<stop stop-color="#CF5C2B"/>
<stop offset="1" stop-color="#59173E"/>
</linearGradient>
<linearGradient id="paint6_linear_2228_2248" x1="36.705" y1="112.168" x2="40.1314" y2="-30.051" gradientUnits="userSpaceOnUse">
<stop stop-color="#CF5C2B"/>
<stop offset="1" stop-color="#59173E"/>
</linearGradient>
<linearGradient id="paint7_linear_2228_2248" x1="36.2217" y1="103.964" x2="36.2217" y2="-46.5393" gradientUnits="userSpaceOnUse">
<stop stop-color="#CF5C2B"/>
<stop offset="1" stop-color="#59173E"/>
</linearGradient>
</defs>
</svg>
