<svg width="75" height="74" viewBox="0 0 75 74" fill="none" xmlns="http://www.w3.org/2000/svg">
<g id="Group">
<g id="Group_2">
<g id="Group_3">
<path id="Vector" d="M14.9439 29.2871C14.9588 29.2857 14.9741 29.285 14.9893 29.285C15.1199 29.285 15.2448 29.3396 15.3332 29.4358L40.696 56.9786C40.7751 57.0644 40.8193 57.1768 40.8195 57.2933C40.8196 57.3393 40.8221 58.4302 40.6855 59.5544C40.4708 61.3206 40.032 62.1763 39.3038 62.2476C39.2852 62.2496 39.2664 62.2507 39.2476 62.2514C39.1196 62.2558 38.9953 62.2074 38.9039 62.1178C38.8125 62.0278 38.7619 61.9045 38.7641 61.7764C38.7793 60.8789 38.4129 59.8095 38.0437 58.9655C38.0519 60.0035 38.1988 61.501 38.7572 63.3163C38.8205 63.5216 38.7355 63.7436 38.5515 63.8541C38.4905 63.891 38.4238 63.9123 38.3562 63.9189C38.2201 63.9322 38.0815 63.8855 37.9798 63.7842C36.9182 62.7223 36.4782 61.3937 36.0527 60.1087C35.8953 59.634 35.7358 59.1523 35.5435 58.675C35.2608 59.8622 34.5844 60.8349 34.5392 60.899C34.4588 61.0127 34.3348 61.0817 34.2026 61.0947C34.1359 61.1011 34.0672 61.0934 34.0008 61.07C33.8034 60.9999 33.6767 60.8069 33.691 60.598C33.6914 60.5913 33.7091 60.1463 33.4914 59.3303C33.4682 60.0381 33.3976 60.5494 33.3903 60.6007C33.3598 60.8154 33.1861 60.9792 32.9733 60.9999C32.9613 61.001 32.9494 61.0019 32.9371 61.0021C32.7081 61.0069 32.5097 60.845 32.4678 60.6197C32.1878 59.1069 31.163 57.8514 30.5043 57.1771C30.0781 58.6349 29.1386 60.0773 29.0913 60.1495C29.0105 60.2725 28.8815 60.345 28.7456 60.3581C28.6439 60.3683 28.5384 60.345 28.4461 60.2851C28.2303 60.1452 28.1681 59.8573 28.3068 59.6408C28.3331 59.5975 28.92 58.5929 28.0346 57.0559C27.8036 58.1372 28.173 60.1475 28.5999 61.5074C28.6725 61.7386 28.5563 61.9872 28.3322 62.0796C28.2887 62.0975 28.2442 62.1084 28.1995 62.1126C28.0137 62.1309 27.829 62.036 27.7389 61.8624C27.7041 61.7954 26.9037 60.2409 25.1018 55.983C24.6419 56.8286 25.0692 58.1686 25.0743 58.1848C25.1533 58.4262 25.0248 58.6871 24.7849 58.7712C24.7487 58.784 24.7116 58.7919 24.6751 58.7955C24.4695 58.8155 24.2686 58.697 24.1926 58.4951C24.1698 58.4342 23.7084 57.1766 23.6653 54.7711C22.7668 55.5497 21.4012 56.2786 20.2495 56.3913C19.621 56.4526 19.0962 56.3309 18.6894 56.0295C18.5469 55.9239 18.4764 55.747 18.5075 55.5726C18.5384 55.398 18.6654 55.256 18.8352 55.2058C19.7098 54.9473 20.2967 54.4821 20.6298 53.7835C21.1528 52.6866 20.9153 51.2694 20.681 50.4029C20.1402 51.1367 19.3551 52.3931 19.2309 53.638C19.2108 53.8398 19.0629 54.0055 18.8647 54.0486C18.8469 54.0525 18.829 54.0552 18.8111 54.0571C18.6308 54.0748 18.4541 53.9861 18.3614 53.8264C17.607 52.5266 17.8524 50.4132 18.1501 48.9876C17.0474 50.0567 15.7333 51.6369 15.7088 52.9404C15.7051 53.1403 15.5747 53.3154 15.3845 53.3765C15.3522 53.3868 15.3195 53.3935 15.2869 53.3967C15.1263 53.4125 14.9657 53.3438 14.8667 53.2107C12.7552 50.3761 14.0888 47.2788 15.157 45.5885C14.6605 45.7301 14.0794 45.8598 13.4758 45.9187C12.2203 46.0415 11.2011 45.8268 10.4468 45.2805C10.2896 45.1666 10.219 44.9672 10.2699 44.7796C10.3209 44.5921 10.4821 44.4556 10.6755 44.4368C11.5554 44.3508 12.5799 43.4309 13.4557 42.4029C12.8177 42.7897 12.108 43.1396 11.3867 43.3452C11.3596 43.3529 11.3319 43.3582 11.304 43.3608C11.2073 43.3702 11.1092 43.3495 11.0238 43.3C10.914 43.2363 10.8349 43.1305 10.8045 43.0072C10.7595 42.8241 10.768 42.613 10.8191 42.3816C10.3952 43.0699 9.98513 43.8507 9.61358 44.7315C9.54669 44.8903 9.3982 44.9984 9.22857 45.0151C9.21597 45.0163 9.20284 45.017 9.18989 45.0172C9.00465 45.02 8.83518 44.913 8.75782 44.7445C7.45474 41.9013 9.44006 37.9624 10.576 36.0852C9.96349 36.2388 9.18705 36.4007 8.40084 36.4778C6.9143 36.6233 5.83496 36.4148 5.19265 35.8584C5.03189 35.719 4.98539 35.4886 5.07961 35.2979C5.15272 35.1503 5.29556 35.0553 5.4533 35.0399C5.49925 35.0355 5.54662 35.0378 5.594 35.0475C5.83283 35.0972 6.09827 35.1082 6.3834 35.0804C9.71615 34.7544 14.5961 29.4891 14.6449 29.436C14.7237 29.3508 14.8301 29.2983 14.9439 29.2871Z" fill="url(#paint0_linear_2228_2688)"/>
<path id="Vector_2" d="M11.2508 35.4614C11.2508 35.4614 7.30231 40.9291 8.87668 44.3637C11.002 39.3249 14.3704 37.6144 14.3704 37.6144C14.3704 37.6144 10.5533 41.4791 10.8716 42.7737C13.005 42.1654 15.0913 40.1136 15.0913 40.1136C15.0913 40.1136 12.5423 44.488 10.3549 44.702C12.2859 46.1004 15.8564 44.4398 15.8564 44.4398C15.8564 44.4398 11.9216 48.6893 14.7002 52.42C14.7446 50.0694 18.2952 47.3314 18.2952 47.3314C18.2952 47.3314 17.0268 51.2263 18.088 53.0547C18.2896 51.0338 20.098 49.0625 20.098 49.0625C20.098 49.0625 22.1193 53.9025 18.2819 55.0372C19.6798 56.0738 22.9376 53.9096 23.2652 52.9099C23.1241 56.0127 23.7251 57.6102 23.7251 57.6102C23.7251 57.6102 22.9962 55.405 24.3269 54.5498C26.2611 59.1565 27.1119 60.7983 27.1119 60.7983C27.1119 60.7983 25.8087 56.6472 26.9388 55.5015C28.5949 57.6169 27.637 59.1118 27.637 59.1118C27.637 59.1118 28.9104 57.1719 29.0981 55.6353C29.0981 55.6353 31.2607 57.3561 31.7 59.7284C31.7 59.7284 32.1096 56.8589 31.2653 55.2851C32.9951 58.1522 32.8821 59.8196 32.8821 59.8196C32.8821 59.8196 34.44 57.6127 33.6703 55.9891C35.2775 58.2049 35.1149 60.7742 36.8744 62.5343C35.7613 58.9166 36.2925 56.5873 36.2925 56.5873C36.2925 56.5873 37.7913 59.063 37.7596 60.9294C38.8529 60.8915 38.837 56.6142 38.837 56.6142L14.4572 30.1393C14.4572 30.1393 8.72124 36.3731 5.33509 35.669C6.83831 36.9717 11.2508 35.4614 11.2508 35.4614Z" fill="#318063"/>
</g>
<path id="Vector_3" d="M36.1322 54.4651C36.1785 54.5696 36.2619 54.654 36.3671 54.7014C36.433 54.731 42.9668 57.7109 44.3228 60.7695C44.4388 61.0314 44.5119 61.2869 44.5397 61.5291C44.5452 61.5768 44.558 61.6226 44.5767 61.665C44.6407 61.8096 44.7759 61.9153 44.9392 61.9384C45.1498 61.968 45.354 61.8515 45.4358 61.655C45.7621 60.8706 45.6207 59.7803 45.0151 58.4149C44.695 57.6928 44.297 57.0066 43.9586 56.4734C46.0978 56.9617 50.4611 57.6078 52.7503 55.4768C52.8859 55.3505 52.9342 55.156 52.8733 54.9809C52.8689 54.9686 52.8642 54.9566 52.8591 54.945C52.7901 54.7894 52.6409 54.6824 52.4689 54.6688C51.5159 54.593 50.646 54.4491 49.8592 54.2631C50.095 54.2388 50.298 54.1806 50.4579 54.0804C50.5654 54.013 50.6408 53.9046 50.6667 53.7803C50.687 53.6838 50.676 53.5841 50.6364 53.4952C50.625 53.4697 50.6114 53.445 50.5956 53.4217C50.1738 52.8023 49.6195 52.2392 49.0523 51.7556C50.303 52.264 51.4975 52.9471 51.8552 53.7537C51.9338 53.9313 52.1144 54.0417 52.3082 54.0311C52.5021 54.0202 52.6693 53.8907 52.728 53.7056C53.0094 52.8178 52.8928 51.7828 52.3813 50.6297C52.1355 50.0752 51.8296 49.5642 51.5392 49.1374C53.4794 49.6199 56.839 49.9119 58.8663 47.0166C58.9616 46.8805 58.9761 46.7066 58.9107 46.5591C58.8974 46.5291 58.8809 46.5002 58.861 46.4729C58.7432 46.3114 58.5358 46.2428 58.3448 46.302C57.1 46.6885 55.1865 45.9379 53.8251 45.227C55.2719 45.0616 57.3553 44.6301 58.3521 43.5051C58.4745 43.3671 58.5031 43.1714 58.4296 43.006C58.4224 42.9895 58.4142 42.9735 58.4048 42.9577C58.3017 42.783 58.0979 42.6948 57.9 42.7393C56.6793 43.0129 55.2399 42.6627 54.373 42.3798C55.1219 41.8853 56.3925 41.2141 57.5982 41.3658C58.3659 41.4625 58.9921 41.8733 59.5125 42.6222C59.6137 42.7677 59.7884 42.8435 59.9637 42.8179C60.1391 42.7924 60.2849 42.6699 60.3404 42.5016C60.4989 42.0205 60.4496 41.484 60.1933 40.9066C59.7242 39.8488 58.6028 38.7817 57.5813 38.1732C59.8513 37.376 60.9001 36.5426 60.9506 36.5016C61.1185 36.3661 61.1682 36.1379 61.0844 35.9487C61.0693 35.9148 61.0502 35.8822 61.0264 35.8517C60.8706 35.6505 60.5825 35.6111 60.3782 35.7628C60.3649 35.7726 59.2276 36.5994 58.2803 36.4285C61.7558 33.3791 62.9798 32.1307 63.0325 32.0766C63.1689 31.9366 63.2009 31.7315 63.1253 31.5608C63.107 31.5198 63.0827 31.4809 63.052 31.4453C62.8939 31.2616 62.6215 31.2292 62.4248 31.3709C61.2674 32.2033 59.4751 33.1857 58.3766 33.3069C59.5771 31.9595 60.7317 32.2329 60.7446 32.2363C60.9937 32.2998 61.2477 32.1502 61.3126 31.9015C61.3403 31.795 61.3293 31.6875 61.2877 31.5941C61.2324 31.4692 61.1231 31.3699 60.981 31.3317C60.8978 31.3096 59.234 30.8715 57.7164 30.9249C58.1511 30.0867 59.0225 28.7174 60.3658 27.9788C60.5663 27.8684 60.6575 27.6289 60.5812 27.4131C60.5771 27.4016 60.5727 27.3904 60.5677 27.3794C60.481 27.184 60.2711 27.0706 60.0578 27.109C60.007 27.1182 59.4994 27.2117 58.8205 27.4122C59.5271 26.9491 59.9559 26.8258 59.9643 26.8235C60.1651 26.7685 60.3071 26.5868 60.3099 26.3785C60.3108 26.3088 60.2966 26.2417 60.2696 26.181C60.2161 26.0603 60.1126 25.9647 59.9801 25.9244C59.905 25.9015 58.7689 25.5653 57.5533 25.6702C57.9456 25.3375 58.3528 25.0346 58.754 24.736C59.8399 23.9279 60.963 23.0926 61.6375 21.751C61.7019 21.6227 61.7024 21.4763 61.6471 21.3514C61.6196 21.2895 61.5784 21.2327 61.5241 21.1862C61.3612 21.0464 61.124 21.0356 60.9489 21.16C59.4011 22.261 58.026 22.871 57.043 23.2053C57.7281 22.5894 58.6282 21.9054 59.4847 21.6376C59.6071 21.5993 59.7082 21.5127 59.7648 21.3976C59.8213 21.2826 59.8282 21.1493 59.7837 21.0292C59.7771 21.0113 59.77 20.9939 59.7624 20.977C59.4659 20.3083 58.5155 20.1607 56.7713 20.5123C55.6611 20.7361 54.6264 21.0814 54.5829 21.0957C54.4722 21.133 54.3794 21.2102 54.3228 21.3122L36.1508 54.0483C36.0873 54.1625 36.0747 54.2979 36.1159 54.4221C36.1207 54.4372 36.126 54.4514 36.1322 54.4651Z" fill="url(#paint1_linear_2228_2688)"/>
<path id="Vector_4" d="M57.0941 21.9111C55.3123 22.4679 53.4334 24.6689 53.4334 24.6689C53.4334 24.6689 55.8116 24.4409 58.8959 22.247C57.7781 24.4706 55.288 25.1239 53.69 27.3464C54.989 26.1053 57.5738 26.8902 57.5738 26.8902C57.5738 26.8902 55.9556 27.3072 53.7776 29.8507C55.0062 28.5548 57.8588 28.0411 57.8588 28.0411C55.7447 29.2038 54.7911 31.7979 54.7911 31.7979C56.3089 31.4931 58.5508 32.0919 58.5508 32.0919C58.5508 32.0919 56.8304 31.6526 55.3429 33.8898C56.7858 34.6024 60.3168 32.0601 60.3168 32.0601C60.3168 32.0601 59.0256 33.384 55.2606 36.6685C56.491 37.6632 58.3551 36.2778 58.3551 36.2778C58.3551 36.2778 57.0273 37.3503 54.0378 38.1919C55.0899 38.1887 58.1682 40.6009 57.6241 42.2537C55.3405 38.9677 51.3814 42.4083 51.3814 42.4083C51.3814 42.4083 53.8213 43.5053 55.803 43.0612C54.4009 44.6436 50.3049 44.664 50.3049 44.664C50.3049 44.664 54.0202 47.1738 56.2656 46.4766C53.5975 50.2874 48.3263 47.8882 48.3263 47.8882C48.3263 47.8882 51.0253 50.7557 50.3051 53.0284C49.4142 51.0193 44.4602 49.975 44.4602 49.975C44.4602 49.975 47.0639 51.3103 48.312 53.1443C47.1829 53.8535 42.3143 51.4452 42.3143 51.4452C42.3143 51.4452 44.9971 54.1049 50.4486 54.5382C47.6831 57.1124 41.2515 55.0833 41.2515 55.0833C41.2515 55.0833 44.0727 58.7973 43.309 60.6334C42.9126 57.1976 35.1918 53.7124 35.1918 53.7124L52.6593 22.2454C52.6589 22.245 56.7142 20.8854 57.0941 21.9111Z" fill="#318063"/>
</g>
<path id="Vector_5" d="M54.0554 23.631C53.9738 19.1301 53.3758 15.8294 52.6418 15.6794C35.4349 15.2293 18.4455 15.2293 1.72788 15.6794C1.5376 15.6794 1.34731 15.9794 1.18422 16.4295C1.0483 16.7296 0.912384 17.3297 0.803652 17.9298C0.694919 18.53 0.61337 19.2801 0.53182 20.0303C0.423088 20.9305 0.341539 21.8307 0.287172 22.7309C0.17844 24.0811 0.0968904 25.7315 0.0697073 27.2318C-0.0390252 32.933 -0.011842 38.4842 0.0968905 44.1854C0.17844 48.5363 0.776468 51.987 1.51041 51.987C18.2008 53.3373 35.1631 53.3373 52.3972 51.987C52.7506 51.987 53.104 51.0868 53.3758 49.5865C53.4302 49.2865 53.4573 49.1364 53.5117 48.8364C53.5389 48.6863 53.5661 48.5363 53.5661 48.3863C53.6204 47.9362 53.6476 47.4861 53.702 46.8859C53.7835 45.9858 53.8651 44.9355 53.9466 43.8853C53.9738 43.5852 54.001 43.2852 54.001 42.9851C54.001 42.6851 54.0282 42.535 54.0282 42.235C54.0554 41.6348 54.0826 41.0347 54.0826 40.4346C54.1369 34.7334 54.1641 29.1822 54.0554 23.631Z" fill="url(#paint2_linear_2228_2688)"/>
<path id="Vector_6" d="M54.0823 33.2332C54.0823 35.6337 54.0551 38.0343 54.028 40.4348C54.0008 41.335 53.9736 42.2351 53.9192 43.1353C53.8648 43.7354 53.8105 44.3356 53.7561 44.9357C53.4843 47.0362 53.0765 48.3864 52.6416 48.3864C52.4513 48.3864 52.2339 48.3864 52.0436 48.3864C51.5271 48.3864 51.0378 48.5365 50.5213 48.5365C50.0048 48.5365 49.5156 48.5365 48.9991 48.6865C48.4826 48.6865 47.9933 48.6865 47.4768 48.8365C47.0419 48.8365 46.6341 48.8365 46.1992 48.9866C46.1177 48.9866 46.0361 48.9866 45.9546 48.9866C45.4381 48.9866 44.9488 48.9866 44.4323 49.1366C44.2692 49.1366 44.1333 49.1366 43.9702 49.1366C43.8071 49.1366 43.6712 48.9866 43.5081 48.9866C43.4809 48.9866 43.4537 48.9866 43.4265 48.8365C43.3722 48.6865 43.3722 48.3864 43.3722 48.0864C43.3722 47.6363 43.345 47.0361 43.345 46.5861C43.3178 45.6859 43.3178 44.7857 43.3178 43.7355C43.3178 45.0857 43.2634 46.436 43.1819 47.6363C43.1819 47.7863 43.1547 47.9363 43.1547 47.9363C43.1275 48.2364 43.1003 48.6865 43.0188 48.8365C42.9644 48.8365 42.9101 48.6865 42.8557 48.6865C42.8285 48.6865 42.8013 48.8365 42.7741 48.9866C42.747 48.9866 42.747 48.9866 42.7198 49.1366C42.5839 49.2866 42.4208 49.1366 42.2848 49.1366C41.9858 49.1366 41.6868 49.1366 41.3878 49.1366C40.8713 49.1366 40.382 49.1366 39.8655 49.1366C39.4306 49.1366 39.0229 49.1366 38.5879 49.1366C38.5064 49.1366 38.4248 49.1366 38.3433 49.1366C38.0986 49.1366 37.8268 49.1366 37.5822 49.1366C37.3375 49.1366 37.0929 49.1366 36.8482 49.1366C36.3317 49.1366 35.8424 49.1366 35.326 49.1366C34.8367 49.1366 34.3202 49.1366 33.8037 49.1366C33.5862 49.1366 33.3416 49.1366 33.1241 49.1366C32.8523 49.1366 32.5533 49.1366 32.2815 49.1366C31.8193 49.1366 31.3572 49.1366 30.8951 49.1366H30.433C30.2155 49.1366 29.9981 49.1366 29.8078 49.1366C29.6991 49.1366 29.5631 49.1366 29.4272 49.1366C29.1554 49.1366 28.8836 49.1366 28.6389 49.1366C28.2855 48.9866 27.7962 50.0368 27.4972 48.3864C27.47 48.2364 27.4429 48.0864 27.4157 47.7863C27.3341 47.1862 27.3069 46.436 27.2526 45.6859C27.2526 46.5861 27.2526 47.6363 27.2526 48.5365C27.2526 48.8365 27.2526 49.1366 27.2526 49.2866C27.0351 49.1366 26.8448 48.9866 26.6274 48.8365C26.4915 48.8365 26.3555 48.6865 26.2468 48.6865C26.1924 48.6865 26.1381 48.6865 26.1109 48.6865C26.1109 48.6865 26.1109 48.6865 26.0837 48.6865C25.9478 48.6865 25.8391 48.8365 25.7303 49.1366C25.6216 47.9363 25.4857 46.7361 25.3769 45.6859C25.2954 44.9357 25.2138 44.1855 25.1323 43.2854C25.2138 44.7857 25.2682 46.136 25.3498 47.6363C25.3498 47.7863 25.3498 47.9363 25.3769 48.0864C25.3769 48.2364 25.3769 48.5365 25.3498 48.6865C25.2954 48.9866 25.2138 48.8365 25.1323 48.8365C25.1051 48.8365 25.0779 48.9866 25.0507 49.1366C24.9692 49.4366 24.8605 49.2866 24.7789 49.2866C24.2896 49.2866 23.7731 49.2866 23.2838 49.2866C22.7945 49.2866 22.2781 49.2866 21.7888 49.2866C21.4898 49.2866 21.1907 49.2866 20.8917 49.2866H20.8374C20.6471 49.2866 20.484 49.2866 20.2937 49.2866C19.8044 49.2866 19.2879 49.2866 18.7986 49.2866C18.6627 49.2866 18.5268 49.2866 18.3637 49.2866C18.0103 49.2866 17.6569 49.2866 17.3036 49.2866C16.9502 49.2866 16.5968 49.2866 16.2434 49.2866C16.1075 49.2866 15.9716 49.2866 15.8085 49.2866C15.3192 49.2866 14.8027 49.2866 14.3134 49.2866C13.8241 49.2866 13.3076 49.2866 12.8183 49.2866C12.3834 49.2866 11.9485 49.2866 11.5136 49.2866C11.4592 49.2866 11.4048 49.2866 11.3505 49.2866C11.1602 49.2866 10.9699 49.2866 10.7796 49.2866C10.2088 49.2866 9.63792 49.1366 9.06708 49.1366C9.01271 49.1366 8.44187 49.2866 8.52342 48.5365C8.5506 48.3864 8.57778 48.2364 8.60496 48.0864C8.65933 47.6363 8.7137 47.1862 8.76806 46.5861C8.79525 46.436 8.79525 46.136 8.82243 45.9859C8.90398 45.0857 8.98553 44.3356 9.09426 43.5854C9.12144 43.4354 9.14863 43.1353 9.20299 42.9853C9.23018 42.8353 9.23018 42.8353 9.25736 42.8353C9.28454 42.8353 9.31172 42.8353 9.31172 42.8353C9.33891 42.6852 9.17581 42.2351 9.14863 42.2351C9.06708 42.8353 8.98553 43.5854 8.90398 44.3356C8.82243 45.0857 8.74088 45.6859 8.65933 46.436C8.57778 47.1862 8.49623 47.9363 8.36032 48.5365C8.30595 48.8365 8.2244 48.9866 8.17003 49.1366C7.84384 49.8867 7.38172 49.1366 7.05553 49.1366C6.59341 49.1366 6.10412 49.1366 5.642 49.1366H5.50609C4.25567 48.9866 3.00524 48.9866 1.75482 48.8365C1.02087 48.8365 0.422846 45.3858 0.341297 41.0349C0.314114 39.9847 0.314114 38.9344 0.286931 37.8842C0.259748 36.684 0.178198 34.8836 0.314114 33.8334C0.314114 33.6833 0.341297 33.5333 0.36848 33.5333C0.395663 33.3833 0.450029 33.3833 0.477212 33.3833C0.72186 33.2332 0.966509 33.2332 1.21116 33.0832C1.23834 33.0832 1.23834 33.0832 1.26552 33.0832C1.29271 33.2332 1.31989 33.3833 1.31989 33.6833C1.31989 33.9834 1.31989 34.1334 1.34707 34.4335C1.34707 33.6833 1.34707 32.9332 1.34707 32.333C1.34707 31.7329 1.34707 31.2828 1.34707 30.6827C1.31989 30.8327 1.31989 31.1328 1.31989 31.2828C1.29271 31.7329 1.26552 32.033 1.18397 32.183C1.15679 32.333 1.12961 32.333 1.10242 32.333C1.04806 32.333 0.993692 32.4831 0.939326 32.4831C0.830593 32.4831 0.694678 32.4831 0.585945 32.4831C0.558762 32.4831 0.504395 32.4831 0.477212 32.333C0.422846 32.183 0.395663 32.183 0.36848 32.033C0.341297 31.8829 0.341297 31.8829 0.341297 31.7329C0.341297 31.4329 0.314114 31.2828 0.314114 30.9828C0.259748 29.9325 0.314114 28.7323 0.314114 27.6821C0.314114 26.4818 0.341297 25.2816 0.36848 24.2313C0.450029 19.8804 1.04806 16.4297 1.782 16.4297C2.1082 16.4297 2.4344 16.4297 2.76059 16.4297C3.00524 16.4297 3.24989 16.4297 3.49454 16.4297H3.57609C4.17412 16.4297 4.74496 16.4297 5.34299 16.4297C5.61482 16.4297 5.85947 16.4297 6.1313 16.4297C6.2944 16.4297 6.4575 16.4297 6.59341 16.4297C6.89243 16.4297 7.19144 16.4297 7.49046 16.4297C7.87102 16.4297 8.25158 16.4297 8.63215 16.4297C9.01271 16.4297 9.39327 16.4297 9.77384 16.4297C10.1544 16.4297 10.535 16.4297 10.9155 16.4297C11.2961 16.4297 11.6767 16.4297 12.0572 16.4297C12.4378 16.4297 12.8183 16.4297 13.1989 16.4297H13.661C13.7698 16.4297 13.9057 16.4297 14.0144 16.4297H14.1231C14.5309 16.4297 14.9386 16.4297 15.3192 16.4297C15.6454 16.4297 15.9716 16.4297 16.325 16.4297H16.7327C17.0317 16.4297 17.3307 16.4297 17.6298 16.4297C18.0103 16.4297 18.3909 16.4297 18.7714 16.4297C19.4782 16.4297 20.185 16.4297 20.8917 16.4297H21.1364C21.8703 16.4297 22.6043 16.4297 23.3654 16.4297H25.1323C25.7303 16.4297 26.3284 16.4297 26.9536 16.4297C28.6117 16.4297 30.2699 16.4297 31.9553 16.4297C32.3902 16.4297 32.7979 16.4297 33.2329 16.4297C33.7493 16.4297 34.2386 16.4297 34.7551 16.4297C35.2716 16.4297 35.7609 16.4297 36.2774 16.4297H36.6579C36.821 16.4297 36.957 16.4297 37.1201 16.4297H37.4191C37.9084 16.4297 38.3705 16.4297 38.8598 16.4297C39.2675 16.4297 39.6481 16.4297 40.0558 16.4297C42.5295 16.4297 45.0032 16.5797 47.504 16.5797C48.0477 16.5797 48.6185 16.5797 49.1622 16.5797C49.3796 16.5797 49.5971 16.5797 49.8146 16.5797C50.0592 16.5797 50.3039 16.5797 50.5485 16.5797C51.2553 16.5797 51.9892 16.5797 52.696 16.5797C53.3484 16.5797 53.9464 19.4303 54.0823 23.3311C54.0823 23.7812 54.0823 24.0813 54.0823 24.5314C54.0823 25.1315 54.0823 25.7316 54.028 26.3318C53.9464 27.0819 53.8105 27.6821 53.7018 28.2822C53.593 28.7323 53.4843 29.1824 53.3756 29.6325C53.2668 30.0826 53.1581 30.6827 53.1037 31.4329C53.0765 31.7329 53.0765 32.033 53.0765 32.333C53.0765 32.7831 53.0765 33.2332 53.1037 33.6833C53.1037 33.0832 53.1309 32.4831 53.1853 31.8829C53.2125 31.5829 53.2668 31.4329 53.294 31.2828C53.5115 30.2326 53.7289 29.1824 53.9464 28.1321C54.0008 27.9821 54.028 27.6821 54.0823 27.8321C54.1367 27.232 54.0823 32.6331 54.0823 33.2332Z" fill="url(#paint3_linear_2228_2688)"/>
<path id="Vector_7" d="M1.34703 29.6325V29.7825C1.34703 29.9326 1.34703 30.0826 1.34703 30.3826V30.5327C1.34703 30.5327 1.34703 30.6827 1.31985 30.6827C1.29267 30.8328 1.26548 31.1328 1.2383 31.2828C1.21112 31.2828 1.21112 31.4329 1.18393 31.4329C1.12957 31.5829 1.04802 31.5829 0.993652 31.7329C1.04802 31.5829 1.10238 31.4329 1.15675 31.1328C1.18393 30.9828 1.21112 30.9828 1.21112 30.8327C1.21112 30.6827 1.21112 30.6827 1.2383 30.5327C1.2383 30.3827 1.2383 30.3827 1.2383 30.2326C1.2383 29.9326 1.26548 29.4825 1.2383 29.1824C1.2383 29.1824 1.2383 29.0324 1.2383 28.8823V28.7323C1.26548 28.2822 1.26548 27.8321 1.26548 27.382C1.26548 27.082 1.26548 26.9319 1.26548 26.6319C1.26548 26.4818 1.26548 26.1818 1.26548 26.0317C1.34703 27.382 1.34703 28.4322 1.34703 29.6325Z" fill="#EB924D"/>
<path id="Vector_8" d="M54.0828 33.2332C54.0828 35.6337 54.0556 38.0342 54.0284 40.4347C54.0012 41.3349 53.974 42.2351 53.9197 43.1353C53.8653 43.7354 53.8109 44.3356 53.7566 44.9357C53.8109 43.8855 53.8381 42.9853 53.8653 41.9351C53.9469 39.0845 53.974 36.0838 53.974 33.0832C53.974 31.5829 53.974 30.0825 53.974 28.5822C53.974 27.9821 53.9197 28.2822 53.8653 28.4322C53.675 29.1824 53.4847 29.9325 53.3216 30.9827C53.2401 31.4328 53.1857 32.0329 53.1585 32.6331C53.077 33.5333 53.077 34.5835 53.077 35.4837C53.077 35.9338 53.077 36.3839 53.077 36.834C53.077 37.134 53.0498 37.4341 53.0498 37.7342C53.0498 37.8842 53.0226 38.0342 53.0226 38.1843C53.0226 38.3343 52.9954 38.4843 52.9954 38.6343C52.9683 37.134 52.9683 35.4837 52.9683 33.9834C52.9683 33.5333 52.9683 32.9332 52.9954 32.4831C53.0226 32.183 53.0498 31.8829 53.1042 31.5829C53.1042 32.033 53.1042 32.4831 53.1314 32.9332C53.1314 32.333 53.1585 31.7329 53.2129 31.1328C53.2401 30.8327 53.2945 30.6827 53.3216 30.5326C53.5391 29.4824 53.7566 28.4322 53.974 27.382C54.0284 27.2319 54.0556 26.9319 54.11 27.0819C54.1371 27.2319 54.0828 32.6331 54.0828 33.2332Z" fill="#EB924D"/>
<path id="Vector_9" d="M8.14317 48.6865C7.81697 49.4366 7.35486 48.6865 7.02866 48.6865C6.56655 48.6865 6.07725 48.6865 5.61514 48.6865C5.61514 48.5364 5.58795 48.3864 5.58795 48.3864C5.58795 48.3864 5.58795 48.3864 5.58795 48.2364C5.12584 44.7856 4.71809 41.3349 4.36471 37.284C3.7395 30.2325 3.4133 22.2809 2.70654 15.6795C2.95119 15.6795 3.19584 15.6795 3.44049 15.6795C3.49485 15.9795 3.52204 16.2796 3.5764 16.5797C3.54922 16.2796 3.54922 15.9795 3.54922 15.6795C4.14725 15.6795 4.71809 15.6795 5.31612 15.6795C5.72387 21.6807 6.1588 27.682 6.64809 33.5332C7.05584 38.4843 7.65387 43.5854 8.14317 48.6865ZM9.01303 31.5828C8.2519 25.8816 7.43641 20.6305 6.56655 15.5294C6.40345 15.5294 6.24035 15.5294 6.10443 15.5294C7.08302 21.2306 8.00725 27.3819 8.84993 33.9833C9.47514 38.7844 10.0732 44.0355 10.7527 48.9865C10.943 48.9865 11.1333 48.9865 11.3236 48.9865C11.378 48.9865 11.4323 48.9865 11.4867 48.9865C10.644 43.2853 9.80134 37.5841 9.01303 31.5828ZM17.6573 32.7831C17.3854 26.9318 17.1136 21.0806 16.733 15.3794H16.3253C16.6243 21.5307 16.8146 27.682 16.9777 33.9833C16.9505 33.8333 16.9505 33.5332 16.9233 33.3832C16.4612 27.832 15.9719 20.9306 15.3467 15.3794C14.9389 15.3794 14.5312 15.3794 14.1506 15.3794C14.2865 18.5301 14.504 21.5307 14.6943 24.5313C14.9661 29.0323 15.2651 33.5332 15.5642 38.0342C15.7816 41.4849 15.9719 45.3857 16.2166 49.1365C16.5699 49.1365 16.9233 49.1365 17.2767 49.1365C17.6301 49.1365 17.9835 49.1365 18.3368 49.1365C18.2009 43.7354 17.9019 38.0342 17.6573 32.7831ZM28.3946 30.3826C28.0412 25.5816 27.6606 20.4805 27.0898 16.5797C27.0354 16.1296 26.9811 15.8295 26.9267 15.3794C26.3015 15.3794 25.6763 15.3794 25.0511 15.3794C25.1326 17.4798 25.2685 19.4303 25.3501 21.8308C25.5404 27.0819 25.8394 32.183 26.084 37.4341C26.1928 40.1346 26.3559 44.9357 26.6549 49.2866C26.8723 49.4366 27.0898 49.5866 27.2801 49.7367C27.2801 48.5364 27.2801 47.3362 27.3073 46.1359C27.3616 47.0361 27.416 48.0863 27.5519 48.8365C27.8509 50.4868 28.3402 49.4366 28.6936 49.5866C28.9654 49.7367 29.2373 49.5866 29.4819 49.5866C29.4275 42.8352 28.7208 34.5835 28.3946 30.3826ZM33.1244 40.7348C33.1516 32.7831 33.4235 23.6311 33.206 15.3794C32.7711 15.3794 32.3633 15.3794 31.9284 15.3794C31.4391 22.1308 31.276 30.0825 31.1129 36.984C31.0585 39.6845 30.8683 44.6356 30.8683 49.2866C31.3304 49.2866 31.8197 49.2866 32.2818 49.2866C32.5536 49.2866 32.8526 49.2866 33.1244 49.2866C33.1516 45.8358 33.1244 42.5352 33.1244 40.7348ZM38.8329 15.5294C38.5883 19.5803 38.4523 23.9312 38.2621 27.832C37.9359 35.1836 37.6097 41.935 37.5825 49.2866C37.8271 49.2866 38.099 49.2866 38.3436 49.2866C38.4252 49.2866 38.5067 49.2866 38.5883 49.2866C38.9416 43.2853 39.1591 37.284 39.4037 30.8327C39.594 26.0317 39.893 20.7805 40.0561 15.5294C39.6212 15.5294 39.2135 15.5294 38.8329 15.5294ZM49.7605 15.6795C49.4071 21.9808 49.0266 28.1321 48.6188 34.2834C48.7004 32.0329 48.7547 29.6324 48.8363 27.3819C48.945 23.9312 49.1353 19.5803 49.1081 15.5294C48.5645 15.5294 47.9936 15.5294 47.45 15.5294C47.1509 20.1804 46.9878 25.7316 46.8247 29.4824C46.5529 35.6337 46.1723 42.2351 46.1452 48.8365C46.5801 48.8365 46.9878 48.8365 47.4228 48.6865C47.9392 48.6865 48.4285 48.6864 48.945 48.5364C49.1897 45.0857 49.38 41.3349 49.5702 37.8842C49.978 30.5326 50.277 23.1811 50.4673 15.6795C50.2498 15.6795 50.0052 15.6795 49.7605 15.6795Z" fill="url(#paint4_linear_2228_2688)"/>
<path id="Vector_10" d="M36.1418 41.3348C36.1961 41.3348 36.2505 41.3348 36.3049 41.4849C36.3592 41.4849 36.4408 41.6349 36.4952 41.6349C36.5495 41.6349 36.6039 41.6349 36.6311 41.6349C37.1476 41.4849 37.6368 41.4849 38.1533 41.4849C38.6698 41.4849 39.1591 41.3348 39.6756 41.3348C40.1921 41.3348 40.6814 41.1848 41.1978 41.1848C41.7143 41.1848 42.2036 41.0348 42.7201 41.0348C43.2366 41.0348 43.7259 40.8847 44.2423 40.8847C44.7588 40.8847 45.2481 40.7347 45.7646 40.7347C46.2811 40.7347 46.7704 40.5847 47.2869 40.5847C47.8033 40.5847 48.2926 40.4347 48.8091 40.4347C49.0266 40.4347 49.244 40.4347 49.4887 40.4347C50.1954 40.4347 50.9022 40.2846 51.609 39.9846C51.908 39.8345 52.207 39.6845 52.4788 38.7843C52.7507 37.8841 53.0497 35.9337 52.9953 34.1333C52.9953 35.9337 52.9681 37.584 52.9681 39.3844C52.9681 40.2846 52.9409 41.4849 52.8322 42.085C52.7235 42.6851 52.5604 42.5351 52.4245 42.5351C51.1197 41.7849 49.8149 43.4353 48.5101 43.4353C47.749 43.4353 46.9878 42.9852 46.2267 42.8351C44.6773 42.6851 43.1822 42.5351 41.6328 42.8351C40.2736 43.1352 38.9416 43.5853 37.5825 43.1352C37.3922 43.1352 37.2019 42.9852 37.0116 43.2852C36.9029 43.4353 36.7942 43.7353 36.6583 43.8854C36.5223 44.0354 36.4136 43.8854 36.2777 43.7353C36.0602 43.5853 35.8699 43.4353 35.6525 43.1352C35.5437 42.9852 35.435 42.8351 35.3535 42.8351C35.3263 42.8351 35.3263 42.8351 35.2991 42.8351C35.2176 42.9852 35.1632 42.8351 35.0816 42.8351C34.837 42.8351 34.5923 42.8352 34.3477 42.9852C33.2875 43.1352 32.2274 43.1352 31.1673 43.2852C29.8353 43.4353 28.5305 41.9349 27.1985 43.1352C26.084 44.1854 24.9695 42.6851 23.855 43.4353C23.6647 43.5853 23.5016 43.7353 23.3113 43.7353C23.0939 43.7353 22.9036 43.5853 22.6861 43.4353C21.8706 42.9852 21.0823 43.2852 20.2668 43.5853C20.2668 44.0354 20.2668 44.4855 20.294 44.7856C20.0222 43.1352 19.6144 43.1352 19.2339 43.1352C18.9077 43.1352 18.5543 43.1352 18.2281 43.1352C15.6729 43.1352 13.1449 42.6851 10.5897 42.8351C10.0188 42.8351 9.47514 42.9852 8.9043 43.4353C9.09458 42.235 9.42078 41.935 9.69261 41.7849C10.943 40.8847 12.1935 41.935 13.4167 42.235C14.5856 42.5351 15.7544 41.4849 16.8961 40.8847C17.467 40.5847 18.065 40.4346 18.6359 40.5847C18.9077 40.7347 19.1523 40.8847 19.4242 41.0348C19.4513 41.0348 19.5057 41.0348 19.5329 41.0348C19.6416 40.8847 19.7775 41.0348 19.8863 41.1848C20.0222 41.1848 20.1309 41.3348 20.2668 41.3348C20.5115 41.3348 20.7833 41.4849 21.028 41.4849C21.5444 41.4849 22.0337 41.6349 22.5502 41.6349C23.0667 41.6349 23.556 41.6349 24.0725 41.6349C24.589 41.6349 25.0783 41.6349 25.5947 41.6349C25.7306 41.6349 25.8666 41.6349 25.9753 41.6349C27.5519 41.9349 29.1557 42.6851 30.7323 41.3348C30.8411 41.1848 30.9498 41.0348 31.0585 41.1848C31.1129 41.3348 31.1673 41.1848 31.2216 41.1848C31.3575 41.1848 31.4663 41.1848 31.6022 41.1848C31.8468 41.1848 32.1187 41.1848 32.3633 41.1848C32.7167 41.1848 33.0973 41.1848 33.4507 41.1848C34.0215 41.1848 34.6195 41.3348 35.1904 41.3348C35.435 41.3348 35.6797 41.3348 35.9243 41.4849C36.0059 41.3348 36.0874 41.3348 36.1418 41.3348Z" fill="#EB924D"/>
<path id="Vector_11" d="M8.36033 47.9365C8.27878 48.2365 8.22442 48.5366 8.14287 48.6866C7.81667 49.4368 7.35456 48.6866 7.02836 48.6866C6.56625 48.6866 6.07695 48.6866 5.61484 48.6866H5.47892C4.2285 48.5366 2.97808 48.5366 1.72765 48.3866C1.10244 48.3866 0.585963 45.836 0.395681 42.3853C0.259766 39.9848 0.259766 37.4342 0.259766 34.8837C0.259766 34.2836 0.259766 33.3834 0.368498 33.0833C0.395681 32.9333 0.450047 32.9333 0.504414 32.9333C0.694695 32.7833 0.884977 32.7833 1.07526 32.6332C1.15681 32.6332 1.21117 32.6332 1.26554 32.7833C1.31991 32.9333 1.37427 33.5334 1.31991 33.8335C1.31991 33.0833 1.31991 32.4832 1.34709 31.733C1.40146 31.733 1.48301 31.733 1.53737 31.583C1.51019 34.1335 1.51019 36.5341 1.51019 39.0846C1.51019 39.8348 1.53737 40.5849 1.61892 41.035C1.70047 41.3351 1.78202 41.3351 1.86357 41.3351C4.28287 41.6351 6.67498 41.7852 9.09428 41.9352C9.01273 42.5353 8.93118 43.2855 8.84963 43.8856C8.904 43.5855 8.87681 42.8354 8.82245 42.5353C8.76808 42.2353 8.65935 42.2353 8.5778 42.2353C6.37597 42.2353 4.14695 42.0852 1.94512 41.9352C1.78202 41.9352 1.59174 41.9352 1.45582 41.1851C1.31991 40.4349 1.31991 39.3847 1.29272 38.3344C1.26554 36.9841 1.26554 35.4838 1.23836 34.1335C1.23836 33.8335 1.23836 33.5334 1.18399 33.2334C1.15681 33.0833 1.12963 32.9333 1.07526 32.9333C0.857794 32.6332 0.640329 32.9333 0.450048 33.5334C0.422865 33.6835 0.395681 33.8335 0.368498 33.9835C0.368498 34.1336 0.341315 34.2836 0.341315 34.4336C0.286949 36.6841 0.232582 40.7349 0.504414 42.5353C0.694695 43.7356 0.803428 45.3859 1.04808 46.2861C1.31991 47.4864 1.70047 47.6364 2.02667 47.6364C2.32568 47.7864 2.6247 47.7864 2.92371 47.9365C3.00526 47.9365 3.11399 48.0865 3.19554 48.0865C3.22272 48.0865 3.27709 48.0865 3.30427 48.0865C3.33146 48.0865 3.35864 48.0865 3.38582 47.9365C3.44019 47.7864 3.49456 47.3363 3.52174 47.0363C3.57611 46.5862 3.60329 45.9861 3.65766 45.536C3.63047 45.9861 3.60329 46.5862 3.60329 47.0363C3.60329 47.1863 3.60329 47.1863 3.60329 47.3363C3.60329 47.4864 3.63047 47.4864 3.65766 47.6364C3.7392 47.7864 3.84794 47.6364 3.92949 47.7864C4.11977 47.7864 4.31005 47.9365 4.50033 47.9365C4.88089 47.9365 5.26146 48.0865 5.64202 48.0865C5.8323 48.0865 6.02259 48.2365 6.21287 48.0865C6.24005 48.0865 6.26723 47.9365 6.29442 47.9365C6.34878 47.9365 6.37597 47.9365 6.43033 47.9365C6.53907 47.9365 6.62061 47.9365 6.72935 47.9365C6.97399 47.9365 7.24583 48.0865 7.49047 48.0865C7.62639 48.0865 7.78949 48.2365 7.95259 48.2365C8.14287 48.5366 8.2516 48.3866 8.36033 47.9365Z" fill="#EB924D"/>
<path id="Vector_12" d="M26.7821 46C18.3839 46 10.0399 45.6067 1.93965 44.6236C1.75001 44.6236 1.61456 43.4438 1.58747 42.0674C1.4791 34.7921 1.4791 28.1067 1.56037 21.618C1.58746 20.2416 1.72292 19.2584 1.91256 19.0618C4.37784 19.0618 6.87022 18.8652 9.3355 18.8652C11.8279 18.8652 14.2932 18.8652 16.7855 18.6685C17.1919 18.6685 17.5983 19.2584 17.9775 18.0787C18.3026 16.8989 18.2519 17.2697 18.5228 15.5C18.3874 16.6798 18.5735 15.5225 18.4652 16.7023C18.4381 16.8989 18.411 17.0955 18.3839 17.2921C18.3297 17.882 18.411 18.0787 18.4652 18.0787C18.7361 18.2753 19.007 18.2753 19.2779 18.4719C19.3863 18.4719 19.5217 18.4719 19.6301 18.4719C19.6843 18.4719 19.7114 18.4719 19.7656 18.4719C19.8197 18.4719 19.901 18.4719 19.9552 18.4719C20.199 18.4719 20.4699 18.4719 20.7137 18.4719C20.8221 18.4719 20.9034 18.4719 21.0117 18.4719C21.5265 18.4719 22.0141 18.4719 22.5288 18.4719C23.0436 18.4719 23.5312 18.4719 24.0459 18.4719C24.5607 18.4719 25.0483 18.4719 25.563 18.4719C25.9965 18.4719 26.4029 18.4719 26.8363 18.4719C28.0825 18.4719 29.3287 18.4719 30.5749 18.4719C31.198 18.4719 31.8482 18.4719 32.4712 18.4719C32.6338 18.4719 32.7692 18.4719 32.9318 18.4719C32.986 18.4719 33.0673 18.4719 33.1214 18.4719C33.1756 18.6685 33.2027 18.6685 33.2298 18.6685C33.3382 18.6685 33.4465 18.6685 33.582 18.4719C33.6362 18.4719 33.7174 18.2753 33.7716 18.0787C33.88 17.882 33.9613 17.2921 34.0425 16.8989C34.1238 16.5056 34.178 15.9157 34.2593 15.5225C34.3405 15.1292 34.2161 15.7315 34.2973 15.3383C34.189 15.9281 34.4057 14.7484 34.2973 15.3383C34.3786 14.7484 34.178 16.1124 34.2593 15.5225C33.9883 18.2753 34.4218 15.5225 34.2322 18.6685C34.2322 18.4719 34.3947 18.4719 34.3947 18.4719C34.4489 18.4719 34.5302 18.4719 34.5843 18.2753C34.7198 18.2753 34.8282 18.2753 34.9636 18.4719C35.2074 18.6685 35.4513 18.6685 35.6951 18.6685C36.2098 18.6685 36.6974 18.6685 37.2122 18.6685C37.7269 18.6685 38.2145 18.6685 38.7293 18.6685C39.244 18.6685 39.7316 18.6685 40.2464 18.6685C40.7611 18.6685 41.2487 18.6685 41.7635 18.6685C42.2782 18.6685 42.7658 18.6685 43.2806 18.6685C43.7953 18.6685 44.2829 18.6685 44.7977 18.6685C45.3124 18.6685 45.8 18.6685 46.3148 18.6685C46.8295 18.6685 47.3171 18.6685 47.8319 18.6685C48.3466 18.6685 48.8342 18.6685 49.349 18.6685C49.8637 18.6685 50.3513 18.6685 50.8661 18.6685C51.3808 18.6685 51.8684 18.6685 52.3832 18.6685C52.4644 18.6685 52.5728 18.6685 52.6541 18.6685C52.8437 18.6685 52.9792 19.8483 53.0063 21.2247C53.0875 27.5169 53.0875 34.2022 52.9792 41.4775C52.9521 43.0505 52.8166 44.0337 52.627 44.0337C43.9037 45.4101 35.2074 46 26.7821 46Z" fill="url(#paint5_linear_2228_2688)"/>
<path id="Vector_13" d="M52.3735 33.3117C52.4278 34.8701 52.4549 36.6883 52.4549 38.2467C52.4549 38.7662 52.4007 43.1818 52.4007 43.1818C52.1293 43.1818 51.8579 43.1818 51.5866 43.1818C50.7725 43.1818 49.9313 43.4415 49.1172 43.4415C48.9273 43.4415 48.7373 43.4415 48.5474 43.4415C47.8147 43.4415 47.1092 43.7013 46.3765 43.7013C46.078 43.7013 45.8067 43.7013 45.5082 43.7013C45.4811 43.7013 45.4268 43.7013 45.3997 43.7013C45.264 43.7013 45.1012 43.7013 44.9655 43.7013C44.1514 43.7013 43.3102 43.9611 42.4961 43.9611C41.5193 43.9611 40.5152 44.4805 39.5112 43.9611C39.4298 43.9611 39.3484 43.7013 39.3213 43.1818C39.2941 42.6623 39.3213 41.8831 39.3484 41.1039C39.4298 38.7662 39.5112 36.4286 39.6198 34.0909C39.4298 36.6883 39.2399 39.2857 39.0228 41.8831C38.9414 42.9221 38.86 43.7013 38.7514 44.2208C38.7243 44.2208 38.6971 44.4805 38.6971 44.4805C38.6157 44.7403 38.5343 44.7403 38.4529 44.4805C38.3444 44.2208 38.2087 44.2208 38.073 44.2208C37.9374 44.2208 37.8017 44.2208 37.6931 44.2208C37.5574 44.2208 37.3946 44.2208 37.259 44.2208C36.065 44.2208 34.8982 44.2208 33.7042 44.4805C33.4328 44.4805 33.1343 44.4805 32.863 44.4805C32.3474 44.4805 31.859 44.4805 31.3434 44.4805C30.4479 44.4805 29.5796 44.4805 28.6841 44.4805C28.0328 44.4805 27.4087 44.4805 26.7575 44.4805H24.9665C23.9625 44.4805 22.9313 44.4805 21.9273 44.4805H21.7102C20.7605 44.4805 19.8379 44.4805 18.8881 44.4805C18.6439 44.4805 18.3725 44.4805 18.1283 44.4805H18.1012C17.9926 44.4805 17.8569 44.4805 17.7484 44.4805C17.667 44.4805 17.5856 44.4805 17.5042 44.4805C17.477 44.4805 17.4228 44.4805 17.3956 44.4805C17.1786 45 16.9886 45 16.7715 45C16.7172 45 16.6901 45 16.6358 45C16.5544 45 16.473 45 16.3916 45C16.3373 45 16.0389 44.7403 16.0389 45C16.1474 42.9221 16.2831 40.8442 16.4188 38.7663C16.5002 37.4676 16.5816 36.4286 16.6901 35.3896C16.5816 35.9091 16.473 36.6883 16.3645 37.4676C16.2288 38.5065 16.1203 39.8052 16.0117 40.8441C15.8218 42.6623 15.5776 44.4805 15.3333 44.4805C15.2519 44.4805 15.1977 43.9611 15.1162 43.9611C15.1162 43.9611 15.1162 43.9611 15.0891 43.9611C15.0077 43.9611 14.9263 43.9611 14.872 43.9611C14.7092 43.9611 14.5193 43.9611 14.3564 43.9611C14.3022 43.9611 14.275 43.961 14.2479 43.7013C14.2208 43.1818 14.2479 42.6623 14.2479 42.1428C14.3564 39.5454 14.4921 37.2078 14.6278 34.8701C14.3836 36.4286 14.2208 39.2857 14.0037 41.1039C13.8951 42.1429 13.7866 42.9221 13.6509 43.4415C13.5152 43.961 13.4067 43.7013 13.271 43.7013C13.1896 43.7013 13.1353 43.7013 13.0539 43.7013C12.6469 43.7013 12.2399 43.7013 11.86 43.7013C11.2901 43.7013 10.7203 43.7013 10.1776 43.4415H9.47202C9.2278 43.4415 9.01072 43.4415 8.79363 43.4415C8.41373 43.4415 8.03383 43.4416 7.65393 43.1818C7.02981 43.1818 6.37856 42.9221 5.75444 42.9221C5.48308 42.9221 5.18459 42.9221 4.91323 42.9221C4.5876 42.9221 4.23484 42.9221 3.88207 42.6624C3.71926 42.6624 2.11826 42.6623 2.09112 42.4026C2.09112 41.3636 2.09112 40.065 2.06399 38.7663C2.03685 37.987 2.00971 37.4675 2.00971 36.948C1.98258 35.3896 2.03685 33.052 2.17253 32.2727C2.2268 32.013 2.28107 32.013 2.33534 32.013C2.79665 31.4935 3.25795 31.2338 3.69213 30.7143C3.71926 30.7143 3.7464 30.7143 3.77353 30.7143C3.31223 30.7143 2.85092 30.4545 2.38961 30.4545C2.28107 30.4545 2.17253 30.4545 2.09112 29.9351C2.03685 29.6753 2.00971 29.4156 2.00971 28.8961C2.00971 28.1169 2.03685 20.3247 2.03685 20.3247C2.63383 20.3247 3.20368 20.3247 3.80067 20.3247C4.61474 20.3247 5.40167 20.3247 6.21574 20.3247C6.59564 20.3247 6.94841 20.3247 7.32831 20.3247C7.65393 20.3247 8.0067 20.3247 8.33233 20.3247C10.3404 20.3247 12.3755 20.0649 14.4107 20.0649C14.7906 20.0649 15.1705 20.0649 15.5504 20.0649C15.9303 20.0649 16.3102 20.0649 16.7173 20.0649C16.9072 20.0649 17.0971 20.0649 17.3142 20.0649C18.5353 20.0649 19.7564 20.0649 20.9776 20.0649H21.0861C22.5786 20.0649 24.071 20.0649 25.5635 20.0649H27.6801C28.3313 20.0649 28.9826 20.0649 29.6338 20.0649C29.7966 20.0649 29.9323 20.0649 30.0951 20.0649C30.2037 20.0649 30.3122 19.8052 30.4208 20.3247C30.5022 20.8442 30.5836 21.1039 30.6921 21.1039C30.7464 21.1039 31.072 21.1039 31.072 20.5844C31.0178 23.7013 30.9363 26.8182 30.8278 29.9351C31.0177 28.6364 31.1534 26.5585 31.2891 24.4805C31.3705 23.1818 31.4519 21.8831 31.5605 21.1039L31.5876 20.8442C31.6419 20.3247 31.6961 20.0649 31.7775 20.0649C31.9404 20.0649 32.076 20.3247 32.2389 20.3247C32.3474 20.3247 32.4559 20.5844 32.5645 20.5844C32.7273 20.8442 32.8901 20.5844 33.0258 21.6234C32.673 26.2987 32.3203 31.2338 31.9675 35.9091C31.9132 36.6883 31.859 37.2078 31.8318 37.987C32.2389 34.3507 32.6188 30.1948 32.9715 26.039C33.0529 25 33.1615 23.961 33.2429 22.6623C33.2971 22.1428 33.3243 21.3637 33.4057 21.1039C33.46 20.8442 33.5142 20.8442 33.5685 20.8442C34.4368 20.0649 35.3052 20.3247 36.2007 20.3247C36.9333 20.3247 37.666 20.3247 38.3987 20.3247C38.67 20.3247 38.9414 20.3247 39.2127 20.3247H39.267C40.2439 20.3247 41.2479 20.3247 42.2248 20.3247C43.2288 20.3247 44.2328 20.3247 45.264 20.3247C45.4539 20.3247 45.6439 20.3247 45.8067 20.3247H46.1323C46.4308 20.3247 46.7564 20.3247 47.0549 20.3247C47.462 20.3247 47.8961 20.3247 48.3032 20.3247C48.4389 20.3247 48.5745 20.3247 48.7102 20.3247C48.8188 20.3247 48.9002 20.3247 49.0087 20.3247C49.3343 20.3247 49.66 20.3247 49.9856 20.3247C50.4469 20.3247 50.9082 20.3247 51.3695 20.3247C51.7494 20.3247 52.1293 20.3247 52.5092 20.3247C52.5363 20.3247 52.5363 25.2598 52.5363 25.7792C52.5363 26.039 52.5635 26.2987 52.5635 26.5584C52.5635 27.3377 52.5363 28.1169 52.4821 28.6364C52.4007 29.1558 52.3193 29.4156 52.2107 29.4156C51.3424 30.4546 50.5012 31.4935 49.6328 30.974C49.5243 30.974 49.3886 30.974 49.2801 30.7143C49.3886 30.974 49.4971 30.974 49.6328 30.974C50.5012 32.5325 51.4509 33.052 52.3735 33.3117Z" fill="url(#paint6_linear_2228_2688)"/>
<path id="Vector_14" d="M54.0555 23.6313C54.0555 24.2314 54.0555 24.8316 54.0012 25.4317C54.1099 22.281 53.7837 18.5302 53.2672 17.48C53.077 17.1799 52.8867 17.0299 52.6964 17.0299C51.5547 16.7298 50.413 16.2797 49.2985 16.1297C49.2985 16.1297 49.2985 16.1297 49.2713 16.1297C48.7548 15.9797 48.2655 15.9797 47.7491 15.8296C47.2326 15.8296 46.7433 15.6796 46.2268 15.6796C45.7103 15.6796 45.221 15.6796 44.7046 15.6796C44.1881 15.6796 43.6988 15.6796 43.1823 15.6796C42.6658 15.6796 42.1765 15.8296 41.66 15.8296C41.1436 15.8296 40.6543 15.9797 40.1378 15.9797C39.6213 15.9797 39.132 16.1297 38.6155 16.1297C38.3709 16.1297 38.0991 16.1297 37.8544 16.2797C37.6913 16.2797 37.5554 16.2797 37.3923 16.1297C37.3651 16.1297 37.3379 15.9797 37.3107 15.9797C37.2292 15.8297 37.1748 15.6796 37.0933 15.6796C36.9846 15.5296 36.8758 15.6796 36.7671 15.6796C36.4409 15.6796 36.1419 15.6796 35.8157 15.6796C34.5653 15.6796 33.3148 15.5296 32.0372 15.5296C31.9285 15.5296 31.8198 15.5296 31.711 15.5296C31.6838 15.5296 31.6838 15.5296 31.6567 15.6796C31.6023 15.8297 31.5479 15.9797 31.4664 16.1297C31.3305 16.4298 31.1674 16.8799 31.0314 17.1799C31.0314 16.8799 31.0314 16.5798 31.0314 16.4298V16.2797H31.0043C30.9227 16.2797 30.8412 16.1297 30.7324 16.1297C30.7053 16.1297 30.6509 16.1297 30.6237 15.9797C30.5965 15.9797 30.5693 15.8296 30.5422 15.8296C30.4606 15.6796 30.3791 15.8296 30.2975 15.8296C30.216 15.8296 30.1072 15.8296 30.0257 15.8296C29.6451 15.8296 29.2645 15.8296 28.884 15.8296C28.5034 15.8296 28.1229 15.8296 27.7423 15.8296C27.3617 15.8296 26.9812 15.8296 26.6006 15.8296C26.22 15.8296 25.8395 15.8296 25.4589 15.8296C25.3502 15.8296 25.2686 15.8296 25.1599 15.8296H25.0783C25.024 15.8296 24.9424 15.8296 24.8881 15.8296C24.8337 15.8296 24.7793 15.6796 24.7521 15.5296C24.6706 15.3796 24.589 15.5296 24.5075 15.5296C24.29 15.5296 24.0454 15.5296 23.8279 15.5296C23.4474 15.5296 23.0668 15.6796 22.6862 15.6796C22.3057 15.6796 21.9251 15.6796 21.5445 15.8296C21.164 15.8296 20.7834 15.8297 20.4028 15.9797C20.0223 15.9797 19.6417 15.9797 19.2612 15.9797C18.8806 15.9797 18.5 15.9797 18.1195 15.9797C17.7389 15.9797 17.3583 15.9797 16.9778 15.9797C16.5972 15.9797 16.2167 15.9797 15.8361 15.9797H14.1236C14.042 15.9797 13.9876 15.9797 13.9061 15.8296C13.8789 15.8296 13.8517 15.6796 13.8245 15.6796C13.6614 15.5296 13.4712 15.6796 13.2809 15.6796C12.9003 15.6796 12.5197 15.6796 12.1392 15.6796C11.7586 15.6796 11.3781 15.6796 10.9975 15.6796C10.6169 15.6796 10.2364 15.6796 9.8558 15.6796C9.47524 15.6796 9.09467 15.8296 8.71411 15.8296C8.52383 15.8296 8.33355 15.9797 8.14327 15.9797C8.06172 15.9797 7.95298 15.9797 7.87143 15.9797C7.81707 15.9797 7.78989 15.9797 7.73552 15.9797C7.70834 15.9797 7.5996 15.9797 7.5996 15.9797C7.5996 16.2797 7.57242 16.5798 7.57242 16.7298C7.49087 15.8297 7.27341 15.6796 7.08312 15.6796C6.89284 15.6796 6.70256 15.6796 6.51228 15.6796C6.13172 15.6796 5.75115 15.6796 5.37059 15.6796C4.99002 15.6796 4.60946 15.6796 4.2289 15.6796C4.03862 15.6796 3.84833 15.6796 3.65805 15.6796C3.63087 15.6796 3.5765 15.6796 3.54932 15.6796C3.44059 15.5296 3.33186 15.5296 3.22312 15.3795C2.76101 15.0795 2.2989 14.7794 1.83678 15.2295C1.26594 15.8297 0.66791 17.7801 0.450445 21.0808C0.287346 23.4813 0.314529 26.0318 0.368895 28.5823C0.368895 29.0324 0.396079 29.4825 0.396079 29.9326C0.396079 30.2327 0.423262 30.6828 0.450445 30.9829C0.396079 30.8328 0.368895 30.8328 0.341712 30.6828C0.314529 30.5328 0.31453 30.5327 0.31453 30.3827C0.31453 30.0827 0.287346 29.9326 0.287346 29.6326C0.23298 28.5823 0.287346 27.3821 0.287346 26.3319C0.287346 25.1316 0.314529 23.9314 0.341712 22.8811C0.423262 18.5302 1.02129 15.0795 1.75523 15.0795C2.08143 15.0795 2.40763 15.0795 2.73383 15.0795C2.97847 15.0795 3.22312 15.0795 3.46777 15.0795H3.54932C4.14735 15.0795 4.71819 15.0795 5.31622 15.0795C5.58805 15.0795 5.8327 15.0795 6.10453 15.0795C6.26763 15.0795 6.43073 15.0795 6.56665 15.0795C6.86566 15.0795 7.16467 15.0795 7.46369 15.0795C7.84425 15.0795 8.22481 15.0795 8.60538 15.0795C8.98594 15.0795 9.36651 15.0795 9.74707 15.0795C10.1276 15.0795 10.5082 15.0795 10.8888 15.0795C11.2693 15.0795 11.6499 15.0795 12.0305 15.0795C12.411 15.0795 12.7916 15.0795 13.1721 15.0795H13.1993C13.2809 15.0795 13.3352 15.0795 13.4168 15.0795H13.444C13.4712 15.0795 13.4983 15.0795 13.5255 15.0795C13.5527 15.0795 13.5799 15.0795 13.6071 15.0795H13.6343C13.743 15.0795 13.8789 15.0795 13.9876 15.0795H14.1236C14.5313 15.0795 14.939 15.0795 15.3196 15.0795C15.6458 15.0795 15.972 15.0795 16.3254 15.0795H16.7331C17.0321 15.0795 17.3312 15.0795 17.6302 15.0795C18.0107 15.0795 18.3913 15.0795 18.7719 15.0795C19.1524 15.0795 19.533 15.0795 19.9136 15.0795H21.1096C21.463 15.0795 21.8164 15.0795 22.1969 15.0795H23.9095C23.991 15.0795 24.0998 15.0795 24.2085 15.0795C24.2357 15.0795 24.2629 15.2295 24.29 15.0795C24.3172 15.0795 24.3444 15.0795 24.3444 15.0795H25.1055C25.7036 15.0795 26.3016 15.0795 26.9268 15.0795C28.585 15.0795 30.2431 15.0795 31.9285 15.0795C32.3634 15.0795 32.7712 15.0795 33.2061 15.0795C33.7226 15.0795 34.2119 15.0795 34.7284 15.0795C35.2448 15.0795 35.7341 15.0795 36.2506 15.0795H36.6312C36.7399 15.0795 36.8214 15.3796 36.9302 15.2295C36.9845 15.2295 37.0389 15.0795 37.0933 15.0795H37.3923C37.8816 15.0795 38.3437 15.0795 38.833 15.0795C39.2407 15.0795 39.6213 15.0795 40.0291 15.0795C42.5027 15.0795 44.9764 15.2295 47.4772 15.2295C48.0209 15.2295 48.5917 15.2295 49.1354 15.2295C49.3529 15.2295 49.5703 15.2295 49.7878 15.2295C50.0324 15.2295 50.2771 15.2295 50.5217 15.2295C51.2285 15.2295 51.9624 15.2295 52.6692 15.2295C53.3216 15.2295 53.9196 18.0801 54.0555 21.981C54.0555 22.8811 54.0555 23.3312 54.0555 23.6313Z" fill="#EB924D"/>
<path id="Vector_15" d="M18.2555 20.9305C18.2284 21.0805 18.2284 21.2305 18.2012 21.3806C18.2012 21.5306 18.2012 21.8307 18.2012 21.9807C18.2284 22.1307 18.3099 21.9807 18.3371 21.9807C18.4458 21.9807 18.5274 21.9807 18.6361 21.9807C18.7992 21.9807 18.9623 21.9807 19.1526 21.8307C19.0438 21.6806 18.9351 21.8307 18.8264 21.8307C18.6633 21.8307 18.473 21.5306 18.3099 21.2306C18.3915 20.6304 18.473 20.0303 18.5546 19.4302C18.5274 19.5802 18.473 19.7302 18.4458 19.8803C18.4186 20.0303 18.3643 20.1803 18.3371 20.4804C18.3371 20.6304 18.2827 20.7805 18.2555 20.9305Z" fill="#EB924D"/>
<path id="Vector_16" d="M34.4022 20.6307C34.375 20.7807 34.3478 20.9308 34.375 21.2308C34.375 21.3808 34.4022 21.5309 34.4294 21.6809C34.4566 21.6809 34.4837 21.6809 34.5109 21.6809C34.674 21.6809 34.8371 21.5309 35.0002 21.5309C35.0818 21.5309 35.1633 21.5309 35.2177 21.5309C35.3264 21.5309 35.4623 21.8309 35.5711 21.8309C35.7885 21.981 36.006 21.8309 36.2506 22.131H36.2235H36.1963C36.1691 22.131 36.1691 22.131 36.1419 22.131C36.0876 22.131 36.0604 22.131 36.006 22.131C35.9245 22.131 35.8429 21.981 35.7614 21.981C35.7342 21.981 35.6798 21.981 35.6526 21.981C35.6254 21.981 35.6254 21.981 35.5983 21.981H35.5711C35.4895 21.981 35.3808 21.981 35.2992 21.981C35.2177 21.981 35.1633 21.981 35.0818 21.981C34.9459 21.981 34.8099 22.131 34.674 22.131C34.5925 22.131 34.4837 22.131 34.4022 22.131C34.375 22.131 34.375 22.131 34.3478 22.131C34.3206 22.131 34.3206 22.131 34.2935 22.131C34.2663 22.131 34.2391 22.131 34.2119 21.981C34.2119 21.981 34.2119 21.981 34.2119 21.8309V21.6809C34.2391 21.3809 34.2663 21.0808 34.2935 20.9308C34.3206 20.7807 34.3206 20.6307 34.3478 20.6307C34.3478 20.6307 34.3478 20.6307 34.375 20.4807C34.4022 20.3306 34.4022 20.3306 34.4022 20.1806C34.4837 19.4304 34.6197 18.6803 34.7284 18.0801C34.7556 18.0801 34.7556 17.9301 34.7828 17.9301C34.8099 17.9301 34.8099 17.7801 34.8371 17.63C34.8643 17.33 34.9187 17.1799 34.9459 16.8799C34.8371 17.63 34.7284 18.3802 34.6468 19.2804C34.6197 19.4304 34.6197 19.4304 34.5925 19.5805C34.5109 19.8805 34.4837 20.3306 34.4022 20.6307C34.4294 20.6307 34.4294 20.6307 34.4022 20.6307Z" fill="#EB924D"/>
<path id="Vector_17" d="M20.865 49.2868C20.6748 49.2868 20.4845 49.2868 20.267 49.2868C19.7777 49.2868 19.2612 49.2868 18.7719 49.2868C18.636 49.2868 18.5001 49.2868 18.337 49.2868C17.9836 49.2868 17.6303 49.2868 17.2769 49.2868C16.9235 49.2868 16.5701 49.2868 16.2167 49.2868C16.0808 49.2868 15.9449 49.2868 15.7818 49.2868C15.2925 49.2868 14.776 49.2868 14.2867 49.2868C13.7974 49.2868 13.281 49.2868 12.7917 49.2868C12.3567 49.2868 11.9218 49.2868 11.4869 49.2868C11.4325 49.2868 11.3781 49.2868 11.3238 49.2868C11.1335 49.2868 10.9432 49.2868 10.7529 49.2868C10.1821 49.2868 9.61123 49.1368 9.04039 49.1368C8.98602 49.1368 8.41518 49.2868 8.49673 48.5367C8.63264 47.3364 8.76856 46.1362 8.90447 45.0859C8.87729 45.386 8.85011 45.6861 8.82292 45.9861C8.76856 46.7363 8.68701 47.4865 8.63264 48.2366C8.93166 48.6867 9.25786 48.6867 9.58405 48.8367C13.3081 49.7369 17.0594 48.6867 20.7835 49.4369C20.7835 48.9868 20.8379 49.1368 20.865 49.2868Z" fill="#EB924D"/>
<path id="Vector_18" d="M25.3775 48.3864C25.3775 48.5365 25.3775 48.8366 25.3503 48.9866C25.2959 49.2867 25.2144 49.1366 25.1328 49.1366C25.1056 49.1366 25.0785 49.2867 25.0513 49.4367C24.9697 49.7368 24.861 49.5867 24.7794 49.5867C24.2901 49.5867 23.7737 49.5867 23.2844 49.5867C22.7951 49.5867 22.2786 49.5867 21.7893 49.5867C21.4903 49.5867 21.1913 49.5867 20.8923 49.5867H20.8379C20.8651 49.4367 20.9194 49.4367 20.9738 49.4367C21.2728 49.4367 21.5447 49.2866 21.8437 49.2866C22.1427 49.2866 22.4145 49.1366 22.7135 49.1366C23.0125 49.1366 23.2844 49.1366 23.5834 49.1366C23.8824 49.1366 24.1542 49.1366 24.4532 49.2866C24.4804 49.2866 24.5348 49.2866 24.562 49.2866C24.8338 49.2866 25.1328 49.4367 25.3503 48.3864C25.3231 48.2364 25.3503 48.2364 25.3775 48.3864Z" fill="#EB924D"/>
<path id="Vector_19" d="M25.7031 48.2363C25.8119 48.6864 25.9478 48.9865 26.0837 48.9865C25.9478 48.9865 25.8391 49.1365 25.7303 49.4366C25.6216 48.2363 25.4857 47.0361 25.377 45.9858C25.4857 46.736 25.5672 47.6362 25.7031 48.2363Z" fill="#EB924D"/>
<path id="Vector_20" d="M27.2797 48.8364C27.2797 49.1365 27.2797 49.2865 27.2797 49.5866C27.0622 49.4366 26.872 49.2865 26.6545 49.1365C26.5186 49.1365 26.3827 48.9865 26.2739 48.9865C26.3011 48.9865 26.3283 48.9865 26.3555 48.9865C26.6545 48.9865 26.9535 48.9865 27.2797 48.8364Z" fill="#EB924D"/>
<path id="Vector_21" d="M30.8955 49.2868H30.7595C30.4333 49.2868 30.1343 49.2868 29.8081 49.2868C29.6994 49.2868 29.5635 49.2868 29.4276 49.2868C29.1557 49.2868 28.8839 49.2868 28.6393 49.2868C28.2859 49.1368 27.7966 50.187 27.4976 48.5366C27.4704 48.3866 27.4432 48.2366 27.416 47.9365C27.8781 49.4368 28.449 49.1368 28.9926 48.8367C29.645 48.8367 30.2974 48.8367 30.8955 49.2868Z" fill="#EB924D"/>
<path id="Vector_22" d="M42.8828 48.5365C42.9915 48.2365 43.0731 47.9364 43.1546 47.4863C43.1546 47.6364 43.1275 47.7864 43.1275 47.7864C43.1003 48.0865 43.0731 48.5366 42.9915 48.6866C42.9372 48.6866 42.8828 48.5365 42.8284 48.5365C42.8013 48.5365 42.7741 48.6866 42.7469 48.8366C42.7197 48.8366 42.7197 48.8366 42.6925 48.9866C42.5566 49.1367 42.3935 48.9866 42.2576 48.9866C41.9586 48.9866 41.6596 48.9866 41.3606 48.9866C40.8441 48.9866 40.3548 48.9866 39.8383 48.9866C39.4034 48.9866 38.9956 48.9866 38.5607 48.9866C38.4791 48.9866 38.3976 48.9866 38.3161 48.9866C38.0714 48.9866 37.7996 48.9866 37.5549 48.9866C37.3103 48.9866 37.0656 48.9866 36.821 48.9866C36.3045 48.9866 35.8152 48.9866 35.2987 48.9866C34.8094 48.9866 34.2929 48.9866 33.7765 48.9866C33.559 48.9866 33.3144 48.9866 33.0969 48.9866C32.8251 48.9866 32.526 48.9866 32.2542 48.9866C31.7921 48.9866 31.33 48.9866 30.8679 48.9866H30.4058C30.4329 48.8366 30.4873 48.8366 30.5417 48.8366C30.9222 48.6866 31.3028 48.6866 31.6834 48.5365C31.8465 48.5365 32.0096 48.3865 32.1998 48.3865C32.227 48.3865 32.2814 48.3865 32.3086 48.3865C32.3629 48.3865 32.4173 48.5365 32.4445 48.5365C32.5804 48.6866 32.7435 48.5365 32.8794 48.5365C32.961 48.5365 33.0425 48.3865 33.1241 48.5365C33.1513 48.5365 33.2056 48.5366 33.2328 48.6866C33.3144 48.6866 33.3959 48.6866 33.4775 48.6866C33.6406 48.6866 33.8037 48.5365 33.9668 48.3865C33.9939 48.3865 34.0211 48.3865 34.0483 48.3865C34.0755 48.3865 34.1027 48.5365 34.1299 48.5365C34.293 49.1367 34.456 48.8366 34.6463 48.6866C34.7822 48.5366 34.891 48.5365 35.0269 48.5365C35.0813 48.5365 35.1628 48.5365 35.2172 48.5365C35.489 48.5365 35.788 48.5366 36.0599 48.6866C36.4404 48.6866 36.821 48.6866 37.2015 48.6866C37.5821 48.6866 37.9627 48.6866 38.3432 48.6866C38.7238 48.6866 39.1044 48.6866 39.4849 48.5365C39.6752 48.5365 39.8927 48.5365 40.1101 48.3865C40.3276 48.3865 40.5179 48.2365 40.7353 48.3865C40.9256 48.3865 41.1159 48.5365 41.3062 48.5365C41.3877 48.5365 41.4693 48.5365 41.5508 48.3865C41.6052 48.2365 41.6324 48.0864 41.6868 48.0864C41.7139 48.0864 41.7411 47.9364 41.7683 47.9364C41.9314 47.7864 42.0945 47.9364 42.2576 47.9364C42.4751 48.3865 42.6925 48.3865 42.8828 48.5365Z" fill="#EB924D"/>
<path id="Vector_23" d="M53.9193 43.1353C53.7018 46.1359 53.1853 48.2363 52.6145 48.3864C52.4242 48.3864 52.2067 48.3864 52.0165 48.3864C51.5 48.3864 51.0107 48.5364 50.4942 48.5364C49.9777 48.5364 49.4884 48.5364 48.972 48.6864C48.4555 48.6864 47.9662 48.6864 47.4497 48.8365C47.0148 48.8365 46.607 48.8365 46.1721 48.9865C46.0905 48.9865 46.009 48.9865 45.9275 48.9865C45.411 48.9865 44.9217 48.9865 44.4052 49.1365C44.2421 49.1365 44.1062 49.1365 43.9431 49.1365C43.78 49.1365 43.6441 48.9865 43.481 48.9865C43.4538 48.9865 43.4266 48.9865 43.3994 48.8365C43.3451 48.6864 43.3451 48.3864 43.3451 48.0863C43.3451 47.6362 43.3179 47.0361 43.3179 46.586C43.3179 47.3361 43.4266 48.0863 43.5353 48.5364C43.6713 48.8365 43.8072 48.8365 43.9431 48.8365C44.4324 48.8365 44.9489 48.8365 45.4382 48.8365C45.6828 48.8365 45.9003 48.8365 46.1449 48.8365C46.2536 48.8365 46.3624 48.8365 46.4711 48.8365C46.5255 48.8365 46.5798 48.8365 46.6342 48.8365C46.6886 48.8365 46.7429 48.8365 46.7973 48.8365C46.8245 48.8365 46.8517 48.6864 46.906 48.6864C46.9604 48.6864 46.9876 48.6864 47.042 48.6864C47.2322 48.6864 47.4225 48.5364 47.6128 48.5364C47.9118 48.5364 48.238 48.3864 48.537 48.3864C48.836 48.3864 49.1351 48.2363 49.4341 48.2363C49.7875 48.2363 50.1408 48.2363 50.467 48.0863C50.8204 48.0863 51.1466 48.0863 51.5 48.0863C51.8534 48.0863 52.2339 48.2363 52.5873 48.0863C52.7776 47.9363 52.9679 47.7862 53.131 47.6362C53.1582 47.6362 53.2125 47.4862 53.2397 47.4862C53.2397 47.4862 53.2397 47.4862 53.2669 47.4862C53.2941 47.4862 53.2941 47.3361 53.3213 47.3361C53.43 46.8861 53.5387 46.2859 53.6475 45.8358C53.7018 45.6858 53.729 45.3857 53.7562 45.0857C53.7834 44.9356 53.7834 44.6356 53.8106 44.4856C53.8377 43.7354 53.8649 43.4353 53.9193 43.1353Z" fill="#EB924D"/>
<path id="Vector_24" d="M7.36351 42.5306C6.73401 42.5306 6.07714 42.2857 5.44764 42.2857C5.17394 42.2857 4.87288 42.2857 4.59918 42.2857C4.54444 41.3061 4.4897 40.3265 4.43496 39.5918C4.10653 33.4694 3.80546 27.3469 3.50439 20.7347C4.32548 20.7347 5.1192 20.7347 5.94029 20.7347C6.07714 22.6939 6.21399 24.6531 6.32347 26.6123C6.67927 31.7551 7.03508 37.1429 7.36351 42.5306ZM9.22465 33.9592C8.86884 29.3061 8.48567 24.6531 8.10249 20.4898C7.74669 20.4898 7.41825 20.4898 7.08982 20.4898C7.47299 27.5919 7.93828 34.2041 8.43093 40.8163C8.48567 41.3061 8.51304 42.0408 8.56778 42.5306C8.8141 42.5306 9.03306 42.5306 9.25202 42.5306H9.96363C9.68993 39.8368 9.41624 36.898 9.22465 33.9592ZM15.3828 20.2449C14.9996 20.2449 14.6165 20.2449 14.2333 20.2449C14.3701 28.0816 14.6165 35.6735 14.9175 43.0204C14.9175 43.0204 14.9175 43.0204 14.9449 43.0204C15.027 43.0204 15.0817 43.5102 15.1639 43.5102C15.4102 43.5102 15.6565 41.7959 15.8481 40.0817C15.9576 39.1021 16.0944 37.8776 16.2039 36.898C15.9576 31.2653 15.6839 25.6327 15.3828 20.2449ZM16.2586 38.1225C16.1218 40.0816 15.9849 41.7959 15.8755 44C15.9028 43.7551 16.2039 44 16.2313 44C16.3134 44 16.3955 44 16.4776 44C16.4229 41.7959 16.3408 39.8368 16.2586 38.1225ZM17.1345 20.2449C16.9429 20.2449 16.7513 20.2449 16.5323 20.2449C16.7787 27.8367 17.0524 35.6735 17.3534 43.0204C17.4355 43.0204 17.5176 43.0204 17.5998 43.0204C17.7092 43.0204 17.8461 43.0204 17.9556 43.0204C17.7092 35.4286 17.4355 27.8367 17.1345 20.2449ZM28.0002 29.7959C27.8634 26.6122 27.7265 23.4286 27.5623 20.2449H25.4275C25.5369 27.1021 25.7012 33.9592 25.9201 40.5714C25.9475 41.551 25.9749 42.5306 26.0022 43.2653H26.6865C27.3433 43.2653 27.9728 43.2653 28.6297 43.2653C28.4108 38.8571 28.1918 34.2041 28.0002 29.7959ZM32.5436 20.4898C32.4341 20.4898 32.3246 20.2449 32.2151 20.2449C32.0509 20.2449 31.8867 20 31.7499 20C31.6677 20 31.613 20.4898 31.5583 20.7347L31.5309 20.9796C31.5035 25.1429 31.4762 29.3061 31.4488 32.7347C31.4214 36.1633 31.3667 39.8367 31.3393 43.5102C31.8593 43.5102 32.352 43.5102 32.872 43.5102C32.8994 40.5714 32.8994 37.6326 32.9268 34.6939C32.9541 32 32.9815 29.0612 33.0089 25.8776C33.0362 24.4082 33.0362 23.1837 33.0362 21.7143C32.872 20.4898 32.7078 20.7347 32.5436 20.4898ZM39.2765 20.2449C39.0028 20.2449 38.7291 20.2449 38.4554 20.2449C38.1817 27.5918 37.9354 35.4286 37.7438 43.0204C37.8807 43.0204 38.0175 43.0204 38.127 43.0204C38.2638 43.0204 38.4007 42.7755 38.5102 43.2653C38.5923 43.5102 38.6744 43.5102 38.7565 43.2653C38.9481 35.6735 39.1397 28.0816 39.3312 20.2449H39.2765ZM49.1296 20.7347C48.9106 25.6327 48.6643 30.5306 48.418 35.6735V35.4286C48.5274 30.7755 48.6917 25.8776 48.8011 20.9796C48.6643 20.9796 48.5274 20.9796 48.3906 20.9796C47.98 20.9796 47.5421 20.9796 47.1316 20.9796C47.0495 24.4082 46.9674 28.0816 46.8579 31.2653C46.7484 34.9388 46.6389 38.8571 46.5295 42.7755C47.2684 42.7755 47.98 42.5306 48.719 42.5306C48.9106 42.5306 49.1022 42.5306 49.2938 42.5306C49.2938 42.2857 49.3212 42.0408 49.3212 41.551C49.458 38.1225 49.5949 34.6939 49.7043 31.0204C49.7043 31.0204 49.7043 31.0204 49.7043 30.7755C49.8138 27.347 49.9507 24.1633 50.0601 20.7347C49.7864 20.7347 49.458 20.7347 49.1296 20.7347ZM45.9273 20.4898C45.6536 27.8368 45.3799 35.1837 45.1336 42.5306C45.2705 42.5306 45.4347 42.5306 45.5715 42.5306C45.8178 35.1837 46.0368 27.8368 46.2558 20.4898H45.9273ZM20.9389 20.2449H20.8294C21.0757 28.0816 21.3494 35.6735 21.5957 43.5102H21.7599C21.4862 35.6735 21.2125 27.8367 20.9389 20.2449Z" fill="url(#paint7_linear_2228_2688)"/>
</g>
<defs>
<linearGradient id="paint0_linear_2228_2688" x1="49.2261" y1="75.4522" x2="-1.99269" y2="24.2334" gradientUnits="userSpaceOnUse">
<stop offset="2.7e-07" stop-color="#95D543"/>
<stop offset="0.2613" stop-color="#72B74E"/>
<stop offset="0.5762" stop-color="#4F9959"/>
<stop offset="0.8338" stop-color="#398760"/>
<stop offset="1" stop-color="#318063"/>
</linearGradient>
<linearGradient id="paint1_linear_2228_2688" x1="67.8297" y1="56.8488" x2="16.611" y2="5.63015" gradientUnits="userSpaceOnUse">
<stop offset="2.7e-07" stop-color="#95D543"/>
<stop offset="0.2613" stop-color="#72B74E"/>
<stop offset="0.5762" stop-color="#4F9959"/>
<stop offset="0.8338" stop-color="#398760"/>
<stop offset="1" stop-color="#318063"/>
</linearGradient>
<linearGradient id="paint2_linear_2228_2688" x1="31.5641" y1="-46.4164" x2="18.4177" y2="-38.7653" gradientUnits="userSpaceOnUse">
<stop stop-color="#CF5C2B"/>
<stop offset="1" stop-color="#59173E"/>
</linearGradient>
<linearGradient id="paint3_linear_2228_2688" x1="27.098" y1="-1.17022" x2="33.1956" y2="86.6505" gradientUnits="userSpaceOnUse">
<stop stop-color="#CF5C2B"/>
<stop offset="1" stop-color="#59173E"/>
</linearGradient>
<linearGradient id="paint4_linear_2228_2688" x1="26.6009" y1="1.73206" x2="26.6009" y2="121.884" gradientUnits="userSpaceOnUse">
<stop stop-color="#CF5C2B"/>
<stop offset="1" stop-color="#59173E"/>
</linearGradient>
<linearGradient id="paint5_linear_2228_2688" x1="27.2869" y1="144.336" x2="27.2869" y2="20.543" gradientUnits="userSpaceOnUse">
<stop stop-color="#CF5C2B"/>
<stop offset="1" stop-color="#59173E"/>
</linearGradient>
<linearGradient id="paint6_linear_2228_2688" x1="27.1687" y1="112.168" x2="31.7957" y2="-29.983" gradientUnits="userSpaceOnUse">
<stop stop-color="#CF5C2B"/>
<stop offset="1" stop-color="#59173E"/>
</linearGradient>
<linearGradient id="paint7_linear_2228_2688" x1="26.8107" y1="103.964" x2="26.8107" y2="-46.5393" gradientUnits="userSpaceOnUse">
<stop stop-color="#CF5C2B"/>
<stop offset="1" stop-color="#59173E"/>
</linearGradient>
</defs>
</svg>
