<svg width="137" height="51" viewBox="0 0 137 51" fill="none" xmlns="http://www.w3.org/2000/svg">
<g id="Group">
<g id="Group_2">
<path id="Vector" d="M135.9 40.1994C135.8 39.1994 135.8 38.1994 135.7 37.0994C135.6 35.9994 135.6 34.9994 135.5 33.8994C135.5 33.1994 135.4 32.3994 135.4 31.5994C135.4 30.9994 135.6 29.8994 135.3 29.3994C135.1 29.0994 134.7 28.9994 134.3 28.8994C133.8 28.7994 133.3 28.6994 132.8 28.5994C133.5 28.3994 134.2 28.1994 134.8 27.9994C134.9 27.8994 135.1 27.8994 135.2 27.7994C135.3 27.6994 135.3 27.4994 135.3 27.3994C135.5 25.9994 135.4 24.4994 135.4 23.0994C135.4 21.6994 135.4 20.1994 135.4 18.7994C135.4 17.3994 135.4 16.0994 135.4 14.6994C135.4 14.1994 135.6 13.2994 135.4 12.8994C135.2 12.5994 134.8 12.5994 134.5 12.5994C134.2 12.5994 133.8 12.5994 133.5 12.5994C133 12.5994 132.5 12.6994 132 12.7994C132.7 12.5994 133.3 12.4994 134 12.3994C134.4 12.2994 134.9 12.1994 135.2 11.9994C135.4 11.8994 135.7 11.7994 135.8 11.4994C135.9 11.3994 135.9 11.2994 135.9 11.1994C136 10.8994 136 10.6994 136 10.3994C136 9.69941 136.1 8.99942 136.1 8.29942C136.1 7.89942 136.1 7.59941 136.1 7.19941C136.1 6.99941 136 6.69942 136 6.49942C135.9 5.49942 135.5 4.59941 134.9 3.89941C134.3 3.19941 133.4 2.59941 132.5 2.39941C132.2 2.29941 131.8 2.29941 131.4 2.19941C89.1001 0.799414 47.7001 0.799414 7.20014 2.19941C7.00014 2.19941 6.90014 2.19941 6.70014 2.19941C6.50014 2.19941 6.40014 2.29941 6.20014 2.39941C5.90014 2.49941 5.50014 2.59942 5.20014 2.79942C4.60014 3.09942 4.00015 3.49942 3.60015 4.09942C3.40015 4.39942 3.20014 4.79942 3.00014 5.09942C2.90014 5.29942 2.70014 5.39942 2.70014 5.59942C2.30014 6.49942 1.80014 7.29942 1.20014 8.09942C0.600138 8.79942 0.400141 9.99941 0.500141 10.8994C0.600141 12.0994 0.600138 13.3994 0.700138 14.5994C0.900138 16.5994 0.700135 18.4994 0.900135 20.4994C0.900135 20.7994 1.00014 21.0994 1.20014 21.2994C1.30014 21.3994 1.50014 21.4994 1.70014 21.4994C2.30014 21.5994 2.90015 21.7994 3.60015 21.8994C2.80015 22.3994 1.70014 22.3994 1.30014 23.2994C1.20014 23.5994 1.10015 23.8994 1.10015 24.1994C1.00015 25.2994 0.900135 26.2994 0.900135 27.3994C0.900135 27.8994 0.800145 28.2994 0.800145 28.7994C0.800145 29.2994 0.700138 29.6994 0.700138 30.0994C0.600138 31.0994 0.300138 32.4994 0.700138 33.4994C1.00014 34.4994 2.20015 34.4994 3.10015 34.7994C2.70015 34.8994 2.30014 35.1994 2.00014 35.5994C1.90014 35.7994 1.80015 35.9994 1.60015 36.1994C1.50015 36.3994 1.40014 36.4994 1.30014 36.6994C1.10014 37.0994 1.00014 37.3994 0.900135 37.7994C0.800135 38.0994 0.800145 38.2994 0.800145 38.4994C0.800145 38.6994 0.800145 38.9994 0.800145 39.1994C0.800145 39.6994 0.800145 40.1994 0.800145 40.5994C0.800145 41.5994 0.800145 42.4994 0.800145 43.4994C0.800145 44.3994 0.600141 45.2994 1.00014 46.1994C1.40014 47.0994 2.10014 47.8994 2.90014 48.3994C3.60014 48.7994 4.40015 48.9994 5.10015 49.0994C45.9001 50.8994 87.3001 50.8994 129.4 49.0994C130.5 49.0994 131.6 48.5994 132.4 47.8994C132.8 47.4994 133.1 47.1994 133.4 46.7994C133.8 46.1994 134.1 45.6994 134.4 45.0994C135.1 43.3994 136 41.7994 135.9 40.1994Z" fill="url(#paint0_linear_2208_1044)"/>
<path id="Vector_2" d="M131.3 45.2992C89.1999 47.0992 47.7999 47.0992 6.99991 45.2992C5.19991 45.2992 3.49991 43.9992 2.79991 42.3992C2.49991 41.6992 2.39991 40.8992 2.49991 40.0992C2.49991 39.9992 2.49992 39.7992 2.59992 39.6992C2.69992 39.4992 2.79991 39.2992 2.79991 39.0992C2.79991 38.9992 2.79991 38.8992 2.79991 38.7992C2.89991 38.1992 2.89991 37.5992 2.89991 36.8992C2.89991 36.5992 2.99992 36.1992 3.09992 35.8992C3.19992 35.4992 3.39991 35.1992 3.69991 34.8992C4.99991 33.8992 7.69992 33.8992 9.59992 33.8992C9.99992 33.8992 10.2999 33.8992 10.6999 33.8992C11.4999 33.7992 12.3999 33.7992 13.2999 33.7992C11.2999 33.7992 9.29991 33.5992 7.29991 33.2992C6.39991 33.0992 5.39991 32.8992 4.49991 32.6992C4.29991 32.5992 3.99991 32.5992 3.79991 32.4992C3.49991 32.3992 3.29992 32.1992 3.09992 31.8992C2.99992 31.6992 2.99991 31.3992 2.99991 31.0992C2.99991 30.7992 2.99991 30.5992 2.99991 30.2992C2.99991 29.7992 3.09992 29.1992 3.09992 28.6992C3.19992 28.2992 3.19991 27.7992 3.19991 27.3992C3.29991 26.1992 3.29991 25.0992 3.39991 23.8992C3.39991 23.5992 3.49991 23.1992 3.69991 22.8992C3.79991 22.7992 3.99991 22.6992 4.19991 22.5992C4.69991 22.3992 5.19991 22.2992 5.79991 22.1992C6.09991 22.1992 6.29992 22.1992 6.59992 22.0992C6.89992 21.9992 7.09991 21.9992 7.39991 21.8992C10.3999 21.5992 13.2999 21.1992 16.2999 20.8992C16.6999 20.8992 16.9999 20.7992 17.3999 20.7992C12.8999 20.2992 8.39991 19.6992 3.99991 19.1992C3.79991 19.1992 3.59991 19.1992 3.39991 19.0992C3.19991 19.0992 2.99991 19.0992 2.89991 18.8992C2.79991 18.7992 2.79991 18.5992 2.79991 18.4992C2.59991 16.0992 2.79991 13.5992 2.69991 11.0992C2.69991 10.9992 2.69992 10.2992 2.59992 9.49922C2.49992 8.39922 2.49991 7.09923 2.39991 7.09923C2.19991 4.39922 4.29991 2.09922 6.99991 1.99922C47.4999 0.599219 88.9999 0.599219 131.2 1.99922C133.9 2.09922 136 4.39922 135.8 7.09923C135.7 7.99923 135.9 8.89922 135.7 9.79922C135.7 9.99922 135.6 10.1992 135.4 10.3992C135.3 10.4992 135.1 10.5992 134.9 10.5992C134.4 10.6992 133.9 10.8992 133.4 10.9992C132.7 11.1992 132 11.2992 131.4 11.3992C127.3 11.7992 123.3 12.2992 119.2 12.6992C119.1 12.6992 119 12.6992 118.9 12.6992C118.8 12.6992 118.6 12.6992 118.5 12.6992C118.8 12.6992 119.1 12.6992 119.5 12.6992C124.6 12.5992 129.7 12.4992 134.8 12.3992C134.9 12.3992 135.1 12.3992 135.2 12.4992C135.3 12.5992 135.4 12.7992 135.4 12.8992C135.4 13.0992 135.4 13.2992 135.4 13.4992C135.4 14.0992 135.3 14.7992 135.3 15.3992C135.3 15.9992 135.4 16.5992 135.4 17.0992C135.4 17.9992 135.4 18.7992 135.3 19.6992C135.2 21.6992 135.1 23.6992 134.9 25.5992C134.9 25.8992 134.8 26.1992 134.6 26.3992C134.5 26.5992 134.2 26.6992 134 26.6992C133.9 26.6992 133.7 26.7992 133.6 26.7992C130.6 27.6992 127.3 26.9992 124.2 27.4992C124 27.4992 123.8 27.5992 123.6 27.5992C123.5 27.5992 123.5 27.5992 123.4 27.5992C123.7 27.5992 123.9 27.5992 124.2 27.6992C127.6 27.8992 130.9 28.2992 134.3 28.6992C134.7 28.6992 135.1 28.7992 135.4 29.0992C135.6 29.2992 135.6 29.6992 135.6 29.9992V30.9992C135.6 31.9992 135.6 32.9992 135.6 33.9992C135.7 35.2992 135.7 36.5992 135.8 37.9992C135.8 38.5992 135.9 39.2992 135.9 39.8992C136 42.8992 134 45.1992 131.3 45.2992Z" fill="url(#paint1_linear_2208_1044)"/>
<path id="Vector_3" d="M135.3 17.2992C135.3 18.1992 135.3 18.9992 135.2 19.8992C133.5 20.0992 131.8 20.1992 130.1 20.3992C129.7 20.3992 129.3 20.4992 128.9 20.4992C127.5 20.6992 126 20.7992 124.6 20.8992C123.9 20.9992 123.2 20.9992 122.5 21.0992C122 21.0992 121.6 21.2992 121.2 21.3992C120.6 21.4992 119.9 21.2992 119.3 21.2992C118.6 21.2992 117.9 21.1992 117.2 21.2992C115.8 21.2992 114.4 21.3992 113 21.5992C110.2 21.8992 107.4 22.3992 104.7 22.8992C100.3 23.5992 95.8003 24.1992 91.3003 24.5992C93.7003 24.7992 96.2003 25.1992 98.6003 25.7992C97.7003 25.8992 96.8003 25.8992 95.9003 25.9992C93.0003 26.1992 90.2003 26.2992 87.3003 26.2992C84.4003 26.2992 81.6003 26.2992 78.7003 26.2992C75.8003 26.2992 73.0003 26.2992 70.1003 26.2992C67.2003 26.2992 64.4003 26.3992 61.5003 26.4992C60.1003 26.5992 58.6003 26.6992 57.2003 26.7992C56.8003 26.7992 56.5003 26.8992 56.1003 26.8992C55.7003 26.8992 55.3003 27.0992 54.8003 27.0992C51.4003 27.4992 48.0003 27.9992 44.6003 28.6992C39.4003 29.6992 34.1003 30.6992 28.8003 31.0992C27.8003 31.1992 26.9003 31.1992 25.9003 31.2992C21.3003 32.1992 16.4003 32.3992 11.8003 32.9992C10.3003 33.1992 8.7003 33.2992 7.1003 33.3992C6.2003 33.1992 5.20029 32.9992 4.30029 32.7992C4.10029 32.6992 3.8003 32.6992 3.6003 32.5992C3.3003 32.4992 3.10028 32.2992 2.90028 31.9992C2.80028 31.7992 2.80029 31.4992 2.80029 31.1992C2.80029 30.8992 2.80029 30.6992 2.80029 30.3992C2.80029 29.8992 2.90028 29.2992 2.90028 28.7992C7.00028 28.4992 11.2003 27.2992 15.2003 26.6992C20.3003 25.9992 25.5003 25.4992 30.6003 25.2992C36.4003 24.9992 42.2003 25.6992 48.0003 25.6992C53.4003 25.6992 58.7003 25.1992 64.1003 24.7992C74.5003 23.9992 84.9003 23.0992 95.3003 22.1992C93.0003 22.1992 90.8003 22.0992 88.5003 21.9992C85.6003 21.8992 82.7003 21.7992 79.9003 21.5992C79.2003 21.5992 78.5003 21.4992 77.9003 21.5992C77.2003 21.6992 76.5003 21.6992 75.8003 21.6992C74.4003 21.6992 73.1003 21.4992 71.7003 21.1992C70.9003 20.9992 70.1003 20.7992 69.3003 20.5992C68.0003 20.3992 66.6003 20.3992 65.2003 20.3992C60.1003 20.2992 55.1003 18.9992 50.0003 18.9992C48.7003 18.9992 47.3003 19.0992 46.0003 19.1992C44.6003 19.2992 43.2003 19.4992 41.8003 19.4992C41.2003 19.4992 40.5003 19.5992 39.9003 19.3992C39.4003 19.2992 38.9003 19.2992 38.4003 19.2992C37.5003 19.2992 36.7003 19.2992 35.8003 19.1992C34.1003 19.1992 32.4003 19.0992 30.6003 19.0992C24.1003 19.0992 17.6003 19.3992 11.0003 19.3992C8.20029 19.3992 5.4003 19.2992 2.6003 18.8992C2.5003 18.7992 2.50029 18.5992 2.50029 18.4992C2.30029 16.0992 2.50028 13.5992 2.40028 11.0992C2.40028 10.9992 2.40029 10.2992 2.30029 9.49922C5.60029 9.19922 9.00029 9.09922 12.3003 8.89922C18.8003 8.39922 25.3003 8.19922 31.9003 8.19922C44.9003 8.29922 57.8003 9.09923 70.7003 10.0992C83.6003 11.0992 96.5003 12.2992 109.5 13.1992C116 13.6992 122.6 13.8992 129.1 13.8992C131 13.8992 133 13.7992 134.9 13.5992C134.9 14.1992 134.8 14.8992 134.8 15.4992C135.1 16.0992 135.3 16.6992 135.3 17.2992ZM135.5 34.2992C135.5 33.2992 135.5 32.2992 135.5 31.2992C131.4 30.8992 127.2 30.3992 123.1 30.0992C116 29.5992 108.8 29.6992 101.7 29.9992C100.2 30.0992 98.8003 30.0992 97.3003 30.2992C96.6003 30.3992 95.9003 30.4992 95.2003 30.5992C92.4003 30.8992 89.5003 31.1992 86.6003 31.3992C85.5003 31.4992 84.4003 31.5992 83.3003 31.5992C86.2003 31.5992 89.1003 31.5992 92.0003 31.4992C94.9003 31.4992 97.8003 31.4992 100.7 31.3992C102.1 31.3992 103.6 31.3992 105 31.3992C105.7 31.3992 106.4 31.3992 107.2 31.3992C107.5 31.3992 107.8 31.3992 108.1 31.3992C108.3 31.3992 108.5 31.2992 108.6 31.2992C109.2 31.1992 110 31.2992 110.6 31.3992C111.3 31.3992 112 31.4992 112.7 31.4992C114.1 31.5992 115.6 31.6992 117 31.7992C119.3 31.9992 121.5 32.1992 123.8 32.3992C126.3 32.5992 128.7 32.8992 131.1 33.1992C125.5 33.6992 120 34.2992 114.4 34.5992C101.6 35.2992 88.8003 36.1992 75.9003 35.8992C63.2003 35.5992 50.6003 34.8992 37.9003 34.9992C31.2003 34.9992 24.6003 35.0992 17.9003 35.2992C13.0003 35.3992 8.0003 35.3992 3.1003 35.8992C3.0003 36.1992 3.00028 36.5992 2.90028 36.8992C2.80028 37.4992 2.80029 38.0992 2.80029 38.7992C8.30029 38.9992 13.8003 38.6992 19.3003 38.5992C26.0003 38.5992 32.6003 38.6992 39.3003 38.7992C51.9003 39.0992 64.6003 39.7992 77.2003 39.9992C90.1003 40.1992 102.9 39.2992 115.7 38.6992C122.3 38.3992 129 38.3992 135.6 38.2992H135.7C135.6 36.8992 135.5 35.5992 135.5 34.2992Z" fill="url(#paint2_linear_2208_1044)"/>
<path id="Vector_4" d="M3.59991 30.7992C3.59991 31.2992 3.59991 31.7992 3.69991 32.2992C3.39991 32.1992 3.19991 31.9992 2.99991 31.6992C2.89991 31.4992 2.8999 31.1992 2.8999 30.8992C2.8999 30.5992 2.8999 30.3992 2.8999 30.0992C2.8999 29.0992 3.09991 28.1992 3.19991 27.1992C3.29991 25.9992 3.2999 24.8992 3.3999 23.6992C3.3999 23.3992 3.49991 22.9992 3.69991 22.6992C3.79991 22.5992 3.99991 22.4992 4.19991 22.3992C4.69991 22.1992 5.19991 22.0992 5.79991 21.9992C6.09991 21.9992 6.29991 21.9992 6.59991 21.8992C6.89991 21.7992 7.0999 21.7992 7.3999 21.6992C10.3999 21.3992 13.2999 20.9992 16.2999 20.6992C13.0999 21.2992 9.89991 21.9992 6.69991 22.5992C6.09991 22.6992 5.19991 22.6992 4.69991 23.0992C4.59991 23.1992 4.4999 23.2992 4.3999 23.3992C4.2999 23.4992 4.29991 23.5992 4.19991 23.6992C3.99991 23.8992 3.9999 24.0992 3.8999 24.2992C3.6999 24.8992 3.59991 25.4992 3.49991 26.1992C3.49991 26.3992 3.49991 26.6992 3.49991 26.8992C3.49991 26.9992 3.49991 26.9992 3.49991 27.0992C3.49991 27.1992 3.4999 27.1992 3.3999 27.2992C3.1999 27.7992 3.29991 28.2992 3.29991 28.7992C3.29991 28.9992 3.3999 29.1992 3.3999 29.2992C3.5999 29.8992 3.59991 30.3992 3.59991 30.7992Z" fill="#EB924D"/>
<path id="Vector_5" d="M121.7 27.5C122.5 27.6 123.4 27.7 124.2 27.7C124 27.7 123.8 27.8 123.6 27.8C122.9 27.7 122.3 27.6 121.7 27.5Z" fill="#EB924D"/>
<path id="Vector_6" d="M133.9 26.2994C134 25.7994 134 25.1994 134 24.6994C133.9 23.6994 133.9 22.6994 133.8 21.6994C133.8 21.4994 133.8 21.2994 133.6 21.1994C133.5 21.0994 133.3 21.0994 133.2 21.0994C132 21.0994 130.7 21.1994 129.5 21.1994C130.8 21.0994 132.1 20.6994 133.4 20.1994C133.7 19.9994 134.1 19.7994 134.2 19.4994C134.3 19.2994 134.3 19.0994 134.3 18.8994C134.3 17.3994 134 15.5994 133.8 14.0994C133.2 13.4994 132.3 13.4994 131.6 13.3994C128.4 13.1994 125.2 12.9994 121.9 12.7994C121.1 12.6994 120.3 12.6994 119.4 12.6994C124.5 12.5994 129.6 12.4994 134.7 12.3994C134.8 12.3994 135 12.3994 135.1 12.4994C135.2 12.5994 135.3 12.7994 135.3 12.8994C135.4 13.7994 135.2 14.5994 135.2 15.4994C135.2 16.0994 135.3 16.6994 135.3 17.1994C135.3 19.9994 135.1 22.8994 134.8 25.6994C134.8 25.9994 134.7 26.2994 134.5 26.4994C134.4 26.6994 134.1 26.7994 133.9 26.7994C133.8 26.7994 133.6 26.8994 133.5 26.8994C133.7 26.7994 133.8 26.4994 133.9 26.2994Z" fill="#EB924D"/>
<path id="Vector_7" d="M2.69991 10.9996C2.69991 10.6996 2.49991 6.99962 2.39991 6.99962C2.19991 4.29962 4.29991 1.99961 6.99991 1.89961C47.4999 0.499609 88.9999 0.499609 131.2 1.89961C133.9 1.99961 136 4.29962 135.8 6.99962C135.7 7.89962 135.9 8.79961 135.7 9.69961C135.7 9.89961 135.6 10.0996 135.4 10.2996C135.3 10.3996 135.1 10.4996 134.9 10.4996C134.4 10.5996 133.9 10.7996 133.4 10.8996C133.8 10.4996 134.3 9.99962 134.6 9.49962C134.7 9.09962 134.6 8.79961 134.5 8.39961C134.3 7.79961 134.3 7.29961 134.2 6.69961C134.2 5.99961 134.3 4.89962 133.7 4.29962C133.3 3.89962 132.7 3.49961 132.1 3.19961C130.7 2.49961 129.1 2.39962 127.6 2.29962C127.5 2.29962 127.4 2.29962 127.4 2.29962C124.6 2.19962 121.7 2.19962 118.9 2.49962C118.6 2.49962 118.3 2.59961 117.9 2.69961C117.5 2.79961 117 2.69961 116.6 2.69961C115.6 2.69961 114.7 2.59962 113.7 2.59962C111.8 2.49962 109.9 2.49962 108 2.49962C106.6 2.49962 105.1 2.49962 103.7 2.49962C103.2 2.49962 102.8 2.49962 102.3 2.49962C101.4 2.49962 100.6 2.49962 99.6999 2.49962C98.4999 2.49962 97.2999 2.49962 96.0999 2.49962C95.9999 2.49962 95.9999 2.49962 95.8999 2.49962C93.9999 2.49962 92.0999 2.49962 90.1999 2.49962C89.1999 2.49962 88.2999 2.49962 87.2999 2.49962C86.8999 2.49962 86.3999 2.59962 85.8999 2.49962C85.4999 2.39962 85.0999 2.19962 84.5999 2.09962C84.1999 2.09962 83.7999 2.09961 83.2999 2.19961C82.2999 2.29961 81.1999 2.39962 80.1999 2.49962C79.6999 2.59962 79.1999 2.59962 78.8999 2.99962C78.7999 3.09962 78.6999 3.29961 78.5999 3.39961C78.2999 3.59961 77.8999 3.49961 77.5999 3.39961C76.8999 3.19961 76.1999 2.99962 75.4999 2.99962C74.8999 2.99962 74.1999 3.09962 73.5999 2.99962C73.1999 2.99962 72.7999 2.89962 72.3999 2.79962C70.7999 2.49962 69.1999 2.49961 67.5999 2.39961C66.3999 2.29961 65.1999 2.29961 63.9999 2.19961C60.1999 2.09961 56.2999 2.09962 52.4999 2.29962C50.5999 2.39962 48.6999 2.49962 46.7999 2.59962C45.8999 2.69962 44.8999 2.79961 44.0999 2.69961C43.7999 2.69961 43.5999 2.59962 43.3999 2.49962C43.0999 2.49962 42.8999 2.49962 42.5999 2.49962C41.4999 2.49962 40.4999 2.49962 39.3999 2.49962C38.1999 2.49962 36.8999 2.49962 35.6999 2.49962C35.2999 2.49962 34.8999 2.59962 34.4999 2.59962C34.0999 2.59962 33.7999 2.49962 33.3999 2.49962C32.5999 2.49962 31.7999 2.69962 31.0999 2.99962C30.7999 3.09962 30.4999 3.29961 30.1999 3.19961C29.5999 3.19961 29.2999 2.59961 28.7999 2.39961C27.5999 1.79961 26.3999 2.89962 25.0999 2.49962C24.4999 2.29962 23.8999 2.29962 23.1999 2.29962C22.3999 2.29962 21.5999 2.29962 20.6999 2.29962C17.8999 2.29962 15.0999 2.39961 12.3999 2.69961C10.9999 2.79961 9.59991 2.99962 8.29991 3.29962C7.59991 3.39962 6.99991 3.59961 6.29991 3.69961C6.09991 3.69961 5.89991 3.69962 5.79991 3.79962C4.99991 4.39962 2.69991 7.59961 4.29991 8.69961C4.39991 8.79961 4.49992 8.79961 4.59992 8.89961C4.79992 8.99961 4.99992 8.99962 5.09992 9.09962C5.29992 9.19962 5.49991 9.09962 5.69991 9.09962C6.19991 9.09962 6.59992 9.09962 7.09992 9.09962C7.59992 9.09962 8.09991 9.09961 8.49991 9.19961C7.49991 9.39961 6.39991 9.59962 5.39991 9.79962C5.09991 9.89962 4.69991 9.89962 4.39991 10.0996C4.29991 10.0996 4.29991 10.0996 4.19991 10.1996C3.99991 10.2996 3.79991 10.4996 3.69991 10.7996C3.49991 11.2996 3.59991 11.9996 3.49991 12.4996C3.29991 13.4996 3.49992 14.5996 3.59992 15.5996C3.69992 16.8996 3.89992 18.1996 4.09992 19.4996C3.89992 19.4996 3.69991 19.4996 3.49991 19.3996C3.29991 19.3996 3.09991 19.2996 2.99991 19.1996C2.89991 19.0996 2.89991 18.8996 2.89991 18.7996C2.59991 15.8996 2.79991 13.3996 2.69991 10.9996Z" fill="#EB924D"/>
<path id="Vector_8" d="M135.8 40.2C135.7 38.2 135.5 36.3 135.4 34.3C135.3 33 135.4 31.6 135.4 30.3C135.4 30 135.4 29.7 135.2 29.4C135 29.1 134.5 29 134.1 29C130.8 28.6 127.4 28.2 124 28C127 28.6 130.1 29.3 133 30.1C133.6 30.3 133.6 30.7 133.8 31.2C134 31.7 134 32.3 134.1 32.9C134.1 33.1 134.1 33.4 134 33.6C133.8 34.1 133.3 34.4 132.8 34.6C133.2 34.7 133.5 34.8 133.9 34.9C134 34.9 134.1 35 134.1 35C134.2 35.1 134.2 35.2 134.2 35.3C134.3 36.3 134.2 37.2 134.2 38.2C134.2 38.8 134.2 39.4 134.2 40.1C134.2 40.3 134.3 40.4 134.3 40.6C134.4 41 134.3 41.3 134.2 41.7C134 42.4 133.5 43.1 132.9 43.5C131.8 44.2 130.4 44.4 129.2 44.5C127 44.7 124.9 44.6 122.7 44.8C122 44.9 121.3 44.9 120.6 45C119.2 45.1 117.7 45.2 116.3 45.3C113.6 45.5 110.9 45.6 108.2 45.7C101.8 45.9 95.2999 45.9 88.8999 45.9C88.0999 45.9 87.2999 45.9 86.5999 45.9C85.9999 45.9 85.3999 46 84.6999 45.9C83.1999 45.7 81.6999 46 80.1999 46.2C78.4999 46.4 76.5999 46.4 75.0999 45.5C74.5999 45.2 74.1999 44.8 73.5999 44.8C73.0999 44.8 72.6999 45 72.2999 45.2C71.4999 45.6 70.5999 45.8 69.6999 45.9C69.6999 45.9 69.6999 45.9 69.5999 45.9C67.6999 46.1 65.8999 46 64.0999 45.9C62.6999 45.8 61.2999 46 59.9999 45.6C58.9999 45.2 57.8999 44.7 56.8999 45C56.4999 45.1 56.1999 45.3 55.8999 45.4C55.1999 45.7 54.4999 45.7 53.6999 45.8C53.1999 45.8 52.7999 45.8 52.2999 45.9C50.3999 46 48.4999 46 46.5999 45.9C45.7999 45.9 44.9999 45.9 44.1999 45.6C43.6999 45.4 43.0999 45.5 42.5999 45.6C40.2999 45.8 37.8999 45.8 35.5999 45.7C34.6999 45.7 33.6999 45.6 32.7999 45.5C32.2999 45.5 31.8999 45.4 31.3999 45.4C31.0999 45.4 30.7999 45.5 30.4999 45.5C28.5999 45.5 26.5999 45.5 24.6999 45.4C21.3999 45.4 18.0999 45.3 14.7999 45.3C12.4999 45.6 10.6999 45.2 8.3999 44.8C6.5999 44.5 4.59991 43.7 3.79991 42C3.49991 41.3 3.39991 40.5 3.49991 39.7C3.49991 39.5 3.49991 39.2 3.49991 39C3.49991 38.8 3.3999 38.6 3.3999 38.4C3.2999 37.7 3.49991 36.9 3.69991 36.2C3.79991 35.9 3.89991 35.5 4.09991 35.2C4.29991 35 4.5999 34.8 4.8999 34.7C5.6999 34.4 6.59991 34.4 7.49991 34.3C8.69991 34.2 9.99991 34.2 11.1999 34.1C11.3999 34.1 11.6999 34.1 11.8999 34.1C11.8999 34 11.8999 33.9 11.8999 33.7V33.6C11.0999 33.6 10.3999 33.6 9.59991 33.6C7.59991 33.6 4.99991 33.6 3.69991 34.6C3.09991 35 2.9999 35.9 2.8999 36.6C2.7999 37.3 2.79991 38.1 2.69991 38.8C2.69991 39 2.59991 39.2 2.49991 39.4C2.49991 39.5 2.3999 39.7 2.3999 39.8C2.3999 40.6 2.39991 41.4 2.69991 42.1C3.39991 43.7 5.0999 45 6.8999 45C47.6999 46.8 89.0999 46.8 131.2 45C134 45.2 136 42.9 135.8 40.2Z" fill="#EB924D"/>
<path id="Vector_9" d="M9.8999 25.6C9.8999 26.1 9.89991 26.7 9.99991 27.2C9.99991 27.5 9.99991 27.7 9.99991 28C9.99991 28.2 9.99991 28.4 9.99991 28.6C9.99991 28.8 10.0999 28.9 10.0999 29.1C10.0999 29.6 10.0999 30 10.1999 30.5C10.1999 31.4 10.2999 32.4 10.2999 33.3C10.3999 34.5 10.3999 35.7 10.4999 36.9C10.4999 37.6 10.5999 38.1 10.9999 38.7C11.0999 38.8 11.0999 38.9 11.1999 39C11.2999 39.2 11.4999 39.3 11.6999 39.4C12.3999 39.7 13.2999 39.9 13.9999 40C15.1999 40.2 16.3999 40.2 17.6999 40.3C33.8999 40.9 50.0999 41.4 66.3999 41C68.3999 41 70.3999 40.9 72.2999 41.6C71.4999 40.1 69.3999 39.9 67.6999 39.8C49.6999 39.4 31.5999 38.9 13.6999 37.4C13.1999 37.4 12.6999 37.3 12.2999 36.9C12.0999 36.6 11.9999 36.3 11.8999 35.9C10.9999 32.2 10.7999 28.3 11.3999 24.5C11.3999 24.3 11.4999 24 11.4999 23.8C11.4999 23.6 11.4999 23.3 11.4999 23.1C11.4999 22.6 11.4999 22.1 11.5999 21.6C11.4999 21.5 11.3999 21.5 11.1999 21.5C10.8999 21.5 10.4999 21.6 10.1999 21.6C10.1999 21.9 10.1999 22.2 10.1999 22.6C10.1999 22.7 10.1999 22.8 10.1999 22.9C10.1999 23.1 10.1999 23.3 10.1999 23.6C10.1999 23.9 10.1999 24.2 10.1999 24.6C9.89991 25 9.8999 25.3 9.8999 25.6Z" fill="#EB924D"/>
<path id="Vector_10" d="M73.0002 41.7995C73.2002 41.2995 73.9002 41.1995 74.4002 41.1995C78.8002 41.0995 83.1002 40.9995 87.5002 40.8995C91.6002 40.7995 95.7002 40.6995 99.9002 40.6995C101.2 40.6995 102.6 40.6995 103.7 41.3995C103.7 41.1995 103.7 41.0995 103.6 40.8995C104.1 40.7995 104.5 40.6995 105 40.7995C105.3 40.7995 105.5 40.6995 105.8 40.6995C106.4 40.5995 107 40.5995 107.6 40.5995C111 40.4995 114.4 40.3995 117.8 40.1995C118.7 40.1995 119.5 40.0995 120.4 39.9995C121.2 39.8995 122.1 39.8995 122.9 39.7995C123 39.7995 123.1 39.6995 123.3 39.6995C123.5 39.6995 123.6 39.6995 123.8 39.6995C124.7 39.5995 125.5 39.4995 126.3 39.0995C127.3 38.5995 128.2 37.7995 128.5 36.7995C128.6 36.2995 128.7 35.7995 128.7 35.2995C128.8 33.0995 128.8 30.7995 128.6 28.5995C128.5 28.4995 128.2 28.6995 128.2 28.7995C127.8 30.3995 127.5 32.0995 127.3 33.6995C127.2 34.6995 127.1 35.6995 126.5 36.4995C125.8 37.3995 124.7 37.6995 123.6 37.8995C118 39.1995 112.2 39.2995 106.4 39.4995C101 39.5995 95.6002 39.6995 90.3002 39.7995C85.8002 39.5995 81.2002 40.3995 76.8002 39.8995C75.5002 39.7995 74.3002 39.4995 73.0002 39.6995C72.9002 39.6995 72.8002 39.6995 72.7002 39.7995C72.7002 39.8995 72.6002 39.8995 72.6002 39.9995C72.5002 40.6995 72.7002 41.2995 73.0002 41.7995Z" fill="#EB924D"/>
<path id="Vector_11" d="M128.6 32.4C128.6 30.5 128.6 28.6 128.6 26.7C128.6 24.9 128.6 23 128.6 21.2C128.6 19 128.7 16.8 128.4 14.6C128.3 14.2 128.2 13.7 128.2 13.3C128.2 12.7 128.1 12.2 127.8 11.5C127.4 10.7 126.9 9.9 126.3 9.2C125 7.7 123.1 7.6 121.2 7.5C119.2 7.4 117.1 7.5 115.1 7.5C112.8 7.5 110.5 7.5 108.2 7.5C105.4 7.5 102.6 7.49999 99.8999 7.39999C97.0999 7.39999 94.2999 7.3 91.5999 7.3C90.1999 7.3 88.7999 7.3 87.3999 7.3C87.0999 7.3 86.7999 7.3 86.4999 7.3C86.2999 7.3 86.1999 7.39999 85.9999 7.39999C85.3999 7.49999 84.6999 7.3 84.0999 7.2C84.1999 5.8 84.3999 4.3 84.7999 3C84.1999 4.4 83.5999 5.8 82.7999 7.2C82.7999 7.3 82.6999 7.39999 82.5999 7.39999C82.4999 7.39999 82.3999 7.39999 82.2999 7.39999C82.0999 7.39999 81.8999 7.4 81.6999 7.3C81.1999 7.2 80.6999 7.2 80.1999 7.2C78.0999 7.2 75.8999 7.2 73.7999 7.2C69.5999 7.2 65.3999 7.2 61.0999 7.2C56.5999 7.2 52.0999 7.2 47.4999 7.2C46.2999 7.2 44.9999 7.2 43.7999 7.2C43.2999 7.2 42.7999 7.2 42.1999 7.3C41.6999 7.4 40.9999 7.3 40.4999 7.3C40.1999 7.3 39.8999 7.20001 39.5999 7.10001C39.3999 6.90001 39.1999 6.6 39.0999 6.3C38.8999 5.7 38.6999 5.10001 38.3999 4.60001C38.3999 5.30001 38.4999 5.90001 38.5999 6.60001C38.5999 6.80001 38.5999 7.1 38.4999 7.2C38.3999 7.2 38.3999 7.2 38.2999 7.2C38.0999 7.2 37.7999 7.3 37.5999 7.2C37.0999 7.1 36.6999 7.10001 36.1999 7.10001C31.0999 7.10001 25.9999 7.10001 20.7999 7.10001C17.8999 7.10001 10.9999 5.6 10.0999 9.5C9.99993 10 9.99991 10.6 9.89991 11.2C9.79991 12.9 9.89991 14.6 9.89991 16.3C9.99991 21.9 10.0999 27.4 10.3999 33C10.3999 33.9 10.4999 34.7 10.5999 35.6C10.6999 36.3 10.5999 37.2 11.1999 37.7C11.3999 37.9 11.4999 38.1 11.6999 38.3C11.9999 38.7 12.4999 39 12.8999 39.2C13.8999 39.7 15.0999 39.8 16.2999 39.9C19.9999 40.1 23.6999 40.2 27.3999 40.3C31.0999 40.4 34.8999 40.5 38.5999 40.6C42.2999 40.7 46.0999 40.7 49.7999 40.7C53.1999 40.7 56.5999 40.7 59.9999 40.7C61.6999 40.7 63.4999 40.7 65.1999 40.7C67.0999 40.7 69.2999 40.1 70.9999 41C71.8999 41.4 72.5999 42.2 72.9999 43C72.8999 42.3 72.9999 41.6 73.0999 40.9C74.4999 40.7 75.7999 40.6 77.1999 40.6C77.7999 40.6 78.3999 40.7 78.9999 40.7C79.6999 40.7 80.3999 40.7 81.0999 40.7C83.8999 40.7 86.6999 40.7 89.3999 40.6C91.0999 40.6 92.7999 40.6 94.5999 40.5C98.2999 40.5 102.1 40.4 105.8 40.2C106.5 40.2 107.1 40.1 107.8 40.1C112.9 39.9 118.1 39.6 123.2 39.2C123.6 39.2 124.1 39.1 124.5 39C125.2 38.9 125.8 38.6 126.3 38.2C127 37.6 127.6 37 128 36.3C128.7 35.1 128.6 33.7 128.6 32.4ZM125.8 34.9C125.5 35.4 125 35.8 124.6 36.1C124.5 36.2 124.4 36.3 124 36.3C123.7 36.4 123.4 36.4 123 36.4C118.1 36.8 112.9 37.1 107.7 37.3C107 37.3 106.4 37.4 105.7 37.4C101.8 37.5 98.0999 37.6 94.5999 37.7C83.9999 37.8 73.4999 37.9 63.4999 37.9C58.9999 37.9 54.4999 37.9 49.9999 37.9C46.2999 37.9 42.4999 37.8 38.7999 37.8C35.0999 37.7 31.2999 37.6 27.5999 37.5C23.8999 37.4 20.1999 37.2 16.4999 37C15.6999 37 14.7999 36.9 14.0999 36.6C13.8999 36.5 13.8999 36.5 13.7999 36.4C13.6999 36.2 13.4999 36 13.3999 35.9C13.3999 35.8 13.3999 35.7 13.3999 35.6C13.3999 35.4 13.3999 35.2 13.2999 35.1C13.1999 34.4 13.1999 33.6 13.0999 32.8C12.8999 27.3 12.6999 21.7 12.5999 16.2V15.3C12.5999 13.9 12.4999 12.6 12.5999 11.4C12.5999 11.3 12.5999 11.1 12.5999 11C12.5999 10.7 12.5999 10.4 12.6999 10.2C12.7999 9.9 13.7999 9.5 15.6999 9.5C16.6999 9.5 17.6999 9.6 18.6999 9.7C19.4999 9.8 20.1999 9.8 20.8999 9.8C25.4999 9.8 30.0999 9.8 34.5999 9.8H37.1999C40.5999 9.8 43.9999 9.8 47.4999 9.8H50.7999C53.1999 9.8 55.5999 9.8 57.9999 9.8C58.9999 9.8 59.9999 9.8 61.0999 9.8C63.5999 9.8 66.1999 9.8 68.6999 9.8C77.2999 9.8 86.0999 9.9 94.5999 10C101.3 10.1 108.2 10.1 114.9 10.2H115.2C115.8 10.2 116.4 10.2 117 10.2C117.6 10.2 118.2 10.2 118.7 10.2C119.5 10.2 120.2 10.2 120.9 10.2H121C122.8 10.3 123.7 10.4 124.2 11C124.7 11.6 125.1 12.2 125.3 12.7C125.5 13.1 125.5 13.2 125.5 13.4C125.5 13.9 125.6 14.4 125.6 14.7C125.6 14.8 125.6 14.9 125.6 15C125.8 16.5 125.8 18.1 125.8 19.7C125.8 20.2 125.8 20.7 125.8 21.3L125.9 32.5C125.9 32.7 125.9 33 125.9 33.2C126 33.9 126 34.6 125.8 34.9Z" fill="url(#paint3_linear_2208_1044)"/>
<path id="Vector_12" d="M10.0002 22.0992L13.0002 21.4992L12.9002 21.1992L9.7002 21.5992L10.0002 22.0992Z" fill="#EB924D"/>
<path id="Vector_13" d="M125.1 13L128.7 13.3V12.5L124.8 12.7L125.1 13Z" fill="#EB924D"/>
<path id="Vector_14" d="M125.4 28.3L129.3 29L129.2 28.4L125 28L125.4 28.3Z" fill="#EB924D"/>
<g id="Group_3">
<path id="Vector_15" d="M113.9 24.9002C110.9 23.2002 105.9 23.7002 103.6 26.0002C102.1 27.4002 102 30.1002 103.6 31.5002C107.1 34.6002 113.1 33.3002 115.3 29.4002L115.4 29.3002C117.1 27.8002 115.9 25.3002 113.9 24.9002Z" fill="#EB924D"/>
<path id="Vector_16" d="M114.601 23.4998C111.601 21.7998 106.6 22.2998 104.3 24.5998C102.8 25.9998 102.7 28.6998 104.3 30.0998C107.8 33.1998 113.801 31.8998 116.001 27.9998L116.101 27.8998C117.801 26.2998 116.601 23.7998 114.601 23.4998Z" fill="url(#paint4_linear_2208_1044)"/>
<path id="Vector_17" d="M113.9 24.4002C110.9 22.7002 105.9 23.2002 103.6 25.5002C102.1 26.9002 102 29.6002 103.6 31.0002C107.1 34.1002 113.1 32.8002 115.3 28.9002L115.4 28.8002C117.1 27.3002 115.9 24.8002 113.9 24.4002Z" fill="url(#paint5_linear_2208_1044)"/>
</g>
<g id="Group_4">
<path id="Vector_18" d="M102.5 18.7992C100.6 17.6992 97.5001 18.0992 96.0001 19.4992C95.1001 20.3992 95.0001 22.0992 96.0001 22.9992C98.2001 24.9992 102 24.0992 103.4 21.6992C103.4 21.6992 103.5 21.6992 103.5 21.5992C104.5 20.5992 103.8 18.9992 102.5 18.7992Z" fill="#EB924D"/>
<path id="Vector_19" d="M103 17.7992C101.1 16.6992 98.0001 17.0992 96.5001 18.4992C95.6001 19.3992 95.5001 21.0992 96.5001 21.9992C98.7001 23.9992 102.5 23.0992 103.9 20.6992C103.9 20.6992 104 20.6992 104 20.5992C105 19.6992 104.2 18.0992 103 17.7992Z" fill="url(#paint6_linear_2208_1044)"/>
<path id="Vector_20" d="M102.5 18.3988C100.6 17.2988 97.5001 17.6988 96.0001 19.0988C95.1001 19.9988 95.0001 21.6988 96.0001 22.5988C98.2001 24.5988 102 23.6988 103.4 21.2988C103.4 21.2988 103.5 21.2988 103.5 21.1988C104.5 20.2988 103.8 18.6988 102.5 18.3988Z" fill="url(#paint7_linear_2208_1044)"/>
</g>
<g id="Group_5">
<path id="Vector_21" d="M25.6002 28.8998C23.7002 27.7998 20.6002 28.1998 19.1002 29.5998C18.2002 30.4998 18.1002 32.1998 19.1002 33.0998C21.3002 35.0998 25.1002 34.1998 26.5002 31.7998C26.5002 31.7998 26.6002 31.7998 26.6002 31.6998C27.6002 30.6998 26.8002 29.0998 25.6002 28.8998Z" fill="#EB924D"/>
<path id="Vector_22" d="M26.0001 27.9994C24.1001 26.8994 21.0001 27.2994 19.5001 28.6994C18.6001 29.5994 18.5001 31.2994 19.5001 32.1994C21.7001 34.1994 25.5001 33.2994 26.9001 30.8994C26.9001 30.8994 27.0001 30.8994 27.0001 30.7994C28.0001 29.7994 27.3001 28.1994 26.0001 27.9994Z" fill="url(#paint8_linear_2208_1044)"/>
<path id="Vector_23" d="M25.6002 28.599C23.7002 27.499 20.6002 27.899 19.1002 29.299C18.2002 30.199 18.1002 31.899 19.1002 32.799C21.3002 34.799 25.1002 33.899 26.5002 31.499C26.5002 31.499 26.6002 31.499 26.6002 31.399C27.6002 30.399 26.8002 28.799 25.6002 28.599Z" fill="url(#paint9_linear_2208_1044)"/>
</g>
</g>
<g id="Group_6">
<path id="Vector_24" d="M126.3 24.7992C126.3 28.1992 126.1 31.6992 125.7 35.1992C125.6 36.0992 124.8 36.7991 123.9 36.8991C87.7001 39.1991 51.3001 39.5992 15.1001 37.1992C14.1001 37.0992 13.3001 36.3991 13.3001 35.3991C12.7001 28.5991 12.1001 21.2991 12.4001 14.4991C12.4001 13.3991 12.5001 12.2991 12.6001 11.1991C12.7001 10.1991 13.5001 9.49915 14.5001 9.49915C53.2001 8.39915 89.5001 8.39915 123.6 10.2992C124.5 10.2992 125.3 10.9991 125.4 11.8991C126 16.0991 126.3 20.3992 126.3 24.7992Z" fill="url(#paint10_linear_2208_1044)"/>
<path id="Vector_25" d="M125.6 24.5992C125.5 24.9992 125.3 25.3992 125.2 25.7992C124.8 26.9992 124.6 28.2992 124.4 29.5992C124.3 30.1992 124.2 30.8991 124.2 31.4991C124.2 31.6992 124.3 31.8992 124.3 32.0992C124.3 32.1992 124.3 32.2991 124.3 32.3991C124.3 32.4991 124.2 32.5992 124.2 32.6992C124.2 32.7992 123.8 33.4992 123.9 33.5992C122.7 31.4992 122.9 28.9991 122.7 26.6991C122.6 24.2991 122 21.6991 120.1 20.3991C118.8 19.4991 117.1 19.2991 115.4 19.1991C82.7999 16.6991 49.8999 15.5992 17.1999 15.7992C16.9999 16.3992 16.7999 16.9992 16.5999 17.5992C16.2999 18.4992 15.9999 19.4991 15.7999 20.3991C15.6999 20.8991 15.5999 21.3992 15.4999 21.7992C15.3999 22.1992 15.2999 22.6991 15.2999 23.1991C15.2999 23.2991 15.2999 23.4992 15.2999 23.5992C15.2999 23.7992 15.1999 23.9992 15.0999 24.2992C14.9999 24.7992 14.8999 25.2991 14.7999 25.6991C14.6999 26.1991 14.6999 26.6991 14.5999 27.1991C14.5999 27.6991 14.4999 28.1992 14.5999 28.5992C14.4999 27.8992 14.3999 27.0991 14.3999 26.3991C14.1999 24.3991 13.9999 22.3992 13.6999 20.2992C13.5999 19.2992 13.4999 18.2992 13.3999 17.2992C13.3999 16.8992 13.3999 16.4992 13.1999 16.0992C13.0999 15.9992 12.9999 15.8992 12.9999 15.7992C12.6999 15.3992 12.5999 14.9991 12.3999 14.4991C12.3999 13.3991 12.4999 12.2991 12.5999 11.1991C12.6999 10.1991 13.4999 9.49915 14.4999 9.49915C53.1999 8.39915 89.4999 8.39915 123.6 10.2992C124.5 10.2992 125.3 10.9991 125.4 11.8991C125.7 13.6991 125.8 15.3991 126 17.1991C126.1 17.8991 126.1 18.4991 126.1 19.1991C126.1 19.7991 126.2 20.3991 126.2 20.9991C126.2 21.4991 126.3 21.9991 126.2 22.4991C126.1 23.0991 125.9 23.6991 125.7 24.1991C125.6 24.3991 125.6 24.4992 125.6 24.5992Z" fill="#FFDF80"/>
<path id="Vector_26" d="M123.7 34.9992C113.1 35.6992 102.5 36.1992 92.0999 36.4992C84.5999 36.6992 77.2999 36.8992 69.9999 36.8992C69.7999 36.8992 69.5999 36.8992 69.3999 36.8992C67.9999 36.8992 66.6999 36.8992 65.2999 36.8992C48.1999 36.8992 31.2999 36.3992 14.9999 35.2992C14.3999 28.1992 13.6999 20.1992 14.1999 12.7992C14.1999 12.2992 14.2999 11.8992 14.2999 11.3992C31.6999 10.8992 47.5999 10.6992 62.8999 10.6992C70.1999 10.6992 77.2999 10.7992 84.1999 10.8992C84.2999 10.8992 84.3999 10.8992 84.4999 10.8992C85.0999 10.8992 85.6999 10.8992 86.3999 10.8992C92.7999 10.9992 98.9999 11.1992 105 11.3992C111.2 11.5992 117.3 11.8992 123.3 12.1992C123.6 14.3992 123.8 16.5992 124 18.8992C124.4 24.0992 124.3 29.5992 123.7 34.9992Z" fill="url(#paint11_linear_2208_1044)"/>
<path id="Vector_27" d="M124.1 18.8988C124.2 19.7988 124 20.6988 123.9 21.5988C123.5 26.0988 113.1 25.4988 110.1 25.6988C83.2999 27.2988 56.0999 26.0988 29.2999 24.8988C25.3999 24.6988 21.4999 24.4988 17.5999 24.2988C14.6999 24.1988 14.9999 21.7988 14.7999 19.5988C14.5999 17.3988 14.4999 15.0988 14.3999 12.8988C14.3999 12.3988 14.4999 11.9988 14.4999 11.4988C31.8999 10.9988 47.7999 10.7988 63.0999 10.7988C84.9999 10.7988 104.7 11.2988 123.5 12.2988C123.7 14.3988 124 16.5988 124.1 18.8988Z" fill="url(#paint12_linear_2208_1044)"/>
<path id="Vector_28" opacity="0.1" d="M105.1 11.399C103.2 11.799 101.5 12.199 100.4 13.899C97.1001 18.499 94.1001 23.499 91.7001 28.599C91.1001 29.899 90.4001 31.299 90.4001 32.799C90.4001 34.099 91.0001 35.699 92.2001 36.499C84.7001 36.699 77.4001 36.899 70.1001 36.899C72.4001 36.899 74.6001 35.799 76.3001 34.299C78.2001 32.599 79.6001 30.499 81.0001 28.399C82.8001 25.599 84.6001 22.799 86.5001 19.999C87.3001 18.799 88.1001 17.599 88.5001 16.199C88.9001 14.799 88.8001 13.299 88.0001 12.099C87.6001 11.599 87.1001 11.199 86.5001 10.999C92.8001 11.099 99.0001 11.199 105.1 11.399Z" fill="url(#paint13_linear_2208_1044)"/>
</g>
</g>
<defs>
<linearGradient id="paint0_linear_2208_1044" x1="104.372" y1="-72.1862" x2="80.7881" y2="-8.71909" gradientUnits="userSpaceOnUse">
<stop stop-color="#CF5C2B"/>
<stop offset="1" stop-color="#59173E"/>
</linearGradient>
<linearGradient id="paint1_linear_2208_1044" x1="77.5572" y1="-20.9707" x2="56.0554" y2="92.4337" gradientUnits="userSpaceOnUse">
<stop stop-color="#CF5C2B"/>
<stop offset="1" stop-color="#59173E"/>
</linearGradient>
<linearGradient id="paint2_linear_2208_1044" x1="77.2091" y1="-17.4456" x2="49.6371" y2="123.362" gradientUnits="userSpaceOnUse">
<stop stop-color="#CF5C2B"/>
<stop offset="1" stop-color="#59173E"/>
</linearGradient>
<linearGradient id="paint3_linear_2208_1044" x1="71.7067" y1="62.9912" x2="69.8777" y2="32.0115" gradientUnits="userSpaceOnUse">
<stop stop-color="#CF5C2B"/>
<stop offset="1" stop-color="#59173E"/>
</linearGradient>
<linearGradient id="paint4_linear_2208_1044" x1="115.256" y1="12.529" x2="107.724" y2="32.6641" gradientUnits="userSpaceOnUse">
<stop stop-color="#CF5C2B"/>
<stop offset="1" stop-color="#59173E"/>
</linearGradient>
<linearGradient id="paint5_linear_2208_1044" x1="140.519" y1="-44.9578" x2="75.5233" y2="105.859" gradientUnits="userSpaceOnUse">
<stop stop-color="#CF5C2B"/>
<stop offset="1" stop-color="#59173E"/>
</linearGradient>
<linearGradient id="paint6_linear_2208_1044" x1="103.385" y1="10.9441" x2="98.6343" y2="23.6442" gradientUnits="userSpaceOnUse">
<stop stop-color="#CF5C2B"/>
<stop offset="1" stop-color="#59173E"/>
</linearGradient>
<linearGradient id="paint7_linear_2208_1044" x1="119.319" y1="-25.316" x2="78.3238" y2="69.8108" gradientUnits="userSpaceOnUse">
<stop stop-color="#CF5C2B"/>
<stop offset="1" stop-color="#59173E"/>
</linearGradient>
<linearGradient id="paint8_linear_2208_1044" x1="26.4218" y1="21.0798" x2="21.6712" y2="33.7799" gradientUnits="userSpaceOnUse">
<stop stop-color="#CF5C2B"/>
<stop offset="1" stop-color="#59173E"/>
</linearGradient>
<linearGradient id="paint9_linear_2208_1044" x1="42.3564" y1="-15.1804" x2="1.36089" y2="79.9466" gradientUnits="userSpaceOnUse">
<stop stop-color="#CF5C2B"/>
<stop offset="1" stop-color="#59173E"/>
</linearGradient>
<linearGradient id="paint10_linear_2208_1044" x1="69.233" y1="7.97595" x2="69.233" y2="21.9751" gradientUnits="userSpaceOnUse">
<stop stop-color="#FFCA2B"/>
<stop offset="1" stop-color="#D15B24"/>
</linearGradient>
<linearGradient id="paint11_linear_2208_1044" x1="69.2312" y1="45.9055" x2="69.2312" y2="24.6782" gradientUnits="userSpaceOnUse">
<stop stop-color="#FFCE3B"/>
<stop offset="1" stop-color="#CC6923"/>
</linearGradient>
<linearGradient id="paint12_linear_2208_1044" x1="69.2302" y1="43.2983" x2="69.2302" y2="14.7901" gradientUnits="userSpaceOnUse">
<stop stop-color="#FFCE3B"/>
<stop offset="1" stop-color="#CC6923"/>
</linearGradient>
<linearGradient id="paint13_linear_2208_1044" x1="109.913" y1="-21.8404" x2="76.2757" y2="47.4138" gradientUnits="userSpaceOnUse">
<stop stop-color="#F2DE6D"/>
<stop offset="1"/>
</linearGradient>
</defs>
</svg>
