<svg xmlns="http://www.w3.org/2000/svg" width="57" height="56" viewBox="0 0 57 56" fill="none">
  <path d="M11.7496 38.6666C11.7591 38.6551 11.7694 38.6438 11.7802 38.633C11.8726 38.5407 11.9995 38.491 12.13 38.4965L49.5399 40.038C49.6566 40.0427 49.7672 40.0909 49.8498 40.1732C49.8824 40.2056 50.6555 40.9752 51.3539 41.8667C52.4509 43.2674 52.7457 44.1828 52.2813 44.7482C52.2695 44.7627 52.2569 44.7768 52.2441 44.7906C52.1568 44.8842 52.0346 44.9379 51.9067 44.9391C51.7784 44.9401 51.6555 44.8887 51.5664 44.7966C50.9426 44.1512 49.9273 43.6541 49.0694 43.3184C49.8091 44.0466 50.9719 45.0016 52.6504 45.8904C52.8404 45.9908 52.9372 46.2078 52.8853 46.4161C52.8682 46.4854 52.8361 46.5476 52.7929 46.6C52.7061 46.7057 52.5751 46.7707 52.4316 46.7709C50.93 46.7707 49.6794 46.1423 48.4699 45.5346C48.023 45.3103 47.5696 45.0824 47.0961 44.8809C47.7357 45.9203 47.9452 47.0863 47.9585 47.1636C47.9821 47.3009 47.9432 47.4374 47.8589 47.54C47.8162 47.5917 47.7623 47.6349 47.6988 47.6652C47.5096 47.7553 47.2835 47.7084 47.146 47.5506C47.1415 47.5455 46.8394 47.2183 46.1084 46.7953C46.5925 47.3122 46.9041 47.7237 46.9352 47.7651C47.0655 47.9385 47.0584 48.1771 46.9227 48.3422C46.9149 48.3515 46.9071 48.3606 46.8986 48.3693C46.74 48.5347 46.4853 48.5605 46.2964 48.4308C45.0287 47.5591 43.4162 47.396 42.4737 47.3849C43.2031 48.7171 43.5587 50.4014 43.5763 50.4859C43.6062 50.63 43.5662 50.7725 43.4794 50.8779C43.4147 50.9569 43.3236 51.0151 43.2159 51.038C42.9645 51.0917 42.7168 50.9321 42.6619 50.6809C42.6498 50.6317 42.3545 49.5063 40.6417 49.0456C41.2429 49.9735 42.9256 51.1338 44.189 51.7935C44.4038 51.9057 44.4974 52.1636 44.4043 52.3875C44.3863 52.4309 44.3624 52.47 44.3338 52.5047C44.2154 52.6489 44.0177 52.7124 43.8312 52.6535C43.7592 52.6306 42.094 52.0974 37.8092 50.3607C38.0819 51.2839 39.3315 51.9293 39.3466 51.9371C39.5732 52.052 39.6668 52.3273 39.5566 52.5564C39.5401 52.591 39.5195 52.6228 39.4962 52.6512C39.3649 52.8108 39.1391 52.869 38.9426 52.7799C38.8834 52.7531 37.6679 52.19 35.9365 50.5196C35.8517 51.7055 35.4015 53.1864 34.6668 54.0805C34.2658 54.5683 33.8086 54.8534 33.3077 54.9279C33.1323 54.954 32.9574 54.8787 32.8561 54.7334C32.7544 54.5881 32.7439 54.3979 32.8285 54.2423C33.2641 53.4411 33.3501 52.6971 33.0917 51.9677C32.6859 50.8222 31.5158 49.9881 30.7375 49.5409C30.874 50.4423 31.2072 51.8859 31.9996 52.854C32.1281 53.0108 32.1407 53.2326 32.031 53.4032C32.0212 53.4185 32.0104 53.4331 31.9991 53.4472C31.8842 53.5872 31.6965 53.6494 31.5181 53.602C30.0655 53.2163 28.7446 51.5484 27.9471 50.3299C27.9233 51.8655 28.1115 53.9121 29.0158 54.8511C29.1546 54.9951 29.1862 55.2112 29.0949 55.3888C29.0793 55.419 29.061 55.4468 29.0402 55.4722C28.9378 55.5969 28.7757 55.6619 28.6116 55.6378C25.1141 55.1264 23.867 51.9933 23.4271 50.0428C23.1762 50.494 22.857 50.9966 22.4718 51.4651C21.6709 52.4397 20.7984 53.0085 19.8787 53.1556C19.687 53.1862 19.4961 53.0951 19.3995 52.9265C19.3029 52.7579 19.3204 52.5473 19.4439 52.3973C20.0052 51.7142 20.0792 50.3394 19.9716 48.9931C19.7939 49.7178 19.5395 50.4671 19.1749 51.1225C19.1611 51.1471 19.1452 51.1705 19.1274 51.192C19.0657 51.2671 18.9817 51.3218 18.8863 51.3471C18.7636 51.3797 18.6329 51.3609 18.5242 51.2952C18.3629 51.1976 18.2196 51.0422 18.0921 50.8425C18.279 51.6289 18.5413 52.471 18.9013 53.3566C18.9663 53.5162 18.9378 53.6976 18.8296 53.8293C18.8216 53.8391 18.8128 53.8489 18.8037 53.8582C18.6748 53.9912 18.4793 54.0353 18.3054 53.9708C15.3735 52.8818 13.9922 48.6928 13.468 46.5621C13.1435 47.1039 12.7089 47.7674 12.2076 48.3779C11.2593 49.5319 10.3487 50.1477 9.50103 50.2084C9.28875 50.2235 9.093 50.0935 9.02475 49.892C8.97206 49.7359 9.00594 49.5678 9.10657 49.4453C9.13593 49.4097 9.17105 49.3778 9.21145 49.3512C9.41545 49.2175 9.61093 49.0376 9.79285 48.8162C11.919 46.2292 11.6465 39.0553 11.6435 38.9833C11.6389 38.8674 11.6771 38.755 11.7496 38.6666Z" fill="url(#paint0_linear_2229_3460)"/>
  <path d="M13.5038 45.6439C13.5038 45.6439 14.578 52.302 18.1199 53.6174C16.0598 48.5517 17.2321 44.9603 17.2321 44.9603C17.2321 44.9603 17.2658 50.3922 18.4062 51.0825C19.4847 49.1438 19.509 46.2178 19.509 46.2178C19.509 46.2178 20.7998 51.1134 19.4044 52.8114C21.7586 52.4348 23.1091 48.7358 23.1091 48.7358C23.1091 48.7358 23.3317 54.523 27.9345 55.1963C26.3037 53.5027 26.8784 49.056 26.8784 49.056C26.8784 49.056 28.7355 52.707 30.7788 53.2496C29.4923 51.678 29.3771 49.0053 29.3771 49.0053C29.3771 49.0053 34.2288 50.9985 32.3178 54.5142C34.0391 54.2588 34.8125 50.4248 34.3372 49.4864C36.4315 51.7801 37.986 52.4847 37.986 52.4847C37.986 52.4847 35.9113 51.4409 36.2476 49.8951C40.8727 51.7849 42.6353 52.3442 42.6353 52.3442C42.6353 52.3442 38.7784 50.3305 38.7674 48.7213C41.4343 49.046 41.8139 50.7804 41.8139 50.7804C41.8139 50.7804 41.3427 48.5082 40.3889 47.289C40.3889 47.289 43.1348 46.9766 45.123 48.3434C45.123 48.3434 43.3835 46.0248 41.6737 45.5089C44.9242 46.3131 46.0233 47.572 46.0233 47.572C46.0233 47.572 45.5643 44.9099 43.8721 44.3062C46.5753 44.7365 48.2771 46.6682 50.7659 46.6687C47.4207 44.8976 46.1492 42.8749 46.1492 42.8749C46.1492 42.8749 48.9597 43.5657 50.257 44.9079C51.0032 44.1079 47.9675 41.0948 47.9675 41.0948L12.0078 39.6133C12.0078 39.6133 12.3598 48.0771 9.46759 49.9737C11.4517 49.8319 13.5038 45.6439 13.5038 45.6439Z" fill="#318063"/>
  <path d="M44.5352 41.4879C44.6419 41.529 44.7606 41.5298 44.8685 41.4889C44.936 41.4633 51.6631 38.9502 54.7847 40.1542C55.0519 40.2573 55.2843 40.3863 55.4753 40.5378C55.5129 40.5677 55.5543 40.591 55.5975 40.6078C55.745 40.6648 55.9154 40.644 56.0471 40.5449C56.217 40.4169 56.279 40.19 56.1979 39.9933C55.874 39.2079 55.003 38.5369 53.6093 37.9997C52.8724 37.7154 52.1058 37.5116 51.4895 37.3739C53.3474 36.2065 56.8895 33.578 57.0014 30.4525C57.0079 30.2673 56.9046 30.0956 56.7377 30.0149C56.7259 30.0093 56.7141 30.0041 56.7023 29.9995C56.5435 29.9383 56.3623 29.9682 56.2311 30.0801C55.5036 30.7004 54.7867 31.2138 54.0989 31.6386C54.2485 31.4547 54.3508 31.27 54.393 31.0861C54.4214 30.9624 54.398 30.8324 54.3285 30.7262C54.2746 30.6437 54.1963 30.5809 54.1054 30.5461C54.0793 30.536 54.0522 30.5282 54.0246 30.523C53.2884 30.3832 52.4982 30.3769 51.7552 30.4362C52.9991 29.9112 54.3267 29.5496 55.15 29.867C55.3312 29.9371 55.537 29.8874 55.6665 29.7428C55.796 29.5981 55.8226 29.3883 55.7332 29.2159C55.3044 28.3891 54.4901 27.7397 53.313 27.286C52.7472 27.0677 52.1695 26.9226 51.6624 26.8263C53.3755 25.7955 55.9576 23.6264 55.3438 20.1455C55.3149 19.9819 55.2022 19.8487 55.0517 19.7907C55.0211 19.7789 54.989 19.7701 54.9556 19.7649C54.7581 19.734 54.5629 19.8321 54.4698 20.009C53.8628 21.1626 51.9791 21.9848 50.5136 22.4448C51.4197 21.3048 52.5878 19.5265 52.4972 18.0262C52.4862 17.842 52.368 17.6834 52.1991 17.6184C52.1823 17.6119 52.1653 17.6064 52.1474 17.6019C51.951 17.5512 51.7445 17.633 51.636 17.8044C50.9663 18.861 49.7009 19.6311 48.8879 20.0442C49.0678 19.1649 49.4916 17.7918 50.4514 17.0466C51.0627 16.572 51.7959 16.4197 52.6935 16.5813C52.8679 16.6127 53.045 16.5427 53.1509 16.4007C53.2568 16.2586 53.2733 16.0689 53.1935 15.9106C52.9655 15.4584 52.5512 15.1139 51.9617 14.8868C50.882 14.4705 49.3345 14.5089 48.182 14.801C49.2234 12.6322 49.3757 11.3013 49.3824 11.2365C49.4053 11.022 49.279 10.8255 49.0861 10.751C49.0514 10.7377 49.0148 10.7281 48.9764 10.7234C48.724 10.6913 48.4924 10.8672 48.4553 11.1188C48.4527 11.1351 48.2332 12.524 47.4425 13.0731C47.7439 8.45923 47.7265 6.71101 47.7255 6.63548C47.723 6.44 47.6006 6.27238 47.4265 6.20513C47.3845 6.18907 47.3399 6.17878 47.2929 6.17527C47.0513 6.1572 46.8358 6.32683 46.7969 6.56622C46.567 7.97318 45.9944 9.9352 45.3033 10.7976C45.1994 8.99597 46.2092 8.37291 46.2207 8.36614C46.4418 8.2349 46.5156 7.94959 46.3856 7.72777C46.3299 7.63292 46.2461 7.56467 46.1507 7.52803C46.0232 7.47885 45.8757 7.48588 45.7482 7.5594C45.6737 7.60256 44.1874 8.46927 43.1521 9.58014C42.8668 8.68005 42.5148 7.09568 42.9423 5.62348C43.0061 5.40366 42.9012 5.16979 42.6947 5.07118C42.6836 5.06591 42.6726 5.06114 42.6613 5.05688C42.4618 4.98009 42.2332 5.04835 42.1095 5.22626C42.0801 5.26866 41.7873 5.69373 41.449 6.31554C41.6212 5.48847 41.8372 5.09803 41.8415 5.0905C41.9446 4.90958 41.9165 4.68073 41.7713 4.53143C41.7226 4.48149 41.6651 4.44411 41.6031 4.42027C41.4799 4.37284 41.3391 4.37836 41.2169 4.4436C41.1477 4.48049 40.1066 5.04609 39.3212 5.9798C39.3633 5.46715 39.4371 4.96504 39.5096 4.4702C39.7061 3.13099 39.9096 1.74611 39.4378 0.320579C39.3927 0.184324 39.2895 0.0804392 39.1621 0.031257C39.0988 0.00691682 39.0296 -0.00412492 38.9583 0.00139554C38.7443 0.017706 38.5689 0.177798 38.533 0.389583C38.2171 2.26252 37.6761 3.66622 37.2174 4.59768C37.2663 3.67777 37.4191 2.55762 37.8354 1.76267C37.8949 1.649 37.9052 1.51626 37.8638 1.39481C37.8224 1.27361 37.733 1.17449 37.6166 1.12105C37.5993 1.11302 37.582 1.10574 37.5647 1.09921C36.8821 0.835988 36.1057 1.40359 35.1211 2.88558C34.4943 3.82883 34.0067 4.80469 33.9862 4.8456C33.9342 4.95023 33.9232 5.07043 33.9553 5.18259L44.2537 41.18C44.2896 41.3057 44.3764 41.4103 44.4933 41.469C44.5074 41.4763 44.5212 41.4826 44.5352 41.4879Z" fill="url(#paint1_linear_2229_3460)"/>
  <path d="M36.3384 3.64695C35.4722 5.30057 35.7 8.18551 35.7 8.18551C35.7 8.18551 37.2204 6.34268 37.85 2.61035C38.6319 4.97311 37.3331 7.19584 37.7747 9.89735C37.8156 8.1012 40.1984 6.82848 40.1984 6.82848C40.1984 6.82848 39.349 8.26756 39.6075 11.6062C39.5598 9.82107 41.2137 7.44075 41.2137 7.44075C40.541 9.75783 41.701 12.2664 41.701 12.2664C42.5587 10.9776 44.5674 9.8158 44.5674 9.8158C44.5674 9.8158 43.0402 10.7217 43.5704 13.3554C45.0946 12.839 45.7937 8.54459 45.7937 8.54459C45.7937 8.54459 45.8167 10.3937 45.477 15.3784C47.0503 15.2118 47.3888 12.914 47.3888 12.914C47.3888 12.914 47.2084 14.6113 45.6895 17.3204C46.4313 16.5741 50.3137 16.1031 51.0976 17.6566C47.1592 16.9477 46.7926 22.1801 46.7926 22.1801C46.7926 22.1801 49.2936 21.2306 50.3809 19.5152C50.5084 21.6256 47.6265 24.5363 47.6265 24.5363C47.6265 24.5363 52.0282 23.6839 53.1231 21.6032C53.931 26.1844 48.5072 28.2152 48.5072 28.2152C48.5072 28.2152 52.4433 28.3344 53.5411 30.4508C51.4905 29.6601 47.2491 32.4246 47.2491 32.4246C47.2491 32.4246 50.0344 31.5277 52.2137 31.942C51.9169 33.2418 46.7713 34.9815 46.7713 34.9815C46.7713 34.9815 50.549 34.9652 54.7102 31.4168C54.575 35.1926 48.5923 38.3056 48.5923 38.3056C48.5923 38.3056 53.2134 38.9369 53.9717 40.7752C51.2619 38.626 43.3381 41.6211 43.3381 41.6211L33.4389 7.01919C33.4384 7.01919 35.3445 3.19025 36.3384 3.64695Z" fill="#318063"/>
  <path d="M0.341178 23.436C0.113891 24.7997 0.000244141 26.1635 0.000244141 27.5272C0.113888 28.7773 0.113891 30.141 0.909396 31.2774C1.25033 31.732 1.59126 32.0729 2.04583 32.4138C2.38676 32.6411 2.7277 32.7548 2.95498 32.8684C3.06863 32.8684 3.06863 32.9821 3.06863 33.0957C3.06863 33.323 2.72769 33.4366 2.61405 33.5503C2.38676 33.7776 2.15948 34.0049 2.04583 34.2321C1.93219 34.8004 2.15948 35.2549 2.38677 35.7095C2.95498 36.7323 3.5232 37.7551 4.09142 38.7779C6.70522 42.7554 9.65995 46.8466 14.3193 48.6649C16.9331 49.6877 19.6606 49.8013 22.5017 49.9149C25.4564 50.0286 28.2975 50.0286 31.2522 49.9149C33.866 49.8013 36.7071 49.574 38.98 48.2103C40.571 47.1875 41.9347 45.7101 42.9575 44.2328C44.6622 41.7326 46.1395 39.1188 47.276 36.3914C47.3896 36.1641 47.5032 35.9368 47.6169 35.5959C47.6169 35.4822 47.6169 35.3686 47.6169 35.1413C47.6169 34.914 47.5033 34.5731 47.276 34.4594C47.7305 34.2322 48.1851 33.7776 48.4124 33.323C48.5261 33.0957 48.6397 32.7548 48.7533 32.5275C48.867 32.3002 48.867 32.0729 48.9806 31.8456C49.3216 31.391 49.4352 30.8228 49.5488 30.2546C49.8898 29.0045 50.2307 27.7545 50.3444 26.5044C50.3444 26.2771 50.458 26.1635 50.458 25.9362C50.5716 25.1407 50.6853 24.3452 50.5716 23.5496C50.5716 23.436 50.5716 23.436 50.5716 23.3223C50.458 26.2771 49.4352 29.0045 48.1851 31.732C46.935 34.6867 45.344 37.5278 43.5257 40.2552C42.503 41.7326 41.2529 43.3236 39.5482 44.3464C37.389 45.7101 34.5479 45.9374 31.9341 46.0511C29.093 46.1647 26.1383 46.1647 23.2972 46.0511C20.5697 45.9374 17.7287 45.8238 15.2285 44.801C12.501 43.6645 10.1145 41.7326 8.29623 39.4597C6.25064 37.0732 4.65964 34.2322 3.29592 31.6184C1.13669 27.5272 0.341189 23.3224 1.36398 19.0039C1.02305 20.4813 0.682109 22.0723 0.341178 23.436Z" fill="url(#paint2_linear_2229_3460)"/>
  <path d="M50.6852 22.9813C50.6852 23.0949 50.6852 23.0949 50.6852 23.2085C50.5716 24.6859 50.3443 26.0496 49.8897 27.4134C49.4351 28.7771 48.8669 30.2545 48.2987 31.6182C47.9578 32.5273 47.5032 33.4365 47.0486 34.232C47.0486 34.232 47.0486 34.3456 46.935 34.3456C45.9122 36.2776 44.8894 38.2095 43.6393 40.0278C43.1847 40.7097 42.7302 41.2779 42.162 41.9597C41.4801 42.7552 40.5709 43.5508 39.6618 44.119C37.5026 45.4827 34.6615 45.71 32.0477 45.8236C29.2066 45.9373 26.2519 45.9373 23.4108 45.8236C20.6833 45.71 17.8422 45.5963 15.3421 44.5735C12.501 43.4371 10.2281 41.5051 8.40982 39.2323C7.0461 37.6413 5.90966 35.823 4.88686 34.0047C4.54593 33.5501 4.31865 32.9819 4.09136 32.5273C3.86407 32.1864 3.75043 31.8455 3.52314 31.5045C3.29586 31.05 3.06857 30.709 2.95493 30.2544C2.04578 28.3225 1.47756 26.2769 1.25027 24.345C1.13663 23.2085 1.13663 22.0721 1.25027 20.822C1.36392 20.1402 1.47756 19.5719 1.59121 18.8901C1.81849 18.0946 2.04578 17.4127 2.38671 16.6172C2.50035 16.3899 2.50035 16.1626 2.61399 16.049C2.84128 15.3671 3.18221 14.6853 3.40949 14.117C3.52314 13.7761 3.75043 13.4352 3.86408 13.0943C4.20501 12.4124 4.54594 11.6169 5.00051 10.935C5.2278 10.4805 5.56873 10.0259 5.79601 9.5713C6.13695 9.00308 6.47788 8.43486 6.93245 7.86664C6.93245 7.86664 6.93246 7.75303 7.0461 7.75303C7.27339 7.4121 7.38703 7.1848 7.61432 6.95751C7.84161 6.73022 7.95525 6.50293 8.18254 6.27564L8.29617 6.16199C9.77354 4.23005 11.5918 2.41175 14.092 1.61625C19.4332 -0.202048 25.1154 -0.202028 30.9113 0.252547C33.2978 0.36619 35.9116 0.820751 37.7299 2.29812C41.5938 5.36649 45.003 8.88944 47.6168 12.9806L47.7305 13.0943C48.7533 14.6853 49.5488 16.3899 50.117 18.2082C50.2307 18.5491 50.3443 18.8901 50.3443 19.231C50.458 19.4583 50.4579 19.6856 50.4579 20.0265C50.5716 20.7084 50.6852 21.5039 50.6852 22.1857C50.6852 22.2994 50.6852 22.6403 50.6852 22.9813Z" fill="url(#paint3_linear_2229_3460)"/>
  <path d="M50.6852 22.9817C50.6852 23.0953 50.6852 23.0953 50.6852 23.2089C50.5716 24.6863 50.3443 26.05 49.8897 27.4138C48.4123 27.3001 46.935 27.1865 45.344 27.1865C39.3208 26.8455 33.2977 26.5046 27.2746 26.1637C18.4104 25.7091 9.77353 25.3682 1.02298 24.3454C0.909333 23.2089 0.909333 22.0725 1.02298 20.8224C9.77353 20.1406 18.4104 20.3679 27.2746 20.5951C27.3883 20.5951 27.5019 20.5951 27.6156 20.5951C27.161 20.4815 26.5928 20.4815 26.1382 20.3678C18.4104 19.2314 10.0008 18.4359 2.3867 15.9358C2.61398 15.2539 2.95491 14.572 3.1822 14.0038C3.29584 13.6629 3.52314 13.3219 3.63678 12.981C3.97771 12.2991 4.31864 11.5037 4.77322 10.8218C5.00051 10.3672 5.34143 9.91266 5.56872 9.45809C12.8419 9.2308 20.456 10.2536 27.5019 10.9354C33.2978 11.39 39.0936 11.8446 44.8894 12.4128C45.6849 12.5264 46.5941 12.6401 47.3896 12.7537L47.5032 12.8674C48.526 14.4584 49.3215 16.1631 49.8897 17.9814C50.0033 18.3223 50.117 18.6632 50.117 19.0041C50.2306 19.2314 50.2306 19.4587 50.2306 19.7996C50.3443 20.4815 50.4579 21.277 50.4579 21.9589C50.6852 22.2998 50.6852 22.6407 50.6852 22.9817ZM46.935 34.4597C44.4348 34.2324 41.821 33.8915 39.3209 33.8915C34.2069 33.7778 29.2066 33.5505 24.0926 33.2096C18.9787 32.9823 13.9783 32.6414 8.86438 32.6414C7.38701 32.6414 5.68235 32.5277 3.9777 32.5277C4.20499 32.9823 4.54593 33.5505 4.77322 34.0051C5.79601 35.8234 6.93244 37.6417 8.29616 39.2327C13.2965 40.1418 18.1831 40.7101 23.2971 41.051C28.4111 41.3919 33.4114 41.7328 38.5253 41.9601C39.7754 41.9601 40.9119 42.0738 42.1619 41.9601C42.7302 41.3919 43.1847 40.7101 43.6393 40.0282C44.8894 38.3235 46.0258 36.3916 46.935 34.4597Z" fill="url(#paint4_linear_2229_3460)"/>
  <path d="M47.6169 12.7536C48.6397 14.3446 49.4352 16.0493 50.0034 17.8676C49.8898 17.6403 49.7761 17.413 49.6625 17.1857C49.2079 16.3902 48.7533 15.5947 48.2987 14.9128C47.3896 13.4355 46.3668 12.0717 45.344 10.8216C44.8894 10.2534 44.3212 9.79886 44.094 9.11699C43.8667 8.54878 43.4121 8.09422 42.9575 7.63964C41.4802 6.16228 39.8891 5.02585 38.2981 3.77577C37.389 2.98026 36.4798 2.18474 35.457 1.73016C34.4342 1.27559 33.2978 1.04829 32.1614 1.04829C31.7068 1.04829 31.3659 1.04829 30.9113 1.04829C30.7976 1.04829 30.5704 1.04829 30.4567 1.04829C30.2294 0.934651 30.1158 0.934679 29.8885 0.934679C29.3203 0.821035 28.8657 0.821028 28.2975 0.821028C23.8654 0.480098 19.4333 0.821028 15.1148 1.95746C14.3193 2.18475 13.5238 2.41202 12.842 2.75295C12.7283 2.86659 12.6147 2.86661 12.501 2.98025C11.8192 3.43482 11.251 3.88938 10.6827 4.4576C10.3418 4.68489 10.1145 4.91218 9.77358 5.13947C9.65994 5.25311 9.5463 5.25313 9.31901 5.36677C9.09173 5.48041 8.97807 5.7077 8.86443 5.93499C8.5235 6.38956 8.40987 6.84412 8.18258 7.29869C8.18258 7.41233 8.06893 7.41235 8.06893 7.52599C7.95528 7.75328 7.95528 8.09422 7.95528 8.32151C7.61435 8.32151 7.27343 8.20785 7.04614 8.09421C7.04614 8.09421 7.04613 7.98056 7.15978 7.98056C7.38706 7.63963 7.50071 7.41236 7.72799 7.18507C7.95528 6.95779 8.06892 6.73049 8.29621 6.50321L8.40986 6.38956C9.88723 4.45762 11.7055 2.63932 14.2057 1.84381C19.5469 0.0255164 25.2291 0.0255025 31.0249 0.480077C33.4114 0.59372 36.0253 1.04832 37.8436 2.52568C41.5938 5.13948 45.0031 8.77608 47.6169 12.7536Z" fill="#EB924D"/>
  <path d="M50.4581 19.6852C50.4581 19.7988 50.4581 19.7988 50.4581 19.9124C50.4581 19.5715 50.3445 19.2306 50.3445 18.8896C50.3445 19.2306 50.3445 19.4579 50.4581 19.6852Z" fill="#EB924D"/>
  <path d="M47.1625 21.845C47.7308 21.845 48.4126 21.845 48.9809 22.1859C49.89 22.6405 50.3446 23.6633 50.5719 24.6861C50.6855 23.7769 50.6855 22.9814 50.5719 22.0723C50.5719 21.9586 50.5718 21.7313 50.4582 21.6177C50.3446 21.5041 50.2309 21.3904 50.0036 21.2768C48.6399 20.7086 47.1626 21.0495 45.6852 21.2768C44.776 21.3904 43.8669 21.5041 43.0714 21.6177C42.1622 21.7313 41.2531 21.7313 40.3439 21.7313C40.2303 21.7313 40.003 21.7313 39.7757 21.7313C39.5484 21.845 39.7757 21.845 39.8894 21.845C40.3439 21.845 40.7985 21.845 41.2531 21.845C42.1623 21.845 43.0714 21.845 43.9805 21.845C44.8897 21.845 45.7988 21.845 46.708 21.845C46.9353 21.845 47.0489 21.845 47.1625 21.845Z" fill="#EB924D"/>
  <path d="M43.6395 40.1415C42.6167 41.6189 41.3666 43.2098 39.6619 44.2326C37.5027 45.5964 34.6616 45.8236 32.0478 45.9373C29.2068 46.0509 26.252 46.0509 23.4109 45.9373C20.6835 45.8236 17.8424 45.71 15.3422 44.6872C12.5011 43.5508 10.2283 41.6188 8.40998 39.346C7.04626 37.6413 5.90983 35.823 4.77339 34.0047C4.31882 33.2092 3.86423 32.3001 3.40965 31.5046C3.18237 31.05 2.95508 30.7091 2.84144 30.2545C1.13678 26.5042 0.568568 22.754 1.47772 18.8901C1.705 18.0946 1.93229 17.4128 2.27322 16.6173C2.50051 16.1627 2.61415 15.7081 2.84144 15.1399C3.06872 14.5717 3.40967 14.0035 3.63695 13.4352C3.86424 12.867 4.09153 12.2988 4.43246 11.7306C5.00067 10.7078 5.68254 9.685 6.47804 8.77586C6.59169 8.66221 6.70532 8.4349 6.93261 8.4349C7.04626 8.32126 7.27354 8.32129 7.38718 8.32129C7.9554 8.32129 8.52361 8.4349 9.09183 8.4349C10.9101 8.54855 12.7284 9.23042 14.5467 9.11677C15.4559 9.11677 16.365 8.88951 17.2742 8.88951C17.7288 8.88951 18.1833 8.88951 18.6379 8.88951C18.8652 8.88951 19.0925 8.88951 19.3198 8.88951C19.4334 8.88951 19.547 8.88951 19.6607 8.88951C19.7743 8.88951 19.7743 8.88951 19.888 8.88951H20.0016C19.547 9.00315 19.0925 9.11677 18.7515 9.11677C18.297 9.23042 17.8424 9.23043 17.3878 9.34407C16.4787 9.45772 15.5695 9.45772 14.774 9.45772C13.8649 9.45772 12.9557 9.45772 12.0466 9.45772C11.2511 9.45772 10.4556 9.45772 9.66005 9.34407C8.86454 9.34407 8.06905 9.34405 7.27355 9.57134C6.25075 9.91227 5.45524 10.7078 4.88702 11.5033C4.88702 11.5033 4.88703 11.6169 4.77339 11.6169C4.43246 12.1852 4.20517 12.7534 3.86424 13.3216C3.75059 13.6625 3.63695 13.8898 3.5233 14.2307C3.5233 14.3444 3.40966 14.3444 3.29602 14.458C3.18238 14.5717 3.18238 14.799 3.06874 14.9126C2.95509 15.2535 2.7278 15.5945 2.61415 16.049C2.38687 16.6173 2.15959 17.2991 1.9323 17.8673C1.81866 18.4356 1.47772 19.0038 1.59137 19.572C1.59137 20.0266 1.59136 20.4811 1.47772 20.9357C1.47772 21.0493 1.36407 22.4131 1.47772 22.4131C2.38687 22.4131 3.18237 22.6404 4.09152 22.9813C3.75059 22.9813 3.40967 23.095 3.06874 23.095C2.72781 23.2086 2.27322 23.3222 2.04593 23.5495C1.93229 23.6632 1.9323 23.8904 1.9323 24.0041C1.81866 24.345 1.9323 24.6859 1.9323 25.1405C2.04594 26.7315 2.61415 28.2089 3.18237 29.5726C3.29601 29.9135 3.52331 30.2545 3.63695 30.5954C3.7506 30.9363 3.86424 31.1636 4.20517 31.3909C4.43246 31.5046 4.65974 31.6182 4.88702 31.6182C5.45524 31.7319 5.90982 31.9591 6.36439 32.0728C7.38719 32.3001 8.40997 32.4137 9.43277 32.4137C11.3647 32.4137 13.2967 32.0728 15.0013 32.5274C14.6604 32.5274 14.4331 32.5274 14.0922 32.641C12.2739 32.7546 10.3419 32.8683 8.52361 32.9819C7.61447 32.9819 6.70532 33.0956 5.79618 33.0956C5.56889 33.0956 5.22795 33.0956 5.11431 33.3229V33.4365C5.22795 33.7774 5.45525 34.1184 5.56889 34.4593C6.02347 35.3685 6.70533 36.1639 7.27355 36.9594C7.84176 37.755 8.52362 38.5505 9.20548 39.2323C9.54641 39.5732 9.88734 39.9142 10.2283 40.2551C10.3419 40.2551 10.3419 40.3688 10.4556 40.3688C10.7965 40.4824 11.0238 40.8233 11.2511 41.0506C11.8193 41.6188 12.5011 42.0734 13.0694 42.4144C13.9785 42.9826 15.0013 43.4371 16.0241 43.6644C18.1833 44.3463 20.3426 44.5736 22.6154 44.6872C27.1612 44.9145 31.8205 44.8009 36.3663 43.8917C37.6164 43.6644 38.7528 43.3235 39.8892 42.6416C41.7075 41.6188 43.0713 39.8005 44.2077 37.9822C44.8895 36.9594 45.6851 35.7094 45.6851 34.4593C44.7759 34.232 43.9804 34.0047 43.0713 33.7774C43.9804 33.6638 44.8896 33.5501 45.7987 33.5501C45.9124 33.5501 46.026 33.5501 46.1396 33.5501C46.2533 33.5501 46.2533 33.5501 46.3669 33.5501C46.4806 33.5501 46.5942 33.5501 46.7079 33.5501C46.7079 33.5501 47.0488 33.5501 47.0488 33.4365C46.9351 33.8911 46.7078 34.3457 46.4806 34.8002C46.3669 35.0275 46.2533 35.1412 46.1396 35.3684C45.9124 35.5957 45.7987 35.9366 45.5714 36.2776C45.3441 36.6185 45.1168 37.0731 44.8896 37.414C44.6623 38.6641 44.2077 39.4596 43.6395 40.1415Z" fill="#EB924D"/>
  <path d="M38.1846 21.7311C41.3666 21.6175 44.6623 21.6175 47.8443 21.5038C48.4125 21.5038 49.0944 21.5038 49.6626 21.7311C50.2308 21.9584 50.799 22.5266 50.6854 23.0949C50.6854 23.0949 50.6854 23.0948 50.6854 22.9812C50.6854 22.6403 50.6854 22.2993 50.6854 21.8448C50.6854 21.1629 50.5717 20.3674 50.4581 19.6855C50.4581 19.7992 50.3444 19.9128 50.3444 20.0265C50.1172 20.3674 49.4353 20.3674 49.0944 20.481C48.7534 20.481 48.4125 20.5947 48.0716 20.5947C44.7759 20.9356 41.4802 21.2765 38.1846 21.7311Z" fill="url(#paint5_linear_2229_3460)"/>
  <path d="M4.43233 33.096C4.54597 33.4369 4.65962 33.6642 4.77326 34.0051C4.31869 33.2096 3.8641 32.3005 3.40953 31.505C3.18224 31.0504 2.95495 30.7095 2.84131 30.2549L2.95496 30.3685C3.29589 30.5958 3.52318 30.8231 3.86411 31.0504C5.00055 31.7323 6.36427 31.8459 7.61435 32.0732C8.29621 32.1868 9.09171 32.3005 9.77357 32.3005C12.6147 32.6414 15.4558 32.8687 18.4105 33.096C13.8647 33.096 9.09171 33.096 4.43233 33.096Z" fill="url(#paint6_linear_2229_3460)"/>
  <path d="M47.276 32.6411C46.0259 33.5502 44.3212 33.8912 42.7302 34.3457C44.0939 34.3457 45.5713 34.3457 46.9351 34.3457C46.7078 34.573 46.7078 34.9139 46.8214 35.1412C47.0487 34.4594 47.3896 33.8912 47.6169 33.2093C47.8442 32.6411 48.0715 31.9592 48.4124 31.2773C48.4124 31.5046 48.0715 31.7319 47.8442 31.9592C47.8442 32.1865 47.6169 32.4138 47.276 32.6411Z" fill="url(#paint7_linear_2229_3460)"/>
  <path d="M21.4789 9.11699C17.3878 9.79885 13.1829 9.68522 9.09177 9.23064C8.40991 9.117 7.50076 8.88972 6.8189 9.34429C6.47797 9.57158 6.13705 9.79887 5.79611 10.0262C5.45518 10.2534 5.11425 10.4807 4.88696 10.8216C5.45518 9.68521 6.13705 8.54878 6.93255 7.52599C7.15984 7.18506 7.27348 6.95776 7.50077 6.73047V6.84412C7.50077 7.29869 7.8417 7.75327 8.29627 7.98055C8.6372 8.20784 9.09178 8.32148 9.54636 8.43512C13.4102 9.23063 17.6151 8.77606 21.4789 9.11699Z" fill="url(#paint8_linear_2229_3460)"/>
  <path d="M1.0228 21.2764C0.909159 21.7309 1.13644 22.1855 1.47737 22.4128C1.8183 22.6401 2.27288 22.7537 2.72746 22.7537C4.31847 22.981 6.02311 23.0947 7.72777 22.981C5.90947 23.0947 3.75025 23.2083 1.93195 23.3219C1.81831 23.3219 1.70466 23.3219 1.59102 23.4356C1.36373 23.5492 1.25009 23.8902 1.25009 24.1175C1.25009 24.3447 1.36373 24.6857 1.25009 24.9129C0.909156 23.6629 0.909159 22.5264 1.0228 21.2764Z" fill="url(#paint9_linear_2229_3460)"/>
  <path d="M43.0711 21.0489C42.7302 19.3442 42.1619 17.5259 41.3664 15.8213C40.6846 14.2303 39.7754 12.7529 38.639 11.3892C37.6162 10.1391 36.1388 9.45725 34.7751 8.66174C34.2069 8.32081 33.6387 7.86625 33.0705 7.63896C20.9106 2.18407 6.59152 12.7529 7.8416 25.481C8.06889 27.6402 8.75076 29.6858 9.88719 31.6178C12.9556 36.8454 18.5241 40.141 24.5472 40.7092C26.8201 40.9365 29.0929 40.8229 31.2522 40.2546C35.6843 39.2318 39.3209 36.3908 41.4801 32.4132C43.412 29.0039 43.753 24.6855 43.0711 21.0489ZM37.6162 30.5949C36.0252 33.5497 33.2978 35.5953 29.8884 36.3908C28.1838 36.7317 26.4791 36.8454 24.7745 36.7317C20.2287 36.2771 16.0239 33.777 13.7511 29.9131C12.9556 28.5494 12.3873 26.9584 12.2737 25.3674C12.2737 24.9128 12.1601 24.3446 12.2737 23.89C12.2737 23.6627 12.2737 23.4354 12.2737 23.2081C12.2737 23.0945 12.2737 22.9808 12.1601 22.8672C12.0464 22.5263 12.0464 22.1853 12.1601 21.8444C12.2737 21.5035 12.3873 21.1625 12.7283 20.9352C12.9556 20.8216 13.2965 20.708 13.5238 20.708C14.2056 20.5943 14.8875 20.5943 15.5694 20.5943C14.7739 20.4807 13.8647 20.367 13.0692 20.2534C13.0692 20.2534 13.2965 19.2306 13.4101 19.117C13.5238 18.776 13.7511 18.4351 13.8647 18.0941C14.092 17.5259 14.5466 17.0714 14.8875 16.5031C15.683 15.4804 16.4785 14.6849 17.5013 13.8894C18.5241 13.0939 19.5469 12.5256 20.6833 11.9574C21.8198 11.5028 23.0698 11.1619 24.2063 10.9346C25.4563 10.7073 26.7064 10.7073 27.9565 10.9346C29.0929 11.0483 30.2294 11.3892 31.2522 11.8438C31.7067 12.071 32.0477 12.412 32.5023 12.6393C33.525 13.2075 34.6615 13.7757 35.3433 14.6848C36.1388 15.7076 36.8207 16.8441 37.3889 17.9805C37.9571 19.2306 38.4117 20.5943 38.639 21.9581C38.8663 23.4354 38.9799 24.9128 38.639 26.3901C36.9343 26.5038 35.116 26.5038 33.4114 26.5038C35.0024 26.7311 36.5934 26.8447 38.1844 27.072C38.639 27.072 38.4117 27.5266 38.2981 27.8675C38.1844 28.0948 38.1844 28.4357 38.1844 28.663C38.1844 28.8903 38.1844 29.1176 38.0708 29.4585C37.9571 29.6858 37.9572 29.7994 37.8435 30.0267C37.8435 30.1404 37.7299 30.254 37.7299 30.254C37.7299 30.3677 37.6162 30.5949 37.6162 30.5949Z" fill="url(#paint10_linear_2229_3460)"/>
  <path d="M39.2071 34.9135C40.6845 33.4361 41.7073 31.6178 42.2755 29.6859C42.8437 27.7539 43.071 25.7084 43.071 23.6628C43.071 23.3219 43.071 23.0946 42.9574 22.7536C42.8437 22.4127 42.5028 22.1854 42.1618 22.1854C41.5936 22.0718 41.0254 21.8445 40.3435 21.7308C41.7073 21.7308 43.2983 21.7308 44.662 21.6172C44.4347 21.7308 44.2074 21.7308 43.9801 21.8445C43.8665 21.8445 43.8665 21.8445 43.8665 21.9581L43.7528 22.0718C43.6392 22.4127 43.7528 22.7536 43.7528 23.0946C43.7528 23.6628 43.7528 24.231 43.7528 24.7992C43.7528 25.0265 43.7528 25.3674 43.6392 25.5947C43.6392 26.1629 43.4119 26.7312 43.2983 27.413C43.071 28.5495 42.9573 29.6859 42.6164 30.8223C42.2755 31.9588 41.8209 32.9816 41.0254 33.7771C41.139 34.0043 41.2527 34.2316 41.48 34.3453C41.2527 34.3453 40.9118 34.3453 40.6845 34.5725C40.5708 34.6862 40.4572 34.7999 40.3435 34.9135C40.0026 35.3681 39.548 35.709 39.2071 36.1636C39.0935 36.2772 38.9798 36.3909 38.7525 36.5045C38.4116 36.7318 38.1843 37.0727 37.957 37.3C36.7069 38.5501 35.0023 39.3456 33.2977 39.9138C33.184 39.9138 33.0703 40.0275 32.9567 40.0275C31.8203 40.3684 30.5702 40.5957 29.3201 40.7093C28.07 40.823 26.9336 40.823 25.6835 40.7093C25.1153 40.7093 24.4334 40.5957 23.8652 40.482C23.5243 40.482 23.297 40.3684 22.9561 40.2547C22.0469 40.0274 21.0241 39.9138 20.115 39.5729C17.3876 38.6637 15.001 37.0727 12.8418 35.2544C12.6145 35.0271 12.2736 34.7998 12.0463 34.5725C11.9327 34.4589 11.819 34.3453 11.7054 34.2316C11.5917 34.118 11.5917 34.0043 11.4781 34.0043C11.2508 33.8907 11.0235 33.7771 10.7962 33.6634C10.4553 33.5498 10.0007 33.5498 9.54614 33.5498C9.54614 33.4361 9.77343 33.3225 9.88708 33.3225C10.228 33.2089 10.4553 33.2088 10.7962 33.2088C10.9099 33.2088 11.1372 33.2088 11.2508 33.2088C11.3644 33.2088 11.4781 33.2088 11.5917 33.2088C12.1599 33.2088 12.8418 33.4361 13.41 33.4361C13.7509 33.4361 14.2055 33.5498 14.5465 33.4361C13.6373 33.5498 12.7282 33.5498 11.819 33.6634C12.1599 34.4589 12.9554 35.0271 13.751 35.3681C13.8646 35.4817 14.0919 35.4817 14.2055 35.5954C14.3192 35.5954 14.3192 35.709 14.4328 35.709C14.5465 35.8226 14.6601 35.9363 14.7737 36.0499C15.001 36.2772 15.2283 36.3909 15.5693 36.6182C16.0238 36.9591 16.592 37.3 17.1603 37.6409C17.9558 38.0955 18.6376 38.5501 19.5468 38.7774C20.7969 39.2319 22.1606 39.5729 23.5243 39.6865C25.9108 39.9138 28.2973 40.1411 30.6838 39.8002C31.0248 39.8002 31.2521 39.6865 31.4794 39.6865C33.4113 39.2319 35.116 38.3228 36.707 37.1864C37.6161 36.5045 38.4116 35.709 39.2071 34.9135Z" fill="#EB924D"/>
  <path d="M9.88714 31.0496C9.54621 30.2541 9.20527 29.3449 8.86434 28.5494C8.63705 28.0948 8.52341 27.6403 8.29612 27.1857C8.18248 26.7311 8.06884 26.3902 8.06884 25.9356C7.95519 25.4811 7.9552 25.1401 7.84155 24.6855C7.9552 25.1401 7.95519 25.4811 7.95519 25.9356C7.95519 26.3902 8.06884 26.7311 8.18249 27.1857C8.29613 27.9812 8.52342 28.8904 8.7507 29.6859C8.86435 30.0268 8.97798 30.4814 9.09162 30.8223C9.09162 30.9359 9.20527 31.1632 9.20527 31.2769C9.20527 31.3905 9.20527 31.5042 9.20527 31.6178C9.20527 31.9587 9.43256 32.2997 9.54621 32.5269C9.88714 32.5269 10.1144 32.5269 10.4554 32.5269L10.2281 32.2996C10.1144 32.186 10.1144 32.0724 10.0008 31.9587C10.0008 31.5042 9.88714 31.2769 9.88714 31.0496Z" fill="#EB924D"/>
  <path d="M15.5695 9.91258C17.1606 10.0262 18.8652 9.91257 20.5699 9.79892C20.1153 9.68528 19.7743 9.68527 19.3198 9.57162C18.8652 9.57162 18.5243 9.45801 18.0697 9.45801C17.6151 9.45801 17.2742 9.45801 16.8196 9.45801C16.365 9.45801 16.0241 9.45801 15.5695 9.45801C15.115 9.45801 14.774 9.45801 14.3195 9.45801H14.2058C14.2058 9.57165 14.2058 9.57163 14.2058 9.68527C14.2058 9.79892 14.3195 9.79892 14.4331 9.79892C14.6604 9.79892 14.8877 9.79892 15.2286 9.79892C15.3423 9.91257 15.4559 9.91258 15.5695 9.91258Z" fill="#EB924D"/>
  <path d="M41.1392 25.8227C41.1392 26.391 41.1392 27.0728 41.0256 27.641C40.7983 29.2321 40.3437 30.5958 39.5482 31.9595C36.3662 37.4144 28.8657 40.0282 22.5017 38.3235C18.5241 37.3007 15.2285 34.5733 13.1829 30.9367C13.0693 30.7094 12.842 30.3685 12.7283 30.1412C11.7055 28.0956 11.0237 25.9364 11.0237 23.6635C11.0237 22.7544 11.0237 21.9588 11.1373 21.0497C11.1373 20.8224 11.251 20.5951 11.251 20.3678C11.3646 19.686 11.5919 19.0041 11.8192 18.4359C12.842 15.7085 14.7739 13.4356 17.0468 11.7309C17.7286 11.1627 18.5241 10.5945 19.3196 10.1399C23.8654 7.41246 29.4339 8.20799 33.6387 11.0491C36.4798 12.981 38.4118 15.5948 39.6618 18.5496C39.7755 18.7768 39.8891 19.1178 40.0028 19.345C40.0028 19.4587 40.0028 19.4587 40.1164 19.5723C40.2301 19.7996 40.2301 20.0269 40.3437 20.2542C40.4574 20.5951 40.4574 20.8224 40.571 21.1633C40.571 21.277 40.6847 21.3906 40.6847 21.5043C40.6847 21.6179 40.6846 21.7316 40.7983 21.8452C40.7983 21.9589 40.7983 22.0725 40.9119 22.1861C40.9119 22.2998 41.0256 22.5271 41.0256 22.7543C41.0256 22.868 41.0256 23.0953 41.1392 23.2089V23.3226C41.1392 23.5499 41.1392 23.6635 41.2529 23.8908V24.0044C41.0256 24.5727 41.0256 25.1409 41.1392 25.8227Z" fill="url(#paint11_linear_2229_3460)"/>
  <path d="M37.3889 31.1636C36.9343 31.8455 36.3661 32.4137 35.7979 33.0956L35.6842 33.2092C36.0252 32.8683 36.2525 32.3 36.4797 31.8455C36.707 31.3909 36.9343 30.9363 37.1616 30.3681C37.3889 29.9135 37.6162 29.3453 37.7298 28.8907C37.8435 28.5498 37.7298 28.2089 37.7298 27.8679C37.7298 27.4134 37.8434 27.0724 37.9571 26.7315C37.9571 26.5042 37.9571 26.1633 37.9571 25.936C37.9571 25.3678 37.9571 24.7996 37.8435 24.2314C37.7298 23.0949 37.5025 21.9585 37.048 20.9357C37.048 20.822 37.048 20.8221 36.9343 20.7084C35.6842 17.4127 32.8431 14.5716 29.4338 13.7761C26.9337 13.2079 24.2062 13.7761 21.7061 14.7989C21.3651 14.9126 21.1379 15.0262 20.7969 15.2535C19.6605 15.8217 18.5241 16.5036 17.5013 17.2991C16.4785 18.0946 15.5693 18.8901 14.4329 19.6856C13.9783 20.0266 13.4101 20.2538 12.7282 20.1402C12.16 20.0265 11.9327 19.4583 11.5918 19.0038C11.4782 18.8901 11.4781 18.6628 11.3645 18.5492C12.3873 15.8217 14.3192 13.5488 16.5921 11.8442C17.274 11.276 18.0695 10.7078 18.865 10.2532C23.4107 7.52574 28.9793 8.32127 33.1841 11.1624C34.2069 11.8442 35.116 12.6397 35.9115 13.4352C36.5934 14.1171 37.1616 14.9126 37.7298 15.7081C39.3208 18.0946 40.4573 21.3903 40.6846 24.2314C40.7982 25.0269 40.6845 25.936 40.3436 26.6179C40.23 26.9588 40.0027 27.1861 39.6617 27.4134C39.5481 27.527 39.5481 27.527 39.4345 27.6407C38.7526 28.6635 38.1844 29.7999 37.5025 30.8227C37.7298 30.8227 37.6162 31.05 37.3889 31.1636Z" fill="#FFDF80"/>
  <path d="M38.639 25.8232C38.639 26.3914 38.639 26.846 38.5254 27.4142C38.4117 28.7779 37.9572 29.9143 37.2753 31.0508C34.7752 35.2556 29.3203 37.5285 24.3199 36.733C23.8654 36.6193 23.4108 36.6193 23.0699 36.5057C20.2288 35.8238 17.7286 34.0055 16.024 31.619C15.683 31.1644 15.4557 30.8235 15.2285 30.3689C15.1148 30.1416 15.0012 29.9143 14.8875 29.687C13.9784 27.9824 13.5238 26.0505 13.4102 24.2322C13.4102 23.5503 13.4102 22.7548 13.5238 22.0729C13.5238 21.8456 13.6374 21.6183 13.6374 21.5047C14.2057 18.4363 16.1376 16.0498 18.5241 14.1179C19.206 13.6633 19.7742 13.2087 20.4561 12.7542C21.4788 12.1859 22.5017 11.7314 23.5244 11.5041C26.5928 10.8222 29.8885 11.7314 32.5023 13.436C34.8888 15.027 36.4798 17.1863 37.5026 19.6864C37.6162 19.9137 37.7299 20.141 37.7299 20.3683V20.4819C37.7299 20.7092 37.8435 20.8228 37.8435 21.0501C37.8435 21.1638 37.9572 21.391 37.9572 21.5047C37.9572 21.6183 37.9572 21.6183 38.0708 21.732C38.0708 21.8456 38.0708 21.9593 38.1845 22.0729C38.1845 22.1866 38.1845 22.3002 38.2981 22.4139C38.2981 22.5275 38.2981 22.6411 38.2981 22.7548C38.2981 22.8684 38.2981 23.0957 38.4118 23.2093C38.4118 23.323 38.4117 23.4367 38.5254 23.5503V23.6639C38.5254 23.7776 38.5254 24.0049 38.5254 24.1185C38.5254 24.1185 38.5254 24.1185 38.5254 24.2322C38.5254 24.4594 38.5254 24.8004 38.639 25.0276C38.639 25.2549 38.639 25.5959 38.639 25.8232Z" fill="url(#paint12_linear_2229_3460)"/>
  <path d="M38.639 25.0271C34.5479 27.9819 27.8429 29.232 22.0471 28.0955C18.6378 27.4137 15.5694 25.9363 13.4102 24.0044C13.4102 23.3225 13.4102 22.527 13.5238 21.8451C13.5238 21.6178 13.6374 21.3906 13.6374 21.2769C14.2057 18.2085 16.1376 15.822 18.5241 13.8901C19.206 13.4355 19.7742 12.9809 20.4561 12.5263C24.2063 10.2535 28.8657 10.8217 32.5023 13.2082C34.8888 14.7992 36.4798 16.9585 37.5026 19.4586C37.6162 19.6859 37.7299 19.9132 37.7299 20.1405V20.2541C37.7299 20.4814 37.8435 20.5951 37.8435 20.8223C37.9572 21.0496 37.9572 21.3905 38.0708 21.6178C38.0708 21.7315 38.0708 21.8451 38.1845 21.9588C38.1845 22.0724 38.1845 22.1861 38.2981 22.2997C38.2981 22.4133 38.2981 22.527 38.2981 22.6406C38.2981 22.7543 38.2981 22.9816 38.4118 23.0952C38.4118 23.2089 38.4117 23.3225 38.5254 23.4361V23.5498C38.5254 23.6634 38.5254 23.8907 38.5254 24.0044C38.5254 24.0044 38.5254 24.0044 38.5254 24.118C38.639 24.4589 38.639 24.6862 38.639 25.0271Z" fill="url(#paint13_linear_2229_3460)"/>
  <path opacity="0.1" d="M38.0709 21.5041C37.9572 21.2768 37.8436 20.9359 37.73 20.5949C37.6163 20.1404 37.5027 19.6858 37.1618 19.4585C36.8208 19.1176 36.3663 19.0039 36.0253 19.2312C35.798 19.3449 35.5707 19.5721 35.4571 19.7994C34.7752 20.9359 34.207 22.186 33.5251 23.3224C31.025 27.4136 27.7293 31.0502 23.8654 33.7776C23.5245 34.0049 23.0699 34.3458 22.8427 34.6867C22.729 34.914 22.6154 35.255 22.729 35.5959C22.8427 36.0505 23.4109 36.2778 23.7518 36.3914C23.9791 36.505 24.2064 36.5051 24.4337 36.6187C23.9791 36.5051 23.5245 36.505 23.1836 36.3914C20.3425 35.7095 17.8423 33.8913 16.1377 31.5047C16.4786 31.6184 16.8195 31.6184 17.1605 31.6184C17.8423 31.5047 18.2969 31.0501 18.7515 30.5956C21.8199 27.6408 24.6609 24.4588 26.7065 20.7086C27.2748 19.5722 27.843 18.3221 28.0703 17.072C28.2976 15.8219 28.0703 14.3446 27.3884 13.3218C27.1611 13.0945 27.0475 12.7535 26.7065 12.6399C26.5929 12.6399 26.4793 12.5262 26.3656 12.5262C26.0247 12.4126 25.7974 12.1853 25.4565 11.958C24.8882 11.7307 24.2064 11.5035 23.6382 11.3898C26.7065 10.7079 30.0022 11.6171 32.616 13.3218C35.0025 14.9128 36.5935 17.072 37.6163 19.5722C37.73 19.7994 37.8436 20.0267 37.8436 20.254V20.3676C37.8436 20.5949 37.9572 20.7086 37.9572 20.9359C37.9572 21.1632 38.0709 21.3904 38.0709 21.5041Z" fill="url(#paint14_linear_2229_3460)"/>
  <path d="M32.7296 24.5728C33.9797 24.5728 35.2298 24.4592 36.4799 24.2319C36.3662 24.2319 35.2298 22.5273 35.2298 22.4136C34.7752 21.8454 34.3206 21.2772 33.8661 20.709C31.5932 18.0952 28.9794 16.0496 26.1383 14.004C25.7974 13.7767 25.5701 13.5494 25.2291 13.663C24.8882 13.663 24.5473 14.004 24.32 14.2313C22.1608 16.2768 20.0015 18.2088 18.1832 20.4817C16.9332 21.959 15.7967 23.55 14.7739 25.0274C15.7967 25.0274 17.0468 24.9137 18.1832 24.9137C18.1832 27.4139 18.1832 30.0277 18.1832 32.5279C18.1832 32.6415 18.0696 32.6415 18.1832 32.6415C19.3197 32.6415 20.5698 32.6415 21.7062 32.5279C21.9335 32.5279 22.0471 32.5279 22.2744 32.5279C22.2744 32.1869 22.2744 31.7324 22.2744 31.3914C22.2744 31.0505 22.2744 30.7096 22.2744 30.255C22.2744 29.5731 22.2744 27.6412 22.3881 26.9594C24.0927 26.8457 25.911 26.8457 27.6157 26.732C27.8429 26.732 28.0702 26.732 28.2975 26.732C28.5248 26.732 28.7521 26.6184 28.9794 26.732C28.9794 27.073 29.093 28.5503 29.093 28.8913C29.093 29.2322 29.093 29.6868 29.093 30.0277C29.093 30.8232 28.9794 31.5051 28.9794 32.3006C29.093 32.3006 29.2067 32.3006 29.3203 32.3006C30.0022 32.3006 30.684 32.4142 31.3659 32.4142C31.7068 32.4142 32.8433 32.6415 33.0705 32.4142C33.1842 32.3006 33.2978 32.0733 33.2978 31.846C32.8433 29.5731 32.5023 26.8457 32.7296 24.5728Z" fill="#FFDF80"/>
  <path d="M33.4115 24.0045C34.6616 24.0045 35.9117 23.8908 37.1617 23.6636C37.0481 23.6636 35.9117 21.9589 35.9117 21.8452C35.4571 21.277 35.0025 20.7088 34.5479 20.1406C32.275 17.5268 29.6613 15.4812 26.8202 13.4356C26.4792 13.2083 26.2519 12.981 25.911 13.0947C25.5701 13.0947 25.2292 13.4356 25.0019 13.6629C22.8426 15.7085 20.6834 17.6404 18.8651 19.9133C17.615 21.3907 16.4786 22.9817 15.4558 24.459C16.4786 24.459 17.7287 24.3454 18.8651 24.3454C18.8651 26.8455 18.8651 29.4594 18.8651 31.9595C18.8651 32.0732 18.7515 32.0732 18.8651 32.0732C20.0016 32.0732 21.2516 32.0732 22.3881 31.9595C22.6154 31.9595 22.729 31.9595 22.9563 31.9595C22.9563 31.6186 22.9563 31.164 22.9563 30.8231C22.9563 30.4822 22.9563 30.1412 22.9563 29.6866C22.9563 29.0048 22.9563 27.0729 23.0699 26.391C24.7746 26.2773 26.5929 26.2773 28.2975 26.1637C28.5248 26.1637 28.7521 26.1637 28.9794 26.1637C29.2067 26.1637 29.434 26.05 29.6613 26.1637C29.6613 26.5046 29.7749 27.982 29.7749 28.3229C29.7749 28.6638 29.7749 29.1184 29.7749 29.4593C29.7749 30.2549 29.6613 30.9367 29.6613 31.7322C29.7749 31.7322 29.8885 31.7322 30.0022 31.7322C30.6841 31.7322 31.3659 31.8459 32.0478 31.8459C32.3887 31.8459 33.5251 32.0732 33.7524 31.8459C33.8661 31.7322 33.9797 31.5049 33.9797 31.2776C33.5251 29.0048 33.1842 26.2773 33.4115 24.0045Z" fill="#A04623"/>
  <defs>
    <linearGradient id="paint0_linear_2229_3460" x1="68.6344" y1="47.069" x2="-3.79993" y2="47.069" gradientUnits="userSpaceOnUse">
      <stop offset="2.7e-07" stop-color="#95D543"/>
      <stop offset="0.2613" stop-color="#72B74E"/>
      <stop offset="0.5762" stop-color="#4F9959"/>
      <stop offset="0.8338" stop-color="#398760"/>
      <stop offset="1" stop-color="#318063"/>
    </linearGradient>
    <linearGradient id="paint1_linear_2229_3460" x1="68.6343" y1="20.7599" x2="-3.79983" y2="20.7599" gradientUnits="userSpaceOnUse">
      <stop offset="2.7e-07" stop-color="#95D543"/>
      <stop offset="0.2613" stop-color="#72B74E"/>
      <stop offset="0.5762" stop-color="#4F9959"/>
      <stop offset="0.8338" stop-color="#398760"/>
      <stop offset="1" stop-color="#318063"/>
    </linearGradient>
    <linearGradient id="paint2_linear_2229_3460" x1="25.0968" y1="-1.55682" x2="25.3479" y2="22.7974" gradientUnits="userSpaceOnUse">
      <stop stop-color="#CF5C2B"/>
      <stop offset="1" stop-color="#59173E"/>
    </linearGradient>
    <linearGradient id="paint3_linear_2229_3460" x1="43.3483" y1="-9.56036" x2="-0.50622" y2="71.7879" gradientUnits="userSpaceOnUse">
      <stop stop-color="#CF5C2B"/>
      <stop offset="1" stop-color="#59173E"/>
    </linearGradient>
    <linearGradient id="paint4_linear_2229_3460" x1="38.4153" y1="-0.409346" x2="-5.43908" y2="80.9387" gradientUnits="userSpaceOnUse">
      <stop stop-color="#CF5C2B"/>
      <stop offset="1" stop-color="#59173E"/>
    </linearGradient>
    <linearGradient id="paint5_linear_2229_3460" x1="44.1677" y1="-1.75331" x2="44.4187" y2="22.6007" gradientUnits="userSpaceOnUse">
      <stop stop-color="#CF5C2B"/>
      <stop offset="1" stop-color="#59173E"/>
    </linearGradient>
    <linearGradient id="paint6_linear_2229_3460" x1="10.3143" y1="-1.40348" x2="10.5653" y2="22.9504" gradientUnits="userSpaceOnUse">
      <stop stop-color="#CF5C2B"/>
      <stop offset="1" stop-color="#59173E"/>
    </linearGradient>
    <linearGradient id="paint7_linear_2229_3460" x1="45.3147" y1="-1.76503" x2="45.5657" y2="22.5891" gradientUnits="userSpaceOnUse">
      <stop stop-color="#CF5C2B"/>
      <stop offset="1" stop-color="#59173E"/>
    </linearGradient>
    <linearGradient id="paint8_linear_2229_3460" x1="23.4524" y1="-7.80275" x2="16.8007" y2="3.75845" gradientUnits="userSpaceOnUse">
      <stop stop-color="#CF5C2B"/>
      <stop offset="1" stop-color="#59173E"/>
    </linearGradient>
    <linearGradient id="paint9_linear_2229_3460" x1="8.95102" y1="4.8211" x2="4.26441" y2="22.4799" gradientUnits="userSpaceOnUse">
      <stop stop-color="#CF5C2B"/>
      <stop offset="1" stop-color="#59173E"/>
    </linearGradient>
    <linearGradient id="paint10_linear_2229_3460" x1="27.108" y1="71.3853" x2="25.6299" y2="24.7181" gradientUnits="userSpaceOnUse">
      <stop stop-color="#CF5C2B"/>
      <stop offset="1" stop-color="#59173E"/>
    </linearGradient>
    <linearGradient id="paint11_linear_2229_3460" x1="27.9211" y1="4.2192" x2="25.1651" y2="33.6645" gradientUnits="userSpaceOnUse">
      <stop stop-color="#FFCA2B"/>
      <stop offset="1" stop-color="#D15B24"/>
    </linearGradient>
    <linearGradient id="paint12_linear_2229_3460" x1="25.0169" y1="44.0407" x2="26.0325" y2="24.4544" gradientUnits="userSpaceOnUse">
      <stop stop-color="#FFCE3B"/>
      <stop offset="1" stop-color="#CC6923"/>
    </linearGradient>
    <linearGradient id="paint13_linear_2229_3460" x1="25.6257" y1="32.5898" x2="26.6412" y2="9.95789" gradientUnits="userSpaceOnUse">
      <stop stop-color="#FFCE3B"/>
      <stop offset="1" stop-color="#CC6923"/>
    </linearGradient>
    <linearGradient id="paint14_linear_2229_3460" x1="43.7283" y1="4.42073" x2="10.6508" y2="37.1114" gradientUnits="userSpaceOnUse">
      <stop stop-color="#F2DE6D"/>
      <stop offset="1"/>
    </linearGradient>
  </defs>
</svg>