<svg width="81" height="85" viewBox="0 0 81 85" fill="none" xmlns="http://www.w3.org/2000/svg">
<g id="Group">
<g id="Group_2">
<path id="Vector" d="M79.8449 12.1985C79.4598 5.84557 74.2619 1.03275 67.909 0.840235C50.1978 0.0701821 32.6791 0.0701821 15.1604 0.840235C13.8128 0.840235 12.6577 1.22525 11.5027 1.61028C10.9251 1.80279 10.3476 1.99529 9.77005 2.38032C7.07486 3.92042 5.14972 6.4231 3.80212 9.11828C2.26202 12.006 0.721889 15.0862 0.529376 18.359C0.336863 21.0541 0.336898 23.5568 0.144385 26.252C0.144385 26.4445 0.144385 26.8295 0.144385 27.022C0.144385 27.2146 0.144385 27.407 0.144385 27.407C0.144385 28.1771 0.14435 28.9472 0.529376 29.7172C0.721889 30.1022 1.10693 30.4873 1.68447 30.8723L1.29942 31.2573C1.1069 31.4498 1.10694 31.6424 0.914426 31.6424C0.721913 32.0274 0.529364 32.4124 0.336851 32.7974C0.144338 33.1825 0.144385 33.5675 0.144385 33.9525C-0.0481283 35.4926 -0.0481283 37.2253 0.144385 38.7654C0.144385 40.113 -0.0481753 41.653 0.336851 43.0006C0.336851 43.3856 0.336851 43.7707 0.336851 44.1557C0.529364 44.9258 0.914391 45.6958 1.29942 46.4659C0.721878 47.0434 0.336851 48.006 0.336851 48.9685C0.336851 49.9311 0.529364 51.0862 0.336851 52.0488C0.144338 54.9365 0.336863 57.8242 0.529376 60.5193C0.529376 60.9044 0.529388 61.0969 0.721901 61.4819C0.914414 62.252 0.914391 63.022 1.29942 63.7921C1.49193 64.1771 1.68449 64.3696 2.06952 64.5621C1.68449 64.5621 1.49194 64.7546 1.49194 65.1396C0.721889 66.8723 0.721913 68.0273 0.914426 69.7599C1.29945 71.6851 1.10694 73.4177 1.87699 75.1504C2.45453 76.6905 3.22456 78.0381 4.37964 79.1931C6.49729 81.6958 9.77001 83.0434 13.0427 83.2359C31.7165 84.391 49.6202 84.391 66.7539 83.4284H66.9464C69.0641 83.2359 70.9892 82.6583 72.7218 81.5033C74.4545 80.3482 75.8021 78.8081 76.7646 77.0755C77.9197 74.9578 78.4973 72.6477 79.0748 70.3375C79.4598 68.9899 80.0374 67.2573 79.8449 65.7172C79.8449 64.9472 80.0374 63.9846 80.0374 63.2145C80.0374 62.2519 79.6523 61.2894 79.2673 60.5193C79.2673 60.3268 79.0748 60.3268 79.0748 60.1343C79.0748 59.9418 79.2673 59.7493 79.4598 59.5568C80.0373 59.1717 80.2299 58.5942 80.4224 58.0167C80.4224 57.8242 80.4224 57.6316 80.4224 57.6316C80.4224 57.4391 80.4224 57.0541 80.4224 56.8616C80.6149 54.9365 80.6149 53.0113 80.6149 51.0862C80.6149 48.9686 80.8074 46.8509 80.8074 44.7332C80.8074 42.6156 80.8074 40.498 80.9999 38.3803C80.9999 36.2627 80.9999 34.145 80.9999 32.2199C80.9999 31.2573 80.9999 30.1023 80.9999 29.1397C80.9999 28.5622 80.9999 28.1771 80.9999 27.5996C80.9999 27.022 80.9999 26.637 80.9999 26.0595C80.9999 25.867 80.9999 25.6744 80.9999 25.6744C80.9999 25.4819 80.9999 25.2894 80.8074 25.0969C80.6149 24.7119 80.6149 24.3269 80.2299 23.9418C80.0373 23.5568 79.8448 23.1718 79.4598 22.9793L78.4972 22.2092C78.6898 22.0167 78.8823 21.6317 79.0748 21.4392C79.6524 20.6691 79.8449 19.899 80.0374 19.129C80.2299 18.744 80.2299 18.1664 80.2299 17.7814V17.5889C80.2299 17.2039 80.2299 17.0114 80.2299 16.6263C80.0373 14.8937 80.0374 13.5461 79.8449 12.1985Z" fill="white"/>
<path id="Vector_2" d="M77.9019 14.2331C77.5359 8.19389 72.5947 3.61874 66.5555 3.43574C49.7189 2.70371 33.0653 2.70371 16.4117 3.43574C15.1307 3.43574 14.0327 3.80174 12.9346 4.16775C12.3856 4.35076 11.8366 4.53375 11.2876 4.89977C8.72549 6.36382 6.89541 8.7429 5.61437 11.305C4.15031 14.0501 2.68624 16.9782 2.50323 20.0893C2.32023 22.6514 2.32026 25.0305 2.13725 27.5926C2.13725 27.7756 2.13725 28.1416 2.13725 28.3246C2.13725 28.5076 2.13725 28.6906 2.13725 28.6906C2.13725 29.4226 2.13722 30.1547 2.50323 30.8867C2.68624 31.2527 3.05226 31.6187 3.60128 31.9848L3.23525 32.3507C3.05224 32.5337 3.05228 32.7168 2.86927 32.7168C2.68626 33.0828 2.50322 33.4488 2.32022 33.8148C2.13721 34.1808 2.13725 34.5469 2.13725 34.9129C1.95425 36.3769 1.95425 38.024 2.13725 39.488C2.13725 40.7691 1.9542 42.2331 2.32022 43.5141C2.32022 43.8801 2.32022 44.2462 2.32022 44.6122C2.50322 45.3442 2.86924 46.0763 3.23525 46.8083C2.68623 47.3573 2.32022 48.2723 2.32022 49.1873C2.32022 50.1024 2.50322 51.2004 2.32022 52.1155C2.13721 54.8606 2.32023 57.6056 2.50323 60.1677C2.50323 60.5337 2.50325 60.7167 2.68625 61.0828C2.86926 61.8148 2.86924 62.5468 3.23525 63.2789C3.41825 63.6449 3.60131 63.8279 3.96732 64.0109C3.60131 64.0109 3.41827 64.1939 3.41827 64.5599C2.68624 66.2069 2.68626 67.305 2.86927 68.952C3.23528 70.7821 3.05228 72.4292 3.7843 74.0762C4.33332 75.5403 5.06532 76.8213 6.16336 77.9194C8.17643 80.2985 11.2875 81.5795 14.3987 81.7625C32.1503 82.8605 49.1699 82.8605 65.4574 81.9455H65.6404C67.6535 81.7625 69.4836 81.2135 71.1306 80.1154C72.7777 79.0174 74.0588 77.5534 74.9738 75.9063C76.0718 73.8932 76.6209 71.6971 77.1699 69.5011C77.5359 68.22 78.0849 66.573 77.9019 65.1089C77.9019 64.3769 78.0849 63.4618 78.0849 62.7298C78.0849 61.8148 77.7189 60.8998 77.3528 60.1677C77.3528 59.9847 77.1699 59.9847 77.1699 59.8017C77.1699 59.6187 77.3529 59.4357 77.5359 59.2527C78.0849 58.8867 78.2679 58.3377 78.4509 57.7887C78.4509 57.6057 78.4509 57.4226 78.4509 57.4226C78.4509 57.2396 78.4509 56.8736 78.4509 56.6906C78.6339 54.8606 78.6339 53.0305 78.6339 51.2004C78.6339 49.1874 78.8169 47.1743 78.8169 45.1612C78.8169 43.1481 78.8169 41.1351 78.9999 39.122C78.9999 37.1089 78.9999 35.0958 78.9999 33.2658C78.9999 32.3507 78.9999 31.2527 78.9999 30.3377C78.9999 29.7887 78.9999 29.4226 78.9999 28.8736C78.9999 28.3246 78.9999 27.9586 78.9999 27.4096C78.9999 27.2266 78.9999 27.0436 78.9999 27.0436C78.9999 26.8605 78.9999 26.6776 78.8169 26.4946C78.6339 26.1285 78.6339 25.7625 78.2679 25.3965C78.0849 25.0305 77.9019 24.6645 77.5359 24.4815L76.6208 23.7495C76.8038 23.5665 76.9869 23.2005 77.1699 23.0174C77.7189 22.2854 77.9019 21.5534 78.0849 20.8214C78.2679 20.4553 78.2679 19.9063 78.2679 19.5403V19.3573C78.2679 18.9913 78.2679 18.8083 78.2679 18.4423C78.0849 16.7952 78.0849 15.5142 77.9019 14.2331Z" fill="url(#paint0_linear_2229_3308)"/>
<path id="Vector_3" d="M78.6343 27.958C78.6343 29.9711 78.6343 32.1671 78.6343 34.1802C78.6343 35.0952 78.6343 36.1933 78.6343 37.1083C78.6343 37.6573 78.6343 38.2064 78.6343 38.7554C78.6343 41.6835 78.6343 44.4286 78.4513 47.3567C78.4513 48.8207 78.4513 50.1018 78.2683 51.5658C78.2683 52.4809 78.2683 53.2129 77.9023 53.9449C77.5363 54.86 77.5363 55.958 77.5363 56.8731C77.5363 57.2391 77.5363 57.4221 77.1703 57.6051C76.9873 57.7881 76.6212 57.7881 76.4382 57.7881C75.8892 57.7881 75.5232 57.971 74.9742 57.971C72.2291 58.3371 69.667 58.5201 66.9219 58.5201C64.9089 58.5201 62.8958 58.5201 60.8827 58.3371C62.3467 58.5201 63.9938 58.7031 65.4578 59.0691C65.8239 59.0691 66.3729 59.2521 66.7389 59.2521C69.85 59.8011 72.9611 60.1671 76.0723 60.7161C76.4383 60.7161 76.6213 60.8992 76.8043 61.0822C77.1703 61.4482 77.1703 61.8142 77.1703 62.1802C77.1703 62.7292 76.9873 63.4613 76.9873 64.0103C76.8043 65.2913 76.6212 66.3894 76.6212 67.6704C76.6212 67.8534 76.6212 68.2194 76.6212 68.4024C76.4382 69.1345 75.8892 69.8665 75.5232 70.5985C73.5101 73.5266 70.216 75.3567 66.5559 75.5397C50.6343 76.4547 33.7978 76.4547 16.4121 75.3567C13.8501 75.1736 11.471 74.2586 9.45793 72.6116C8.35989 71.6965 7.26184 70.4155 6.52982 68.9514C6.1638 68.4024 6.16381 67.6704 5.7978 66.9384C5.7978 66.7554 5.61478 66.7554 5.61478 66.5724C5.43178 66.2064 5.61475 65.6573 5.98076 65.4743C6.34678 65.1083 6.89583 65.1083 7.44485 65.1083C12.935 64.9253 18.6082 64.5593 24.0984 64.3763H24.2814C25.9285 64.3763 27.7586 64.3763 29.4056 64.3763C28.8566 64.1933 28.1246 64.1933 27.5756 64.1933C24.6474 63.8273 21.9023 63.8273 18.9742 63.6443C18.9742 63.6443 18.9742 63.6443 18.7912 63.6443C15.3141 63.4612 11.837 63.2783 8.35988 62.9122C7.62785 62.7292 7.07883 62.7293 6.52982 62.3632C6.1638 62.1802 5.79778 61.8142 5.43177 61.4482C5.43177 61.4482 5.43177 61.4482 5.43177 61.2652C5.06575 60.7162 4.88272 59.8011 5.06573 59.0691C5.24874 58.3371 5.06573 57.4221 5.06573 56.69C5.06573 55.226 4.88277 53.7619 4.88277 52.2979C4.88277 51.5659 4.88276 50.6508 4.69975 49.9188C4.69975 49.5528 4.69976 49.0038 4.88277 48.6378C5.06578 48.4548 5.43179 48.2717 5.7978 48.2717C6.89584 47.9057 7.99385 47.7227 9.09189 47.5397C9.64091 47.5397 10.0069 47.3567 10.5559 47.3567C9.27488 46.9907 7.99388 46.8077 6.71283 46.4417C6.34682 46.4417 5.9808 46.2586 5.61478 46.0756C5.61478 46.0756 5.43177 46.0757 5.43177 45.8927C4.88275 45.5267 4.69974 44.7946 4.51673 44.0626C4.51673 43.8796 4.51672 43.6965 4.33372 43.3305C4.33372 42.7815 4.1507 42.2325 4.1507 41.6835C4.1507 40.9515 3.96774 40.0364 3.96774 39.3044C3.96774 37.4744 3.78473 35.2783 4.88277 33.8142C5.24878 33.2652 5.98081 33.0822 6.71283 33.0822C9.27492 32.7162 11.837 32.5332 14.3991 32.3501C14.9481 32.3501 15.4971 32.1672 16.0461 32.1672C18.6082 31.9842 21.3533 31.8011 23.9154 31.6181C20.8043 31.8011 17.5102 31.8011 14.3991 31.4351C12.386 31.2521 10.373 31.0691 8.5429 30.8861C7.62786 30.7031 6.89581 30.7031 6.16378 30.3371C5.98077 30.3371 5.79779 30.1541 5.61478 29.9711C5.24877 29.6051 4.88276 29.239 4.69975 28.69C4.51674 28.141 4.69975 27.775 4.69975 27.226C4.69975 27.043 4.69975 26.86 4.69975 26.677C4.69975 25.579 4.69975 24.4809 4.69975 23.3828C4.69975 22.8338 4.69975 22.2848 4.69975 21.7358C4.69975 19.1737 4.88272 16.7946 5.06573 14.2325C5.43174 8.19332 10.3729 3.43515 16.4121 3.25214C33.0657 2.52012 49.7193 2.52012 66.5559 3.25214C72.0461 3.43515 76.6213 7.46131 77.7193 12.7685C78.0853 14.4156 78.0853 16.2456 77.9023 17.8927C77.9023 18.2587 77.7193 18.6247 77.5363 19.1737C77.5363 19.3567 77.3533 19.9057 77.1703 20.0888C76.9873 20.0888 76.8043 20.2718 76.6212 20.2718C75.7062 20.4548 74.6082 20.6378 73.6931 20.8208C71.6801 21.1868 69.667 21.3698 67.6539 21.5528C63.6278 21.9188 59.6017 21.9188 55.5755 22.1018H55.3925C56.4905 22.1018 57.5886 22.2848 58.6866 22.2848C61.6147 22.4678 64.7258 22.6508 67.6539 22.8339C69.667 23.0169 71.6801 23.0168 73.6931 23.1998C74.9742 23.1998 76.2553 23.3829 77.1703 23.9319C78.6343 24.8469 78.6343 26.494 78.6343 27.958Z" fill="url(#paint1_linear_2229_3308)"/>
<path id="Vector_4" d="M78.6339 27.9582C78.6339 29.9713 78.6339 32.1674 78.6339 34.1804C78.6339 35.0955 78.6339 36.1935 78.6339 37.1086C78.6339 37.6576 78.6339 38.2066 78.6339 38.7556C70.9476 39.3046 63.2613 39.8537 55.392 40.4027C46.4247 40.9517 37.4574 41.5007 28.3071 42.0498C23.5489 42.4158 18.6078 42.7817 13.8496 43.3308C10.5555 43.6968 7.44437 44.2458 4.33326 44.0628C4.33326 43.8798 4.33325 43.6968 4.15025 43.3308C4.15025 42.7817 3.96729 42.2327 3.96729 41.6837C7.07839 40.9517 10.3725 41.1347 13.6666 40.9517C18.2418 40.7687 22.6339 40.4027 27.2091 40.0367C36.1764 39.1216 45.1437 38.3896 54.294 37.2916C59.6012 36.7426 65.0914 36.1935 70.3986 35.4615C70.2156 35.4615 70.0326 35.4615 69.8496 35.4615C61.0653 34.9125 52.4639 33.2654 43.6796 32.5334C34.8953 31.8014 26.2941 31.0693 17.5097 30.5203C14.0326 30.3373 10.0065 30.3373 5.98031 30.1543C5.7973 30.1543 5.61432 29.9713 5.43131 29.7883C5.0653 29.4223 4.69929 29.0563 4.51628 28.5073C4.33328 27.9583 4.51628 27.5922 4.51628 27.0432C4.51628 26.8602 4.51628 26.6772 4.51628 26.4942C4.51628 25.3962 4.51628 24.2981 4.51628 23.2001C4.51628 22.651 4.51628 22.102 4.51628 21.553C8.90844 21.37 13.4836 21.553 17.5097 21.553C26.2941 21.553 34.8953 22.102 43.6796 22.6511C52.4639 23.2001 61.2483 23.0171 69.8496 23.3831C72.2287 23.5661 74.6077 23.5661 76.9868 23.5661C78.6339 24.8471 78.6339 26.4942 78.6339 27.9582ZM49.7189 48.455C34.8954 49.187 19.1568 48.455 4.6993 52.2981C4.6993 53.7622 4.88232 55.2262 4.88232 56.6903C4.88232 57.6053 5.06532 58.3373 4.88232 59.0693C4.69931 59.8014 4.88228 60.7164 5.2483 61.2654C9.64045 62.3635 14.2156 63.0955 18.6078 63.6445C18.6078 63.6445 18.6078 63.6445 18.7908 63.6445C21.7189 64.0105 24.464 64.0105 27.3921 64.1935C34.8953 64.5596 42.3986 64.3765 49.5359 64.3765C58.6862 64.3765 67.8365 64.1935 76.8038 64.0105C76.9868 63.4615 76.9868 62.7295 76.9868 62.1805C76.9868 61.8144 76.9868 61.2654 76.6208 61.0824C76.4378 60.8994 76.0718 60.8994 75.8888 60.7164C72.4117 60.1674 68.7515 59.6184 65.2744 59.0693C63.8104 58.8863 62.1633 58.7033 60.6993 58.3373C65.4574 58.8863 70.0326 58.5203 74.7907 57.9713C75.3397 57.9713 75.7058 57.7883 76.2548 57.7883C76.6208 57.7883 76.8038 57.7883 76.9868 57.6053C77.1698 57.4223 77.1698 57.0563 77.3528 56.8733C77.5358 55.9583 77.3528 54.8602 77.7188 53.9452C78.0849 53.2132 77.9019 52.2981 78.0849 51.5661C78.0849 50.102 78.2678 48.821 78.2678 47.3569C68.9345 47.7229 59.4182 47.906 49.7189 48.455Z" fill="url(#paint2_linear_2229_3308)"/>
<path id="Vector_5" d="M5.43163 61.4476C5.06562 60.8985 4.88264 59.8005 4.88264 59.0684C5.06564 58.3364 4.88264 57.4214 4.88264 56.6894C4.69963 54.4933 4.69961 52.1142 4.5166 49.9181C4.5166 49.5521 4.51661 49.0031 4.69962 48.6371C4.88263 48.4541 5.24864 48.2711 5.61465 48.2711C6.71269 47.9051 7.81071 47.7221 8.90874 47.5391C8.35973 48.0881 7.62769 48.4541 6.89566 48.8201C6.71266 49.0031 6.34665 49.0031 6.16365 49.3691C5.98064 49.5521 5.79767 49.9181 5.79767 50.2842C5.24865 53.2123 5.43166 56.1403 5.79767 59.0684C5.98068 60.3495 6.16365 61.4475 6.16365 62.7286C6.16365 62.1796 5.61464 61.8136 5.43163 61.4476Z" fill="#EB924D"/>
<path id="Vector_6" d="M4.33372 43.514C4.15071 42.2329 3.96774 40.7689 3.96774 39.4879C3.96774 37.6578 3.78473 35.4617 4.88277 33.9977C5.24878 33.4487 5.98081 33.2656 6.71283 33.2656C9.82394 32.8996 12.935 32.5336 16.0461 32.3506C13.118 33.2656 9.64089 33.2656 6.89579 34.5467C6.34678 34.7297 5.79779 35.0957 5.61478 35.4617C5.43178 35.8277 5.24875 36.1938 5.24875 36.5598C5.06574 37.6578 4.88272 38.9388 5.06573 40.0369C5.06573 40.7689 5.24875 41.5009 5.24875 42.233C5.43175 43.514 5.61479 44.7951 5.7978 45.8931C5.7978 45.8931 5.61478 45.8931 5.61478 45.7101C4.51674 45.3441 4.51672 44.429 4.33372 43.514Z" fill="#EB924D"/>
<path id="Vector_7" d="M65.0916 58.8867C65.2746 58.8867 65.2745 59.0697 65.4575 59.0697C65.2745 59.0697 65.2746 59.0697 65.0916 58.8867Z" fill="#EB924D"/>
<path id="Vector_8" d="M77.3528 62.1801C77.3528 64.0101 76.8038 65.8402 76.6208 67.6703C76.6208 67.8533 76.6208 68.2193 76.6208 68.4023C76.4377 69.1343 75.8887 69.8663 75.5227 70.5984C73.5096 73.5265 70.2155 75.3565 66.5554 75.5395C50.6338 76.4545 33.7973 76.4545 16.4116 75.3565C13.8496 75.1735 11.4705 74.2585 9.45743 72.6114C8.35939 71.6964 7.26134 70.4153 6.52931 68.9513C6.1633 68.4023 6.16331 67.6703 5.7973 66.9382C5.7973 66.7552 5.61428 66.7552 5.61428 66.5722C5.43127 66.2062 5.61425 65.6572 5.98026 65.4742C6.34627 65.1081 6.89533 65.1082 7.44434 65.1082C12.9345 64.9252 18.6077 64.5591 24.0979 64.3761C19.1568 64.7421 14.3986 65.2911 9.64039 66.2062C8.90836 66.3892 8.35939 66.3892 7.62736 66.5722C7.44436 66.5722 7.44433 66.5722 7.26133 66.7552C7.07832 66.9382 7.26133 67.1212 7.26133 67.3042C7.26133 67.8532 7.62733 68.4023 7.99334 68.7683C9.09138 70.2324 10.3724 71.6964 11.8365 72.6114C15.8626 74.6245 19.8887 74.4415 24.2809 74.2585C25.1959 74.2585 26.111 74.2585 27.026 74.0755C27.575 74.0755 27.9411 74.0755 28.4901 74.0755C29.5881 74.0755 30.5031 74.0755 31.6012 74.0755C33.6142 74.0755 35.8104 74.2585 37.8234 74.2585C41.6666 74.4415 45.6927 74.4415 49.5358 74.6245C53.196 74.8075 57.0391 74.8075 60.6992 74.4415C64.3594 74.0754 68.0195 73.5265 71.4966 72.0624C71.8626 71.8794 72.0456 71.8794 72.4116 71.6964C72.5946 71.5134 72.7776 71.3304 72.9606 71.3304C73.5096 70.9644 74.0587 70.5984 74.6077 70.2323C74.9737 69.8663 75.3397 69.5003 75.5227 69.1343C75.7057 68.9513 75.7057 68.5853 75.7057 68.4023C75.8887 67.6702 76.0718 66.9382 76.0718 66.2062C76.0718 65.4741 76.0718 64.5591 76.0718 63.8271C76.0718 63.4611 76.0717 62.9121 75.8887 62.546C75.7057 62.363 75.5228 62.1801 75.3397 62.1801C74.7907 61.9971 74.2417 61.814 73.6926 61.814C70.7645 61.265 68.0194 60.35 65.4574 59.252C68.9345 59.801 72.5946 60.35 76.0718 60.899C76.4378 60.899 76.6208 61.082 76.8038 61.265C77.3528 61.265 77.3528 61.8141 77.3528 62.1801Z" fill="#EB924D"/>
<path id="Vector_9" d="M4.69962 28.873C4.51661 28.324 4.5166 27.592 4.5166 27.043C4.5166 24.1149 4.69963 21.1868 4.88264 18.2587C5.06564 15.5136 5.06561 12.7685 6.16365 10.2064C7.99371 6.18028 12.0199 3.43515 16.412 3.25214C33.0656 2.52012 49.7192 2.52012 66.5558 3.25214C72.046 3.43515 76.6211 7.46131 77.7192 12.7685C78.0852 14.4156 78.0852 16.2456 77.9022 17.8927C77.9022 18.2587 77.7192 18.6247 77.5361 19.1737C77.5361 19.3567 77.3532 19.9058 77.1702 20.0888C76.8042 17.3437 77.5361 14.4156 76.4381 12.0365C75.8891 10.5724 74.974 8.92535 73.693 8.01032C69.4839 4.71621 63.0787 4.89919 57.9545 4.89919C43.68 4.71618 29.5885 4.1672 15.497 5.44824C14.765 5.44824 14.2159 5.26524 13.4839 5.44824C12.0199 5.63125 10.7388 6.72925 9.64076 7.64429C8.17671 8.92533 7.0787 10.5724 6.52968 12.4025C6.34668 12.9515 6.16364 13.5005 5.98063 14.0495C4.51658 19.3567 5.24865 25.3959 5.79767 30.7031C5.43166 30.1541 4.88263 29.6051 4.69962 28.873Z" fill="#EB924D"/>
<path id="Vector_10" d="M78.6339 27.9577C78.6339 29.9708 78.6339 32.1669 78.6339 34.1799C78.6339 35.095 78.6339 36.193 78.6339 37.1081C78.6339 41.8662 78.4509 46.6244 78.2679 51.3826C78.2679 52.2976 78.2679 53.0296 77.9019 53.7616C77.5359 54.6767 77.5359 55.7747 77.5359 56.6898C77.5359 57.0558 77.5359 57.2388 77.1699 57.4218C76.9869 57.6048 76.6209 57.6048 76.4378 57.6048C75.8888 57.6048 75.5228 57.7878 74.9738 57.7878C75.1568 57.6048 75.5228 57.4218 75.7058 57.0557C75.8888 56.5067 76.0719 56.1407 76.0719 55.5917C76.8039 47.1734 76.8039 38.7551 76.6209 30.1538C76.6209 29.0558 76.6209 27.9577 76.4378 26.8597C76.4378 26.6767 76.4378 26.3107 76.4378 26.1277C76.4378 25.7617 76.2549 25.5787 76.0719 25.2126C75.5228 24.6636 74.7908 24.2976 74.2418 24.1146C69.1176 22.4675 63.2614 23.5656 58.1372 22.1016H58.6863C63.6274 22.4676 68.7516 22.6506 73.6928 23.0166C74.9738 23.0166 76.2549 23.1996 77.1699 23.7486C78.634 24.8466 78.6339 26.4937 78.6339 27.9577Z" fill="#EB924D"/>
<path id="Vector_11" d="M65.6406 59.0697C66.0066 59.0697 66.5557 59.2527 66.9217 59.2527C66.7387 60.1678 66.3727 60.8998 65.8237 61.4488C63.8106 64.1939 59.7844 64.5599 56.6733 64.7429C51.3661 65.109 46.242 65.2919 40.9348 65.2919C35.2616 65.2919 29.7714 64.7429 24.0982 64.3769C25.7453 64.3769 27.5753 64.3769 29.2224 64.3769C28.6733 64.1939 27.9413 64.1939 27.3923 64.1939C24.4642 63.8279 21.7191 63.8279 18.791 63.6449C18.791 63.6449 18.791 63.6449 18.608 63.6449C18.425 63.6449 18.059 63.4619 17.8759 63.4619C17.3269 63.2789 16.9609 63.0959 16.4119 62.9129C15.4969 62.1809 15.1309 60.8998 14.7649 59.8017C14.0328 57.2397 14.2158 54.4946 14.3988 51.9325C14.5818 49.0044 14.5819 46.2593 14.5819 43.3312C14.5819 39.671 14.3988 36.0109 14.2158 32.5338C14.7648 32.5338 15.3139 32.3508 15.8629 32.3508C17.144 32.1678 18.608 32.1678 19.889 31.9848C19.889 36.743 20.2551 41.5011 20.4381 46.2593C20.4381 46.8083 20.4381 47.3574 20.4381 47.7234C20.4381 48.0894 20.438 48.2724 20.621 48.4554C20.9871 48.8214 21.7191 49.1874 22.2681 49.1874C22.8172 49.3704 23.3662 49.1874 24.0982 49.1874C25.3793 49.1874 26.6603 49.1874 27.7583 49.1874C26.4773 49.3704 25.3793 49.5534 24.0982 49.5534C23.5492 49.5534 23.0001 49.5534 22.4511 49.7364C21.9021 49.9194 21.5361 49.9194 20.9871 50.1024C20.8041 50.1024 20.621 50.1024 20.621 50.2854C20.621 50.4684 20.4381 50.4684 20.4381 50.6514C20.2551 51.2004 20.438 51.7495 20.621 52.2985C20.8041 52.6645 20.8041 53.0305 20.8041 53.3965C20.8041 54.3116 20.8041 55.4096 20.9871 56.3246C20.9871 56.6906 20.9871 57.0567 21.3531 57.4227C21.9021 58.1547 22.6341 58.5207 23.3661 58.7038C29.2223 60.3508 35.2616 60.3508 41.3008 60.3508C44.7779 60.3508 48.438 60.3508 51.9151 60.3508C54.2942 60.3508 58.6864 60.7168 60.8825 59.2527C61.2485 59.0697 61.4315 58.7037 61.6145 58.5207C62.8956 58.7037 64.3596 58.8867 65.6406 59.0697ZM20.072 28.8737C20.072 27.7756 20.2551 26.8606 20.2551 25.9456C20.2551 25.7626 20.2551 25.5796 20.2551 25.3966C20.2551 25.0305 20.2551 24.8475 20.2551 24.4815C20.4381 23.7495 20.8041 23.0175 21.3531 22.6515C21.7191 22.4685 22.2681 22.4684 22.8171 22.4684C25.3792 22.4684 27.7583 22.4684 30.3204 22.4684C28.3073 22.2854 26.2943 22.1025 24.4642 21.9195C23.3662 21.7364 22.2681 21.7364 21.1701 21.9195L21.3531 21.5534C21.3531 21.3704 21.5361 21.3704 21.5361 21.1874C21.7191 21.0044 21.9021 20.8214 22.0851 20.6384C22.4511 20.2724 22.8172 19.9064 23.1832 19.7234C24.0982 18.9913 25.0132 18.6253 26.1112 18.2593C27.0263 17.8933 28.1243 17.7103 29.0394 17.3443C29.7714 17.1613 30.3204 17.1613 31.0524 17.1613C38.9217 16.9783 46.608 16.9783 54.4772 16.9783C55.7583 16.9783 57.0393 17.3443 58.3204 17.7103C59.2354 17.8933 60.1504 18.4423 60.8825 19.1744C61.4315 19.9064 61.7975 21.0044 61.9805 22.1025C63.8106 22.1025 65.6406 21.9194 67.4707 21.7364C67.2877 19.5404 66.9217 17.3443 65.4576 15.6972C63.8106 13.8672 60.8825 13.5011 58.5034 13.3181C55.9413 13.1351 53.1962 13.1352 50.6341 12.9521C48.6211 12.9521 46.608 12.9521 44.4119 12.9521C40.2027 12.9521 35.9936 13.1351 31.9675 13.3181C27.3923 13.5011 21.7191 12.0371 17.8759 15.1482C16.0459 16.6122 15.1309 18.6253 14.5819 21.0044C14.2158 22.8345 14.2158 24.8476 14.2158 26.6776C14.2158 28.3247 14.2158 29.9717 14.2158 31.6188C16.0459 31.8018 17.876 31.8018 19.889 31.8018C20.072 30.8868 20.072 29.9717 20.072 28.8737ZM68.2027 35.2789C68.2027 31.6188 68.0197 28.1417 67.6537 24.4815C67.6537 23.9325 67.6537 23.3835 67.4707 22.8345C65.6406 22.6515 63.8106 22.6515 61.9805 22.4684C62.1635 24.4815 61.9805 26.6776 62.1635 28.1417C62.3465 30.3377 62.5295 32.7168 62.7125 34.9129C62.7125 36.011 62.8955 37.109 62.8955 38.207C62.8955 38.573 63.0785 38.756 62.7125 39.122C62.3465 39.6711 61.6145 39.6711 61.0655 39.8541C57.9544 40.0371 55.0263 40.2201 51.9151 40.7691C55.7583 40.9521 59.4184 40.7691 63.2616 40.5861C63.2616 40.9521 63.0786 41.3181 63.0786 41.6841C63.0786 42.0501 62.8955 42.2331 62.8955 42.5992C62.8955 42.7822 62.8955 42.9652 63.0786 43.1482C63.0786 43.5142 63.0786 43.8802 63.0786 44.0632C63.0786 45.5273 63.0786 46.8083 63.0786 48.2724C63.0786 49.3704 63.0785 50.6514 62.8955 51.7495C62.8955 51.9325 62.8955 51.9325 62.8955 52.1155C62.8955 53.9456 62.7126 56.8737 61.4315 58.5207C63.2616 58.7037 65.0916 58.7038 66.9217 58.7038C67.2877 57.2397 67.2877 55.5926 67.4707 54.1286C68.0197 49.1874 68.0197 44.2462 68.0197 39.3051C68.2028 38.024 68.3857 36.7429 68.2027 35.2789Z" fill="url(#paint3_linear_2229_3308)"/>
<path id="Vector_12" d="M48.8039 65.1086C51.183 65.1086 53.5621 65.1085 55.9412 64.7425C56.4902 64.7425 57.0392 64.7425 57.4052 64.5595C58.5032 64.5595 59.6013 64.3765 60.6994 64.1935C61.4314 64.0105 62.1634 64.0105 62.7124 63.8275C64.7254 63.0955 66.3725 61.2654 66.7385 59.2523C65.6405 59.2523 64.3595 59.2523 63.2614 59.0693C64.1765 58.8863 65.6405 59.4353 66.0065 60.1674C64.7255 61.2654 63.4444 62.1804 61.9804 62.5464C61.2483 62.7294 60.3333 62.9125 59.4183 62.9125C53.5621 63.2785 47.8889 63.8275 42.0327 63.6445C39.2876 63.6445 36.5425 63.4615 33.7974 63.4615C33.0654 63.4615 32.1504 63.4615 31.4183 63.6445C31.0523 63.6445 30.5033 63.6445 30.1373 63.6445C29.7712 63.6445 29.5882 63.6445 29.2222 63.6445C28.4902 63.6445 27.7582 63.6445 27.2091 63.6445C25.7451 63.6445 24.4641 63.4615 23.183 63.2785C21.719 63.0955 20.2549 62.9124 18.7908 62.7294C18.0588 62.5464 17.3268 62.3634 16.7778 61.9974C16.4118 61.6314 16.2287 61.2654 16.0457 60.7164C15.4967 59.2523 14.9477 57.7883 14.7647 56.3242C14.2157 58.1543 14.7647 60.1673 16.0457 61.6314C17.1438 63.0954 18.9739 63.8275 20.8039 64.1935C22.085 64.3765 23.5491 64.5595 25.0131 64.3765C25.3791 64.3765 25.5621 64.3765 25.9281 64.3765C26.6602 64.3765 27.3921 64.3765 27.9412 64.5595C29.4052 64.5595 30.6863 64.7425 32.1503 64.7425C33.6144 64.7425 34.8954 64.7425 36.3595 64.7425C37.0915 64.7425 37.6405 64.7425 38.3725 64.7425C38.9216 64.5595 39.6536 64.7425 40.3856 64.7425C43.1307 64.9255 45.8758 64.9255 48.8039 64.9255C48.4379 65.1085 48.6209 65.1086 48.8039 65.1086Z" fill="#EB924D"/>
<path id="Vector_13" d="M69.6668 23.383C69.6668 23.383 67.4707 23.383 67.2877 23.383C66.3727 23.383 65.6407 23.383 64.7256 23.2C64.3596 23.2 63.8106 23.2 63.4446 23.2C63.2616 23.2 63.0786 23.2 62.8956 23.2C62.7126 23.2 62.7126 23.2 62.5296 23.2C62.5296 23.2 62.5296 23.2 62.3466 23.2H62.1636C61.7976 23.2 61.4315 23.017 61.2485 23.017V22.834C61.2485 22.834 61.6145 22.834 61.7975 22.834C61.9805 22.834 61.9806 22.834 62.1636 22.834C62.3466 22.834 62.3466 22.834 62.5296 22.834C62.7126 22.834 62.8956 22.834 63.0786 22.834C63.8106 22.834 64.5427 22.834 65.0917 22.834C65.8237 22.834 66.5557 22.834 67.1048 23.017C67.8368 23.017 68.5688 23.2 69.1178 23.2C69.3008 23.2 69.6669 23.2 69.8499 23.383C69.8499 23.2 69.6668 23.2 69.6668 23.383Z" fill="#EB924D"/>
<path id="Vector_14" d="M20.8039 31.9844C18.6078 32.1674 16.4118 32.5334 14.2157 32.8994C14.0327 32.7164 14.0327 32.5334 14.0327 32.3504C16.4118 31.9843 18.6078 31.9844 20.8039 31.9844Z" fill="#EB924D"/>
</g>
<g id="Group_3">
<path id="Vector_15" d="M64.9089 36.9253C64.9089 42.0495 64.9088 46.9907 64.5428 52.1148C64.5428 53.2129 64.3599 54.3109 64.3599 55.4089C64.1769 58.8861 61.4318 61.4481 57.9546 61.6311C47.1573 62.3632 35.9939 62.3632 24.8305 61.6311C21.3533 61.4481 18.6083 58.703 18.4252 55.2259V55.043C18.0592 46.4417 17.8762 37.6573 18.2422 28.69C18.2422 28.324 18.2422 27.775 18.2422 27.409C18.2422 25.7619 18.4252 23.9318 18.4252 22.2848C18.4252 21.9187 18.4253 21.5528 18.6083 21.1868V21.0038C19.3403 18.0756 21.9024 15.8795 25.0135 15.8795C35.8109 15.3305 46.7912 15.3305 57.7716 15.8795C61.2487 16.0625 63.9939 18.8076 64.3599 22.2848C64.5429 25.5789 64.7259 28.69 64.9089 31.9841C64.9089 33.6312 64.9089 35.2782 64.9089 36.9253Z" fill="url(#paint4_linear_2229_3308)"/>
<path id="Vector_16" d="M64.9089 36.9255C64.3599 37.8405 63.9939 38.7555 63.4449 39.8536C62.3469 42.7817 62.3468 45.8928 61.7978 49.0039C61.2488 52.115 60.1508 55.2261 57.7717 57.0562C55.5756 58.7032 52.6475 58.8862 49.9024 58.8862C42.2161 59.0692 34.5299 57.7882 27.2096 55.4091C24.8305 54.6771 23.0004 53.03 21.5364 51.2C21.3534 50.1019 21.3534 48.8209 21.1704 47.7229C20.8044 45.1608 20.6214 42.5987 20.2554 40.0366C20.0724 38.7555 19.8893 37.4745 19.8893 36.1934C19.8893 35.4614 19.7063 34.9124 19.7063 34.3634C19.7063 34.1804 19.7063 33.9974 19.7063 33.8144C19.7063 33.2654 19.5234 32.8993 19.3404 32.3503C19.1573 31.9843 19.1573 31.4353 18.9743 31.0693C18.7913 30.5203 18.4253 29.9713 18.2423 29.4222C18.2423 29.2392 18.2423 29.2392 18.2423 29.0562C17.6933 27.4091 17.6933 25.5791 18.0593 23.932C18.2423 23.2 18.4253 22.2849 18.6083 21.5529V21.3699C19.3404 18.4418 21.9025 16.2457 25.0136 16.2457C35.8109 15.6967 46.7913 15.6967 57.7717 16.2457C61.2488 16.4288 63.9939 19.1739 64.3599 22.651C64.5429 25.9451 64.7259 29.0562 64.9089 32.3503C64.9089 33.6313 64.9089 35.2784 64.9089 36.9255Z" fill="#FFDF80"/>
<path id="Vector_17" d="M62.1635 39.4883C62.1635 43.3315 61.9805 46.9916 61.7975 50.8347C61.7975 51.9327 61.6145 52.8478 61.6145 53.9458C61.4315 57.0569 59.0524 59.436 55.9413 59.6191C52.4642 59.8021 48.987 59.985 45.5099 59.985C39.8367 60.168 33.9805 59.9851 28.1243 59.6191C27.7583 59.6191 27.3923 59.6191 27.0262 59.6191C23.9151 59.436 21.5361 56.8739 21.3531 53.7628V53.5798C20.9871 47.1746 20.9871 40.7693 20.9871 34.1811V33.9982C20.9871 32.1681 20.9871 30.521 21.1701 28.6909C21.1701 27.2269 21.3531 25.5798 21.3531 24.1158C21.5361 20.8216 24.0982 18.4426 27.2093 18.2596C30.5034 18.0766 33.7975 18.0766 36.9086 17.8936C43.1309 17.8936 49.5361 17.8936 55.9413 18.2596C56.6733 18.2596 57.4053 18.4426 58.1373 18.8086C60.1504 19.7236 61.4315 21.7367 61.6145 23.9328C61.7975 26.8609 61.9805 29.789 62.1635 32.5341C62.1635 34.9132 62.1635 37.1093 62.1635 39.4883Z" fill="url(#paint5_linear_2229_3308)"/>
<path id="Vector_18" d="M62.1639 39.4876C61.6149 41.6837 59.2358 42.7817 56.4907 43.5137C46.4253 45.7098 36.543 45.7098 26.8437 43.5137C23.7326 42.7817 21.3535 41.3177 20.9875 38.7556V38.5726C20.9875 37.1086 20.8044 35.6445 20.8044 34.1804V33.9974C20.8044 32.1674 20.8045 30.5203 20.9875 28.6902C20.9875 27.2262 21.1705 25.5791 21.1705 24.1151C21.3535 20.8209 23.9155 18.4419 27.0266 18.2589C36.543 17.8929 46.0593 17.8929 55.7587 18.2589C58.8698 18.4419 61.2489 20.821 61.6149 23.9321C61.7979 26.8602 61.9809 29.7883 62.1639 32.5334C62.1639 34.9124 62.1639 37.1086 62.1639 39.4876Z" fill="url(#paint6_linear_2229_3308)"/>
<path id="Vector_19" opacity="0.1" d="M57.9546 18.8086C56.8566 18.8086 55.9415 18.9916 55.0265 19.5406C53.1964 20.4556 52.4644 23.0178 51.7323 24.8478C50.4513 27.5929 49.3533 30.338 48.4382 33.0831C46.6082 38.0243 44.7781 43.1484 43.1311 48.0896C42.9481 48.8216 42.5821 49.7367 42.399 50.4687C41.667 52.6648 40.9349 55.0439 41.667 57.2399C41.85 57.6059 42.033 57.972 42.216 58.338C42.399 58.887 42.7651 59.07 43.3141 59.436C44.0461 59.802 44.7781 59.985 45.5101 60.168C39.8369 60.3511 33.9807 60.168 28.1245 59.802C29.2226 59.619 30.3206 59.07 31.2356 57.972C32.5167 56.5079 33.2487 54.4948 33.7977 52.6648C36.1768 44.9785 38.5559 37.2922 40.935 29.606C41.484 27.9589 42.033 26.1288 42.033 24.2988C42.033 22.4687 41.484 20.6387 40.2029 19.3576C39.2879 18.4426 38.1899 18.0766 36.9089 17.8936C43.1311 17.8936 49.5363 17.8936 55.9415 18.2596C56.4905 18.2596 57.4056 18.4426 57.9546 18.8086Z" fill="url(#paint7_linear_2229_3308)"/>
</g>
</g>
<defs>
<linearGradient id="paint0_linear_2229_3308" x1="75.9231" y1="-36.2658" x2="54.1188" y2="12.2069" gradientUnits="userSpaceOnUse">
<stop stop-color="#CF5C2B"/>
<stop offset="1" stop-color="#59173E"/>
</linearGradient>
<linearGradient id="paint1_linear_2229_3308" x1="66.7277" y1="-19.0238" x2="-10.4323" y2="159.115" gradientUnits="userSpaceOnUse">
<stop stop-color="#CF5C2B"/>
<stop offset="1" stop-color="#59173E"/>
</linearGradient>
<linearGradient id="paint2_linear_2229_3308" x1="58.249" y1="2.98298" x2="-18.9108" y2="181.122" gradientUnits="userSpaceOnUse">
<stop stop-color="#CF5C2B"/>
<stop offset="1" stop-color="#59173E"/>
</linearGradient>
<linearGradient id="paint3_linear_2229_3308" x1="43.5909" y1="114.308" x2="41.2426" y2="39.8312" gradientUnits="userSpaceOnUse">
<stop stop-color="#CF5C2B"/>
<stop offset="1" stop-color="#59173E"/>
</linearGradient>
<linearGradient id="paint4_linear_2229_3308" x1="41.4948" y1="13.5693" x2="41.4948" y2="43.4926" gradientUnits="userSpaceOnUse">
<stop stop-color="#FFCA2B"/>
<stop offset="1" stop-color="#D15B24"/>
</linearGradient>
<linearGradient id="paint5_linear_2229_3308" x1="41.4997" y1="64.8168" x2="41.4997" y2="38.3385" gradientUnits="userSpaceOnUse">
<stop stop-color="#FFCE3B"/>
<stop offset="1" stop-color="#CC6923"/>
</linearGradient>
<linearGradient id="paint6_linear_2229_3308" x1="41.6564" y1="53.9416" x2="41.3301" y2="13.1526" gradientUnits="userSpaceOnUse">
<stop stop-color="#FFCE3B"/>
<stop offset="1" stop-color="#CC6923"/>
</linearGradient>
<linearGradient id="paint7_linear_2229_3308" x1="51.8325" y1="3.42342" x2="35.2451" y2="58.5589" gradientUnits="userSpaceOnUse">
<stop stop-color="#F2DE6D"/>
<stop offset="1"/>
</linearGradient>
</defs>
</svg>
