<svg width="57" height="68" viewBox="0 0 57 68" fill="none" xmlns="http://www.w3.org/2000/svg">
<g id="Group">
<path id="Vector" d="M56.2058 46.6905C56.0587 48.0141 56.0587 49.4847 55.4705 50.6612C54.1469 54.3377 51.2058 58.3083 48.2646 60.6612C45.0293 63.3083 40.9116 64.4847 37.088 66.2495C35.4704 66.9848 33.8527 67.573 32.088 67.573C30.1762 67.573 28.2644 66.8377 26.6468 65.8083C21.4997 62.4259 17.9703 57.573 13.5585 53.4553C12.8232 52.8671 11.4996 51.5435 11.7937 50.367C11.9408 49.7788 12.6761 49.4846 13.4114 49.3376C12.9702 49.1905 12.529 49.1906 12.2349 49.0435C11.2055 48.7494 10.3232 48.6023 9.29374 48.1611C7.82314 47.4258 6.79371 46.2493 5.76429 44.9258C3.70545 42.4258 1.35251 39.9258 0.47015 36.6905C-0.853387 32.1316 2.8231 28.3081 5.47017 24.9257C6.49959 23.4551 7.82312 22.2786 8.9996 20.808C9.14666 20.6609 9.14668 20.5139 9.29374 20.3668C9.44079 20.2198 9.58784 19.9257 9.7349 19.7786C10.1761 19.3374 10.6173 19.0433 11.0584 18.7492C11.4996 18.4551 11.9408 18.1609 12.529 17.8668C12.8232 17.7198 12.9702 17.5727 13.2643 17.4257C13.4114 17.4257 13.9996 17.1315 13.9996 17.1315V16.9844C14.2938 15.955 14.882 15.0727 15.6173 14.4845C19.4408 11.3962 23.4115 8.45501 27.3821 5.66087C31.3527 2.86674 34.588 -0.221528 39.8821 0.366711C43.5586 0.80789 46.941 2.57262 50.1763 4.19027C50.7646 4.48439 51.2057 4.77852 51.6469 5.07264C52.6763 5.80794 53.8528 6.54323 54.4411 7.86677C55.0293 9.04325 55.1764 10.5138 55.1764 11.8374C55.3234 14.4844 55.6175 17.1315 55.7646 19.7786C55.7646 20.2198 55.7646 20.808 55.7646 21.2492C55.7646 21.5433 55.7646 21.6904 55.9117 21.9845C55.9117 22.4257 55.9117 23.161 55.6176 23.4551C55.4705 23.6022 55.3234 23.7492 55.3234 24.0433C55.3234 24.1904 55.0293 24.7786 54.8823 24.7786C55.3234 24.7786 55.7646 25.0728 55.9117 25.5139C56.0587 25.9551 56.2058 26.3963 56.2058 26.8375C56.3528 28.0139 56.3529 29.1904 56.3529 30.3669C56.3529 30.9551 56.2058 31.5434 56.2058 32.1316C56.2058 32.4257 56.0587 32.7199 56.0587 33.014C55.9117 33.3081 55.9117 33.6022 55.7646 34.0434C55.6175 34.3375 55.4705 34.6316 55.3234 34.9258C55.3234 35.0728 55.0293 35.514 54.8823 35.514C55.1764 35.3669 55.4705 35.6611 55.6176 35.9552C56.3529 36.8375 56.647 37.867 56.4999 38.8964C56.4999 39.0434 56.4999 39.1905 56.4999 39.4846C56.4999 39.7787 56.4999 40.0729 56.4999 40.367C56.4999 40.9552 56.4999 41.6905 56.4999 42.2787C56.3528 43.7493 56.3528 45.2199 56.2058 46.6905Z" fill="url(#paint0_linear_2228_940)"/>
<path id="Vector_2" d="M56.5001 41.2495C56.5001 42.1319 56.3531 43.0142 56.3531 43.7495C56.3531 44.7789 56.206 45.6613 56.206 46.5437C56.059 47.8672 56.059 49.3378 55.4707 50.5143C55.1766 51.2496 54.7354 51.9849 54.2943 52.7202C51.3531 56.5437 45.4707 58.1614 41.353 60.0732C39.7353 60.8085 38.1177 61.3967 36.353 61.3967C34.4412 61.3967 32.5294 60.6614 30.9118 59.632C30.1765 59.0437 29.2941 58.4555 28.5588 57.8673C26.3529 55.5143 23.5588 53.4555 21.3529 51.1025C20.4705 50.0731 19.5882 49.0437 18.8529 48.0143C18.1176 46.9848 19.147 46.6907 20.3235 46.5437C20.6176 46.5437 20.9117 46.5437 21.2058 46.5437H21.3529C21.7941 46.5437 22.2352 46.5437 22.3823 46.5437C23.1176 46.5437 23.8529 46.6907 24.5882 46.6907C26.5 46.8378 28.2647 46.9848 30.1765 46.6907C29.5882 46.5437 28.8529 46.5436 28.2647 46.3966C25.0294 45.9554 21.9411 45.5142 18.7058 45.2201C18.4117 45.2201 18.1175 45.2201 17.8234 45.0731C14.4411 44.7789 11.941 41.1025 9.88221 38.7495C9.29397 38.0142 8.55867 37.2789 7.97043 36.3965C6.49983 34.6318 5.32336 32.72 4.73512 30.5142C4.441 29.4847 4.29393 28.4553 4.58805 27.4259C4.73511 26.9847 4.73513 26.6906 4.88219 26.2494C5.47043 24.9259 6.35277 23.7494 7.23513 22.72C8.70573 20.6612 10.6175 18.1612 12.9705 16.8376C13.2646 16.6906 13.5587 16.5435 13.7058 16.3964C14.4411 16.1023 15.3234 15.9552 16.2058 15.8082C17.0881 15.6611 17.8234 15.6611 18.7058 15.514C18.9999 15.514 19.147 15.514 19.4411 15.514C21.3529 15.367 23.2647 15.2199 25.0294 15.0729C25.9117 14.9258 26.647 14.7788 27.3823 14.6317C25.1764 14.3376 22.9705 14.3376 20.6176 14.3376C19.7352 14.3376 18.9999 14.4846 18.1176 14.4846C17.8234 14.4846 17.5293 14.4846 17.2352 14.4846C16.9411 14.4846 16.794 14.3376 16.4999 14.3376C16.0587 14.0435 16.3528 13.7493 16.647 13.6023C18.4117 12.2787 20.0293 10.8082 21.7941 9.33756C23.5588 7.86696 25.4706 6.69046 27.2353 5.36693C31.2059 2.57279 34.4412 -0.515473 39.7353 0.0727659C43.4118 0.513945 46.7942 2.27867 50.0295 3.89633C50.6178 4.19045 51.0589 4.48458 51.5001 4.7787C52.5295 5.51399 53.706 6.24928 54.2943 7.57282C54.8825 8.7493 55.0296 10.2199 55.0296 11.5435C55.1766 12.7199 55.1766 14.0435 55.1766 15.2199C55.1766 17.2788 55.1766 19.4847 55.3237 21.5435C55.3237 21.6906 55.3237 21.9847 55.3237 22.1317C55.3237 22.2788 55.3237 22.4259 55.3237 22.5729C55.3237 22.72 55.1766 22.867 55.0296 22.867C55.0296 22.867 54.8825 22.867 54.8825 23.0141C54.4413 23.4553 53.8531 23.7494 53.2648 23.8965C53.1178 23.8965 52.9707 24.0435 52.8237 24.0435C53.4119 24.0435 54.7354 23.7494 55.1766 24.4847C55.4707 24.9259 55.6178 25.3671 55.6178 25.9553C55.6178 27.1318 55.4707 28.4553 55.6178 29.6318V29.7789C55.7649 30.6612 55.6178 31.6906 54.8825 32.4259C54.7354 32.573 54.5884 32.7201 54.2943 32.8671C54.1472 33.0142 53.8531 33.0141 53.706 33.1612C53.1178 33.4553 52.6766 33.7494 52.0884 33.8965C51.206 34.3377 50.1766 34.4848 49.1472 34.7789C49.7354 34.7789 50.1766 34.7789 50.7648 34.7789C51.6472 34.7789 52.5295 34.6318 53.4119 34.6318C54.2943 34.6318 55.1766 34.6318 55.6178 35.3671C55.7649 35.6612 55.9119 35.9554 55.9119 36.3965C56.6472 38.0142 56.6472 39.6318 56.5001 41.2495Z" fill="url(#paint1_linear_2228_940)"/>
<path id="Vector_3" d="M56.0586 30.0728C54.588 30.367 53.1174 30.6611 51.4998 31.1022C46.3527 32.4258 41.2056 33.6022 36.2055 34.7787C27.8231 36.6905 18.8525 38.7494 10.0289 38.8964C9.44069 38.1611 8.70539 37.4258 8.11715 36.5435C17.3819 33.4552 27.2349 31.9846 36.4997 29.1905C41.2056 27.8669 45.7644 26.1022 50.1762 24.3375C44.588 24.6316 39.1468 25.514 33.5585 25.8081C27.2349 26.1022 20.9113 26.8375 14.5878 26.9846C11.0583 27.1316 7.82303 27.2787 4.88184 26.5434C5.47008 25.2198 6.35242 24.0434 7.23478 23.0139C8.70538 20.9551 10.6172 18.4551 12.9701 17.1316C14.1466 16.9845 15.3231 16.8375 16.4995 16.6904C22.529 15.9551 28.5585 15.661 34.5879 15.3669C40.9115 15.0727 47.235 15.661 53.5586 15.808C54.2939 15.808 54.8822 15.808 55.6175 15.808C55.6175 17.8669 55.6174 20.0727 55.7645 22.1316C55.7645 22.2786 55.7645 22.5728 55.7645 22.7199C55.7645 22.8669 55.7645 23.014 55.7645 23.161C55.7645 23.3081 55.6174 23.4551 55.4704 23.6022C54.8821 24.0434 54.1468 24.4846 53.5586 24.6316C54.1468 24.6316 55.4704 24.3375 55.9116 25.0728C56.2057 25.514 56.3528 25.9551 56.3528 26.5434C56.0586 27.5728 55.9116 28.7493 56.0586 30.0728ZM46.4997 40.8082C40.1762 40.6611 33.8526 41.1023 27.529 42.2788C27.382 42.2788 27.382 42.7199 27.529 42.7199C33.7055 42.1317 40.0291 42.1317 46.0586 43.1611C47.8233 43.4553 49.4409 43.7494 51.2057 44.1905C46.9409 45.0729 42.6762 45.6612 38.4114 45.9553C35.0291 46.2494 31.7938 46.3964 28.4114 46.3964C26.0584 46.3964 23.8525 46.5435 21.4996 46.5435H21.3525C21.0584 46.5435 20.7643 46.5435 20.4702 46.5435C19.2937 46.6906 18.4113 46.9847 18.9996 48.0141C19.7349 49.0435 20.6172 50.073 21.4996 51.1024C27.0878 51.9847 32.6761 52.2788 38.4114 52.573C43.1174 52.72 47.8233 52.72 52.5292 52.8671C53.1174 52.8671 53.7057 52.8671 54.2939 52.8671C54.8821 52.2789 55.1763 51.5436 55.4704 50.6612C55.9116 49.3377 56.0586 48.0141 56.2057 46.6906C56.2057 45.8082 56.3528 44.7788 56.3528 43.8965C56.3528 43.0141 56.4998 42.2788 56.4998 41.3964C53.1174 40.9552 49.735 40.9552 46.4997 40.8082Z" fill="url(#paint2_linear_2228_940)"/>
<path id="Vector_4" d="M15.9115 43.4552C16.7938 44.1905 17.8233 44.7787 18.8527 45.367C17.235 45.367 15.7644 44.7787 14.5879 43.7493C13.1173 42.5728 11.0585 40.514 10.1761 38.8964C9.5879 38.1611 8.8526 37.4258 8.26436 36.5434C6.79376 34.7787 5.61729 32.8669 5.02905 30.661C4.73493 29.6316 4.58788 28.6022 4.882 27.5727C5.02906 27.1316 5.02906 26.8375 5.17612 26.3963C5.76436 25.0727 6.6467 23.8962 7.52906 22.8668C8.99966 20.808 10.9114 18.308 13.2644 16.9844C13.5585 16.8374 13.8526 16.6903 13.9997 16.5433C14.735 16.2491 15.6174 16.1021 16.4997 15.955C19.4409 15.6609 22.3821 15.6609 25.3233 15.2197C22.9703 15.808 20.6174 16.3962 18.2644 16.6903C16.7938 16.8374 15.1762 16.9845 13.7056 17.5727C12.235 18.1609 11.7938 19.6315 10.9114 20.6609C9.73496 21.9844 8.41142 23.1609 7.23495 24.4845C7.08789 24.6315 6.79376 24.9257 6.79376 25.2198C6.6467 26.2492 8.11731 26.3963 8.70554 26.3963C11.2056 26.6904 13.5585 26.8375 16.0585 27.1316C14.4409 26.9845 12.9703 27.4257 11.3526 27.4257C9.58791 27.4257 8.11731 27.4257 6.49965 28.0139C5.91141 28.308 6.05847 28.4551 6.20553 29.0433C6.35259 29.6316 6.49964 30.2198 6.79376 30.8081C6.94082 31.2493 7.08789 31.6904 7.23495 32.1316C8.11731 34.6316 10.4703 37.1316 12.0879 39.1905C12.9703 40.8081 14.2938 42.2787 15.9115 43.4552Z" fill="#EB924D"/>
<path id="Vector_5" d="M56.4998 41.2497C56.4998 42.1321 56.3527 43.0145 56.3527 43.7498C56.3527 44.7792 56.2057 45.6615 56.2057 46.5439C56.0586 47.8674 56.0586 49.338 55.4704 50.5145C55.1762 51.2498 54.7351 51.9851 54.2939 52.7204C51.3527 56.544 45.4703 58.1616 41.3526 60.0734C39.735 60.8087 38.1173 61.3969 36.3526 61.3969C34.4408 61.3969 32.529 60.6616 30.9114 59.6322C30.1761 59.044 29.2937 58.4557 28.5584 57.8675C26.3525 55.5145 23.5584 53.4557 21.3525 51.1027C20.4701 50.0733 19.5878 49.0439 18.8525 48.0145C18.1172 46.9851 19.1466 46.6909 20.3231 46.5439C20.6172 46.5439 20.9113 46.5439 21.2054 46.5439H21.3525C21.7937 46.5439 22.2349 46.5439 22.3819 46.5439C23.1172 46.5439 23.8525 46.691 24.5878 46.691C23.8525 46.838 22.9701 46.9851 22.2348 46.9851C22.0878 46.9851 21.7937 46.9851 21.6466 47.1321C21.3525 47.2792 21.2054 47.5733 21.0584 48.0145C20.9113 49.0439 21.6466 49.9263 22.2348 50.6616C25.3231 54.044 28.8526 57.1322 32.8232 59.9263C34.1467 60.8087 35.9114 60.8087 37.5291 60.5146C43.1173 59.6322 48.4115 57.1322 52.6762 53.4557C53.7057 52.5734 53.8527 51.2498 54.2939 50.0733C55.3233 46.5439 55.7645 42.8674 55.6174 39.1909C55.6174 38.4556 55.6174 37.8674 55.1762 37.2791C54.4409 35.9556 52.3821 35.9556 51.0586 35.2203C51.9409 35.2203 52.8233 35.0732 53.7057 35.0732C54.588 35.0732 55.4704 35.0732 55.9115 35.8085C56.0586 36.1027 56.2057 36.3968 56.2057 36.8379C56.6468 38.0144 56.6468 39.6321 56.4998 41.2497Z" fill="#EB924D"/>
<path id="Vector_6" d="M55.3233 32.7199C55.1763 32.8669 55.0292 33.014 54.7351 33.161C54.7351 33.014 54.8822 32.8669 54.8822 32.7199C55.0292 32.4258 55.0292 32.1316 55.1763 31.8375C55.3233 31.2493 55.4704 30.6611 55.4704 29.9258C55.6175 29.1905 55.6175 28.4552 55.6175 27.7199C55.6175 27.2787 55.6174 26.8375 55.3233 26.3963C55.0292 25.8081 54.2939 25.3669 53.7057 24.9257C53.4116 24.7787 52.9704 24.4845 52.6763 24.3375C52.9704 24.3375 53.4116 24.1904 53.7057 24.1904C53.5586 24.1904 53.4116 24.3375 53.2645 24.3375C53.8527 24.3375 55.1763 24.0434 55.6175 24.7787C55.9116 25.2198 56.0586 25.661 56.0586 26.2493C56.0586 27.4257 55.9116 28.7493 56.0586 29.9258V30.0728C56.0586 31.1022 56.0586 32.1316 55.3233 32.7199Z" fill="#EB924D"/>
<path id="Vector_7" d="M55.7647 23.0142C55.7647 23.1613 55.6177 23.3083 55.4706 23.3083C55.3236 19.1907 54.5883 15.073 53.853 11.1024C53.7059 10.5141 53.7059 9.92591 53.4118 9.48473C53.2647 9.04355 53.1177 8.74941 52.8235 8.4553C51.7941 6.10234 49 5.51408 46.7941 4.48466C43.8529 3.30819 39.4411 0.808178 36.2058 1.69054C34.7352 2.13172 33.5587 3.01408 32.3822 3.89643C30.3234 5.51409 28.1175 7.13177 26.0587 8.60236C23.9998 10.073 21.3528 11.1024 19.588 12.8671C19.1469 13.3083 18.4116 14.0435 18.2645 14.7788C18.2645 14.9259 18.2645 14.9259 18.2645 15.073C17.9704 15.073 17.6763 15.073 17.3822 15.073C17.088 15.073 16.941 14.9259 16.6469 14.9259C16.2057 14.6318 16.4998 14.3377 16.7939 14.1906C18.5586 12.8671 20.1763 11.3965 21.941 9.92589C23.7057 8.4553 25.6175 7.2788 27.3822 5.95526C31.3528 3.16113 34.5881 0.0729066 39.8823 0.661146C43.5588 1.10232 46.9411 2.86701 50.1765 4.48466C50.7647 4.77878 51.2059 5.07291 51.6471 5.36703C52.6765 6.10233 53.853 6.83762 54.4412 8.16116C55.0294 9.33764 55.1765 10.8083 55.1765 12.1318C55.3236 13.3083 55.3236 14.6318 55.3236 15.8083C55.3236 17.8671 55.3236 20.073 55.4706 22.1318C55.4706 22.2789 55.4706 22.5731 55.4706 22.7201C55.7647 22.7201 55.7647 22.8671 55.7647 23.0142Z" fill="#EB924D"/>
<g id="Group_2">
<path id="Vector_8" d="M14.7348 27.1319C14.4407 28.7495 14.7348 30.5142 15.323 31.9848C15.6171 32.7201 16.0583 33.3084 16.4995 34.0437C16.6465 34.1907 16.6466 34.3378 16.6466 34.4849C16.9407 35.0731 17.2348 35.6613 17.676 36.1025C18.4113 37.279 19.2936 38.4555 20.176 39.4849C21.9407 41.6908 23.8525 43.7496 26.0584 45.8084C26.3525 46.1026 26.7937 46.3967 27.0878 46.8379C26.0584 46.2496 24.7348 46.2496 23.7054 46.6908C24.5878 46.8379 25.4701 46.9849 26.4996 47.132C26.9407 47.279 27.3819 47.279 27.8231 47.4261C27.8231 47.4261 27.9701 47.4261 27.9701 47.5732C28.1172 47.7202 28.2643 48.0144 28.4113 48.3085C28.7055 48.7496 29.1466 49.3379 29.5878 49.7791C30.4702 50.6614 31.3525 51.3967 32.529 51.985C33.8525 52.7203 35.4702 53.3085 37.0879 53.3085C40.7643 53.6026 44.5879 51.985 46.9408 49.1908C48.5585 48.7497 49.2938 47.5732 49.882 45.9555C50.6173 44.3378 50.7644 42.5731 50.7644 40.9555C51.0585 37.1319 51.0585 33.3083 51.0585 29.4848C51.0585 25.073 51.0585 20.6612 49.735 16.3965C48.1173 20.3671 44.4408 23.1612 40.4702 24.6318C36.4996 26.1024 32.0878 26.2495 27.8231 26.2495C23.4113 26.1024 18.9995 26.1025 14.7348 27.1319Z" fill="#EB924D"/>
<path id="Vector_9" d="M48.7057 46.5437C48.4116 46.9849 48.1175 47.279 47.8233 47.7202C43.9998 50.5143 38.7056 54.1908 33.8527 51.8379C31.2056 50.5143 29.2938 48.3084 27.5291 46.1025C26.0585 44.3378 24.5879 42.5731 23.1173 40.8084C21.4996 38.8966 19.882 36.9848 18.2643 35.0731C17.6761 34.3378 16.7937 33.6024 16.3525 32.573C15.6172 30.9554 14.4408 29.3377 14.8819 27.4259C15.4702 24.3377 20.1761 20.9553 22.5291 18.8965C25.4703 16.2494 28.7056 14.0435 31.6468 11.5435C34.1468 9.48466 35.6174 7.867 39.1468 8.6023C40.9115 9.04348 42.5292 9.6317 43.9998 10.5141C45.3233 11.2494 46.7939 12.1317 47.9704 13.1612C50.9116 15.9553 50.0292 22.573 50.1763 26.1024C50.3233 30.9554 50.1763 35.9554 49.588 40.8084C49.588 41.2496 49.441 41.6907 49.441 42.1319C49.441 43.6025 49.441 45.2202 48.7057 46.5437Z" fill="url(#paint3_linear_2228_940)"/>
<path id="Vector_10" d="M48.2645 26.3963C48.2645 27.4257 48.2645 28.6022 48.2645 29.6316C48.2645 31.8375 48.1174 33.8963 47.9704 36.1022C47.8233 37.7199 47.6763 39.3375 47.5292 40.9552C47.3822 42.2787 47.2351 43.8964 46.6469 45.2199C45.9116 46.8376 43.8527 47.867 42.3821 48.7494C40.7645 49.6317 38.9998 50.367 37.235 50.367C36.3527 50.367 35.6174 50.22 34.8821 49.7788C32.6762 48.7494 30.9115 46.6905 29.2938 44.6317C27.8232 42.867 26.3526 41.1023 24.735 39.3375C22.382 36.5434 19.5879 34.0434 17.9702 30.661C17.529 29.6316 17.0878 28.7492 17.2349 28.161C17.382 27.5728 17.6761 26.8375 18.1173 26.2492C19.4408 24.3375 21.9408 22.7198 23.5585 21.3962C27.0879 18.455 30.6173 15.808 34.2938 12.8668C35.9115 11.5432 36.6468 11.1021 37.6762 11.1021C37.9703 11.1021 38.4115 11.1021 38.8527 11.2491C41.4998 11.8374 44.588 13.308 46.6469 15.2198C47.9704 16.3962 48.1175 18.8963 48.1175 20.5139C48.1175 22.4257 48.2645 24.3375 48.2645 26.3963Z" fill="url(#paint4_linear_2228_940)"/>
<path id="Vector_11" d="M48.2643 26.3964C48.2643 27.4259 48.2643 28.6023 48.2643 29.6317C47.529 32.2788 46.4995 34.9259 45.3231 37.4259L44.7348 23.8964C44.5878 21.9846 44.5878 20.2199 43.8525 18.4552C43.1172 16.6905 41.7936 15.2199 40.0289 14.9258C37.823 14.4846 35.7642 15.9552 33.9995 17.1317C29.7347 20.2199 25.47 23.3082 21.0582 26.3964C20.3229 26.9847 19.1464 27.4258 18.5582 26.6905C18.4111 26.5435 18.4111 26.3964 18.4111 26.2494C18.4111 26.1023 18.4111 26.1023 18.4111 25.9552C19.7347 24.0435 22.2347 22.4258 23.8523 21.1023C27.3818 18.1611 30.9112 15.514 34.5877 12.5728C36.2054 11.2493 36.9407 10.8081 37.9701 10.8081C38.2642 10.8081 38.7054 10.8081 39.1465 10.9552C41.7936 11.5434 44.8819 13.014 46.9407 14.9258C48.2643 16.1022 48.4113 18.6023 48.4113 20.2199C48.1172 22.4258 48.2643 24.3376 48.2643 26.3964Z" fill="#FFDF80"/>
<path id="Vector_12" d="M45.9117 26.3966C45.9117 27.1319 45.9117 27.8672 45.9117 28.7495C45.9117 31.1025 45.7647 33.4555 45.6176 35.9555C45.4706 37.5731 45.3235 39.1908 45.1764 40.6614C45.0294 41.8379 44.8823 43.3084 44.5882 44.1908C44.2941 44.9261 42.9706 45.6614 41.9411 46.2497L41.3529 46.5438C40.3235 47.132 38.7058 47.8673 37.3823 47.8673C36.9411 47.8673 36.4999 47.7203 36.0587 47.5732C34.5882 46.8379 33.2646 45.3673 31.9411 43.8967C31.647 43.6026 31.4999 43.3085 31.2058 43.0143L26.794 37.7202C26.4999 37.4261 26.3528 37.1319 26.0587 36.8378C25.6175 36.3966 25.1763 35.9555 24.7352 35.3672C22.9704 33.4554 21.3528 31.5437 20.3234 29.3378C20.1763 28.8966 19.8822 28.3083 19.7351 28.0142C19.7351 27.8672 19.8822 27.7201 20.0292 27.5731C20.7645 26.3966 22.5292 24.926 23.8528 24.0436C24.441 23.6025 24.8822 23.3083 25.3234 22.8671C27.3822 21.1024 29.5881 19.3377 31.647 17.72C31.794 17.573 31.794 17.573 31.9411 17.426C32.0881 17.2789 32.3822 17.1318 32.5293 16.9847C33.7058 16.1024 34.7352 15.22 35.9117 14.3377C37.2352 13.3083 37.5294 13.0142 37.9705 13.0142C38.1176 13.0142 38.2646 13.0142 38.5588 13.1612C41.0588 13.7495 43.7059 15.073 45.3235 16.5436C45.9118 17.1318 46.0588 19.0436 46.0588 20.073V20.2201C46.0588 20.5142 46.0588 20.6613 46.0588 20.9554C45.9118 22.8672 45.9117 24.6319 45.9117 26.3966Z" fill="url(#paint5_linear_2228_940)"/>
<path id="Vector_13" d="M45.9117 26.3964C45.9117 27.1317 45.9117 27.8669 45.9117 28.7493C45.7647 29.4846 45.4706 30.2199 45.0294 30.8082C44.147 31.6905 42.9706 31.8375 41.647 31.8375C34.8823 32.2787 27.9705 32.1317 21.6469 30.0729C20.7645 29.7787 19.8822 29.3376 19.7351 28.6023C19.7351 28.4552 19.7351 28.1611 19.7351 27.867C20.4704 26.6905 22.2351 25.2198 23.5587 24.3375C24.1469 23.8963 24.5881 23.6022 25.0293 23.161C27.2352 21.3963 29.4411 19.4845 31.647 17.8669C32.9705 16.8375 34.294 15.808 35.6176 14.7786C36.9411 13.7492 37.2352 13.4551 37.6764 13.4551C37.8235 13.4551 37.9705 13.4551 38.2646 13.6021C40.7647 14.1904 43.4117 15.5139 45.0294 16.9845C45.6176 17.5727 45.7647 19.4846 45.7647 20.514V20.661C45.9117 22.4257 45.9117 24.3375 45.9117 26.3964Z" fill="url(#paint6_linear_2228_940)"/>
<path id="Vector_14" opacity="0.1" d="M45.7644 20.5141V20.367C45.7644 19.3376 45.6174 17.2788 45.0291 16.8376C43.4115 15.367 40.7644 14.0434 38.2644 13.4552C37.9703 13.4552 37.6762 13.3081 37.6762 13.3081C37.382 13.3081 36.9409 13.6023 35.6173 14.6317C34.4409 15.514 33.4114 16.3964 32.235 17.2787C32.0879 17.4258 32.0879 17.5729 31.9408 17.5729C32.235 17.4258 32.6761 17.2787 32.9702 17.2787C33.9997 17.2787 35.0291 18.0141 35.3232 19.0435C35.9115 20.5141 35.0291 22.1317 34.1467 23.6023C31.4997 27.867 28.8526 32.1318 26.0584 36.5436C25.9114 36.6906 25.7643 36.9847 25.4702 36.9847C25.7643 37.2789 25.9114 37.573 26.2055 37.8671L30.6173 43.1613C30.9114 43.4554 31.0585 43.7495 31.3526 44.0436C31.2055 42.7201 31.4996 41.3965 31.7938 40.2201C32.382 38.0142 33.5585 36.1024 34.735 34.1906C36.9409 30.5141 39.1468 26.6906 41.3527 23.0141C41.6468 22.4258 42.088 21.8376 42.6762 21.2494C43.2644 20.8082 43.9997 20.514 44.588 20.6611C45.0292 20.8082 45.3233 21.1023 45.4703 21.3964C45.7644 20.9552 45.7644 20.8082 45.7644 20.5141Z" fill="url(#paint7_linear_2228_940)"/>
</g>
</g>
<defs>
<linearGradient id="paint0_linear_2228_940" x1="61.8933" y1="-11.5806" x2="53.7206" y2="1.30715" gradientUnits="userSpaceOnUse">
<stop stop-color="#CF5C2B"/>
<stop offset="1" stop-color="#59173E"/>
</linearGradient>
<linearGradient id="paint1_linear_2228_940" x1="42.7982" y1="-2.01857" x2="6.17923" y2="116.483" gradientUnits="userSpaceOnUse">
<stop stop-color="#CF5C2B"/>
<stop offset="1" stop-color="#59173E"/>
</linearGradient>
<linearGradient id="paint2_linear_2228_940" x1="36.5651" y1="15.3491" x2="7.8033" y2="121.595" gradientUnits="userSpaceOnUse">
<stop stop-color="#CF5C2B"/>
<stop offset="1" stop-color="#59173E"/>
</linearGradient>
<linearGradient id="paint3_linear_2228_940" x1="28.9969" y1="73.3683" x2="31.6692" y2="42.784" gradientUnits="userSpaceOnUse">
<stop stop-color="#CF5C2B"/>
<stop offset="1" stop-color="#59173E"/>
</linearGradient>
<linearGradient id="paint4_linear_2228_940" x1="33.2341" y1="8.12762" x2="32.7481" y2="26.6929" gradientUnits="userSpaceOnUse">
<stop stop-color="#FFCA2B"/>
<stop offset="1" stop-color="#D15B24"/>
</linearGradient>
<linearGradient id="paint5_linear_2228_940" x1="32.9852" y1="52.2413" x2="32.7909" y2="32.8009" gradientUnits="userSpaceOnUse">
<stop stop-color="#FFCE3B"/>
<stop offset="1" stop-color="#CC6923"/>
</linearGradient>
<linearGradient id="paint6_linear_2228_940" x1="32.8305" y1="39.5982" x2="32.8305" y2="16.8338" gradientUnits="userSpaceOnUse">
<stop stop-color="#FFCE3B"/>
<stop offset="1" stop-color="#CC6923"/>
</linearGradient>
<linearGradient id="paint7_linear_2228_940" x1="53.7815" y1="-7.8322" x2="25.1091" y2="44.7504" gradientUnits="userSpaceOnUse">
<stop stop-color="#F2DE6D"/>
<stop offset="1"/>
</linearGradient>
</defs>
</svg>
