<svg width="60" height="68" viewBox="0 0 60 68" fill="none" xmlns="http://www.w3.org/2000/svg">
<g id="Group">
<path id="Vector" d="M1.76437 45.6615C1.76437 45.6615 1.76436 45.5144 1.6173 45.5144C1.32318 44.7791 1.17614 44.0438 1.17614 43.3085C1.17614 41.8379 0.882006 40.2203 0.882006 38.7497C0.882006 37.132 1.02907 35.6614 1.02907 34.0438C1.02907 33.3085 1.02908 32.5732 1.47026 31.9849C1.91144 31.3967 2.7938 31.1026 3.38204 31.3967C2.49968 31.1026 1.47024 30.6614 0.882006 29.9261C0.587886 27.7202 0.587891 24.632 0.587891 22.4261C0.73495 21.9849 1.02908 21.5437 1.17614 20.9555C2.35262 17.426 4.5585 14.3378 6.47028 11.2495C7.05852 10.3672 7.64675 9.48482 8.23499 8.60246C9.26441 7.27892 10.4409 6.10242 11.7644 5.22006C12.2056 4.92594 12.7939 4.63181 13.235 4.33769C16.4704 2.72003 19.9998 0.808293 23.6763 0.514173C28.9704 -0.074066 32.2057 3.01415 36.3234 5.80829C38.8234 7.57301 41.4705 9.33773 43.9705 11.1024C45.4411 12.1319 46.7647 13.4554 48.0882 14.6319C48.9706 15.3672 49.8529 16.2495 50.4412 17.1319C50.7353 17.5731 50.8823 18.1613 50.7353 18.7496C50.7353 18.8966 50.5882 19.0437 50.7353 19.0437C50.7353 19.1907 50.8823 19.1907 50.8823 19.3378C51.3235 19.6319 51.9117 20.0731 52.3529 20.2202C52.647 20.3672 53.0882 20.3672 53.3824 20.5143C54.4118 20.9554 55.2941 21.8378 56.0294 22.7202C56.0294 22.7202 56.0294 22.7202 56.1765 22.8672C56.7647 23.6025 57.5 24.4849 58.0883 25.2202C58.3824 25.5143 58.6765 25.9555 58.9706 26.3967C59.1177 26.8378 59.2647 27.279 59.4118 27.7202C59.5588 28.7496 59.4118 29.779 59.2647 30.8084C58.0883 35.2202 54.7059 39.1908 51.9118 42.5732C49.4117 45.5144 46.9117 48.3086 44.2646 51.1027C41.0293 54.4851 37.9411 57.8674 34.5587 61.1028C32.794 62.7204 31.0293 64.6322 29.1175 66.1028C22.941 70.8087 14.8527 64.6322 9.11736 62.1322C8.67618 61.9851 8.23501 61.691 7.79383 61.544C6.47029 60.9557 5.29382 60.3675 4.11734 59.3381C3.97028 59.191 3.82321 59.0439 3.67615 58.8969C3.52909 58.7498 3.52909 58.7498 3.52909 58.6028C3.38203 58.3087 3.23496 58.0145 3.0879 57.7204C2.79378 57.1322 2.64673 56.3969 2.49967 55.6616C2.20555 54.338 2.05849 52.8674 2.05849 51.3968C2.05849 50.6615 2.05848 49.9262 2.3526 49.338C2.64672 48.7497 3.08791 48.6027 3.52909 48.3086C4.11732 48.1615 4.70557 48.0144 5.44087 47.8674C5.29381 47.8674 5.14674 47.8674 4.99968 47.7203C4.70556 47.5733 4.26439 47.4262 3.97027 47.2792C3.82321 47.1321 3.5291 46.9851 3.38204 46.838C3.08792 46.6909 2.79379 46.5438 2.49967 46.3968C2.20555 46.1027 1.91143 45.9556 1.76437 45.6615Z" fill="url(#paint0_linear_2228_956)"/>
<path id="Vector_2" d="M59.5588 28.8965C59.5588 29.7788 59.2647 30.5141 58.5294 31.1024C58.3824 31.2494 58.2353 31.3965 57.9412 31.5435C57.5 31.8377 56.9118 32.1318 56.4706 32.4259C56.3235 32.4259 56.3235 32.573 56.1765 32.573C55.5882 32.8671 54.8529 33.1612 54.2647 33.6024H54.4118C55.4412 33.4554 56.6177 33.3083 57.6471 33.3083C57.353 33.7495 57.2059 34.0436 56.9118 34.4847C56.1765 35.6612 55.2941 36.8377 54.5588 38.0142C53.9706 38.7495 53.5294 39.4848 52.9412 40.2201C52.3529 40.9554 51.7647 41.5436 51.1764 42.2789C51.0294 42.426 50.8823 42.7201 50.5882 42.7201C50.2941 42.8672 49.8529 42.8672 49.4117 42.8672C47.647 42.8672 45.8823 43.0142 44.2646 43.4554C44.5587 43.6025 44.9999 43.6025 45.2941 43.7495C46.3235 43.8966 47.2058 44.1907 48.2353 44.3378C48.5294 44.4848 48.9705 44.4848 49.1176 44.7789C48.8235 45.073 48.6764 45.3672 48.3823 45.6613C47.647 46.5437 46.9117 47.2789 46.0294 47.8672C45.7352 48.0142 45.5882 48.3084 45.4411 48.4554C44.9999 49.0437 44.4117 49.6319 43.8235 50.0731C41.0293 52.7202 38.0881 55.3672 35.441 58.1614C34.7057 58.8967 33.8234 59.4849 33.0881 59.9261C31.4704 60.9555 29.5587 61.8379 27.6469 61.8379C25.8822 61.8379 24.2645 61.2496 22.6468 60.5143C17.9409 58.3084 10.4409 56.2496 8.38205 50.9555C8.08793 50.3672 7.94087 49.779 7.94087 49.1907C7.94087 48.4554 7.79382 47.7201 7.79382 46.9848C7.79382 46.6907 7.79382 46.3966 7.79382 46.1025C8.08794 45.5143 8.67618 45.5143 9.26442 45.3672C12.3527 45.0731 15.4409 44.6319 18.5292 44.3378C18.9703 44.3378 19.2645 44.1907 19.7056 44.1907C16.3233 43.6025 13.088 43.0142 9.70558 42.426C9.41146 42.426 9.11734 42.2789 8.97028 42.2789C8.5291 42.1319 8.23498 41.9848 7.94087 41.6907C7.49969 41.1025 7.35264 40.3671 7.35264 39.6318C7.35264 39.0436 7.49968 38.4554 7.49968 37.8671C7.49968 36.5436 7.49968 35.2201 7.49968 33.8965C7.49968 32.8671 7.49968 31.8377 7.49968 30.8082C7.49968 29.9259 7.64674 29.0435 7.49968 28.1612C7.49968 27.8671 7.35264 27.72 7.35264 27.4259C7.35264 27.1318 7.20557 26.8376 7.20557 26.5435C7.20557 26.2494 7.20557 26.1024 7.20557 25.9553C7.20557 24.1906 7.49969 22.5729 7.64675 20.8082C7.64675 20.367 7.79381 19.7788 8.08793 19.4847C8.38205 19.1906 8.97028 19.1905 9.41146 19.1905C11.0291 19.1905 12.4997 19.1905 14.1174 19.1905H14.7056C16.4703 19.1905 18.088 19.1905 19.8527 19.1905C18.2351 19.0435 16.4703 18.7493 14.8527 18.3082C13.6762 18.1611 12.6468 18.014 11.6174 17.5729C11.3232 17.4258 10.8821 17.2788 10.5879 17.2788C10.2938 17.2788 9.9997 17.2788 9.70558 17.2788C9.70558 17.2788 9.70559 17.2788 9.55853 17.2788C9.26441 17.2788 8.97029 17.2788 8.82323 17.1317C8.82323 16.9846 8.82322 16.9846 8.67616 16.8376C8.5291 15.8082 8.52912 14.6317 8.52912 13.6023C8.52912 13.3082 8.52912 13.014 8.52912 12.5728C8.52912 10.9552 8.67616 9.19049 9.41146 7.71989C9.9997 6.39635 11.1762 5.80812 12.2056 4.92577C12.6468 4.63165 13.235 4.33752 13.6762 4.0434C16.9115 2.27868 20.4409 0.513945 24.1174 0.0727659C29.4116 -0.515473 32.6469 2.57279 36.7646 5.36693C39.7058 7.2787 42.4999 9.33756 45.2941 11.5435C45.4411 11.6905 45.4411 11.6905 45.5882 11.6905C46.3235 12.2787 47.0588 12.867 47.647 13.6023C47.9411 14.0435 48.5294 14.4846 48.9706 14.7787C49.4117 15.2199 50 15.8082 50.2941 16.2493C50.4411 16.3964 50.4412 16.3964 50.4412 16.5435C50.4412 16.8376 50.147 16.8376 49.8529 16.9846C49.5588 16.9846 49.2647 17.1317 48.8235 17.1317C47.0588 17.4258 45.294 17.867 43.5293 18.1611C44.1176 18.1611 44.7058 18.1611 45.2941 18.1611C47.2058 18.1611 48.9705 18.014 50.8823 18.3082C51.6176 18.4552 52.5 18.6023 53.3823 18.8964C53.6765 19.0435 54.1176 19.1905 54.4118 19.3376C54.5588 19.4847 54.7059 19.6317 54.8529 19.7788C55.1471 20.367 55.5882 20.8082 56.0294 21.2494C57.5 23.0141 59.5589 24.7788 60 27.2788C59.5589 28.1612 59.7059 28.4553 59.5588 28.8965Z" fill="url(#paint1_linear_2228_956)"/>
<path id="Vector_3" d="M8.23515 13.7492C8.23515 13.4551 8.23515 13.1609 8.23515 12.7198C10.8822 12.7198 13.6764 13.0139 16.3234 13.0139C21.3235 13.0139 26.1765 12.5727 31.1765 12.2786C35.8824 11.9845 40.5883 11.8374 45.2942 11.8374C46.0295 12.4256 46.7648 13.0139 47.3531 13.7492C47.6472 14.1904 48.2354 14.6315 48.6766 14.9257C49.1178 15.3668 49.706 15.9551 50.0001 16.3963C50.1472 16.5433 50.1472 16.5433 50.1472 16.6904C50.1472 16.9845 49.8531 16.9845 49.559 17.1316C49.2648 17.1316 48.9707 17.2786 48.5295 17.2786C46.7648 17.5728 45.0001 18.0139 43.2354 18.308C43.8236 18.308 44.4118 18.308 45.0001 18.308C46.9119 18.308 48.6766 18.161 50.5884 18.4551C51.3237 18.6022 52.206 18.7492 53.0884 19.0433C51.4707 19.1904 49.706 19.0433 47.7942 19.0433C42.206 18.8963 36.7648 19.1904 31.1765 19.4845C25.7353 19.7786 20.147 19.7786 14.7058 19.3375C14.4117 19.3375 14.2646 19.3375 13.9705 19.3375H14.5587C16.3234 19.3375 17.9411 19.3375 19.7058 19.3375C18.0882 19.1904 16.3235 18.8963 14.7058 18.4551C13.5293 18.308 12.4999 18.161 11.4705 17.7198C11.1764 17.5727 10.7352 17.4257 10.441 17.4257C10.1469 17.4257 9.85282 17.4257 9.5587 17.4257C9.5587 17.4257 9.55869 17.4257 9.41163 17.4257C9.11751 17.4257 8.82339 17.4257 8.67633 17.2786C8.67633 17.1316 8.67635 17.1316 8.52929 16.9845C8.38223 15.9551 8.23515 14.9257 8.23515 13.7492ZM37.6471 26.8375C27.3529 26.8375 17.2058 27.5728 6.91162 26.2493C6.91162 26.5434 6.91162 26.6905 6.91162 26.8375C6.91162 27.1316 6.91163 27.4258 7.05869 27.7199C16.1764 30.9552 25.8823 31.3964 35.4412 31.8375C38.8236 31.9846 42.206 32.1317 45.5883 32.5728C41.1766 32.7199 36.6177 32.8669 32.2059 33.014C24.8529 33.3081 17.3529 33.4552 9.99989 34.0434C9.55871 34.0434 8.52927 34.1905 7.20574 34.3376C7.20574 35.6611 7.20574 36.9846 7.20574 38.3082C7.20574 38.8964 7.20575 39.4847 7.05869 40.0729C7.05869 40.8082 7.20574 41.5435 7.64692 42.1317C7.94104 42.4258 8.38221 42.5729 8.67633 42.72C8.97045 42.867 9.26457 42.867 9.41163 42.867C12.794 43.4553 16.0293 44.0435 19.4117 44.6318C18.9705 44.6318 18.6764 44.7788 18.2352 44.7788C22.2058 45.0729 26.3235 45.22 30.2941 45.5141C36.3236 45.8082 42.206 45.9553 48.0884 45.9553C48.3825 45.6612 48.6766 45.367 48.8237 45.0729C48.5295 44.7788 48.2354 44.7788 47.9413 44.6318C46.9119 44.4847 46.0295 44.1905 45.0001 44.0435C44.706 43.8964 44.2648 43.8965 43.9707 43.7494C45.7354 43.4553 47.3531 43.3082 49.1178 43.1612C49.5589 43.1612 50.0001 43.1611 50.2943 43.0141C50.5884 42.867 50.7354 42.7199 50.8825 42.5729C51.4707 41.9846 52.206 41.2494 52.6472 40.5141C53.2355 39.7788 53.8237 39.0435 54.2649 38.3082C55.1472 37.1317 55.8825 35.9552 56.6178 34.7787C56.9119 34.3376 57.059 34.0435 57.3531 33.6023C56.3237 33.6023 55.1472 33.7493 54.1178 33.8964H53.9707C54.559 33.6022 55.2943 33.3082 55.8825 32.867C56.0296 32.867 56.0296 32.7199 56.1766 32.7199C56.6178 32.4258 57.2061 32.1317 57.6472 31.8375C57.7943 31.6905 57.9413 31.5434 58.2355 31.3964C58.9708 30.8081 59.2649 29.9258 59.2649 29.1905C52.3531 27.2787 44.706 26.8375 37.6471 26.8375Z" fill="url(#paint2_linear_2228_956)"/>
<path id="Vector_4" d="M48.9705 44.7791C48.0882 45.9556 47.0587 46.985 45.8823 48.0144C45.5881 48.1615 45.4411 48.4556 45.294 48.6027C44.8529 49.1909 44.2646 49.7791 43.6764 50.2203C40.8822 52.8674 37.941 55.5145 35.294 58.3086C34.5587 59.0439 33.6763 59.6322 32.941 60.0733C31.3233 61.1028 29.4116 61.9851 27.4998 61.9851C25.7351 61.9851 24.1174 61.3969 22.4998 60.6616C17.7939 58.4557 10.2938 56.3968 8.23496 51.1027C7.94084 50.5145 7.7938 49.9262 7.7938 49.338C7.7938 48.6027 7.64673 47.8674 7.64673 47.1321C7.64673 46.8379 7.64673 46.5438 7.64673 46.2497C7.94085 45.6615 8.52909 45.6615 9.11733 45.5144C12.2056 45.2203 15.2938 44.7791 18.3821 44.485C17.2056 45.0732 16.0291 45.3673 14.8526 45.6615C14.4115 45.8085 13.9703 45.9556 13.5291 45.8085C13.0879 45.8085 12.4997 45.9556 12.0585 46.1027C11.0291 46.2497 9.99969 46.3968 8.82321 46.5438C8.67615 46.5438 8.5291 46.5438 8.5291 46.6909C8.5291 46.838 8.5291 46.8379 8.5291 46.985C8.5291 48.4556 8.97027 50.0732 9.55851 51.3968C9.70557 51.838 9.99969 52.2792 10.2938 52.7204C10.735 53.1615 11.1762 53.6027 11.6173 53.8968C12.6468 54.6321 13.5291 55.3674 14.7056 55.8086C15.1468 55.9556 15.588 55.9557 15.8821 56.1027C16.4703 56.3968 17.0585 56.691 17.4997 56.9851C19.7056 58.0145 22.0586 58.8968 24.4115 59.6321C24.5586 59.6321 24.8527 59.7792 24.9998 59.7792C26.0292 60.0733 27.2057 60.2204 28.2351 60.0733C31.7645 59.7792 34.5587 57.4262 37.0587 55.0733C38.0881 54.1909 38.9704 53.3086 39.8528 52.4262C42.3528 50.0733 44.8528 47.7203 47.3529 45.2203C46.6176 44.485 45.8823 43.8967 44.8528 43.4556H44.9999C46.0293 43.6026 46.9117 43.8967 47.9411 44.0438C48.3823 44.3379 48.6764 44.485 48.9705 44.7791Z" fill="#EB924D"/>
<path id="Vector_5" d="M7.94089 21.3965C7.79383 22.7201 7.64678 24.1907 7.79384 25.5142C7.79384 25.9554 7.94088 26.3966 8.235 26.6907C8.52912 26.9848 8.97032 26.9848 9.26444 27.1318C10.4409 27.2789 11.6174 27.426 12.6468 27.5731C11.6174 27.5731 10.4409 27.7201 9.41148 28.0142C8.82325 28.1613 8.38207 28.3083 7.94089 28.7495C7.35265 29.3378 7.35266 30.2201 7.35266 31.1025C7.35266 34.926 7.64678 38.8966 8.52914 42.7202C8.08796 42.5731 7.79382 42.4261 7.4997 42.132C7.05852 41.5437 6.91147 40.8084 6.91147 40.0731C6.91147 39.4849 7.05854 38.8966 7.05854 38.3084C7.05854 35.9554 7.05854 33.6025 7.05854 31.3966C7.05854 30.5143 7.2056 29.6319 7.05854 28.7495C6.91148 28.1613 6.7644 27.7201 6.7644 27.1318C6.7644 25.2201 7.05853 23.3083 7.20559 21.2495C7.20559 20.8083 7.35265 20.22 7.64677 19.9259C7.94089 19.6318 8.52912 19.6318 8.9703 19.6318C10.735 19.6318 12.4997 19.6318 14.2645 19.6318C12.2056 19.7789 10.1468 20.6612 7.94089 21.3965Z" fill="#EB924D"/>
<path id="Vector_6" d="M49.9998 16.9844C49.9998 17.2786 49.7057 17.2786 49.4116 17.4257C49.1175 17.4257 48.8234 17.5727 48.3822 17.5727C48.6763 16.8374 48.0881 15.808 47.3528 15.2198C42.6469 10.955 37.4998 7.57264 32.2056 4.0432C31.0291 3.16085 29.7056 2.42555 28.235 1.83731C26.7644 1.39613 25.5879 0.954923 24.1173 1.3961C20.4408 2.42552 16.9114 3.74909 13.529 5.5138C12.2055 6.10204 11.029 6.83731 10.1466 8.01379C9.11723 9.33733 8.97017 11.1021 8.82311 12.8668C8.67606 14.4844 8.82311 15.955 8.82311 17.5727C8.529 17.5727 8.23488 17.5727 8.08782 17.4257C8.08782 17.2786 8.08781 17.2786 7.94075 17.1315C7.79369 16.1021 7.7937 14.9256 7.7937 13.8962C7.7937 11.9844 7.7937 9.92557 8.529 8.01379C9.11724 6.69025 10.2937 6.10202 11.3231 5.21967C11.7643 4.92555 12.3525 4.63142 12.7937 4.3373C16.029 2.57258 19.5585 0.80789 23.235 0.366711C28.5291 -0.221528 31.7644 2.86674 35.8821 5.66087C38.8233 7.57265 41.6174 9.63146 44.4116 11.8374C45.2939 12.4256 46.1763 13.0138 46.7645 13.8962C47.0587 14.3374 47.6469 14.7786 48.0881 15.0727C48.5292 15.5139 49.1175 16.1021 49.4116 16.5433C49.9998 16.6903 49.9998 16.8374 49.9998 16.9844Z" fill="#EB924D"/>
<path id="Vector_7" d="M58.5294 31.1022C58.3823 31.2492 58.2353 31.3963 57.9412 31.5433C58.0882 30.5139 58.5294 29.6316 58.3823 28.6021C58.2353 27.8668 57.9411 27.1316 57.5 26.5433C56.9117 25.5139 56.1764 24.3374 55.5882 23.308C55.147 22.5727 54.7058 21.8374 54.1176 21.3962C53.5294 20.955 52.7941 20.6609 52.0588 20.5139C50.8823 20.2197 49.5587 19.9256 48.3823 19.6315C47.2058 19.3374 46.1764 19.1903 44.9999 19.0433C44.8528 19.0433 44.7058 18.8962 44.9999 18.7492C46.9117 18.7492 48.6764 18.6021 50.5882 18.8962C51.7646 19.0433 53.0882 19.3374 53.9705 19.9256C54.1176 20.0727 54.2647 20.2198 54.4117 20.3668C54.7058 20.9551 55.147 21.3962 55.5882 21.8374C57.0588 23.6021 59.1176 25.3668 59.5588 27.8668C59.8529 29.0433 59.5588 30.2198 58.5294 31.1022Z" fill="#EB924D"/>
<path id="Vector_8" d="M57.647 33.3081C56.6176 34.9258 55.5881 36.3964 54.5587 38.014C53.9705 38.7493 53.5293 39.4846 52.9411 40.2199C52.3528 40.9552 51.7646 41.5435 51.1764 42.2788C51.0293 42.4258 50.8822 42.7199 50.5881 42.7199C50.294 42.867 49.8528 42.867 49.4116 42.867C50.1469 41.8376 51.1764 41.1023 51.9117 40.2199C52.794 39.0435 53.5293 37.7199 54.4117 36.5434C54.9999 35.6611 56.7646 34.1905 54.9999 33.6022C54.8528 33.6022 54.5587 33.4552 54.4117 33.4552C54.5587 33.4552 54.5587 33.4552 54.7058 33.3081C55.5881 33.4552 56.6176 33.3081 57.647 33.3081Z" fill="#EB924D"/>
<g id="Group_2">
<path id="Vector_9" d="M50.2942 27.1318C50.5883 28.7495 50.2942 30.5142 49.706 31.9848C49.4119 32.7201 48.9707 33.3084 48.5295 34.0437C48.3824 34.1907 48.3824 34.3378 48.3824 34.4848C48.0883 35.0731 47.7942 35.6613 47.353 36.1025C46.6177 37.279 45.7354 38.4555 44.853 39.4849C43.0883 41.6908 41.1765 43.7496 38.9706 45.8084C38.6765 46.1026 38.2353 46.3967 37.9412 46.8379C38.9706 46.2496 40.2941 46.2496 41.3236 46.6908C40.4412 46.8379 39.5589 46.9849 38.5294 47.132C38.0883 47.279 37.6471 47.279 37.2059 47.4261C37.2059 47.4261 37.0588 47.4261 37.0588 47.5732C36.9118 47.7202 36.7647 48.0144 36.6177 48.3085C36.3235 48.7496 35.8824 49.3379 35.4412 49.7791C34.5588 50.6614 33.6765 51.3967 32.5 51.985C31.1764 52.7203 29.5588 53.3085 27.9411 53.3085C24.2646 53.6026 20.4411 51.9849 18.0881 49.1908C16.4705 48.7496 15.7352 47.5732 15.1469 45.9555C14.4116 44.3378 14.2646 42.5731 14.2646 40.9555C13.9705 37.1319 13.9705 33.3083 13.9705 29.4848C13.9705 25.073 13.9705 20.6612 15.294 16.3965C16.9116 20.3671 20.5881 23.1612 24.5588 24.6318C28.5294 26.1024 32.9412 26.2495 37.2059 26.2495C41.7648 25.9554 46.1765 25.9554 50.2942 27.1318Z" fill="#EB924D"/>
<path id="Vector_10" d="M16.4704 46.3967C16.7645 46.8379 17.0587 47.1321 17.3528 47.5732C21.1763 50.3674 26.4705 54.0438 31.3235 51.6909C33.9705 50.3674 35.8823 48.1615 37.647 45.9556C39.1176 44.1908 40.5882 42.4261 42.0588 40.6614C43.6765 38.7496 45.2941 36.8379 46.9118 34.9261C47.5 34.1908 48.3824 33.4555 48.8236 32.4261C49.5589 30.8084 50.7353 29.1907 50.2942 27.279C49.7059 24.1907 45 20.8083 42.6471 18.7495C39.7059 16.1024 36.4706 13.8965 33.5294 11.3965C31.0293 9.33769 29.5587 7.72003 26.0293 8.45533C24.2646 8.89651 22.6469 9.48473 21.1763 10.3671C19.8528 11.1024 18.3822 11.9848 17.2057 13.0142C14.2645 15.8083 15.1469 22.426 14.9998 25.9554C14.8528 30.8084 14.9998 35.8084 15.5881 40.6614C15.5881 41.1026 15.7351 41.5438 15.7351 41.9849C15.7351 43.6026 15.7351 45.2202 16.4704 46.3967Z" fill="url(#paint3_linear_2228_956)"/>
<path id="Vector_11" d="M16.9116 26.2493C16.9116 27.2787 16.9116 28.4552 16.9116 29.4846C16.9116 31.6905 17.0587 33.7493 17.2057 35.9552C17.3528 37.5729 17.4999 39.1906 17.6469 40.8082C17.794 42.1318 17.941 43.7494 18.5293 45.073C19.2646 46.6906 21.3234 47.72 22.794 48.6024C24.4117 49.4847 26.1764 50.2201 27.9411 50.2201C28.8235 50.2201 29.5587 50.073 30.294 49.6318C32.4999 48.6024 34.2647 46.5436 35.8823 44.4847C37.3529 42.72 38.8235 40.9553 40.4412 39.1906C42.7941 36.3964 45.5883 33.8964 47.2059 30.5141C47.6471 29.4846 48.0883 28.6023 47.9412 28.014C47.7942 27.4258 47.5 26.6905 47.0589 26.1023C45.7353 24.1905 43.2353 22.5728 41.6177 21.2493C38.0882 18.3081 34.5588 15.661 30.8823 12.7198C29.2646 11.3963 28.5293 10.9551 27.4999 10.9551C27.2058 10.9551 26.7646 10.9551 26.3234 11.1021C23.6764 11.6904 20.5881 13.161 18.5293 15.0728C17.2057 16.2493 17.0587 18.7493 17.0587 20.3669C16.9116 22.2787 16.9116 24.3376 16.9116 26.2493Z" fill="url(#paint4_linear_2228_956)"/>
<path id="Vector_12" d="M16.9115 26.2495C16.9115 27.2789 16.9115 28.4553 16.9115 29.4848C17.6468 32.1318 18.6762 34.7789 19.8527 37.279L20.4409 23.7494C20.588 21.8377 20.588 20.0729 21.3233 18.3082C22.0586 16.5435 23.3821 15.0729 25.1468 14.7788C27.3527 14.3376 29.4115 15.8082 31.1763 16.9847C35.441 20.0729 39.7057 23.1612 44.1175 26.2495C44.8528 26.8377 46.0293 27.2789 46.6175 26.5436C46.7646 26.3965 46.7646 26.2495 46.7646 26.1024C46.7646 25.9553 46.7646 25.9553 46.7646 25.8083C45.4411 23.8965 42.941 22.2789 41.3234 20.9553C37.7939 18.0141 34.2645 15.367 30.588 12.4258C28.9704 11.1023 28.2351 10.6611 27.2057 10.6611C26.9115 10.6611 26.4704 10.6611 26.0292 10.8082C23.3821 11.3964 20.2938 12.867 18.235 14.7788C16.9115 15.9553 16.7644 18.4553 16.7644 20.0729C16.9115 22.2788 16.9115 24.3377 16.9115 26.2495Z" fill="#FFDF80"/>
<path id="Vector_13" d="M45.5886 28.1614C45.4415 28.4555 45.2945 29.0437 45.0003 29.4849C43.9709 31.6908 42.3533 33.4555 40.5886 35.5143C40.1474 35.9555 39.7062 36.3967 39.265 36.9849C38.9709 37.2791 38.8238 37.5732 38.5297 37.8673L34.1179 43.1615C33.8238 43.4556 33.6768 43.7497 33.3826 44.0438C32.2062 45.3673 31.0297 46.6909 29.7061 47.5733C29.5591 47.7203 29.412 47.7203 29.265 47.8674C28.8238 48.0144 28.3826 48.1615 27.9414 48.1615C26.4708 48.1615 25.0002 47.4262 23.9708 46.838L23.3826 46.5438C22.3532 45.9556 21.0296 45.2203 20.7355 44.485C20.5884 44.0438 20.4414 43.4556 20.2943 43.0144C20.1473 42.2791 20.1473 41.5438 20.0002 40.9556C19.8531 39.3379 19.7061 37.7202 19.559 36.2496C19.412 33.7496 19.2649 31.3967 19.2649 29.0437C19.2649 28.3084 19.2649 27.5731 19.2649 26.6908C19.2649 24.926 19.2649 23.3084 19.412 21.6907C19.412 21.3966 19.412 21.2496 19.412 20.9554V20.8084C19.412 19.7789 19.559 17.7201 20.1473 17.2789C21.7649 15.8083 24.412 14.4848 26.912 13.8965C27.2061 13.8965 27.5002 13.7495 27.5002 13.7495C27.7944 13.7495 28.2355 14.0436 29.5591 15.073C29.8532 15.3672 30.1473 15.5142 30.4414 15.8083C31.3238 16.3966 32.0591 17.1319 32.9415 17.7201C33.0885 17.8672 33.3826 18.0142 33.5297 18.1613C33.6768 18.3084 33.6768 18.3083 33.8238 18.4554C35.8827 20.0731 38.0886 21.8378 40.1474 23.6025C40.5886 23.8966 41.0298 24.3378 41.618 24.779C41.7651 24.9261 42.0592 25.0731 42.2062 25.2202C43.3827 26.1025 44.8533 27.279 45.4415 28.3084C45.4415 27.8672 45.5886 28.0143 45.5886 28.1614Z" fill="url(#paint5_linear_2228_956)"/>
<path id="Vector_14" d="M19.2649 26.2494C19.2649 26.9847 19.2649 27.72 19.2649 28.6023C19.412 29.3376 19.7061 30.0729 20.1473 30.6612C21.0296 31.5435 22.2061 31.6906 23.5296 31.6906C30.2944 32.1318 37.2062 31.9847 43.5298 29.9259C44.4121 29.6318 45.2945 29.1906 45.4415 28.4553C45.4415 28.3082 45.4415 28.0141 45.4415 27.72C44.7062 26.5435 42.9415 25.0729 41.618 24.1905C41.0298 23.7493 40.5886 23.4552 40.1474 23.0141C37.9415 21.2493 35.7356 19.3376 33.5297 17.7199C32.2062 16.6905 30.8826 15.6611 29.5591 14.6316C28.2355 13.6022 27.9414 13.3081 27.5002 13.3081C27.3532 13.3081 27.2061 13.3081 26.912 13.4552C24.412 14.0434 21.7649 15.3669 20.1473 16.8375C19.559 17.4258 19.412 19.3376 19.412 20.367V20.514C19.2649 22.2787 19.2649 24.3376 19.2649 26.2494Z" fill="url(#paint6_linear_2228_956)"/>
<path id="Vector_15" opacity="0.1" d="M42.2058 24.485C42.0587 24.485 42.0587 24.485 41.9117 24.485H41.7646C40.5881 24.9261 39.5587 25.3673 38.6763 26.2497C38.2352 26.6909 37.794 27.1321 37.6469 27.7203C37.4998 28.0144 37.4999 28.1615 37.3528 28.4556C36.9116 29.1909 36.3234 30.0732 35.8822 30.8085C34.8528 32.4262 33.9704 34.0439 33.0881 35.8086C32.3528 37.1321 31.6175 38.4556 31.0292 39.7792C30.2939 41.3968 29.1175 43.3086 29.1175 45.0733C29.1175 45.8086 29.4116 46.5439 29.8528 47.1322C29.7057 47.2792 29.5586 47.2792 29.4116 47.4263C28.9704 47.5734 28.5292 47.7204 28.088 47.7204C26.6174 47.7204 25.1468 46.9851 24.1174 46.3969L23.5292 46.1028C22.4998 45.5145 21.1762 44.7792 20.8821 44.0439C20.735 43.6027 20.588 43.0145 20.4409 42.5733C21.0292 42.8674 21.9115 42.7204 22.4998 42.2792C23.2351 41.691 23.8233 40.8086 24.2645 39.9262L31.1763 26.6909C32.3528 24.3379 33.6763 21.8379 32.941 19.3379C32.7939 18.6026 32.4998 17.8673 31.9116 17.4261C31.6175 17.132 31.4704 16.8379 31.1763 16.3967C31.0292 15.9555 30.7351 15.5143 30.5881 15.2202C31.4704 15.8085 32.2057 16.5437 33.0881 17.132C33.2351 17.279 33.5292 17.4261 33.6763 17.5731C33.8234 17.7202 33.8234 17.7202 33.9704 17.8673C36.0292 19.4849 38.2351 21.2496 40.294 23.0144C40.7352 23.3085 41.1763 23.7496 41.7646 24.1908C41.7646 24.1908 41.9116 24.3379 42.2058 24.485Z" fill="url(#paint7_linear_2228_956)"/>
</g>
</g>
<defs>
<linearGradient id="paint0_linear_2228_956" x1="42.5221" y1="-10.2347" x2="35.2706" y2="11.0573" gradientUnits="userSpaceOnUse">
<stop stop-color="#CF5C2B"/>
<stop offset="1" stop-color="#59173E"/>
</linearGradient>
<linearGradient id="paint1_linear_2228_956" x1="42.128" y1="-5.19036" x2="-4.30639" y2="136.649" gradientUnits="userSpaceOnUse">
<stop stop-color="#CF5C2B"/>
<stop offset="1" stop-color="#59173E"/>
</linearGradient>
<linearGradient id="paint2_linear_2228_956" x1="35.802" y1="15.8408" x2="-0.646098" y2="119.005" gradientUnits="userSpaceOnUse">
<stop stop-color="#CF5C2B"/>
<stop offset="1" stop-color="#59173E"/>
</linearGradient>
<linearGradient id="paint3_linear_2228_956" x1="36.1558" y1="73.3016" x2="33.4835" y2="42.7176" gradientUnits="userSpaceOnUse">
<stop stop-color="#CF5C2B"/>
<stop offset="1" stop-color="#59173E"/>
</linearGradient>
<linearGradient id="paint4_linear_2228_956" x1="31.9186" y1="8.06123" x2="32.4047" y2="26.6265" gradientUnits="userSpaceOnUse">
<stop stop-color="#FFCA2B"/>
<stop offset="1" stop-color="#D15B24"/>
</linearGradient>
<linearGradient id="paint5_linear_2228_956" x1="32.6651" y1="52.0861" x2="32.4707" y2="32.6407" gradientUnits="userSpaceOnUse">
<stop stop-color="#FFCE3B"/>
<stop offset="1" stop-color="#CC6923"/>
</linearGradient>
<linearGradient id="paint6_linear_2228_956" x1="32.3228" y1="39.5317" x2="32.3228" y2="16.7672" gradientUnits="userSpaceOnUse">
<stop stop-color="#FFCE3B"/>
<stop offset="1" stop-color="#CC6923"/>
</linearGradient>
<linearGradient id="paint7_linear_2228_956" x1="45.828" y1="1.69985" x2="20.8489" y2="49.2282" gradientUnits="userSpaceOnUse">
<stop stop-color="#F2DE6D"/>
<stop offset="1"/>
</linearGradient>
</defs>
</svg>
