<svg width="57" height="56" viewBox="0 0 57 56" fill="none" xmlns="http://www.w3.org/2000/svg">
<g id="Group">
<g id="Group_2">
<g id="Group_3">
<path id="Vector" d="M11.7496 38.6666C11.7591 38.6551 11.7694 38.6438 11.7802 38.633C11.8726 38.5407 11.9995 38.491 12.13 38.4965L49.5399 40.038C49.6566 40.0427 49.7672 40.0909 49.8498 40.1732C49.8824 40.2056 50.6555 40.9752 51.3539 41.8667C52.4509 43.2674 52.7457 44.1828 52.2813 44.7482C52.2695 44.7627 52.2569 44.7768 52.2441 44.7906C52.1568 44.8842 52.0346 44.9379 51.9067 44.9391C51.7784 44.9401 51.6555 44.8887 51.5664 44.7966C50.9426 44.1512 49.9273 43.6541 49.0694 43.3184C49.8091 44.0466 50.9719 45.0016 52.6504 45.8904C52.8404 45.9908 52.9372 46.2078 52.8853 46.4161C52.8682 46.4854 52.8361 46.5476 52.7929 46.6C52.7061 46.7057 52.5751 46.7707 52.4316 46.7709C50.93 46.7707 49.6794 46.1423 48.4699 45.5346C48.023 45.3103 47.5696 45.0824 47.0961 44.8809C47.7357 45.9203 47.9452 47.0863 47.9585 47.1636C47.9821 47.3009 47.9432 47.4374 47.8589 47.54C47.8162 47.5917 47.7623 47.6349 47.6988 47.6652C47.5096 47.7553 47.2835 47.7084 47.146 47.5506C47.1415 47.5455 46.8394 47.2183 46.1084 46.7953C46.5925 47.3122 46.9041 47.7237 46.9352 47.7651C47.0655 47.9385 47.0584 48.1771 46.9227 48.3422C46.9149 48.3515 46.9071 48.3606 46.8986 48.3693C46.74 48.5347 46.4853 48.5605 46.2964 48.4308C45.0287 47.5591 43.4162 47.396 42.4737 47.3849C43.2031 48.7171 43.5587 50.4014 43.5763 50.4859C43.6062 50.63 43.5662 50.7725 43.4794 50.8779C43.4147 50.9569 43.3236 51.0151 43.2159 51.038C42.9645 51.0917 42.7168 50.9321 42.6619 50.6809C42.6498 50.6317 42.3545 49.5063 40.6417 49.0456C41.2429 49.9735 42.9256 51.1338 44.189 51.7935C44.4038 51.9057 44.4974 52.1636 44.4043 52.3875C44.3863 52.4309 44.3624 52.47 44.3338 52.5047C44.2154 52.6489 44.0177 52.7124 43.8312 52.6535C43.7592 52.6306 42.094 52.0974 37.8092 50.3607C38.0819 51.2839 39.3315 51.9293 39.3466 51.9371C39.5732 52.052 39.6668 52.3273 39.5566 52.5564C39.5401 52.591 39.5195 52.6228 39.4962 52.6512C39.3649 52.8108 39.1391 52.869 38.9426 52.7799C38.8834 52.7531 37.6679 52.19 35.9365 50.5196C35.8517 51.7055 35.4015 53.1864 34.6668 54.0805C34.2658 54.5683 33.8086 54.8534 33.3077 54.9279C33.1323 54.954 32.9574 54.8787 32.8561 54.7334C32.7544 54.5881 32.7439 54.3979 32.8285 54.2423C33.2641 53.4411 33.3501 52.6971 33.0917 51.9677C32.6859 50.8222 31.5158 49.9881 30.7375 49.5409C30.874 50.4423 31.2072 51.8859 31.9996 52.854C32.1281 53.0108 32.1407 53.2326 32.031 53.4032C32.0212 53.4185 32.0104 53.4331 31.9991 53.4472C31.8842 53.5872 31.6965 53.6494 31.5181 53.602C30.0655 53.2163 28.7446 51.5484 27.9471 50.3299C27.9233 51.8655 28.1115 53.9121 29.0158 54.8511C29.1546 54.9951 29.1862 55.2112 29.0949 55.3888C29.0793 55.419 29.061 55.4468 29.0402 55.4722C28.9378 55.5969 28.7757 55.6619 28.6116 55.6378C25.1141 55.1264 23.867 51.9933 23.4271 50.0428C23.1762 50.494 22.857 50.9966 22.4718 51.4651C21.6709 52.4397 20.7984 53.0085 19.8787 53.1556C19.687 53.1862 19.4961 53.0951 19.3995 52.9265C19.3029 52.7579 19.3204 52.5473 19.4439 52.3973C20.0052 51.7142 20.0792 50.3394 19.9716 48.9931C19.7939 49.7178 19.5395 50.4671 19.1749 51.1225C19.1611 51.1471 19.1452 51.1705 19.1274 51.192C19.0657 51.2671 18.9817 51.3218 18.8863 51.3471C18.7636 51.3797 18.6329 51.3609 18.5242 51.2952C18.3629 51.1976 18.2196 51.0422 18.0921 50.8425C18.279 51.6289 18.5413 52.471 18.9013 53.3566C18.9663 53.5162 18.9378 53.6976 18.8296 53.8293C18.8216 53.8391 18.8128 53.8489 18.8037 53.8582C18.6748 53.9912 18.4793 54.0353 18.3054 53.9708C15.3735 52.8818 13.9922 48.6928 13.468 46.5621C13.1435 47.1039 12.7089 47.7674 12.2076 48.3779C11.2593 49.5319 10.3487 50.1477 9.50103 50.2084C9.28875 50.2235 9.093 50.0935 9.02475 49.892C8.97206 49.7359 9.00594 49.5678 9.10657 49.4453C9.13593 49.4097 9.17105 49.3778 9.21145 49.3512C9.41545 49.2175 9.61093 49.0376 9.79285 48.8162C11.919 46.2292 11.6465 39.0553 11.6435 38.9833C11.6389 38.8674 11.6771 38.755 11.7496 38.6666Z" fill="url(#paint0_linear_2228_2376)"/>
<path id="Vector_2" d="M13.5038 45.6439C13.5038 45.6439 14.578 52.302 18.1199 53.6174C16.0598 48.5517 17.2321 44.9603 17.2321 44.9603C17.2321 44.9603 17.2658 50.3922 18.4062 51.0825C19.4847 49.1438 19.509 46.2178 19.509 46.2178C19.509 46.2178 20.7998 51.1134 19.4044 52.8114C21.7586 52.4348 23.1091 48.7358 23.1091 48.7358C23.1091 48.7358 23.3317 54.523 27.9345 55.1963C26.3037 53.5027 26.8784 49.056 26.8784 49.056C26.8784 49.056 28.7355 52.707 30.7788 53.2496C29.4923 51.678 29.3771 49.0053 29.3771 49.0053C29.3771 49.0053 34.2288 50.9985 32.3178 54.5142C34.0391 54.2588 34.8125 50.4248 34.3372 49.4864C36.4315 51.7801 37.986 52.4847 37.986 52.4847C37.986 52.4847 35.9113 51.4409 36.2476 49.8951C40.8727 51.7849 42.6353 52.3442 42.6353 52.3442C42.6353 52.3442 38.7784 50.3305 38.7674 48.7213C41.4343 49.046 41.8139 50.7804 41.8139 50.7804C41.8139 50.7804 41.3427 48.5082 40.3889 47.289C40.3889 47.289 43.1348 46.9766 45.123 48.3434C45.123 48.3434 43.3835 46.0248 41.6737 45.5089C44.9242 46.3131 46.0233 47.572 46.0233 47.572C46.0233 47.572 45.5643 44.9099 43.8721 44.3062C46.5753 44.7365 48.2771 46.6682 50.7659 46.6687C47.4207 44.8976 46.1492 42.8749 46.1492 42.8749C46.1492 42.8749 48.9597 43.5657 50.257 44.9079C51.0032 44.1079 47.9675 41.0948 47.9675 41.0948L12.0078 39.6133C12.0078 39.6133 12.3598 48.0771 9.46759 49.9737C11.4517 49.8319 13.5038 45.6439 13.5038 45.6439Z" fill="#318063"/>
</g>
<path id="Vector_3" d="M44.5352 41.4879C44.6419 41.529 44.7606 41.5298 44.8685 41.4889C44.936 41.4633 51.6631 38.9502 54.7847 40.1542C55.0519 40.2573 55.2843 40.3863 55.4753 40.5378C55.5129 40.5677 55.5543 40.591 55.5975 40.6078C55.745 40.6648 55.9154 40.644 56.0471 40.5449C56.217 40.4169 56.279 40.19 56.1979 39.9933C55.874 39.2079 55.003 38.5369 53.6093 37.9997C52.8724 37.7154 52.1058 37.5116 51.4895 37.3739C53.3474 36.2065 56.8895 33.578 57.0014 30.4525C57.0079 30.2673 56.9046 30.0956 56.7377 30.0149C56.7259 30.0093 56.7141 30.0041 56.7023 29.9995C56.5435 29.9383 56.3623 29.9682 56.2311 30.0801C55.5036 30.7004 54.7867 31.2138 54.0989 31.6386C54.2485 31.4547 54.3508 31.27 54.393 31.0861C54.4214 30.9624 54.398 30.8324 54.3285 30.7262C54.2746 30.6437 54.1963 30.5809 54.1054 30.5461C54.0793 30.536 54.0522 30.5282 54.0246 30.523C53.2884 30.3832 52.4982 30.3769 51.7552 30.4362C52.9991 29.9112 54.3267 29.5496 55.15 29.867C55.3312 29.9371 55.537 29.8874 55.6665 29.7428C55.796 29.5981 55.8226 29.3883 55.7332 29.2159C55.3044 28.3891 54.4901 27.7397 53.313 27.286C52.7472 27.0677 52.1695 26.9226 51.6624 26.8263C53.3755 25.7955 55.9576 23.6264 55.3438 20.1455C55.3149 19.9819 55.2022 19.8487 55.0517 19.7907C55.0211 19.7789 54.989 19.7701 54.9556 19.7649C54.7581 19.734 54.5629 19.8321 54.4698 20.009C53.8628 21.1626 51.9791 21.9848 50.5136 22.4448C51.4197 21.3048 52.5878 19.5265 52.4972 18.0262C52.4862 17.842 52.368 17.6834 52.1991 17.6184C52.1823 17.6119 52.1653 17.6064 52.1474 17.6019C51.951 17.5512 51.7445 17.633 51.636 17.8044C50.9663 18.861 49.7009 19.6311 48.8879 20.0442C49.0678 19.1649 49.4916 17.7918 50.4514 17.0466C51.0627 16.572 51.7959 16.4197 52.6935 16.5813C52.8679 16.6127 53.045 16.5427 53.1509 16.4007C53.2568 16.2586 53.2733 16.0689 53.1935 15.9106C52.9655 15.4584 52.5512 15.1139 51.9617 14.8868C50.882 14.4705 49.3345 14.5089 48.182 14.801C49.2234 12.6322 49.3757 11.3013 49.3824 11.2365C49.4053 11.022 49.279 10.8255 49.0861 10.751C49.0514 10.7377 49.0148 10.7281 48.9764 10.7234C48.724 10.6913 48.4924 10.8672 48.4553 11.1188C48.4527 11.1351 48.2332 12.524 47.4425 13.0731C47.7439 8.45923 47.7265 6.71101 47.7255 6.63548C47.723 6.44 47.6006 6.27238 47.4265 6.20513C47.3845 6.18907 47.3399 6.17878 47.2929 6.17527C47.0513 6.1572 46.8358 6.32683 46.7969 6.56622C46.567 7.97318 45.9944 9.9352 45.3033 10.7976C45.1994 8.99597 46.2092 8.37291 46.2207 8.36614C46.4418 8.2349 46.5156 7.94959 46.3856 7.72777C46.3299 7.63292 46.2461 7.56467 46.1507 7.52803C46.0232 7.47885 45.8757 7.48588 45.7482 7.5594C45.6737 7.60256 44.1874 8.46927 43.1521 9.58014C42.8668 8.68005 42.5148 7.09568 42.9423 5.62348C43.0061 5.40366 42.9012 5.16979 42.6947 5.07118C42.6836 5.06591 42.6726 5.06114 42.6613 5.05688C42.4618 4.98009 42.2332 5.04835 42.1095 5.22626C42.0801 5.26866 41.7873 5.69373 41.449 6.31554C41.6212 5.48847 41.8372 5.09803 41.8415 5.0905C41.9446 4.90958 41.9165 4.68073 41.7713 4.53143C41.7226 4.48149 41.6651 4.44411 41.6031 4.42027C41.4799 4.37284 41.3391 4.37836 41.2169 4.4436C41.1477 4.48049 40.1066 5.04609 39.3212 5.9798C39.3633 5.46715 39.4371 4.96504 39.5096 4.4702C39.7061 3.13099 39.9096 1.74611 39.4378 0.320579C39.3927 0.184324 39.2895 0.0804392 39.1621 0.031257C39.0988 0.00691682 39.0296 -0.00412492 38.9583 0.00139554C38.7443 0.017706 38.5689 0.177798 38.533 0.389583C38.2171 2.26252 37.6761 3.66622 37.2174 4.59768C37.2663 3.67777 37.4191 2.55762 37.8354 1.76267C37.8949 1.649 37.9052 1.51626 37.8638 1.39481C37.8224 1.27361 37.733 1.17449 37.6166 1.12105C37.5993 1.11302 37.582 1.10574 37.5647 1.09921C36.8821 0.835988 36.1057 1.40359 35.1211 2.88558C34.4943 3.82883 34.0067 4.80469 33.9862 4.8456C33.9342 4.95023 33.9232 5.07043 33.9553 5.18259L44.2537 41.18C44.2896 41.3057 44.3764 41.4103 44.4933 41.469C44.5074 41.4763 44.5212 41.4826 44.5352 41.4879Z" fill="url(#paint1_linear_2228_2376)"/>
<path id="Vector_4" d="M36.3384 3.64695C35.4722 5.30057 35.7 8.18551 35.7 8.18551C35.7 8.18551 37.2204 6.34268 37.85 2.61035C38.6319 4.97311 37.3331 7.19584 37.7747 9.89735C37.8156 8.1012 40.1984 6.82848 40.1984 6.82848C40.1984 6.82848 39.349 8.26756 39.6075 11.6062C39.5598 9.82107 41.2137 7.44075 41.2137 7.44075C40.541 9.75783 41.701 12.2664 41.701 12.2664C42.5587 10.9776 44.5674 9.8158 44.5674 9.8158C44.5674 9.8158 43.0402 10.7217 43.5704 13.3554C45.0946 12.839 45.7937 8.54459 45.7937 8.54459C45.7937 8.54459 45.8167 10.3937 45.477 15.3784C47.0503 15.2118 47.3888 12.914 47.3888 12.914C47.3888 12.914 47.2084 14.6113 45.6895 17.3204C46.4313 16.5741 50.3137 16.1031 51.0976 17.6566C47.1592 16.9477 46.7926 22.1801 46.7926 22.1801C46.7926 22.1801 49.2936 21.2306 50.3809 19.5152C50.5084 21.6256 47.6265 24.5363 47.6265 24.5363C47.6265 24.5363 52.0282 23.6839 53.1231 21.6032C53.931 26.1844 48.5072 28.2152 48.5072 28.2152C48.5072 28.2152 52.4433 28.3344 53.5411 30.4508C51.4905 29.6601 47.2491 32.4246 47.2491 32.4246C47.2491 32.4246 50.0344 31.5277 52.2137 31.942C51.9169 33.2418 46.7713 34.9815 46.7713 34.9815C46.7713 34.9815 50.549 34.9652 54.7102 31.4168C54.575 35.1926 48.5923 38.3056 48.5923 38.3056C48.5923 38.3056 53.2134 38.9369 53.9717 40.7752C51.2619 38.626 43.3381 41.6211 43.3381 41.6211L33.4389 7.01919C33.4384 7.01919 35.3445 3.19025 36.3384 3.64695Z" fill="#318063"/>
</g>
<g id="Group_4">
<g id="Group_5">
<path id="Vector_5" d="M0.341178 23.436C0.113891 24.7997 0.000244141 26.1635 0.000244141 27.5272C0.113888 28.7773 0.113891 30.141 0.909396 31.2774C1.25033 31.732 1.59126 32.0729 2.04583 32.4138C2.38676 32.6411 2.7277 32.7548 2.95498 32.8684C3.06863 32.8684 3.06862 32.9821 3.06862 33.0957C3.06862 33.323 2.72769 33.4366 2.61405 33.5503C2.38676 33.7776 2.15948 34.0049 2.04583 34.2321C1.93219 34.8004 2.15948 35.2549 2.38677 35.7095C2.95498 36.7323 3.5232 37.7551 4.09142 38.7779C6.70522 42.7554 9.65996 46.8466 14.3193 48.6649C16.9331 49.6877 19.6606 49.8013 22.5017 49.9149C25.4564 50.0286 28.2975 50.0286 31.2522 49.9149C33.866 49.8013 36.7071 49.574 38.98 48.2103C40.571 47.1875 41.9347 45.7101 42.9575 44.2328C44.6622 41.7326 46.1395 39.1188 47.276 36.3914C47.3896 36.1641 47.5033 35.9368 47.6169 35.5959C47.6169 35.4822 47.6169 35.3686 47.6169 35.1413C47.6169 34.914 47.5033 34.5731 47.276 34.4594C47.7306 34.2322 48.1851 33.7776 48.4124 33.323C48.5261 33.0957 48.6397 32.7548 48.7533 32.5275C48.867 32.3002 48.867 32.0729 48.9806 31.8456C49.3216 31.391 49.4352 30.8228 49.5489 30.2546C49.8898 29.0045 50.2307 27.7545 50.3444 26.5044C50.3444 26.2771 50.458 26.1635 50.458 25.9362C50.5716 25.1407 50.6853 24.3452 50.5716 23.5496C50.5716 23.436 50.5716 23.436 50.5716 23.3223C50.458 26.2771 49.4352 29.0045 48.1851 31.732C46.935 34.6867 45.344 37.5278 43.5257 40.2552C42.5029 41.7326 41.2529 43.3236 39.5482 44.3464C37.389 45.7101 34.5479 45.9374 31.9341 46.0511C29.093 46.1647 26.1383 46.1647 23.2972 46.0511C20.5697 45.9374 17.7286 45.8238 15.2285 44.801C12.501 43.6645 10.1145 41.7326 8.29623 39.4597C6.25064 37.0732 4.65962 34.2322 3.2959 31.6184C1.13667 27.5272 0.341171 23.3224 1.36396 19.0039C1.02303 20.4813 0.682109 22.0723 0.341178 23.436Z" fill="url(#paint2_linear_2228_2376)"/>
<path id="Vector_6" d="M50.6852 22.9813C50.6852 23.0949 50.6852 23.0949 50.6852 23.2085C50.5716 24.6859 50.3443 26.0496 49.8897 27.4134C49.4351 28.7771 48.8669 30.2545 48.2987 31.6182C47.9578 32.5273 47.5032 33.4365 47.0486 34.232C47.0486 34.232 47.0486 34.3456 46.935 34.3456C45.9122 36.2776 44.8894 38.2095 43.6393 40.0278C43.1847 40.7097 42.7302 41.2779 42.162 41.9597C41.4801 42.7552 40.5709 43.5508 39.6618 44.119C37.5026 45.4827 34.6615 45.71 32.0477 45.8236C29.2066 45.9373 26.2519 45.9373 23.4108 45.8236C20.6833 45.71 17.8422 45.5963 15.3421 44.5735C12.501 43.4371 10.2281 41.5051 8.40981 39.2323C7.04609 37.6413 5.90966 35.823 4.88687 34.0047C4.54594 33.5501 4.31866 32.9819 4.09137 32.5273C3.86408 32.1864 3.75044 31.8455 3.52315 31.5045C3.29586 31.05 3.06858 30.709 2.95493 30.2544C2.04579 28.3225 1.47756 26.2769 1.25027 24.345C1.13663 23.2085 1.13663 22.0721 1.25027 20.822C1.36392 20.1402 1.47756 19.5719 1.59121 18.8901C1.81849 18.0946 2.04579 17.4127 2.38672 16.6172C2.50036 16.3899 2.50036 16.1626 2.614 16.049C2.84129 15.3671 3.18222 14.6853 3.52315 14.117C3.6368 13.7761 3.86408 13.4352 3.97772 13.0943C4.31865 12.4124 4.65958 11.6169 5.11416 10.935C5.34144 10.4805 5.68237 10.0259 5.90966 9.5713C6.25059 9.00308 6.59152 8.43486 7.04609 7.86665C7.04609 7.86665 7.0461 7.75303 7.15974 7.75303C7.38703 7.4121 7.50067 7.1848 7.72796 6.95751C7.95525 6.73022 8.06888 6.50293 8.18253 6.27564L8.29618 6.16199C9.77354 4.23005 11.5918 2.41175 14.092 1.61625C19.4332 -0.202048 25.1154 -0.202028 30.9112 0.252547C33.2978 0.36619 35.9116 0.820751 37.7299 2.29812C41.5937 5.36649 45.003 8.88944 47.6168 12.9806L47.7305 13.0943C48.7533 14.6853 49.5488 16.3899 50.117 18.2082C50.2307 18.5491 50.3443 18.8901 50.3443 19.231C50.4579 19.4583 50.4579 19.6856 50.4579 20.0265C50.5716 20.7084 50.6852 21.5039 50.6852 22.1857C50.6852 22.2994 50.6852 22.6403 50.6852 22.9813Z" fill="url(#paint3_linear_2228_2376)"/>
<path id="Vector_7" d="M50.6852 22.9812C50.6852 23.0948 50.6852 23.0948 50.6852 23.2084C50.5716 24.6858 50.3443 26.0495 49.8897 27.4133C48.4123 27.2996 46.935 27.186 45.344 27.186C39.3209 26.845 33.2978 26.5041 27.2746 26.1632C18.4104 25.7086 9.77353 25.3677 1.02298 24.3449C0.909333 23.2084 0.909333 22.072 1.02298 20.822C9.77353 20.1401 18.4104 20.3674 27.2746 20.5947C27.3883 20.5947 27.5019 20.5947 27.6156 20.5947C27.161 20.481 26.5928 20.481 26.1382 20.3674C18.4104 19.2309 10.0008 18.4354 2.3867 15.9353C2.61399 15.2534 2.95491 14.5716 3.29584 14.0033C3.40948 13.6624 3.63678 13.3215 3.75042 12.9805C4.09136 12.2987 4.43229 11.5032 4.88686 10.8213C5.11415 10.3667 5.45507 9.91217 5.68236 9.4576C12.9556 9.23031 20.5697 10.2531 27.6156 10.935C33.4114 11.3895 39.2072 11.8441 45.003 12.4123C45.7985 12.5259 46.7077 12.6396 47.5032 12.7533L47.6168 12.8669C48.6396 14.4579 49.4351 16.1626 50.0034 17.9809C50.117 18.3218 50.2306 18.6627 50.2306 19.0037C50.3443 19.2309 50.3443 19.4582 50.3443 19.7991C50.4579 20.481 50.5716 21.2765 50.5716 21.9584C50.6852 22.2993 50.6852 22.6402 50.6852 22.9812ZM46.935 34.4592C44.4348 34.2319 41.821 33.891 39.3209 33.891C34.2069 33.7773 29.2066 33.55 24.0926 33.2091C18.9787 32.9818 13.9783 32.6409 8.86439 32.6409C7.38702 32.6409 5.68236 32.5272 3.97771 32.5272C4.205 32.9818 4.54592 33.55 4.77321 34.0046C5.796 35.8229 6.93244 37.6412 8.29617 39.2322C13.2965 40.1413 18.1832 40.7096 23.2971 41.0505C28.4111 41.3914 33.4114 41.7323 38.5253 41.9596C39.7754 41.9596 40.9119 42.0733 42.162 41.9596C42.7302 41.3914 43.1847 40.7096 43.6393 40.0277C44.8894 38.3231 46.0258 36.3911 46.935 34.4592Z" fill="url(#paint4_linear_2228_2376)"/>
<path id="Vector_8" d="M47.6169 12.7531C48.6397 14.3441 49.4352 16.0488 50.0034 17.8671C49.8898 17.6398 49.7761 17.4125 49.6625 17.1852C49.2079 16.3897 48.7533 15.5942 48.2988 14.9123C47.3896 13.435 46.3668 12.0712 45.344 10.8212C44.8894 10.2529 44.3212 9.79837 44.094 9.11651C43.8667 8.54829 43.4121 8.09373 42.9575 7.63915C41.4801 6.16179 39.8891 5.02536 38.2981 3.77528C37.389 2.97977 36.4798 2.18425 35.457 1.72967C34.4342 1.2751 33.2978 1.04781 32.1614 1.04781C31.7068 1.04781 31.3659 1.04781 30.9113 1.04781C30.7976 1.04781 30.5704 1.04781 30.4567 1.04781C30.2294 0.934163 30.1158 0.934191 29.8885 0.934191C29.3203 0.820547 28.8657 0.82054 28.2975 0.82054C23.8654 0.479609 19.4333 0.82054 15.1148 1.95698C14.3193 2.18426 13.5238 2.41153 12.842 2.75246C12.7283 2.8661 12.6147 2.86612 12.501 2.97976C11.8192 3.43434 11.251 3.8889 10.6827 4.45711C10.3418 4.6844 10.1145 4.91169 9.7736 5.13898C9.65996 5.25263 9.5463 5.25264 9.31901 5.36628C9.09173 5.47993 8.97809 5.70721 8.86445 5.9345C8.52352 6.38908 8.40987 6.84363 8.18258 7.2982C8.18258 7.41185 8.06895 7.41186 8.06895 7.5255C7.9553 7.75279 7.95529 8.09374 7.95529 8.32102C7.61436 8.32102 7.27343 8.20737 7.04614 8.09372C7.04614 8.09372 7.04615 7.98007 7.15979 7.98007C7.38708 7.63914 7.50072 7.41187 7.72801 7.18459C7.9553 6.9573 8.06893 6.73001 8.18258 6.50272L8.29623 6.38907C9.77359 4.45713 11.5919 2.63883 14.092 1.84333C19.4333 0.0250281 25.1155 0.0250142 30.9113 0.479588C33.2978 0.593232 35.9116 1.04783 37.7299 2.52519C41.5938 5.139 45.0031 8.77559 47.6169 12.7531Z" fill="#EB924D"/>
<path id="Vector_9" d="M50.4581 19.6857C50.4581 19.7993 50.4581 19.7993 50.4581 19.9129C50.4581 19.572 50.3445 19.2311 50.3445 18.8901C50.3445 19.2311 50.3445 19.4584 50.4581 19.6857Z" fill="#EB924D"/>
<path id="Vector_10" d="M47.1623 21.845C47.7305 21.845 48.4124 21.845 48.9806 22.1859C49.8898 22.6405 50.3443 23.6633 50.5716 24.6861C50.6853 23.7769 50.6853 22.9814 50.5716 22.0723C50.5716 21.9586 50.5716 21.7313 50.458 21.6177C50.3443 21.5041 50.2307 21.3904 50.0034 21.2768C48.6397 20.7086 47.1623 21.0495 45.6849 21.2768C44.7758 21.3904 43.8666 21.5041 43.0711 21.6177C42.162 21.7313 41.2528 21.7313 40.3437 21.7313C40.23 21.7313 40.0028 21.7313 39.7755 21.7313C39.5482 21.845 39.7755 21.845 39.8891 21.845C40.3437 21.845 40.7983 21.845 41.2528 21.845C42.162 21.845 43.0711 21.845 43.9803 21.845C44.8894 21.845 45.7986 21.845 46.7077 21.845C46.935 21.845 47.0487 21.845 47.1623 21.845Z" fill="#EB924D"/>
<path id="Vector_11" d="M43.6395 40.1415C42.6167 41.6189 41.3666 43.2098 39.6619 44.2326C37.5027 45.5964 34.6616 45.8236 32.0478 45.9373C29.2067 46.0509 26.252 46.0509 23.4109 45.9373C20.6835 45.8236 17.8424 45.71 15.3422 44.6872C12.5011 43.5508 10.2283 41.6188 8.40996 39.346C7.04624 37.6413 5.90981 35.823 4.77337 34.0047C4.3188 33.2092 3.86423 32.3001 3.40965 31.5046C3.18237 31.05 2.95508 30.7091 2.84144 30.2545C1.13678 26.5042 0.568568 22.754 1.47772 18.8901C1.705 18.0946 1.93229 17.4128 2.27322 16.6173C2.50051 16.1627 2.61415 15.7081 2.84144 15.1399C3.06872 14.5717 3.40965 14.0035 3.63694 13.4352C3.86422 12.867 4.09151 12.2988 4.43244 11.7306C5.00066 10.7078 5.68252 9.685 6.47803 8.77586C6.59167 8.66221 6.70532 8.4349 6.93261 8.4349C7.04626 8.32126 7.27354 8.32129 7.38718 8.32129C7.9554 8.32129 8.52361 8.4349 9.09183 8.4349C10.9101 8.54855 12.7284 9.23042 14.5467 9.11677C15.4559 9.11677 16.365 8.88951 17.2742 8.88951C17.7287 8.88951 18.1833 8.88951 18.6379 8.88951C18.8652 8.88951 19.0925 8.88951 19.3198 8.88951C19.4334 8.88951 19.547 8.88951 19.6607 8.88951C19.7743 8.88951 19.7743 8.88951 19.888 8.88951H20.0016C19.547 9.00315 19.0925 9.11677 18.7515 9.11677C18.297 9.23042 17.8424 9.23043 17.3878 9.34407C16.4787 9.45772 15.5695 9.45772 14.774 9.45772C13.8649 9.45772 12.9557 9.45772 12.0466 9.45772C11.2511 9.45772 10.4556 9.45772 9.66005 9.34407C8.86455 9.34407 8.06903 9.34405 7.27353 9.57134C6.25074 9.91227 5.45524 10.7078 4.88702 11.5033C4.88702 11.5033 4.88702 11.6169 4.77337 11.6169C4.43244 12.1852 4.20515 12.7534 3.86422 13.3216C3.75058 13.6625 3.63695 13.8898 3.5233 14.2307C3.5233 14.3444 3.40965 14.3444 3.296 14.458C3.18236 14.5717 3.18236 14.799 3.06872 14.9126C2.95508 15.2535 2.7278 15.5945 2.61415 16.049C2.38687 16.6173 2.15957 17.2991 1.93228 17.8673C1.81864 18.4356 1.47771 19.0038 1.59136 19.572C1.59136 20.0266 1.59136 20.4811 1.47772 20.9357C1.47772 21.0493 1.36407 22.4131 1.47772 22.4131C2.38687 22.4131 3.18237 22.6404 4.09152 22.9813C3.75059 22.9813 3.40965 23.095 3.06872 23.095C2.72779 23.2086 2.27322 23.3222 2.04593 23.5495C1.93229 23.6632 1.93228 23.8904 1.93228 24.0041C1.81864 24.345 1.93228 24.6859 1.93228 25.1405C2.04593 26.7315 2.61415 28.2089 3.18237 29.5726C3.29601 29.9135 3.52329 30.2545 3.63694 30.5954C3.75058 30.9363 3.86422 31.1636 4.20516 31.3909C4.43244 31.5046 4.65974 31.6182 4.88702 31.6182C5.45524 31.7319 5.90982 31.9591 6.36439 32.0728C7.38719 32.3001 8.40998 32.4137 9.43277 32.4137C11.3647 32.4137 13.2966 32.0728 15.0013 32.5274C14.6604 32.5274 14.4331 32.5274 14.0921 32.641C12.2738 32.7546 10.3419 32.8683 8.52361 32.9819C7.61447 32.9819 6.70532 33.0956 5.79618 33.0956C5.56889 33.0956 5.22795 33.0956 5.11431 33.3229V33.4365C5.22795 33.7774 5.45523 34.1184 5.56887 34.4593C6.02345 35.3685 6.70531 36.1639 7.27353 36.9594C7.84175 37.755 8.52362 38.5505 9.20548 39.2323C9.54641 39.5732 9.88734 39.9142 10.2283 40.2551C10.3419 40.2551 10.3419 40.3688 10.4556 40.3688C10.7965 40.4824 11.0238 40.8233 11.2511 41.0506C11.8193 41.6188 12.5011 42.0734 13.0694 42.4144C13.9785 42.9826 15.0013 43.4371 16.0241 43.6644C18.1833 44.3463 20.3425 44.5736 22.6154 44.6872C27.1612 44.9145 31.8205 44.8009 36.3663 43.8917C37.6164 43.6644 38.7528 43.3235 39.8892 42.6416C41.7075 41.6188 43.0713 39.8005 44.2077 37.9822C44.8895 36.9594 45.6851 35.7094 45.6851 34.4593C44.7759 34.232 43.9804 34.0047 43.0713 33.7774C43.9804 33.6638 44.8896 33.5501 45.7987 33.5501C45.9124 33.5501 46.026 33.5501 46.1396 33.5501C46.2533 33.5501 46.2533 33.5501 46.3669 33.5501C46.4806 33.5501 46.5942 33.5501 46.7079 33.5501C46.7079 33.5501 47.0488 33.5501 47.0488 33.4365C46.9351 33.8911 46.7078 34.3457 46.4806 34.8002C46.3669 35.0275 46.2533 35.1412 46.1396 35.3684C45.9124 35.5957 45.7987 35.9366 45.5714 36.2776C45.3441 36.6185 45.1168 37.0731 44.8896 37.414C44.6623 38.6641 44.2077 39.4596 43.6395 40.1415Z" fill="#EB924D"/>
<path id="Vector_12" d="M38.1846 21.7311C41.3666 21.6175 44.6623 21.6175 47.8443 21.5038C48.4125 21.5038 49.0943 21.5038 49.6626 21.7311C50.2308 21.9584 50.799 22.5266 50.6854 23.0949C50.6854 23.0949 50.6854 23.0948 50.6854 22.9812C50.6854 22.6403 50.6854 22.2993 50.6854 21.8448C50.6854 21.1629 50.5717 20.3674 50.4581 19.6855C50.4581 19.7992 50.3444 19.9128 50.3444 20.0265C50.1171 20.3674 49.4353 20.3674 49.0943 20.481C48.7534 20.481 48.4125 20.5947 48.0716 20.5947C44.7759 20.9356 41.4802 21.2765 38.1846 21.7311Z" fill="url(#paint5_linear_2228_2376)"/>
<path id="Vector_13" d="M4.43256 33.0955C4.5462 33.4364 4.65985 33.6637 4.77349 34.0046C4.31892 33.2091 3.86434 32.3 3.40977 31.5045C3.18248 31.0499 2.9552 30.709 2.84155 30.2544L2.9552 30.368C3.29613 30.5953 3.52341 30.8226 3.86434 31.0499C5.00077 31.7318 6.3645 31.8454 7.61458 32.0727C8.29644 32.1863 9.09196 32.3 9.77382 32.3C12.6149 32.6409 15.456 32.8682 18.4107 33.0955C13.865 33.0955 9.09194 33.0955 4.43256 33.0955Z" fill="url(#paint6_linear_2228_2376)"/>
<path id="Vector_14" d="M47.2762 32.6411C46.0261 33.5502 44.3215 33.8912 42.7305 34.3457C44.0942 34.3457 45.5716 34.3457 46.9353 34.3457C46.708 34.573 46.708 34.9139 46.8216 35.1412C47.0489 34.4594 47.3898 33.8912 47.6171 33.2093C47.8444 32.6411 48.0717 31.9592 48.4126 31.2773C48.4126 31.5046 48.0717 31.7319 47.8444 31.9592C47.8444 32.1865 47.6171 32.4138 47.2762 32.6411Z" fill="url(#paint7_linear_2228_2376)"/>
<path id="Vector_15" d="M21.4789 9.1165C17.3877 9.79836 13.1829 9.68473 9.09177 9.23015C8.40991 9.11651 7.50076 8.88923 6.8189 9.3438C6.47797 9.57109 6.13705 9.79838 5.79611 10.0257C5.45518 10.253 5.11425 10.4802 4.88696 10.8212C5.45518 9.68472 6.13705 8.54829 6.93255 7.5255C7.15984 7.18457 7.27348 6.95727 7.50077 6.72998V6.84363C7.50077 7.29821 7.8417 7.75278 8.29627 7.98007C8.6372 8.20735 9.20541 8.32099 9.54634 8.43463C13.4102 9.23014 17.615 8.77557 21.4789 9.1165Z" fill="url(#paint8_linear_2228_2376)"/>
<path id="Vector_16" d="M1.0228 21.2764C0.909159 21.7309 1.13645 22.1855 1.47738 22.4128C1.81831 22.6401 2.27287 22.7537 2.72745 22.7537C4.31846 22.981 6.02312 23.0947 7.72778 22.981C5.90948 23.0947 3.75024 23.2083 1.93195 23.3219C1.8183 23.3219 1.70466 23.3219 1.59102 23.4356C1.36373 23.5492 1.25009 23.8902 1.25009 24.1175C1.25009 24.3447 1.36373 24.6857 1.25009 24.9129C0.909156 23.6629 0.909159 22.5264 1.0228 21.2764Z" fill="url(#paint9_linear_2228_2376)"/>
<path id="Vector_17" d="M43.0714 21.0494C42.7304 19.3447 42.1622 17.5264 41.3667 15.8218C40.6848 14.2308 39.7757 12.7534 38.6393 11.3897C37.6165 10.1396 36.1391 9.45774 34.7754 8.66223C34.2072 8.3213 33.639 7.86673 33.0707 7.63945C20.9109 2.18456 6.59177 12.7534 7.84185 25.4815C8.06913 27.6407 8.751 29.6863 9.88744 31.6182C12.9558 36.8459 18.5244 40.1415 24.5475 40.7097C26.8203 40.937 29.0932 40.8233 31.2524 40.2551C35.6845 39.2323 39.3211 36.3913 41.4804 32.4137C43.4123 29.0044 43.7532 24.686 43.0714 21.0494ZM37.6165 30.5954C36.0255 33.5502 33.298 35.5958 29.8887 36.3913C28.1841 36.7322 26.4794 36.8459 24.7747 36.7322C20.229 36.2776 16.0242 33.7775 13.7513 29.9136C12.9558 28.5499 12.3876 26.9589 12.274 25.3679C12.274 24.9133 12.1603 24.345 12.274 23.8905C12.274 23.6632 12.274 23.4359 12.274 23.2086C12.274 23.095 12.274 22.9813 12.1603 22.8677C12.0467 22.5267 12.0467 22.1858 12.1603 21.8449C12.274 21.504 12.3876 21.163 12.7285 20.9357C12.9558 20.8221 13.2967 20.7085 13.524 20.7085C14.2059 20.5948 14.8878 20.5948 15.5696 20.5948C14.7741 20.4812 13.865 20.3675 13.0695 20.2539C13.0695 20.2539 13.2967 19.2311 13.4104 19.1175C13.524 18.7765 13.7513 18.4356 13.865 18.0946C14.0922 17.5264 14.5468 17.0719 14.8878 16.5036C15.6833 15.4808 16.4788 14.6853 17.5016 13.8898C18.5243 13.0943 19.5471 12.5261 20.6836 11.9579C21.82 11.5033 23.0701 11.1624 24.2065 10.9351C25.4566 10.7078 26.7067 10.7078 27.9568 10.9351C29.0932 11.0487 30.2296 11.3897 31.2524 11.8442C31.707 12.0715 32.0479 12.4125 32.5025 12.6398C33.5253 13.208 34.6617 13.7762 35.3436 14.6853C36.1391 15.7081 36.821 16.8446 37.3892 17.981C37.9574 19.2311 38.412 20.5948 38.6393 21.9585C38.8665 23.4359 38.9802 24.9133 38.6393 26.3906C36.9346 26.5043 35.1163 26.5043 33.4117 26.5043C35.0027 26.7316 36.5937 26.8452 38.1847 27.0725C38.6393 27.0725 38.412 27.5271 38.2983 27.868C38.1847 28.0953 38.1847 28.4362 38.1847 28.6635C38.1847 28.8908 38.1847 29.1181 38.071 29.459C37.9574 29.6863 37.9574 29.7999 37.8438 30.0272C37.8438 30.1409 37.7301 30.2545 37.7301 30.2545C37.7301 30.3682 37.6165 30.5954 37.6165 30.5954Z" fill="url(#paint10_linear_2228_2376)"/>
<path id="Vector_18" d="M39.2071 34.914C40.6845 33.4366 41.7073 31.6183 42.2755 29.6864C42.8437 27.7544 43.071 25.7089 43.071 23.6633C43.071 23.3224 43.071 23.095 42.9574 22.7541C42.8437 22.4132 42.5028 22.1859 42.1619 22.1859C41.5936 22.0723 41.0254 21.845 40.3436 21.7313C41.7073 21.7313 43.2983 21.7313 44.662 21.6177C44.4347 21.7313 44.2074 21.7313 43.9801 21.845C43.8665 21.845 43.8665 21.845 43.8665 21.9586L43.7529 22.0722C43.6392 22.4132 43.7529 22.7541 43.7529 23.0951C43.7529 23.6633 43.7529 24.2315 43.7529 24.7997C43.7529 25.027 43.7529 25.3679 43.6392 25.5952C43.6392 26.1634 43.4119 26.7316 43.2983 27.4135C43.071 28.5499 42.9574 29.6864 42.6164 30.8228C42.2755 31.9592 41.8209 32.982 41.0254 33.7776C41.1391 34.0048 41.2527 34.2321 41.48 34.3458C41.2527 34.3458 40.9118 34.3457 40.6845 34.573C40.5708 34.6867 40.4572 34.8003 40.3436 34.914C40.0026 35.3686 39.548 35.7095 39.2071 36.1641C39.0935 36.2777 38.9798 36.3913 38.7526 36.505C38.4116 36.7323 38.1843 37.0732 37.957 37.3005C36.707 38.5506 35.0023 39.3461 33.2977 39.9143C33.184 39.9143 33.0704 40.0279 32.9567 40.0279C31.8203 40.3689 30.5702 40.5962 29.3201 40.7098C28.0701 40.8235 26.9336 40.8235 25.6835 40.7098C25.1153 40.7098 24.4335 40.5962 23.8652 40.4825C23.5243 40.4825 23.297 40.3689 22.9561 40.2552C22.0469 40.0279 21.0241 39.9143 20.115 39.5734C17.3876 38.6642 15.001 37.0732 12.8418 35.2549C12.6145 35.0276 12.2736 34.8003 12.0463 34.573C11.9327 34.4594 11.819 34.3458 11.7054 34.2321C11.5917 34.1185 11.5917 34.0048 11.4781 34.0048C11.2508 33.8912 11.0235 33.7775 10.7962 33.6639C10.4553 33.5503 10.0007 33.5503 9.54614 33.5503C9.54614 33.4366 9.77343 33.323 9.88708 33.323C10.228 33.2093 10.4553 33.2093 10.7962 33.2093C10.9099 33.2093 11.1372 33.2093 11.2508 33.2093C11.3644 33.2093 11.4781 33.2093 11.5917 33.2093C12.1599 33.2093 12.8418 33.4366 13.41 33.4366C13.751 33.4366 14.2055 33.5502 14.5465 33.4366C13.6373 33.5502 12.7282 33.5503 11.819 33.6639C12.1599 34.4594 12.9555 35.0276 13.751 35.3686C13.8646 35.4822 14.0919 35.4822 14.2055 35.5959C14.3192 35.5959 14.3192 35.7095 14.4328 35.7095C14.5465 35.8231 14.6601 35.9368 14.7738 36.0504C15.001 36.2777 15.2283 36.3914 15.5693 36.6186C16.0238 36.9596 16.5921 37.3005 17.1603 37.6414C17.9558 38.096 18.6376 38.5506 19.5468 38.7779C20.7969 39.2324 22.1606 39.5734 23.5243 39.687C25.9108 39.9143 28.2973 40.1416 30.6839 39.8006C31.0248 39.8006 31.2521 39.687 31.4794 39.687C33.4113 39.2324 35.116 38.3233 36.707 37.1869C37.6161 36.505 38.4116 35.7095 39.2071 34.914Z" fill="#EB924D"/>
<path id="Vector_19" d="M9.88714 31.0501C9.54621 30.2546 9.20529 29.3454 8.86436 28.5499C8.63707 28.0953 8.52342 27.6407 8.29614 27.1862C8.18249 26.7316 8.06885 26.3907 8.06885 25.9361C7.95521 25.4815 7.9552 25.1406 7.84155 24.686C7.9552 25.1406 7.9552 25.4815 7.9552 25.9361C7.9552 26.3907 8.06884 26.7316 8.18249 27.1862C8.29613 27.9817 8.52342 28.8908 8.7507 29.6863C8.86435 30.0273 8.978 30.4819 9.09164 30.8228C9.09164 30.9364 9.20529 31.1637 9.20529 31.2773C9.20529 31.391 9.20529 31.5047 9.20529 31.6183C9.20529 31.9592 9.43256 32.3001 9.54621 32.5274C9.88714 32.5274 10.1144 32.5274 10.4554 32.5274L10.2281 32.3001C10.1144 32.1865 10.1144 32.0729 10.0008 31.9592C10.0008 31.5046 9.88714 31.2774 9.88714 31.0501Z" fill="#EB924D"/>
<path id="Vector_20" d="M15.5693 9.91209C17.1603 10.0257 18.865 9.91208 20.5696 9.79844C20.115 9.68479 19.7741 9.68478 19.3195 9.57114C18.865 9.57114 18.524 9.45752 18.0694 9.45752C17.6149 9.45752 17.2739 9.45752 16.8194 9.45752C16.3648 9.45752 16.0239 9.45752 15.5693 9.45752C15.1147 9.45752 14.7738 9.45752 14.3192 9.45752H14.2056C14.2056 9.57116 14.2056 9.57114 14.2056 9.68479C14.2056 9.79843 14.3192 9.79844 14.4329 9.79844C14.6601 9.79844 14.8874 9.79844 15.2284 9.79844C15.342 9.91208 15.4556 9.91209 15.5693 9.91209Z" fill="#EB924D"/>
</g>
<g id="Group_6">
<path id="Vector_21" d="M41.1393 25.8222C41.1393 26.3905 41.1394 27.0723 41.0257 27.6406C40.7984 29.2316 40.3438 30.5953 39.5483 31.959C36.3663 37.4139 28.8658 40.0277 22.6154 38.323C18.6379 37.3003 15.3423 34.5728 13.2967 30.9362C13.183 30.7089 12.9557 30.368 12.8421 30.1407C11.8193 28.0951 11.2511 25.9359 11.1375 23.663C11.1375 22.7539 11.1374 21.9584 11.2511 21.0492C11.2511 20.8219 11.3647 20.5946 11.3647 20.3673C11.4784 19.6855 11.7057 19.0036 11.933 18.4354C12.9557 15.708 14.8877 13.4351 17.1606 11.7305C17.8424 11.1622 18.6379 10.594 19.4334 10.1394C23.9792 7.41197 29.5477 8.2075 33.7525 11.0486C36.5936 12.9805 38.5255 15.5943 39.7756 18.5491C39.8893 18.7764 40.0029 19.1173 40.1166 19.3446C40.1166 19.4582 40.1166 19.4582 40.2302 19.5719C40.3438 19.7991 40.3439 20.0264 40.4575 20.2537C40.5711 20.5947 40.6848 20.8219 40.6848 21.1629C40.6848 21.2765 40.7984 21.3901 40.7984 21.5038C40.7984 21.6174 40.9121 21.7311 40.9121 21.8447C40.9121 21.9584 40.9121 22.072 41.0257 22.1856C41.0257 22.2993 41.1393 22.5266 41.1393 22.7539C41.1393 22.8675 41.1394 23.0948 41.253 23.2084V23.3221C41.253 23.5494 41.253 23.663 41.3666 23.8903V24.0039C41.0257 24.5722 41.0257 25.1404 41.1393 25.8222Z" fill="url(#paint11_linear_2228_2376)"/>
<path id="Vector_22" d="M37.5028 31.1636C37.0482 31.8455 36.48 32.4137 35.9118 33.0956L35.7981 33.2092C36.1391 32.8683 36.3663 32.3 36.5936 31.8455C36.8209 31.3909 37.0482 30.9363 37.2755 30.3681C37.5028 29.9135 37.7301 29.3453 37.8437 28.8907C37.9574 28.5498 37.8437 28.2089 37.8437 27.8679C37.8437 27.4134 37.9574 27.0724 38.071 26.7315C38.071 26.5042 38.071 26.1633 38.071 25.936C38.071 25.3678 38.071 24.7996 37.9573 24.2314C37.8437 23.0949 37.6164 21.9585 37.1618 20.9357C37.1618 20.822 37.1619 20.8221 37.0482 20.7084C35.7981 17.4127 32.957 14.5716 29.5477 13.7761C27.0476 13.2079 24.3201 13.7761 21.9336 14.7989C21.5927 14.9126 21.3654 15.0262 21.0245 15.2535C19.888 15.8217 18.7516 16.5036 17.7288 17.2991C16.706 18.0946 15.7968 18.8901 14.6604 19.6856C14.2058 20.0266 13.6376 20.2538 12.9558 20.1402C12.3875 20.0265 12.1603 19.4583 11.8193 19.0038C11.7057 18.8901 11.7057 18.6628 11.592 18.5492C12.6148 15.8217 14.5468 13.5488 16.8197 11.8442C17.5015 11.276 18.297 10.7078 19.0925 10.2532C23.6383 7.52574 29.2068 8.32127 33.4116 11.1624C34.4344 11.8442 35.3436 12.6397 36.1391 13.4352C36.8209 14.1171 37.3891 14.9126 37.9573 15.7081C39.5484 18.0946 40.6848 21.3903 40.9121 24.2314C41.0257 25.0269 40.9121 25.936 40.5712 26.6179C40.4575 26.9588 40.2302 27.1861 39.8893 27.4134C39.7757 27.527 39.7756 27.527 39.662 27.6407C38.9801 28.6635 38.4119 29.7999 37.7301 30.8227C37.7301 30.8227 37.6164 31.05 37.5028 31.1636Z" fill="#FFDF80"/>
<path id="Vector_23" d="M38.639 25.8222C38.639 26.3904 38.639 26.845 38.5254 27.4132C38.4117 28.7769 37.9572 29.9134 37.2753 31.0498C34.7751 35.2546 29.3202 37.5275 24.3199 36.732C23.8654 36.6183 23.4108 36.6183 23.0699 36.5047C20.2288 35.8228 17.7286 34.0045 16.024 31.618C15.683 31.1634 15.4557 30.8225 15.2284 30.3679C15.1148 30.1406 15.0012 29.9133 14.8875 29.6861C13.9784 27.9814 13.5238 26.0495 13.4102 24.2312C13.4102 23.5493 13.4101 22.7538 13.5238 22.0719C13.5238 21.8446 13.6374 21.6174 13.6374 21.5037C14.2057 18.4353 16.1376 16.0488 18.5241 14.1169C19.206 13.6623 19.7742 13.2078 20.4561 12.7532C21.4788 12.185 22.5016 11.7304 23.5244 11.5031C26.5928 10.8212 29.8885 11.7304 32.5023 13.435C34.8888 15.0261 36.5934 17.1853 37.5026 19.6854C37.6162 19.9127 37.7299 20.14 37.7299 20.3673C37.7299 20.3673 37.7299 20.4809 37.8435 20.4809C37.8435 20.7082 37.9572 20.8219 37.9572 21.0491C37.9572 21.1628 38.0708 21.3901 38.0708 21.5037C38.0708 21.6174 38.0708 21.6174 38.1845 21.731C38.1845 21.8447 38.1844 21.9583 38.2981 22.0719C38.2981 22.1856 38.2981 22.2992 38.4117 22.4129C38.4117 22.5265 38.4117 22.6402 38.5254 22.7538C38.5254 22.8674 38.5254 23.0947 38.639 23.2084C38.639 23.322 38.639 23.4357 38.7527 23.5493V23.663C38.7527 23.7766 38.7527 24.0039 38.8663 24.1175C38.8663 24.1175 38.8663 24.1175 38.8663 24.2312C38.8663 24.4585 38.8663 24.7994 38.98 25.0267C38.639 25.254 38.639 25.5949 38.639 25.8222Z" fill="url(#paint12_linear_2228_2376)"/>
<path id="Vector_24" d="M38.639 25.0266C34.5479 27.9814 27.8429 29.2315 22.0471 28.095C18.6378 27.4132 15.5694 25.9358 13.4102 24.0039C13.4102 23.322 13.4101 22.5265 13.5238 21.8446C13.5238 21.6174 13.6374 21.3901 13.6374 21.2764C14.2057 18.208 16.1376 15.8215 18.5241 13.8896C19.206 13.435 19.7742 12.9804 20.4561 12.5259C24.2063 10.253 28.8657 10.8212 32.5023 13.2077C34.8888 14.7987 36.5934 16.958 37.5026 19.4581C37.6162 19.6854 37.7299 19.9127 37.7299 20.14C37.7299 20.14 37.7299 20.2536 37.8435 20.2536C37.8435 20.4809 37.9572 20.5946 37.9572 20.8219C38.0708 21.0491 38.0708 21.3901 38.1845 21.6173C38.1845 21.731 38.1844 21.8446 38.2981 21.9583C38.2981 22.0719 38.2981 22.1856 38.4117 22.2992C38.4117 22.4129 38.4117 22.5265 38.5254 22.6401C38.5254 22.7538 38.5254 22.9811 38.639 23.0947C38.639 23.2084 38.639 23.322 38.7527 23.4356V23.5493C38.7527 23.6629 38.7527 23.8902 38.8663 24.0039C38.8663 24.0039 38.8663 24.0039 38.8663 24.1175C38.639 24.4584 38.639 24.6857 38.639 25.0266Z" fill="url(#paint13_linear_2228_2376)"/>
<path id="Vector_25" opacity="0.1" d="M38.0707 21.5036C37.957 21.2763 37.8434 20.9354 37.7297 20.5945C37.6161 20.1399 37.5024 19.6853 37.1615 19.458C36.8206 19.1171 36.366 19.0034 36.0251 19.2307C35.7978 19.3444 35.5705 19.5717 35.4569 19.7989C34.775 20.9354 34.2068 22.1855 33.5249 23.3219C31.0248 27.4131 27.7291 31.0497 23.8652 33.7771C23.5243 34.0044 23.0697 34.3453 22.8424 34.6863C22.7288 34.9135 22.6151 35.2545 22.7288 35.5954C22.8424 36.05 23.4106 36.2773 23.7516 36.3909C23.9789 36.5046 24.2061 36.5046 24.4334 36.6182C23.9789 36.5046 23.5243 36.5046 23.1833 36.3909C20.3423 35.709 17.8421 33.8908 16.1375 31.5042C16.4784 31.6179 16.8193 31.6179 17.1603 31.6179C17.8421 31.5043 18.2967 31.0497 18.7513 30.5951C21.8196 27.6403 24.6607 24.4583 26.7063 20.7081C27.2745 19.5717 27.8427 18.3216 28.07 17.0715C28.2973 15.8214 28.07 14.3441 27.3882 13.3213C27.1609 13.094 27.0472 12.7531 26.7063 12.6394C26.5927 12.6394 26.479 12.5258 26.3654 12.5258C26.0244 12.4121 25.7972 12.1848 25.4562 11.9575C24.888 11.7303 24.2062 11.503 23.6379 11.3893C26.7063 10.7075 30.002 11.6166 32.6158 13.3213C35.0023 14.9123 36.7069 17.0715 37.6161 19.5717C37.7297 19.799 37.8434 20.0263 37.8434 20.2535C37.8434 20.2535 37.8434 20.3672 37.957 20.3672C37.957 20.5944 38.0707 20.7081 38.0707 20.9354C37.957 21.1627 38.0707 21.39 38.0707 21.5036Z" fill="url(#paint14_linear_2228_2376)"/>
</g>
</g>
<g id="Group_7">
<g id="Group_8">
<path id="Vector_26" d="M31.934 27.9816C30.5703 30.3681 27.9565 32.3 25.2291 31.8455C24.3199 31.7318 23.5244 31.3909 22.7289 31.05C21.2515 30.3681 19.8878 28.3225 19.206 26.9588C18.5241 25.4814 18.4104 23.8904 19.206 22.4131C20.3424 20.3675 22.047 18.6628 24.4336 17.8673C26.8201 17.0718 29.2066 18.5492 30.7976 20.2538C32.5023 22.0721 33.1841 24.345 32.6159 26.6179C32.3886 27.0724 32.275 27.527 31.934 27.9816ZM26.4792 28.5498C27.0474 28.4362 27.6156 28.0953 28.0702 27.6407C28.752 26.9588 29.4339 26.0496 29.5475 25.0269C29.5475 24.4586 29.4339 24.0041 29.2066 23.4359C28.752 22.5267 27.8429 21.7312 26.9337 21.163C26.5928 20.9357 26.1382 20.7084 25.6837 20.7084C25.57 20.7084 25.4564 20.7084 25.3427 20.8221C23.6381 21.3903 22.6153 22.754 22.047 23.7768C21.7061 24.345 21.9334 25.0268 22.1607 25.4814C22.388 26.0496 22.7289 26.5042 22.9562 26.9588C23.0698 27.0725 23.0698 27.1861 23.1835 27.2997C23.6381 27.9816 24.2063 28.2089 25.0018 28.5498C25.2291 28.6635 25.4564 28.6635 25.6837 28.6635C25.7973 28.6635 25.9109 28.6635 26.0246 28.6635C26.2519 28.6635 26.3655 28.6635 26.4792 28.5498Z" fill="#FFDF80"/>
<path id="Vector_27" d="M19.6606 27.0723C19.0924 27.0723 18.5242 27.1859 17.956 27.1859C17.2741 27.1859 16.7059 27.1859 16.024 27.1859C15.7967 27.1859 15.6831 27.1859 15.5694 26.845C15.4558 25.5949 15.4558 24.2312 15.4558 22.8674C15.4558 22.6402 15.4558 22.2992 15.4558 22.0719C16.7059 21.9583 17.956 22.0719 19.206 22.2992C19.547 23.8902 19.6606 25.5949 19.6606 27.0723Z" fill="#FFDF80"/>
<path id="Vector_28" d="M19.7746 21.731C18.8654 20.8218 17.9563 19.799 17.2744 18.7762C18.2972 17.5262 19.5473 16.5034 20.911 15.5942C21.7065 16.5034 22.502 17.5262 23.0702 18.6626C22.0475 19.799 20.7974 20.8218 19.7746 21.731Z" fill="#FFDF80"/>
<path id="Vector_29" d="M23.6382 18.549C23.5245 17.2989 23.4109 15.9351 23.4109 14.6851H23.7518C23.9791 14.6851 24.2064 14.6851 24.32 14.6851C25.3428 14.6851 26.3656 14.7987 27.3884 14.7987C27.6157 14.7987 27.843 14.7987 28.0703 14.7987C28.1839 14.7987 28.1839 14.7987 28.2975 14.7987C28.2975 14.7987 28.4112 14.7987 28.5248 14.7987V15.026C28.5248 15.1397 28.5248 15.3669 28.5248 15.4806C28.5248 16.0488 28.5248 16.7307 28.4112 17.2989C28.4112 17.5262 28.4112 17.6398 28.2975 17.8671L28.1839 18.4353C26.8202 18.549 25.1155 18.549 23.6382 18.549Z" fill="#FFDF80"/>
<path id="Vector_30" d="M28.866 18.776C29.7751 17.8669 30.6843 17.0714 31.7071 16.2759C32.9571 17.4123 34.0936 18.6624 35.1164 20.0261C34.2072 20.8216 33.1844 21.5035 32.1616 22.0717C31.0252 21.1625 29.8888 19.9125 28.866 18.776Z" fill="#FFDF80"/>
<path id="Vector_31" d="M32.1615 22.8675C33.4116 22.7538 34.7753 22.7538 36.0254 22.8675C36.0254 22.8675 36.0254 23.7766 36.0254 23.8902C36.0254 25.254 35.9117 26.504 35.5708 27.8678H35.1162C35.0026 27.8678 34.8889 27.8678 34.7753 27.9814C34.6617 27.9814 31.8206 27.8678 31.8206 27.5269C31.9342 26.0495 32.0478 24.4585 32.1615 22.8675Z" fill="#FFDF80"/>
<path id="Vector_32" d="M31.5933 27.8677C32.5024 28.8905 33.4116 29.9133 34.2071 30.9361C33.8662 31.3906 33.4116 31.7316 33.0707 32.1862C32.8434 32.4134 30.6841 34.459 30.5705 34.3454C29.6613 33.3226 28.9795 32.1862 28.2976 31.0497C29.3204 29.9133 30.4568 28.7768 31.5933 27.8677Z" fill="#FFDF80"/>
<path id="Vector_33" d="M19.8883 27.186C18.7519 27.8679 17.6154 28.5498 16.7063 29.3453C17.5018 30.8227 18.6382 32.0727 19.8883 33.3228C20.9111 32.641 21.9339 31.8454 22.7294 30.9363C21.8203 29.6862 20.7975 28.3225 19.8883 27.186Z" fill="#FFDF80"/>
<path id="Vector_34" d="M23.0701 31.0498C22.9564 32.4135 22.8428 33.6636 22.8428 35.0273C23.7519 35.2546 24.5474 35.3683 25.4566 35.4819C25.6838 35.4819 27.8431 35.4819 27.8431 35.3682C27.9567 34.1182 27.8431 32.7545 27.6158 31.5044C26.2521 31.2771 24.6611 31.0498 23.0701 31.0498Z" fill="#FFDF80"/>
</g>
<g id="Group_9">
<path id="Vector_35" d="M32.2751 27.4132C30.9114 29.7998 28.2976 31.7317 25.5701 31.2771C24.661 31.1635 23.8655 30.8226 23.07 30.4816C21.5926 29.7998 20.2289 27.7542 19.547 26.3905C18.8652 24.9131 18.7515 23.3221 19.547 21.8447C20.6835 19.7991 22.3881 18.0945 24.7746 17.299C27.1611 16.5035 29.5476 17.9808 31.1387 19.6855C32.8433 21.5038 33.5252 23.7766 32.957 26.0495C32.7297 26.3904 32.616 26.845 32.2751 27.4132ZM26.8202 27.9815C27.3884 27.8678 27.9566 27.5269 28.4112 27.0723C29.0931 26.3905 29.7749 25.4813 29.8886 24.4585C29.8886 23.8903 29.7749 23.4357 29.5477 22.8675C29.0931 21.9583 28.1839 21.1628 27.2748 20.5946C26.9339 20.3673 26.4793 20.1401 26.0247 20.1401C25.9111 20.1401 25.7974 20.1401 25.6838 20.2537C23.9791 20.8219 22.9563 22.1856 22.3881 23.2084C22.0472 23.7766 22.2745 24.4585 22.5018 24.9131C22.729 25.4813 23.07 25.9359 23.2973 26.3905C23.4109 26.5041 23.4109 26.6177 23.5245 26.7314C23.9791 27.4132 24.5473 27.6405 25.3428 27.9815C25.5701 28.0951 25.7974 28.0951 26.0247 28.0951C26.1383 28.0951 26.252 28.0951 26.3656 28.0951C26.5929 27.9815 26.7066 27.9815 26.8202 27.9815Z" fill="#A04623"/>
<path id="Vector_36" d="M20.0017 26.3906C19.4335 26.3906 18.8653 26.5043 18.297 26.5043C17.6152 26.5043 17.047 26.5043 16.3651 26.5043C16.1378 26.5043 16.0242 26.5042 15.9105 26.1633C15.7969 24.9132 15.7969 23.5495 15.7969 22.1858C15.7969 21.9585 15.7969 21.6176 15.7969 21.3903C17.047 21.2766 18.297 21.3903 19.5471 21.6176C19.888 23.2086 20.0017 24.9132 20.0017 26.3906Z" fill="#A04623"/>
<path id="Vector_37" d="M20.1154 21.1631C19.2062 20.254 18.2971 19.2312 17.6152 18.2084C18.638 16.9583 19.8881 15.9355 21.2518 15.0264C22.0473 15.9355 22.8428 16.9583 23.4111 18.0947C22.3883 19.1175 21.2518 20.254 20.1154 21.1631Z" fill="#A04623"/>
<path id="Vector_38" d="M23.9793 17.8673C23.8656 16.6172 23.752 15.2535 23.752 14.0034H24.0929C24.3202 14.0034 24.5475 14.0034 24.6611 14.0034C25.6839 14.0034 26.7067 14.117 27.7295 14.117C27.9568 14.117 28.1841 14.117 28.4113 14.117C28.525 14.117 28.525 14.117 28.6386 14.117C28.6386 14.117 28.7523 14.117 28.8659 14.117V14.3443C28.8659 14.458 28.8659 14.6853 28.8659 14.7989C28.8659 15.3671 28.8659 16.049 28.7523 16.6172C28.7523 16.8445 28.7523 16.9581 28.6386 17.1854L28.525 17.7536C27.1613 17.9809 25.4566 17.9809 23.9793 17.8673Z" fill="#A04623"/>
<path id="Vector_39" d="M29.2068 18.2081C30.1159 17.299 31.0251 16.5035 32.0479 15.708C33.298 16.8444 34.4344 18.0945 35.4572 19.4582C34.548 20.2537 33.5253 20.9356 32.5025 21.5038C31.366 20.481 30.2296 19.3446 29.2068 18.2081Z" fill="#A04623"/>
<path id="Vector_40" d="M32.5023 22.2996C33.7524 22.1859 35.1161 22.1859 36.3662 22.2996C36.3662 22.2996 36.3662 23.2087 36.3662 23.3224C36.3662 24.6861 36.2525 25.9362 35.9116 27.2999H35.457C35.3434 27.2999 35.2297 27.2999 35.1161 27.4135C35.0025 27.4135 32.1614 27.2999 32.1614 26.959C32.275 25.368 32.3887 23.777 32.5023 22.2996Z" fill="#A04623"/>
<path id="Vector_41" d="M31.9343 27.186C32.8435 28.2088 33.7526 29.2316 34.5481 30.2544C34.2072 30.709 33.7526 31.0499 33.4117 31.5045C33.1844 31.7318 31.0252 33.7774 30.9115 33.6637C30.0024 32.6409 29.3205 31.5045 28.6387 30.3681C29.6615 29.3453 30.7979 28.2088 31.9343 27.186Z" fill="#A04623"/>
<path id="Vector_42" d="M20.2291 26.5044C19.0927 27.1863 17.9563 27.8681 17.0471 28.6636C17.8426 30.141 18.9791 31.3911 20.2291 32.6411C21.2519 31.9593 22.2747 31.1638 23.0702 30.2546C22.1611 29.0045 21.1383 27.6408 20.2291 26.5044Z" fill="#A04623"/>
<path id="Vector_43" d="M23.5249 30.3682C23.4112 31.7319 23.2976 32.982 23.2976 34.3457C24.2068 34.573 25.0023 34.6866 25.9114 34.8003C26.1387 34.8003 28.2979 34.8002 28.2979 34.6866C28.4116 33.4365 28.2979 32.0728 28.0706 30.8227C26.5933 30.5954 25.0023 30.4818 23.5249 30.3682Z" fill="#A04623"/>
</g>
</g>
</g>
<defs>
<linearGradient id="paint0_linear_2228_2376" x1="68.6344" y1="47.069" x2="-3.79993" y2="47.069" gradientUnits="userSpaceOnUse">
<stop offset="2.7e-07" stop-color="#95D543"/>
<stop offset="0.2613" stop-color="#72B74E"/>
<stop offset="0.5762" stop-color="#4F9959"/>
<stop offset="0.8338" stop-color="#398760"/>
<stop offset="1" stop-color="#318063"/>
</linearGradient>
<linearGradient id="paint1_linear_2228_2376" x1="68.6343" y1="20.7599" x2="-3.79983" y2="20.7599" gradientUnits="userSpaceOnUse">
<stop offset="2.7e-07" stop-color="#95D543"/>
<stop offset="0.2613" stop-color="#72B74E"/>
<stop offset="0.5762" stop-color="#4F9959"/>
<stop offset="0.8338" stop-color="#398760"/>
<stop offset="1" stop-color="#318063"/>
</linearGradient>
<linearGradient id="paint2_linear_2228_2376" x1="25.0984" y1="-1.55682" x2="25.3496" y2="22.7974" gradientUnits="userSpaceOnUse">
<stop stop-color="#CF5C2B"/>
<stop offset="1" stop-color="#59173E"/>
</linearGradient>
<linearGradient id="paint3_linear_2228_2376" x1="43.3499" y1="-9.56036" x2="-0.504507" y2="71.7879" gradientUnits="userSpaceOnUse">
<stop stop-color="#CF5C2B"/>
<stop offset="1" stop-color="#59173E"/>
</linearGradient>
<linearGradient id="paint4_linear_2228_2376" x1="38.4169" y1="-0.40995" x2="-5.43749" y2="80.9382" gradientUnits="userSpaceOnUse">
<stop stop-color="#CF5C2B"/>
<stop offset="1" stop-color="#59173E"/>
</linearGradient>
<linearGradient id="paint5_linear_2228_2376" x1="44.1693" y1="-1.75331" x2="44.4204" y2="22.6007" gradientUnits="userSpaceOnUse">
<stop stop-color="#CF5C2B"/>
<stop offset="1" stop-color="#59173E"/>
</linearGradient>
<linearGradient id="paint6_linear_2228_2376" x1="10.3162" y1="-1.40397" x2="10.5673" y2="22.9499" gradientUnits="userSpaceOnUse">
<stop stop-color="#CF5C2B"/>
<stop offset="1" stop-color="#59173E"/>
</linearGradient>
<linearGradient id="paint7_linear_2228_2376" x1="45.3165" y1="-1.76503" x2="45.5676" y2="22.5891" gradientUnits="userSpaceOnUse">
<stop stop-color="#CF5C2B"/>
<stop offset="1" stop-color="#59173E"/>
</linearGradient>
<linearGradient id="paint8_linear_2228_2376" x1="23.454" y1="-7.80324" x2="16.8023" y2="3.75807" gradientUnits="userSpaceOnUse">
<stop stop-color="#CF5C2B"/>
<stop offset="1" stop-color="#59173E"/>
</linearGradient>
<linearGradient id="paint9_linear_2228_2376" x1="8.95274" y1="4.8211" x2="4.26602" y2="22.48" gradientUnits="userSpaceOnUse">
<stop stop-color="#CF5C2B"/>
<stop offset="1" stop-color="#59173E"/>
</linearGradient>
<linearGradient id="paint10_linear_2228_2376" x1="27.1099" y1="71.3858" x2="25.6318" y2="24.7186" gradientUnits="userSpaceOnUse">
<stop stop-color="#CF5C2B"/>
<stop offset="1" stop-color="#59173E"/>
</linearGradient>
<linearGradient id="paint11_linear_2228_2376" x1="27.9228" y1="4.21871" x2="25.1669" y2="33.664" gradientUnits="userSpaceOnUse">
<stop stop-color="#FFCA2B"/>
<stop offset="1" stop-color="#D15B24"/>
</linearGradient>
<linearGradient id="paint12_linear_2228_2376" x1="25.0185" y1="44.0397" x2="26.0341" y2="24.4535" gradientUnits="userSpaceOnUse">
<stop stop-color="#FFCE3B"/>
<stop offset="1" stop-color="#CC6923"/>
</linearGradient>
<linearGradient id="paint13_linear_2228_2376" x1="25.6273" y1="32.5893" x2="26.6428" y2="9.9574" gradientUnits="userSpaceOnUse">
<stop stop-color="#FFCE3B"/>
<stop offset="1" stop-color="#CC6923"/>
</linearGradient>
<linearGradient id="paint14_linear_2228_2376" x1="43.7298" y1="4.42024" x2="10.6522" y2="37.111" gradientUnits="userSpaceOnUse">
<stop stop-color="#F2DE6D"/>
<stop offset="1"/>
</linearGradient>
</defs>
</svg>
